<?xml version="1.0" encoding="utf-8"?>
<!-- Generator: Adobe Illustrator 25.0.0, SVG Export Plug-In . SVG Version: 6.00 Build 0)  -->
<svg version="1.1"
	 id="Layer_1" inkscape:output_extension="org.inkscape.output.svg.inkscape" xmlns:cc="http://creativecommons.org/ns#" xmlns:dc="http://purl.org/dc/elements/1.1/" xmlns:inkscape="http://www.inkscape.org/namespaces/inkscape" xmlns:rdf="http://www.w3.org/1999/02/22-rdf-syntax-ns#" xmlns:sodipodi="http://sodipodi.sourceforge.net/DTD/sodipodi-0.dtd" xmlns:svg="http://www.w3.org/2000/svg"
	 xmlns="http://www.w3.org/2000/svg" xmlns:xlink="http://www.w3.org/1999/xlink" x="0px" y="0px" viewBox="0 0 874.1 781"
	 style="enable-background:new 0 0 874.1 781;" xml:space="preserve">
<style type="text/css">
	.st0{fill:#FFFFFF;}
	.st1{fill:#E7A908;}
	.st2{fill:#007F55;}
	.st3{fill:#E32739;}
	.st4{fill:#FEE011;}
	.st5{fill:#F57215;}
	.st6{fill:#1C418C;}
</style>
<g id="Group" inkscape:groupmode="layer" inkscape:label="Layer 1">
	<path class="st0" d="M868.7,531.1c-1.1-3.7-4.4-19.6-3.6-26.5c3.8-35.7-0.1-71.7-11.8-107c-9.9-29.9-25.6-60.1-46.7-89.7
		c-38-53.5-86.7-95.7-118.9-123.7c-0.6-0.5-1.2-1-1.7-1.5l18-4.1l10.4-2.4l-3-10.2l-19.1-65l-3.9-13.3L677,95.6
		c-0.2,0.1-10.5,7.3-21.1,14.5V89.9v-10h-10h-68.4c-8-7.2-31.8-28.2-68.6-57C489.4,7.7,462,0,427.4,0c-21.5,0-41.4,2.9-54.6,4.8
		c-5.3,0.8-9.9,1.4-12.2,1.6l-0.1,0l-0.1,0c-0.3,0-0.6,0-0.9,0c-2.5,0-6.1-0.5-10.7-1.1c-8.5-1.1-20.2-2.6-35.7-2.6
		c-6.2,0-12.7,0.2-19.1,0.7c-15.8,1.2-29.8,5.4-41.4,12.3c-10.5,6.3-19,14.7-25.2,24.9c-9.6,16-12.8,36-8.7,52.4
		c-25.2,17.8-62.4,45.8-93,72.4c-20.1,17.4-35.7,32.6-46.3,45.3c-14.8,17.6-20.5,30.7-18.2,41.4c4.2,19,6.6,33.1-1.2,42
		c-2.1,2.4-3.7,5.6-6.6,11.2c-5.1,10-14.6,28.6-36.5,61.5c-8.9,13.3-14.3,25.8-16.1,37.2C-1,414.9,0.4,424.7,5,433.2
		c7.8,14.5,23,22,35.5,24.7c-2.3,7.6-3.6,17.7-3.9,25.3c-0.7,14.7,1.3,22.1,3.1,25.8c-1.9,2.9-4,7-5,12.2
		c-1.6,8.7,0.6,17.7,6.4,26.8c6.9,10.6,4.6,15.9,1.1,24.1c-1.7,4-3.6,8.5-4.2,13.7c-2.6,23.8,2.2,42.6,14.2,56
		c13.8,15.4,36.2,22.8,68.6,22.8c14.5,0,28.7-1.5,40.1-2.6c4.7-0.5,8.9-0.9,12.4-1.2c1.7,11.5,4.6,25.7,9.6,39.5
		c3.9,10.9,8.6,18.8,12.6,25.7c3.7,6.4,6.7,11.5,7.9,16.9C211,776,227.9,781,237.3,781c2.3,0,4.7-0.3,7.1-0.9
		c38.2-9.3,77-24.9,102.8-36.3c30.4-13.4,58.7-28.2,78.7-41c17,5.7,51,9.4,76.3,9.4c6.7,0,12.7-0.3,17.7-0.8
		c1.8-0.2,3.5-0.3,5.1-0.3c9.4,0,14.9,2.9,20.8,6.1c5.1,2.7,10.8,5.7,18,5.7c1.5,0,3-0.1,4.5-0.4l2.1-0.4l1.8-1.2
		c4.8-3.3,7.8-8.5,10.5-13.1c1.2-2.1,2.4-4.1,3.4-5.5c18.4-23.1,28.8-59.9,34.3-86.7c3.3-16.4,5.7-33.4,6.8-49.2
		c14.3,25.2,30.6,54.8,32.3,73.9l1.3,13.9l12.7-5.6c35.8-15.8,53.1-61.3,60.2-87c6.2-22.3,9.4-46,9.5-66.9
		c12.9,14.5,26,25.6,39.5,33.8c19.1,11.5,39.4,17.1,62,17.1c5,0,10.2-0.3,15.6-0.8l13.7-1.4L868.7,531.1z M844.8,535.5
		c-38.3,0-75.1-16.9-115-74.3c11.9,46.3-7,154.7-60.3,178.2c-2.8-30.7-36.2-80.1-52.1-111.3c4,41.6-9.1,130.4-39.1,168
		c-4,5.1-7,13.3-11.7,16.5c-1,0.2-1.9,0.2-2.8,0.2c-11.2,0-18.2-11.8-38.8-11.8c-1.9,0-3.9,0.1-6.1,0.3c-4.9,0.5-10.5,0.7-16.7,0.7
		c-28.3,0-66.2-4.9-77.4-10.6C386.6,717,306.1,754.8,242,770.4c-1.6,0.4-3.2,0.6-4.7,0.6c-13.4,0-20.6-15.3-23.9-30.3
		c-3.1-13.6-13.5-23.4-20.9-43.8c-6.2-17.1-9-35.3-10.2-46.2c-1-0.1-2.1-0.2-3.3-0.2c-11.3,0-34.3,4.1-58,4.1
		c-38.6,0-79-10.8-72.9-67.7c1.4-12.6,15.3-23.1,1.5-44.3c-11.5-17.8-1.3-28.1,1.4-32.3c0.5-0.7,0.9-1.1,1.3-1.3
		c-0.6-0.5-1.5-1.3-2.7-2.9c-5.4-7-3.1-36.8,1.4-47.8c1.4-3.5,0.6-9.1,0.6-9.1c-0.2,0-0.3,0-0.5,0c-19.1,0-64.7-18.6-26-76.7
		c32.7-49.2,38.2-67,42.3-71.7c11-12.6,8-30,3.4-50.7c-6.8-30.9,117.1-123.4,159.6-153c-11-25.3,1.6-78.8,64.3-83.6
		c6.7-0.5,12.8-0.7,18.4-0.7c23.6,0,38.1,3.7,46.4,3.7c0.6,0,1.1,0,1.6-0.1c9-0.4,36.1-6.4,66.3-6.4c26.1,0,54.4,4.5,75.3,20.8
		c45,35.2,70.9,59.1,70.9,59.1h72.3v39.3c12.3-8.4,36.8-25.3,36.8-25.3l19.1,65l-37.1,8.5c57,51,207.8,165.5,190.5,326.2
		c-1.1,9.8,3.5,29.6,4.2,31.2C854.5,535.3,849.6,535.5,844.8,535.5z M133.2,568.6c27.1,31.4-10.2,53.6-22,13.4
		c0.4-2.2,0.7-4.8,0.7-7.6c0-6.6-3.1-21.9-3.1-21.9c-0.5-2.1,1.4-2.5,2.9-1.9C117,553.1,124.1,564.6,133.2,568.6z M148.8,306.1
		c0.9-3.7,0.9-10.5,0-13.3c-0.9-2.8,0.9-11.1,0.9-11.1s28,9.3,35.3,13c7.3,3.7,7.3,2.8-0.9,5.6S148.8,306.1,148.8,306.1z
		 M518.6,276.3c-7,10.8-16.6,32.9-26.4,58.2c2.1,8.3,11.3,22.8,15.2,28.5c-0.7,3.1-1.4,6.2-2.1,9.2c-3.8-6.2-13-21.2-16.3-29.5
		c-5.9,15.6-11.8,32.1-17.2,47.7c3.8,13.2,12.9,32.4,21.8,42.2c-0.1,0.2-0.1,0.3-0.1,0.5c-0.9,0.7-2.1,1.9-3.9,3.6
		c-8.3-9.2-17.2-24-21.4-35.8c-8.6,25.5-15.3,47.2-17.5,56.1c-0.4,1.5-1.8,2.4-3.3,2c-1.5-0.4-2.4-1.9-2-3.4
		c2.2-9.3,9.3-33.2,18.8-61.5c-10.4,7.1-33.2,15.1-42.1,18.1c0.9-2.3,1.8-4.7,2.8-7c8.6-3.2,31.5-11.8,42-19
		c5.8-17.2,12.4-35.6,19.3-53l-32.9,16c2.1-3.5,4.2-7,6.3-10.4l30.1-14.4c10.8-26.7,22-50,31.6-61.5
		C523.9,264,520.8,272.6,518.6,276.3z M243.5,341.4c8.2,13.1,7.5,28.5-26.1,26.6c-20.8-1.1-32,2.4-47.3,9.6
		c0.7-3.6,3.9-8.5,10.6-14.6c-6.6,0.5-11.1-2.8-12.8-6.6c19.2-1.1,29.5-3,40.3-9.9C217,341,235.2,328.4,243.5,341.4z M670.3,212.4
		c-11.7-11.2-21.2-20.2-27.6-27.3c-1.3,2.3-2.8,4.3-4.5,6.2c104.4,295.5,146.7,304.9,180.7,312.4c2.6,0.6,5.1,1.1,7.5,1.8l3.1,0.9
		l0.3-3.3C842.8,376.5,730.6,269.8,670.3,212.4z M686.1,303.5l4.9-27.3c11.2,18.4,24.7,40.8,38.3,63.5l-12.5,34.8
		C707.4,354.4,697.3,331,686.1,303.5z M720.1,381.5l12.9-35.8c15.1,25.3,30.1,50.7,41.8,71l-12.6,39
		C750.2,439.1,736.4,415.4,720.1,381.5z M824.6,499.3c-1.5-0.3-3-0.7-4.6-1.1c-14-3.1-30.5-6.8-53.8-37.1l12.4-38
		c8.9,15.6,15.5,27.5,18,33.1c0.6,1.3,2.2,2,3.6,1.3c1.3-0.6,1.9-2.3,1.3-3.7c-2.7-5.9-9.5-18.3-18.8-34.5l34.5,6.5
		C823.8,449.4,826.8,474,824.6,499.3z M787.8,358.4c11.4,19.4,20.9,40,27.6,61.4L779,413c-11.6-20.2-26.3-44.9-41.1-69.7l49.4,15
		C787.5,358.4,787.6,358.4,787.8,358.4z M783.5,351.3l-50-15.2c-13.9-23.2-27.7-46-38.9-64.5l35.2,8.9
		C748.8,301.7,767.7,325.5,783.5,351.3z M690.5,264.8c-11.7-19.2-19.8-32.5-21.1-34.5c-0.9-1.3-2.5-1.7-3.8-0.8
		c-1.3,0.9-1.6,2.6-0.8,3.9c2.1,3.3,10.4,16.8,21.9,35.7l-4.4,24.8c-10.6-26.8-22.1-57.3-34.5-91.8c-0.3-1.6,0.5-2.9,2.4-1.3
		c4.8,4.7,10.2,9.9,16.4,15.8C682.8,232,702.8,251,723,273L690.5,264.8z"/>
	<path d="M227.1,246.6c-15.7,2.2-35.9-11.1-50.2-22.9c-12.3-10.1-36-14.1-53.4-6.7c-17.4,7.4-9.2,19.2-2.5,24.7c0,0,2.4,5-8.1,13
		c-12.3,9.4,3,12.5,16.6,17.4c-5.4,8.7-2.4,24.7-1,33.6c-17.9,0.9-26.9,3.2-25.1,7.2c1.5,3.3,16,5.5,23.9,3.9
		c0.7,4.5-4.1,21.3,2.9,20c7.2-1.4,13.2-10.2,15-20.8c0,0,28.1-4.5,46.6-9.1c16.2-4.1,17-10.4,8.2-14.8c-12-6-33.4-19.2-46.5-28.1
		c-6.2-4.3-1.2-9.9,1.6-17.8c2.8-7.9,20.6,1.8,26.5,5.5c5.9,3.7,32.2,17.3,49.9,10C246.7,255.4,252.3,243,227.1,246.6z M140.1,257.5
		c-4.2-1.9-17-8-15.5-10.2c1.8-2.6,12.1-5.9,20.7-7.4c8.5-1.5,3.1,6.3,1.3,10.7C144.7,255,144.3,259.4,140.1,257.5z M185,294.7
		c7.3,3.7,7.3,2.8-0.9,5.6s-35.3,5.8-35.3,5.8c0.9-3.7,0.9-10.5,0-13.3c-0.9-2.8,0.9-11.1,0.9-11.1S177.7,291,185,294.7z
		 M201.2,156.4c14.5-10.3,22.7-16.9,22.7-16.9c10-6.6,9.5-3.1,16.4,1.9c8,5.8,22.6,20.1,27.6,25.2c9.1,9.4,1.2,16.6-5.6,7.2
		c-12.6-17.3-30.1-27.4-30.1-27.4l-8.4,5.8c13.6,12.2,44.5,39.1,56.6,59.1c3.5,5.8-3.5,10.1-8.4,3.6c-16.8-22.3-56.6-56.3-56.6-56.3
		l-8.4,5.8c10,10.3,24.5,20.9,30.1,30.3c5.4,9,1.3,16.6-6.5,6.2c-9.6-12.7-22.2-22.1-22.2-22.1C199.4,171.3,186.6,166.7,201.2,156.4
		z M855.2,503.6c17.3-160.7-133.5-275.2-190.5-326.2l37.1-8.5l-19.1-65c0,0-24.5,16.9-36.8,25.3V89.9h-72.3c0,0-25.9-23.9-70.9-59.1
		c-45-35.2-124.8-15.2-141.6-14.4c-9.8,0.7-29.6-5.7-66.4-2.9c-62.7,4.8-75.3,58.3-64.3,83.6C187.9,126.7,64,219.2,70.8,250.1
		c4.6,20.7,7.6,38.1-3.4,50.7c-4.1,4.7-9.6,22.5-42.3,71.7c-39,58.6,7.7,77,26.5,76.7c0,0,0.8,5.6-0.6,9.1
		c-4.5,11-6.8,40.8-1.4,47.8c1.2,1.6,2.1,2.4,2.7,2.9c-0.4,0.2-0.8,0.6-1.3,1.3c-2.7,4.2-12.9,14.5-1.4,32.3
		c13.8,21.2-0.1,31.7-1.5,44.3c-10.3,95.7,111,61,134.2,63.8c1.2,10.9,4,29.1,10.2,46.2c7.4,20.4,17.8,30.2,20.9,43.8
		c3.7,16.6,12.1,33.7,28.6,29.7c64.1-15.6,144.6-53.4,182.8-78.8c13.6,7,66.8,12.7,94.1,9.9c27.3-2.8,33.7,13.6,47.7,11.2
		c4.7-3.2,7.7-11.4,11.7-16.5c30-37.6,43.1-126.4,39.1-168c15.9,31.2,49.3,80.6,52.1,111.3c53.3-23.5,72.2-131.9,60.3-178.2
		c45,64.6,86,77.9,129.6,73.5C858.7,533.2,854.1,513.4,855.2,503.6z M677.4,123.1l9.7,35.4l-31.9,7.7l-7-20.4
		C655.2,136.2,666.9,127.7,677.4,123.1z M633.5,101.8v33.8h-17.1l-30.3-33.8H633.5z M639.6,170c0,12.8-10.1,23.2-22.5,23.2
		s-22.5-10.4-22.5-23.2c0-12.8,10.1-23.2,22.5-23.2S639.6,157.2,639.6,170z M249.5,752.4c-16.7,4.8-20.1-10.3-25.2-24.3
		c-3.8-10.5-13-22.2-17.9-37.5c-5.7-17.7-8.9-43.3-8.9-43.3c21.1-5.3,55.9-15.5,76-29.7c14.3-10.9,23.1-26.9,27-44.5
		c-12.2,16.7-26.3,34.3-47.5,43.6c-41.7,15.8-87.8,26-146.3,22.2c-16.6-1-57.4-16-39.7-56.5c5.4-12.2,3.4-31.7-0.7-37.3
		s-11.6-18.4,0.7-31c17.7,2.8,57.5-1.4,65.7-5.6s17,4.3,16.4,9.9c-1.4,12.7,13.6,15.5,10.9-2.8c-0.8-5.6-4.1-15.5-8.2-16.9
		c-4.1-1.4-8.2-7.1-6.8-14.1c1.4-7.1-8.1-15.5-24.5-12.7c-16.4,2.8-10.9,14.1,0,12.7c10.9-1.4,12.3,7,1.4,9.8
		c-10.9,2.8-39.2,8.6-51.3,5.2c-15-4.2-10.8-26.3-4-48.8c2.6-8.5-1-10.5,14.2-11.8c25.8-2.2,67.4-14.3,80,18.3
		c5.3,13.9,17.3,15.5,8.9-7.2c-4.8-13-23.7-24.6-27.8-26c3.5-16.5-8.7-38.5-34.2-41.8c-27.7-3.6-22.9,26-9.2,30.4
		c19.7,6.2,18.2-9.4,6.9-7c-13-3.1-9.8-14.5-0.9-15c10-0.6,18.7,5.3,25.5,15.5c6.8,10.2-2,18.6-10.4,19.3
		c-25.4,2.2-53.7,7.6-68.7,7.6s-40.6-10.9-13.3-54.4c27.2-43.6,29.7-50.2,36.5-60.1c6.8-9.9,17.7-27,15-45.3
		c-2.7-18.3-13.5-31.1,21.9-63.5c35.4-32.4,98.2-84.9,124.1-97.6c21.8,16.8,84.7,36.2,65.6,179.7c-5.1,38.2-30,120,35.5,225.5
		c12.4-9.2,54.1,6.2,28.6,69.8c8.1,18.3,40.5,91.2,43,95.3C376.5,702.2,317.3,732.8,249.5,752.4z M490.8,626.6
		c-6.7,8.3-17.6,12.3-23.8,8.7c-0.7-0.4-1.4-0.8-2.1-1.2c-2.4,8.5-6.2,15.3-11.7,19.6c-6.4,5.1-14.5,6-21.9,2.4
		c-15.7-7.5-26.1-32.5-27.9-66.7c-2.5-49.5-11.2-61.2-32.2-89.5c-5.9-8-12.6-17-20.4-28.5c-37.1-54.6-34.2-96.7-16.4-203
		c12.5-74.5,1.8-95.5-11.8-122.2c-4.8-9.5-10.3-20.3-15.2-34.3c-7.5-21.7-6.3-37,3.7-45.4c13.2-11.1,35.3-3.7,46.1,3
		c1.9,1.2,4,2.6,6.2,4c18.5,12.1,46.3,30.4,75.9,6.7c13.2-10.6,24.3-14.2,34.1-11c16.5,5.3,23.5,27.7,30.4,50.1l0.4,1.2
		c2.9,9.8,8.2,17.5,15.8,21.4c11.5,5.9,25.9,0.9,31.7-2.5c2.6-1.6,5.9-0.6,7.4,2.1c1.5,2.7,0.6,5.2-2.5,6.7
		c-9.1,5.4-28.1,9.9-42,2.8c-10.3-5.3-17.5-14.5-21.4-27.2l-0.4-1.2c-6-19.7-12.2-40-23.3-43.6c-6-2-14.2,1.1-24.2,9.1
		c-35.7,28.5-68.7,6.8-88.4-6.1c-2.1-1.4-4.1-2.7-5.9-3.8c-10.3-6.4-26.3-9.2-33.5-3.1c-5.9,4.9-6,16.6-0.4,32.9
		c4.6,13.3,9.7,23.3,14.6,32.9c8.3,16.2,15.6,30.5,17.9,54.2c47-10.5,126.1-17.8,178.7-16.4c3-0.1,5.6,2.3,5.7,5.4
		c0.1,3.1-2.2,5.7-5.2,5.8V189c-59.9-1.8-131.3,5-178.5,16.5c0.5,16.5-1,37.1-5.6,64.7c-17.3,103-20.2,143.6,14.5,194.6
		c7.7,11.3,14.3,20.2,20.2,28.1c21.8,29.4,31.8,42.8,34.5,95.8c1.8,35.4,12.8,52.9,21.6,57.1c3.9,1.8,7.5,1.4,10.8-1.2
		c3.5-2.7,6.8-8.4,8.7-17c-12.4-9-25.8-22.6-26.5-40.2c-0.6-15.1,5.8-18.9,10.6-19.4c12.3-1.3,24.5,12.1,26.6,24.8
		c1.7,10.7,2.1,20.6,1.2,29.4c1.8,1.2,3.5,2.2,4.9,3c1.6,0.3,7.8-1.4,11.8-8c8.2-13.5,0.8-36.1-20.2-62.1
		c-8.6-10.7-18.2-20.8-27.6-30.5c-10.5-10.9-21.3-22.2-30.6-34.3c-17.1-22.2-40.5-52.7-33.9-129.6l3.7-43.8
		c2.6-31.1,2.8-33.6,5.6-45.2c3.1-12.8,9.1-28.4,19.8-30c10.3-1.5,17.2,11.3,19.4,15.3c5.8,10.3,10.6,14.4,12.2,14.9
		c0.6-0.7,2.3-3.6,3.1-13.4c2.4-28.8,6.9-41.7,15.8-44.3c8.7-2.6,16.3,6.4,21.3,13.3c2.2,2.9,7.3,10.2,10.2,12.7
		c1.9-3.6,4.4-13.3,7-23.5l1.4-5.2c0.8-3,3.8-5.6,6.7-4.8c2.9,0.8,4.7,3.9,3.9,6.9l-1.3,5.2c-5.9,22.5-8,31-15.4,32.4
		c-6.9,1.3-12.5-5.9-21.1-17.9c-6.7-9.3-9.6-9.2-9.6-9.2c-0.2,0.1-5.3,1.7-7.9,34.5c-0.7,9.2-2.7,21.5-11.5,23.6
		c-7.4,1.7-15.5-5.1-24.1-20.3c-4.3-7.5-7.3-9.2-8.4-9c-2.3,0.4-7.2,7.3-10.7,21.6c-2.6,10.7-2.8,12.6-5.3,43.5l-3.7,43.8
		c-6.2,72.4,14.8,99.7,31.6,121.6c8.9,11.6,19,22.2,29.8,33.4c9.5,9.9,19.4,20.2,28.3,31.2C509.1,593.9,497.5,618.3,490.8,626.6z
		 M494.6,451.1c-7.3,5.6-25.5,25.5-48.2,45.2c-6.3,4.7-5.7,1.8-10.2-5.7c-4.6-7.5-21.8-38.5-28.2-56.3c-6.4-17.8-5.8-11.4,0.9-27.2
		c62.5-147.5,162.7-227.7,170.9-234.3c3.7-3,6.1-3.8,7.7-3.6c0,0.3,0,0.5,0.1,0.8c0,3.5,0.6,6.9,1.7,10c-0.1,0.1-0.2,0.2-0.3,0.3
		c-39.1,40.3-78.6,224.3-79.8,244.9C508.6,435.6,502.5,445,494.6,451.1z M569.2,696.7c-3.4,4.3-10.7,3.4-14.4-3.7
		c-97-164.1,2.7-458.5,37.2-506.8c1.5,2.5,3.4,4.7,5.5,6.7c-0.8,2.3-1.8,5.5-3.1,10c-7.3,24.3,0.3,238.3,13.6,314.9
		C620.5,590.1,586.9,679.4,569.2,696.7z M681.8,353.9c-4.7-16.3-10.3-33.7-16.9-52.3c10.6,34.4,21,68.7,26.3,88
		c5.8,21.1,20.7,43.8,30.9,59.5c8.3,61.7-0.4,134.4-47.7,179.4c-2.7-18.8-14.6-38.5-22.7-54.4c-8.4-16.4-30.9-53.4-32.7-58.1
		c-0.9-22.5-10.9-76.9-14.5-119.1s-3.6-181.9-0.9-196l5.5-1.6c0.7,0.2,1.3,0.4,2,0.5c2.9,0.7,11.7,2,20.9-3.5c0,0,0,0,0,0.1
		c2.5-1.5,4.8-3.3,6.2-5c0,0,0-0.1,0-0.1c0.2-0.3,0.4-0.5,0.7-0.8l3.3-4.6c0.2-0.3,0.3-0.5,0.5-0.8c0,0,0,0,0.1,0.1l0-0.1
		c2.1-3.7,3.4-7.9,3.8-12.4l0.6-0.8c19.1,19.7,178.2,130.3,200.1,274.7c4.5,30.9-2.9,67.5,2.6,80.6C832.1,528,756,536.8,681.8,353.9
		z M455.3,594.9c1.2,7.4,1.6,14,1.5,19.8c-8.4-7.1-16.5-16.7-17-27.7c-0.2-5.4,1-7.4,1.5-8C447.3,577,451.9,584.4,455.3,594.9z
		 M285.2,394c-39.1,36.6-19.4,79.1-6.4,93.8C214.2,468.1,255.3,385.8,285.2,394z"/>
	<path class="st1" d="M364.8,587.2c25.5-63.6-16.2-79-28.6-69.8c-65.5-105.5-40.6-187.3-35.5-225.5
		c19.1-143.5-43.8-162.9-65.6-179.7c-25.9,12.7-88.7,65.2-124.1,97.6S86.4,255,89.1,273.3c2.7,18.3-8.2,35.4-15,45.3
		c-6.8,9.9-9.3,16.5-36.5,60.1c-27.3,43.5-1.7,54.4,13.3,54.4s43.3-5.4,68.7-7.6c8.4-0.7,17.2-9.1,10.4-19.3
		c-6.8-10.2-15.5-16.1-25.5-15.5c-8.9,0.5-12.1,11.9,0.9,15c11.3-2.4,12.8,13.2-6.9,7c-13.7-4.4-18.5-34,9.2-30.4
		c25.5,3.3,37.7,25.3,34.2,41.8c4.1,1.4,23,13,27.8,26c8.4,22.7-3.6,21.1-8.9,7.2c-12.6-32.6-54.2-20.5-80-18.3
		c-15.2,1.3-11.6,3.3-14.2,11.8c-6.8,22.5-11,44.6,4,48.8c12.1,3.4,40.4-2.4,51.3-5.2c10.9-2.8,9.5-11.2-1.4-9.8
		c-10.9,1.4-16.4-9.9,0-12.7c16.4-2.8,25.9,5.6,24.5,12.7c-1.4,7,2.7,12.7,6.8,14.1s7.4,11.3,8.2,16.9c2.7,18.3-12.3,15.5-10.9,2.8
		c0.6-5.6-8.2-14.1-16.4-9.9c-8.2,4.2-48,8.4-65.7,5.6c-12.3,12.6-4.8,25.4-0.7,31s6.1,25.1,0.7,37.3
		c-17.7,40.5,23.1,55.5,39.7,56.5c58.5,3.8,104.6-6.4,146.3-22.2c21.2-9.3,35.3-26.9,47.5-43.6c-3.9,17.6-12.7,33.6-27,44.5
		c-20.1,14.2-54.9,24.4-76,29.7c0,0,3.2,25.6,8.9,43.3c4.9,15.3,14.1,27,17.9,37.5c5.1,14,8.5,29.1,25.2,24.3
		c67.8-19.6,127-50.2,158.3-69.9C405.3,678.4,372.9,605.5,364.8,587.2z M136.4,569.8c-1.1-0.3-2.2-0.6-3.2-1.1
		c27.1,31.4-10.2,53.6-22,13.4c-4,21.2-25,13.8-22.2-0.9c1.6-8.3,2.1-23.5,2.1-31.1c0-3-4.2-9.6,1.6-11.6c6-2.1,9.7-2.7,13.6-5.7
		c5.8-3.8,8.5,1.9,10.5,3.2c7.7,5.1,16.3,8,25.2,11.4C165.1,556,150,572.7,136.4,569.8z M201.2,156.4c14.5-10.3,22.7-16.9,22.7-16.9
		c10-6.6,9.5-3.1,16.4,1.9c8,5.8,22.6,20.1,27.6,25.2c9.1,9.4,1.2,16.6-5.6,7.2c-12.6-17.3-30.1-27.4-30.1-27.4l-8.4,5.8
		c13.6,12.2,44.5,39.1,56.6,59.1c3.5,5.8-3.5,10.1-8.4,3.6c-16.8-22.3-56.6-56.3-56.6-56.3l-8.4,5.8c10,10.3,24.5,20.9,30.1,30.3
		c5.4,9,1.3,16.6-6.5,6.2c-9.6-12.7-22.2-22.1-22.2-22.1C199.4,171.3,186.6,166.7,201.2,156.4z M130.2,336.8c-7,1.3-2.2-15.5-2.9-20
		c-7.9,1.6-22.4-0.6-23.9-3.9c-1.8-4,7.2-6.3,25.1-7.2c-1.4-8.9-4.4-24.9,1-33.6c-13.6-4.9-28.9-8-16.6-17.4c10.5-8,8.1-13,8.1-13
		c-6.7-5.5-14.9-17.3,2.5-24.7s41.1-3.4,53.4,6.7c14.3,11.8,34.5,25.1,50.2,22.9c25.2-3.6,19.6,8.8,4.4,15.1
		c-17.7,7.3-44-6.3-49.9-10c-5.9-3.7-23.7-13.4-26.5-5.5s-7.8,13.5-1.6,17.8c13.1,8.9,34.5,22.1,46.5,28.1c8.8,4.4,8,10.7-8.2,14.8
		c-18.5,4.6-46.6,9.1-46.6,9.1C143.4,326.6,137.4,335.4,130.2,336.8z M203.3,380c23-11,30,12.2,8.2,18.7
		c-62.2,18.7-67.3-14.1-52.7-28.1c-38.2-23.4,10.9-43.1,31.8-49.7s20,14.1,8.2,16.9s-16.4,5.6-26.4,8.4c-5.2,1.5-6.4,6.1-4.6,10.2
		c19.2-1.2,29.5-3.1,40.3-9.9c8.8-5.6,27-18.1,35.2-5s7.6,28.5-26.1,26.6c-20.7-1.1-31.9,2.3-47.2,9.6
		C168,387.9,185.9,388.3,203.3,380z M278.8,487.8c-64.6-19.7-23.5-102,6.4-93.8C246.1,430.6,265.8,473.1,278.8,487.8z M330.5,599.2
		c-12.9-3.7-18.9-23.8-13.3-44.9c5.6-21.1,20.6-35.3,33.6-31.7c12.9,3.7,18.9,23.8,13.3,44.9C358.5,588.7,343.4,602.9,330.5,599.2z
		 M353.2,564c-3.5,13.4-10.8,23.6-19,21.3s-10.4-15.8-6.9-29.2c3.6-13.4,11.5-21.7,19.8-19.4C355.3,539,356.8,550.6,353.2,564z
		 M146.6,250.6c-1.9,4.4-2.3,8.8-6.5,6.9c-4.2-1.9-17-8-15.5-10.2c1.8-2.6,12.1-5.9,20.7-7.4C153.8,238.4,148.4,246.2,146.6,250.6z"
		/>
	<path class="st2" d="M532.9,422.5c0.8-6.9,1.7-13.7,2.8-20.6c5.2-33.7,11.9-62.4,21.1-92.5c1.9-7.9,8.2-8.8,7.3-0.5
		c-4,28.9-7.1,61.3-9.1,93.6C551.7,407.6,538.2,418.4,532.9,422.5z M552,488.1l-24.3,17.1c0.1,23.4,1.7,46,4.7,67.8
		c5.1-2.8,16.3-9.3,22.3-15.1C552.8,540.7,551.9,516.2,552,488.1z M554.4,411.1c-5.3,6.2-17.7,15.2-22.4,18.5
		c-2.8,24-4.2,47.3-4.4,70c6.6-4.6,18.9-13.4,24.4-18.5C552.2,459.2,553,435.3,554.4,411.1z M585,427.3c-2.6-32.1-5.4-76.6-7-115.8
		c-1-9.9-6.4-12.9-8.3-3.1c-3.9,30.2-6.7,65.4-8.6,100.3C568,415.5,578.6,423.4,585,427.3z M558.5,483.7
		c8.9,9.3,25.7,21.2,34.9,26.6c-0.8-13.4-2.3-27.6-4.5-42.7c-0.8-5.6-2-17.3-3.3-32.8c-6.4-4.1-17.6-12.2-24.9-19
		C559.5,439.4,558.8,462.5,558.5,483.7z M677.4,123.1c-10.5,4.6-22.2,13.1-29.2,22.7l7,20.4l31.9-7.7L677.4,123.1z M639.6,170
		c0,12.8-10.1,23.2-22.5,23.2s-22.5-10.4-22.5-23.2c0-12.8,10.1-23.2,22.5-23.2S639.6,157.2,639.6,170z M631.5,170
		c0-8.2-6.5-14.8-14.4-14.8s-14.4,6.6-14.4,14.8c0,8.2,6.5,14.8,14.4,14.8S631.5,178.2,631.5,170z M557.6,564.1
		c-5.7,4.6-18.7,12-24.2,15.1c1.8,11.5,3.9,22.8,6.5,33.8c4.5,5.5,10.7,7.9,19.1-9.4l1.8-5.6c5.4,10.5,18.9,26,25.5,19
		c2-8.9,3.8-18.8,5.3-29.8C586.3,584.3,564.9,572.1,557.6,564.1z M608,517.8c12.5,72.3-21.1,161.6-38.8,178.9
		c-3.4,4.3-10.7,3.4-14.4-3.7c-97-164.1,2.7-458.5,37.2-506.8c1.5,2.5,3.4,4.7,5.5,6.7c-0.8,2.3-1.8,5.5-3.1,10
		C587.1,227.2,594.7,441.2,608,517.8z M594.3,466.8c-4.1-27.6-16.3-225.9-10.8-250.1c-24.2,61.9-43.8,123.4-53.2,184.3
		c-16.5,107.2-7.8,201.6,25.9,280.6c0.1,1.6,2.7,4.1,5.4,5c3.2,1,3.8-1.9,5.9-5C572.5,674.4,615.1,606.7,594.3,466.8z M558.5,491.8
		c-0.2,28.3,0.5,52.3,2,67.8c7.7,8,20,15.9,31.7,21.4c2-18.6,2.9-39.9,1.7-64C587.2,512.8,568.4,500.9,558.5,491.8z M573.6,185.9
		c-34.5,48.5-69.9,212.4-74.7,249c0,0-0.2,1.3-0.3,1.4l-1.1,0.7c-1.2,0.8-7.1,6.8-12.8,12.6c-12.1,12.4-28.8,29.4-38.8,36.1
		l-2.5,1.6l-1.4-2.7c-1.1-2-25.7-48.4-28.5-63.7l-0.1-0.8l0.2-0.7C446,325.6,548.5,211.6,573.6,185.9z M507.5,362.5
		c11.4-49.5,28.4-111,47.4-150.1c-24.7,28-63.7,75.1-95.4,126.3c-2.2,3.5-4.2,6.9-6.3,10.4c-10.9,18.5-20.7,37.4-28.4,56
		c-1,2.3-1.9,4.7-2.8,7c-1.1,2.9-2.1,5.7-3.1,8.5c2.8,13,21,48.4,26.3,58.5c9.7-7.3,24.5-22.3,35.5-33.6c4-4.1,6.9-7,9-9.1
		c1.7-1.7,3-2.9,3.9-3.6c0.1-0.2,0.1-0.3,0.1-0.5c1.7-11.9,5.8-34.1,11.7-60.5C506.1,368.8,506.8,365.7,507.5,362.5z"/>
	<path class="st3" d="M350.8,522.7c-12.9-3.7-28,10.5-33.6,31.7c-5.6,21.1,0.4,41.2,13.3,44.9c12.9,3.6,28-10.5,33.6-31.7
		C369.7,546.4,363.7,526.3,350.8,522.7z M353.2,564c-3.5,13.4-10.8,23.6-19,21.3s-10.4-15.8-6.9-29.2s11.5-21.7,19.8-19.4
		C355.3,539,356.8,550.6,353.2,564z M211.5,398.8c-62.2,18.7-67.3-14.1-52.7-28.1c-38.2-23.5,10.9-43.1,31.8-49.7
		c20.9-6.6,20,14.1,8.2,16.9s-16.4,5.6-26.4,8.4c-5.2,1.5-6.4,6.1-4.6,10.2c1.7,3.8,6.1,7.1,12.7,6.7c-4.9,4.5-7.9,8.3-9.4,11.5
		c-0.6,1.1-0.9,2.2-1.1,3.1c-2,10.2,15.9,10.6,33.3,2.3C226.4,369,233.4,392.2,211.5,398.8z M136.4,569.8c-1.1-0.2-2.1-0.6-3.1-1
		c0-0.1-0.1-0.1-0.1-0.2c-9.1-4-16.2-15.5-21.5-18c-0.8-0.3-1.8-0.3-2.4,0.1c-0.5,0.3-0.9,0.9-0.6,1.9c0,0,3.1,15.3,3.1,21.9
		c0,2.9-0.2,5.4-0.7,7.6c-4,21.2-25,13.8-22.2-0.9c1.6-8.3,2.1-23.5,2.1-31.1c0-3-4.2-9.6,1.6-11.6c6-2.2,9.7-2.7,13.6-5.7
		c5.8-3.8,8.5,1.9,10.5,3.2c7.6,5.1,16.2,8,25.2,11.4C165.1,556.1,150,572.7,136.4,569.8z M631.5,170c0,8.2-6.5,14.8-14.4,14.8
		s-14.4-6.7-14.4-14.8c0-8.2,6.5-14.8,14.4-14.8C625,155.1,631.5,161.8,631.5,170z M587.5,169.2c-1.6-0.2-4,0.6-7.7,3.6
		c-8.2,6.6-108.4,86.8-170.9,234.3c-6.7,15.8-7.3,9.4-0.9,27.2c6.4,17.8,23.6,48.8,28.2,56.3c4.5,7.5,3.9,10.4,10.2,5.7
		c22.7-19.7,40.9-39.6,48.2-45.2c7.9-6.1,14-15.5,14.6-25.9c1.2-20.6,40.7-204.6,79.8-244.9c0.1-0.1,0.2-0.2,0.3-0.3
		c-1.1-3.1-1.7-6.5-1.7-10C587.5,169.7,587.5,169.5,587.5,169.2z M498.9,434.9c0,0-0.2,1.3-0.3,1.4l-1.1,0.7
		c-1.2,0.8-7.1,6.8-12.8,12.6c-12.1,12.4-28.8,29.4-38.8,36.1l-2.5,1.6l-1.4-2.7c-1.1-2-25.7-48.4-28.5-63.7l-0.1-0.8l0.2-0.7
		c32.4-93.8,134.9-207.8,160-233.5C539.1,234.4,503.7,398.3,498.9,434.9z M505.3,372.2c0.5-2.1,1-4.3,1.5-6.5
		c-0.5,2.1-0.9,4.1-1.4,6.1c-5.9,26.4-10,48.6-11.7,60.5c0,0.2,0,0.3-0.1,0.5c0,0-0.1,0.1-0.1,0.1c0-0.1,0-0.2,0.1-0.3
		c-8.9-9.8-18-29-21.8-42.2c5.4-15.6,11.3-32.1,17.2-47.7C492.3,351,501.5,366,505.3,372.2z M445.2,479.1
		c-5.3-10.1-23.5-45.5-26.3-58.5c1-2.8,2-5.6,3.1-8.5c0.9-2.3,1.8-4.7,2.8-7c7.7-18.6,17.5-37.5,28.4-56c2.1-3.5,4.1-6.9,6.3-10.4
		c31.7-51.2,70.7-98.3,95.4-126.3c-19,39.1-36,100.6-47.4,150.1c0,0.2-0.1,0.3-0.1,0.5c-3.9-5.7-13.1-20.2-15.2-28.5
		c9.8-25.3,19.4-47.4,26.4-58.2c2.2-3.7,5.3-12.3,2.7-13.4c-9.6,11.5-20.8,34.8-31.6,61.5l-30.1,14.4c-2.1,3.4-4.2,6.9-6.3,10.4
		l32.9-16c-6.9,17.4-13.5,35.8-19.3,53c-10.5,7.2-33.4,15.8-42,19c-1,2.3-1.9,4.7-2.8,7c8.9-3,31.7-11,42.1-18.1
		c-9.5,28.3-16.6,52.2-18.8,61.5c-0.4,1.5,0.5,3,2,3.4c1.5,0.4,2.9-0.5,3.3-2c2.2-8.9,8.9-30.6,17.5-56.1
		c4.2,11.8,13,26.5,21.3,35.7c-2.1,2.1-4.9,4.9-8.8,8.9C469.7,456.8,454.9,471.8,445.2,479.1z"/>
	<path class="st4" d="M638.8,353.9c2.4,15.9,4.8,31.6,7.2,46.7l-23.3,24c-2.7-16.6-4.7-33.1-6.2-49.3L638.8,353.9z M614,243
		c-1.4,33.5-2,77.9,2,125.3l21.9-21.1c-0.9-5.9-1.8-11.7-2.7-17.6c-4.9-32-9.5-62.9-13.7-88.7C620.6,235,614.5,234.6,614,243z
		 M669.5,522.4c-3.3-7.5-7.6-27.8-12.5-55.1l-18.7,23.9c5.6,17.9,12.2,35.2,20.4,51.3L669.5,522.4z M655.6,460
		c-2.7-15.8-5.6-33.6-8.6-52.6l-23.1,23.9c3.3,18,7.3,36,12.3,53.5L655.6,460z M640.7,328.7c0.9,6.3,1.9,12.8,2.9,19.2l36.7,21.2
		c-10.1-37.5-25-81.3-46.5-132.3c-2.9-6.9-8.3-3.7-6.8,3.2C631.2,265.8,635.9,296.8,640.7,328.7z M594.3,466.8
		c20.8,139.9-21.8,207.6-26.8,214.8c-2.1,3.1-2.7,6-5.9,5c-2.7-0.9-5.3-3.4-5.4-5c-33.7-79-42.4-173.4-25.9-280.6
		c9.4-60.9,29-122.4,53.2-184.3C578,240.9,590.2,439.2,594.3,466.8z M585.6,434.8c-6.4-4.1-17.6-12.2-24.9-19
		c-1.2,23.6-1.9,46.7-2.2,67.9c8.9,9.3,25.7,21.2,34.9,26.6c-0.8-13.4-2.3-27.6-4.5-42.7C588.1,462,586.9,450.3,585.6,434.8z
		 M569.7,308.4c-3.9,30.2-6.7,65.4-8.6,100.3c6.9,6.8,17.5,14.7,23.9,18.6c-2.6-32.1-5.4-76.6-7-115.8
		C577,301.6,571.6,298.6,569.7,308.4z M532.9,422.5c5.3-4.1,18.8-14.9,22.1-20c2-32.3,5.1-64.7,9.1-93.6c0.9-8.3-5.4-7.4-7.3,0.5
		c-9.2,30.1-15.9,58.8-21.1,92.5C534.6,408.8,533.7,415.6,532.9,422.5z M527.6,499.6c6.6-4.6,18.9-13.4,24.4-18.5
		c0.2-21.9,1-45.8,2.4-70c-5.3,6.2-17.7,15.2-22.4,18.5C529.2,453.6,527.8,476.9,527.6,499.6z M532.4,573
		c5.1-2.8,16.3-9.3,22.3-15.1c-1.9-17.2-2.8-41.7-2.7-69.8l-24.3,17.1C527.8,528.6,529.4,551.2,532.4,573z M591.6,587.2
		c-5.3-2.9-26.7-15.1-34-23.1c-5.7,4.6-18.7,12-24.2,15.1c1.8,11.5,3.9,22.8,6.5,33.8c4.5,5.5,10.7,7.9,19.1-9.4l1.8-5.6
		c5.4,10.5,18.9,26,25.5,19C588.3,608.1,590.1,598.2,591.6,587.2z M593.9,517c-6.7-4.2-25.5-16.1-35.4-25.2
		c-0.2,28.3,0.5,52.3,2,67.8c7.7,8,20,15.9,31.7,21.4C594.2,562.4,595.1,541.1,593.9,517z M722.1,449.1
		c-10.2-15.7-25.1-38.4-30.9-59.5c-0.2-0.8-0.5-1.7-0.7-2.6c0.2,0.9,0.4,1.8,0.6,2.6c27.2,116,6,168.1-4,192.7l-2.1,5.1l-1.8,4.4
		l-2.9-3.7c-86.8-110.6-74-316.1-69.8-383.6c0.1-1.7,0.2-3.2,0.3-4.7c2,0.5,4.1,0.7,6.2,0.7c0.9,0,1.7-0.1,2.6-0.2
		c-3.9,0.3-7-0.2-8.5-0.5c-0.7-0.1-1.3-0.3-2-0.5l-5.5,1.6c-2.7,14.1-2.7,153.8,0.9,196S618.1,493.5,619,516
		c1.8,4.7,24.3,41.7,32.7,58.1c8.1,15.9,20,35.6,22.7,54.4C721.7,583.5,730.4,510.8,722.1,449.1z M350.3,205.5
		c0.5,16.5-1,37.1-5.6,64.7c-17.3,103-20.2,143.6,14.5,194.6c7.7,11.3,14.3,20.2,20.2,28.1c21.8,29.4,31.8,42.8,34.5,95.8
		c1.8,35.4,12.8,52.9,21.6,57.1c3.9,1.8,7.5,1.4,10.8-1.2c3.5-2.7,6.8-8.4,8.7-17c-12.4-9-25.8-22.6-26.5-40.2
		c-0.6-15.1,5.8-18.9,10.6-19.4c12.3-1.3,24.5,12.1,26.6,24.8c1.7,10.7,2.1,20.6,1.2,29.4c1.8,1.2,3.5,2.2,4.9,3
		c1.6,0.3,7.8-1.4,11.8-8c8.2-13.5,0.8-36.1-20.2-62.1c-8.6-10.7-18.2-20.8-27.6-30.5c-10.5-10.9-21.3-22.2-30.6-34.3
		c-17.1-22.2-40.5-52.7-33.9-129.6l3.7-43.8c2.6-31.1,2.8-33.6,5.6-45.2c3.1-12.8,9.1-28.4,19.8-30c10.3-1.5,17.2,11.3,19.4,15.3
		c5.8,10.3,10.6,14.4,12.2,14.9c0.6-0.7,2.3-3.6,3.1-13.4c2.4-28.8,6.9-41.7,15.8-44.3c8.7-2.6,16.3,6.4,21.3,13.3
		c2.2,2.9,7.3,10.2,10.2,12.7c1.9-3.6,4.4-13.3,7-23.5l1.4-5.2c0.8-3,3.8-5.6,6.7-4.8c2.9,0.8,4.7,3.9,3.9,6.9l-1.3,5.2
		c-5.9,22.5-8,31-15.4,32.4c-6.9,1.3-12.5-5.9-21.1-17.9c-6.7-9.3-9.6-9.2-9.6-9.2c-0.2,0.1-5.3,1.7-7.9,34.5
		c-0.7,9.2-2.7,21.5-11.5,23.6c-7.4,1.7-15.5-5.1-24.1-20.3c-4.3-7.5-7.3-9.2-8.4-9c-2.3,0.4-7.2,7.3-10.7,21.6
		c-2.6,10.7-2.8,12.6-5.3,43.5l-3.7,43.8c-6.2,72.4,14.8,99.7,31.6,121.6c8.9,11.6,19,22.2,29.8,33.4c9.5,9.9,19.4,20.2,28.3,31.2
		c37,45.9,25.4,70.3,18.7,78.6c-6.7,8.3-17.6,12.3-23.8,8.7c-0.7-0.4-1.4-0.8-2.1-1.2c-2.4,8.5-6.2,15.3-11.7,19.6
		c-6.4,5.1-14.5,6-21.9,2.4c-15.7-7.5-26.1-32.5-27.9-66.7c-2.5-49.5-11.2-61.2-32.2-89.5c-5.9-8-12.6-17-20.4-28.5
		c-37.1-54.6-34.2-96.7-16.4-203c12.5-74.5,1.8-95.5-11.8-122.2c-4.8-9.5-10.3-20.3-15.2-34.3c-7.5-21.7-6.3-37,3.7-45.4
		c13.2-11.1,35.3-3.7,46.1,3c1.9,1.2,4,2.6,6.2,4c18.5,12.1,46.3,30.4,75.9,6.7c13.2-10.6,24.3-14.2,34.1-11
		c16.5,5.3,23.5,27.7,30.4,50.1l0.4,1.2c2.9,9.8,8.2,17.5,15.8,21.4c11.5,5.9,25.9,0.9,31.7-2.5c2.6-1.6,5.9-0.6,7.4,2.1
		c1.5,2.7,0.6,5.2-2.5,6.7c-9.1,5.4-28.1,9.9-42,2.8c-10.3-5.3-17.5-14.5-21.4-27.2l-0.4-1.2c-6-19.7-12.2-40-23.3-43.6
		c-6-2-14.2,1.1-24.2,9.1c-35.7,28.5-68.7,6.8-88.4-6.1c-2.1-1.4-4.1-2.7-5.9-3.8c-10.3-6.4-26.3-9.2-33.5-3.1
		c-5.9,4.9-6,16.6-0.4,32.9c4.6,13.3,9.7,23.3,14.6,32.9c8.3,16.2,15.6,30.5,17.9,54.2c47-10.5,126.1-17.8,178.7-16.4
		c3-0.1,5.6,2.3,5.7,5.4c0.1,3.1-2.2,5.7-5.2,5.8V189C468.9,187.2,397.5,194,350.3,205.5z M456.8,614.7c0.1-5.8-0.3-12.4-1.5-19.8
		c-3.4-10.5-8-17.9-14-15.9c-0.5,0.6-1.7,2.6-1.5,8C440.3,598,448.4,607.6,456.8,614.7z M699,487.5l-36.4-20.3
		c4.8,27.6,9.1,47.6,12.2,53.5l20.1,18.1C697.5,525.1,699.3,508.2,699,487.5z M682.1,580c3.3-8.1,7.8-19.2,11.2-34.8l-20.1-18.3
		l-11.6,21.6c6,11.3,12.7,22.1,20.2,32.1L682.1,580z M644.5,354.9c2.3,15.1,4.6,30.2,6.9,44.8l41.1,24.5
		c-2.5-14.6-5.9-30.4-10.3-47.5L644.5,354.9z M652.5,407c3,19.1,5.9,37.2,8.7,53.2l37.5,20.9c-0.5-14.7-2-31.1-5-49.6L652.5,407z"/>
	<path class="st5" d="M691,276.2c11.2,18.4,24.7,40.8,38.3,63.5l-12.5,34.8c-9.4-20.1-19.5-43.5-30.7-71L691,276.2z M847.3,446.6
		c-21.9-144.4-181-255-200.1-274.7l-0.6,0.8c-0.4,4.5-1.7,8.7-3.8,12.4l0,0.1c6.4,7.1,15.9,16.1,27.5,27.2
		c60.3,57.4,172.5,164.1,159.5,290.7l-0.3,3.3l-3.1-0.9c-2.4-0.7-4.9-1.2-7.5-1.8c-34-7.5-76.3-16.9-180.7-312.3
		c-2.9,3.8-10.1,7.6-14.5,8.3c13.7,32.8,16.1,40.7,25.7,60.5c13.7,34.7,24.4,65.8,32.4,93.7C756,536.8,832.1,528,849.9,527.2
		C844.4,514.1,851.8,477.5,847.3,446.6z M633.5,101.8h-47.4l30.3,33.8h17.1V101.8z M638.9,190.5c1.2-1.4,2.3-2.9,3.3-4.6
		L638.9,190.5z M774.8,416.7c-11.7-20.3-26.7-45.7-41.8-71l-12.9,35.8c16.3,33.9,30.1,57.6,42.1,74.2L774.8,416.7z M666.6,216.6
		c-6.2-5.9-11.6-11.1-16.4-15.8c-1.9-1.6-2.7-0.3-2.4,1.3c12.4,34.5,23.9,65,34.5,91.8l4.4-24.8c-11.5-18.9-19.8-32.4-21.9-35.7
		c-0.8-1.3-0.5-3,0.8-3.9c1.3-0.9,2.9-0.5,3.8,0.8c1.3,2,9.4,15.3,21.1,34.5L723,273C702.8,251,682.8,232,666.6,216.6z M694.6,271.6
		c11.2,18.5,25,41.3,38.9,64.5l50,15.2c-15.8-25.8-34.7-49.6-53.7-70.8L694.6,271.6z M820,498.2c1.6,0.4,3.1,0.8,4.6,1.1
		c2.2-25.3-0.8-49.9-7.4-73.5l-34.5-6.5c9.3,16.2,16.1,28.6,18.8,34.5c0.6,1.4,0,3.1-1.3,3.7c-1.4,0.7-3,0-3.6-1.3
		c-2.5-5.6-9.1-17.5-18-33.1l-12.4,38C789.5,491.4,806,495.1,820,498.2z M787.3,358.3l-49.4-15c14.8,24.8,29.5,49.5,41.1,69.7
		l36.4,6.8c-6.7-21.4-16.2-42-27.6-61.4C787.6,358.4,787.5,358.4,787.3,358.3z"/>
	<path class="st6" d="M691.1,389.6c-2.6-11.3-5.7-23.2-9.4-35.7c-8-27.9-18.7-59-32.4-93.7c-7.6-19.1-16.1-39.2-25.7-60.5
		c-2.1,0.4-4.3,0.8-6.6,0.8c-2.1,0-4.2-0.2-6.2-0.7c-0.1,1.5-0.2,3-0.3,4.7c-4.2,67.5-17,273,69.8,383.6l2.9,3.7l1.8-4.4l2.1-5.1
		C697.1,557.7,718.3,505.6,691.1,389.6z M698.7,481.1l-37.5-20.9c-2.8-16-5.7-34.1-8.7-53.2l41.2,24.5
		C696.7,450,698.2,466.4,698.7,481.1z M682.2,376.7c4.4,17.1,7.8,32.9,10.3,47.5l-41.1-24.5c-2.3-14.6-4.6-29.7-6.9-44.8
		L682.2,376.7z M633.8,236.8c21.5,51,36.4,94.8,46.5,132.3l-36.7-21.2c-1-6.4-2-12.9-2.9-19.2c-4.8-31.9-9.5-62.9-13.7-88.7
		C625.5,233.1,630.9,229.9,633.8,236.8z M614,243c0.5-8.4,6.6-8,7.5-2.1c4.2,25.8,8.8,56.7,13.7,88.7c0.9,5.9,1.8,11.7,2.7,17.6
		L616,368.3C612,320.9,612.6,276.5,614,243z M616.5,375.3l22.3-21.4c2.4,15.9,4.8,31.6,7.2,46.7l-23.3,24
		C620,408,618,391.5,616.5,375.3z M623.9,431.3l23.1-23.9c3,19,5.9,36.8,8.6,52.6l-19.4,24.8C631.2,467.3,627.2,449.3,623.9,431.3z
		 M638.3,491.2l18.7-23.9c4.9,27.3,9.2,47.6,12.5,55.1l-10.8,20.1C650.5,526.4,643.9,509.1,638.3,491.2z M682.1,580l-0.3,0.6
		c-7.5-10-14.2-20.8-20.2-32.1l11.6-21.6l20.1,18.3C689.9,560.8,685.4,571.9,682.1,580z M674.8,520.7c-3.1-5.9-7.4-25.9-12.2-53.5
		l36.4,20.3c0.3,20.7-1.5,37.6-4.1,51.3L674.8,520.7z"/>
</g>
</svg>
