<?xml version="1.0" encoding="utf-8"?>
<!-- Generator: Adobe Illustrator 25.0.0, SVG Export Plug-In . SVG Version: 6.00 Build 0)  -->
<svg version="1.1" id="Layer_3" xmlns="http://www.w3.org/2000/svg" xmlns:xlink="http://www.w3.org/1999/xlink" x="0px" y="0px"
	 viewBox="0 0 907.4 722.6" style="enable-background:new 0 0 907.4 722.6;" xml:space="preserve">
<style type="text/css">
	.st0{fill:#FFFFFF;}
	.st1{fill:#041E42;}
	.st2{fill:#FCB514;}
	.st3{fill:#002F87;}
</style>
<g>
	<path class="st0" d="M890.8,0H179.1h-28l15.6,23.3c0.3,0.5,32.2,48.4,41.2,71.9c0,0.1,0,0.2,0.1,0.3c0.2,0.6,0.4,1.4,0.7,2.4
		c0,0.1,0,0.1,0.1,0.2c-0.3,0-0.5,0.1-0.8,0.1L150.6,7l-4.4-7h-8.3H26.8H0l14.1,22.9l246,399.9c-45.8,2.6-88.2,15.7-121,37.5
		c-21.9,14.6-38.6,31.4-49.9,49.9c-11.5,19-17.4,40.1-17.4,62.5c0,43.3,24,83.1,67.5,112.1c36.5,24.3,85.4,37.8,137.6,37.8
		c50.9,0,99.5-13.7,136.9-38.7c43.3-28.9,67.1-68.3,67.1-111.1c0-19.5-5.1-38.2-15.9-58.7l-0.5-0.9l-0.2-0.5l-0.3-0.4l-44.9-71.7
		c1.2,0,2.3,0,3.4,0c18.9,0,34-2.9,34.1-2.9l0,0l0,0c4.7-1,17.6-3.9,18.2-4.1l21.6-4.9l-12.5-18.2l-0.1-0.1c2.9,0,5.9,0.1,9,0.1
		c12,0,23.1-0.3,32.9-1c24.2-1.6,45.1-7.3,49-8.4c5.8-1.6,20.7-7.1,22.4-7.7l22.2-8.1L603,369.1c16.4-3.4,33.5-9.4,52.8-18.1
		c52.2-23.8,83.5-57.8,97.4-76l3.4-4.4c4.3-2.9,9-6.2,13.5-9.9c15.5-12.7,27.5-26,36.8-40.6c3.4-5.3,6.9-11,9.4-16.2
		c3.5-7.1,5.2-12.5,5.4-13l1.5-4.7c6.4-6.9,14.1-16.5,20.5-28.2c4.6-8.3,9-18.9,12.2-29c2.6-8.3,3.9-14.5,3.9-14.8l0.9-4.9
		c8.2-8.4,18-20.3,26.5-36.2c6-11.1,11.2-24.2,14.4-35.9c3.1-11.3,4-20.2,4-20.6L907.4,0H890.8z M887.3,33.2
		C884.6,43,880,55,874.1,65.9C862,88.4,846,104,835.7,111.2h9.5c0,0-1.1,5.6-3.5,13.1c-2.5,7.8-6.4,17.7-11.1,26.3
		c-10.2,18.6-24.5,31.9-29.1,35.7h6c0,0-1.5,4.6-4.6,10.9c-2.2,4.4-5.4,9.6-8.7,14.8c-8,12.7-18.8,24.9-33.6,37
		c-7.7,6.3-16.9,12.2-24.9,16.7h5.6c-10.7,13.9-40.1,47.9-91.8,71.5c-31.7,14.4-55.8,20.1-79.2,20.5l21.7,21.6c0,0-16,5.8-21.4,7.4
		c-6.2,1.8-25.1,6.5-45.9,7.9c-10.6,0.7-21.7,1-31.9,1c-18.6,0-34.1-0.8-38.2-1.1l17,24.7c0,0-13.3,3-17.9,4
		c-0.5,0.1-14.3,2.6-31.1,2.6c-8.5,0-20.1-0.2-31.8-2.1l60.6,96.8l0.5,0.8c9.7,18.2,14.2,34.6,14.2,51.6c0,37.6-21.5,72.6-60.5,98.6
		c-34.9,23.3-80.6,36.1-128.6,36.1c-49.3,0-95.2-12.5-129.3-35.2c-39.2-26.2-60.8-61.5-60.8-99.6c0-39.5,20.4-73.2,60.6-100
		c34.3-22.9,80.3-35.5,129.5-35.5c3.2,0,6.5,0.1,9.8,0.2L26.8,15h111.1l61.7,98.3c1,0,1.9,0,2.9,0c12.1,0,17.5-2.2,20.8-6.8
		c1.5-2.1,1.5-7.7-0.5-13.7c-0.3-0.8-0.5-2-0.9-2.9c-9.7-25.4-42.8-75-42.8-75h711.7C890.8,15,890.1,23,887.3,33.2z M208.5,40.1
		c0.2,0.3,18.2,26.4,25.9,48.5c3.7,10.5,2.2,20.6,0.7,23.5c-6.4,11.7-29.1,12.9-38.6,12.9c-1.3,0-2.7,0-4.1-0.1L131,27.6H49.3
		l261.1,424.3c-10.9-1.3-22.4-2-33.4-2c-46.7,0-90.3,11.9-122.5,33.4c-36.5,24.4-55,54.5-55,89.5c0,33.8,19.6,65.4,55.2,89.2
		c32,21.4,75.5,33.1,122.3,33.1c45.5,0,88.7-12.1,121.6-34c35.4-23.6,54.9-54.9,54.9-88.1c0-14.9-4-29.4-12.7-45.7l-0.2-0.5
		l-76.8-122.6c9.2,2.4,43.3,9.1,58.9,9.1s27.4-2.7,27.4-2.7l-22.2-31.2c9.1,0.6,44.6,4.7,77.1,3.3c34.8-1.6,48.3-4.9,63.4-8.6
		l-26.2-27.4c22.3-0.4,58.4-1.1,101.7-20.8c40.1-18.3,64.2-43.2,75.2-57.4h-22.7c21.8-6.1,38.9-14.7,56.3-28.9
		c24.8-20.2,34.8-44.1,34.8-44.1l-23.7-0.1c3.8-2.4,12.5-6.9,22.3-14.3c9-6.8,18.6-16.2,26-25.4c4.8-6,13.8-21.1,15.4-35.3l-24.2,0
		c10.1-7.3,35.4-26.1,51.7-49.4c6.2-8.8,11.6-19,14.6-27.3c3.3-9.1,3.9-15.9,3.9-15.9l-673.6,0L208.5,40.1z M862.3,35.6
		c0,0-0.2,5.2-3.5,12.6c-3.5,7.9-10.4,18.3-17.6,27c-18.7,22.5-47.2,41.7-63.3,51.8h36.6c0,0,0.5,3.4-0.9,7.9
		c-2.1,6.9-7.6,16.9-17.4,26.7c-20.2,20-55.6,38.7-58.8,40.4h34c-0.3,0.6-0.9,2.8-2.5,5.9c-3.2,6.2-9.6,15.9-19.4,24
		c-24.1,19.9-50.2,30.8-79.7,40.3h33.9c0,0-6.1,9-16.1,17.6c-12.2,10.5-30.3,21.7-50.5,30.7c-38.9,17.3-85.2,19-105.9,19
		c0,0,0,0,0,0c-2,0-3.8,0-5.6,0l28.7,30.5c0,0-6.9,1.6-16.1,2.4c-13.5,1.3-32.3,2.1-43.1,2.1c-29.6,0-62.7-2.1-81.3-3.5
		c6.6,10.7,14.3,20.7,14.4,20.8l9.4,12.2l-15.4,0.7c-19.3,0.9-53.3-8-75.2-14.5l86.4,140.5l0.1,0.2c8,15.2,11.8,28.5,11.8,42
		c0,31.4-18.7,59.7-51.3,81.5c-31.6,21.1-72.7,32.7-117.1,32.7c-44.4,0-86.3-10.7-117.9-31.8c-32.6-21.8-51.7-51.1-51.7-82.5
		c0-32.4,17.1-60,51.4-82.9c31.6-21.1,73.7-32,118.1-32c16.3,0,33.9,1.6,49.3,4.5L63.7,35.6h62.9l61.3,97.2c2.2,0.2,5.1,0.3,8.6,0.3
		c13.5,0,37.5-2.2,45.6-17.1c2.6-4.8,4.3-17.2-0.2-29.9c-8.2-23.4-26.8-50.5-26.8-50.5L862.3,35.6z"/>
	<path class="st1" d="M179.1,15c0,0,33.1,49.6,42.8,75c0.4,0.9,0.6,2.1,0.9,2.9c2.1,6,2,11.6,0.5,13.7c-3.5,4.9-9.5,7.1-23.7,6.7
		L137.9,15H26.8l259.9,422.5c-3.3-0.1-6.6-0.2-9.8-0.2c-49.2,0-95.2,12.6-129.5,35.5c-40.2,26.8-60.6,60.5-60.6,100
		c0,38.1,21.6,73.5,60.8,99.6c34.1,22.7,80,35.2,129.3,35.2c48,0,93.6-12.8,128.6-36.1c39-26,60.5-61,60.5-98.6
		c0-17-4.5-33.4-14.2-51.6l-0.5-0.8l-60.6-96.8c11.7,2,23.3,2.1,31.8,2.1c16.8,0,30.5-2.5,31.1-2.6c4.7-1,17.9-4,17.9-4l-17-24.7
		c6.4,0.4,40.3,2.1,70.1,0.1c20.9-1.4,39.8-6.1,45.9-7.9c5.4-1.5,21.4-7.4,21.4-7.4l-21.7-21.6c23.4-0.4,47.6-6,79.2-20.5
		c51.7-23.6,81.1-57.6,91.8-71.5h-5.6c8-4.5,17.2-10.5,24.9-16.7c14.8-12.1,25.6-24.3,33.6-37c3.3-5.2,6.5-10.4,8.7-14.8
		c3.1-6.3,4.6-10.9,4.6-10.9h-6c4.6-3.8,19-17.1,29.1-35.7c4.7-8.6,8.6-18.5,11.1-26.3c2.4-7.5,3.5-13.1,3.5-13.1h-9.5
		C846,104,862,88.4,874.1,65.9C880,55,884.6,43,887.3,33.2c2.8-10.2,3.5-18.2,3.5-18.2H179.1z M869.6,43.4
		c-3,8.3-8.4,18.4-14.6,27.3c-16.3,23.3-41.6,42.1-51.7,49.4l24.2,0c-1.6,14.2-10.6,29.3-15.4,35.3c-7.4,9.2-17,18.7-26,25.4
		c-9.8,7.4-18.5,11.9-22.3,14.3l23.7,0.1c0,0-10,23.9-34.8,44.1c-17.4,14.2-34.4,22.7-56.3,28.9h22.7c-11,14.3-35.1,39.2-75.2,57.4
		c-43.3,19.7-79.4,20.4-101.7,20.8l26.2,27.4c-15.1,3.6-28.5,7-63.4,8.6c-32.5,1.5-68-2.7-77.1-3.3l22.2,31.2c0,0-11.9,2.7-27.4,2.7
		s-49.7-6.6-58.9-9.1l76.8,122.6l0.2,0.5c8.7,16.3,12.7,30.9,12.7,45.7c0,33.2-19.5,64.5-54.9,88.1c-32.9,21.9-76.1,34-121.6,34
		c-46.9,0-90.3-11.8-122.3-33.1c-35.6-23.7-55.2-55.4-55.2-89.2c0-35.1,18.5-65.2,55-89.5c32.3-21.5,75.8-33.4,122.5-33.4
		c11,0,22.5,0.7,33.4,2L49.3,27.6H131l61.4,97.4c1.4,0.1,2.7,0.1,4.1,0.1c9.5,0,32.2-1.3,38.6-12.9c1.5-2.8,3-12.9-0.7-23.5
		c-7.7-22.1-25.7-48.3-25.9-48.5l-8.7-12.5l673.6,0C873.5,27.6,872.9,34.4,869.6,43.4z"/>
	<path class="st2" d="M215.1,35.6c0,0,18.7,27,26.8,50.5c4.4,12.7,2.8,25.1,0.2,29.9c-8.1,14.9-32,17.1-45.6,17.1
		c-3.5,0-6.5-0.2-8.6-0.3l-61.3-97.2H63.7l262.6,426.8c-15.4-3-33-4.5-49.3-4.5c-44.4,0-86.5,10.9-118.1,32
		c-34.4,22.9-51.4,50.5-51.4,82.9c0,31.4,19,60.7,51.7,82.5c31.6,21.1,73.5,31.8,117.9,31.8c44.4,0,85.5-11.6,117.1-32.7
		c32.6-21.7,51.3-50.1,51.3-81.5c0-13.5-3.7-26.8-11.8-42l-0.1-0.2l-86.4-140.5c21.9,6.5,55.9,15.4,75.2,14.5l15.4-0.7l-9.4-12.2
		c-0.1-0.1-7.8-10.2-14.4-20.8c18.6,1.4,51.7,3.5,81.3,3.5c10.9,0,29.6-0.8,43.1-2.1c9.2-0.9,16.1-2.4,16.1-2.4l-28.7-30.5
		c1.8,0,3.7,0,5.6,0c0,0,0,0,0,0c20.7,0,67-1.7,105.9-19c20.2-9,38.2-20.2,50.5-30.7c10-8.6,16.1-17.6,16.1-17.6h-33.9
		c29.5-9.5,55.6-20.4,79.7-40.3c9.8-8.1,16.1-17.8,19.4-24c1.6-3,2.2-5.3,2.5-5.9h-34c3.1-1.7,38.6-20.4,58.8-40.4
		c9.8-9.7,15.3-19.8,17.4-26.7c1.4-4.5,0.9-7.9,0.9-7.9H778c16.1-10.1,44.6-29.3,63.3-51.8c7.2-8.7,14.1-19.1,17.6-27
		c3.3-7.4,3.5-12.6,3.5-12.6L215.1,35.6z M762.6,126.9H266.3l5.2,8.1h512.3h20.8c-5.7,24.5-57,53.2-84.2,67H313.5l5.2,8.1h425.6
		h12.9c-18.9,32.2-77.1,52.1-116,62.1H356l5.2,8.1h310.7H685c-60.5,62.9-178.6,50.3-178.6,50.3l31.2,33.6
		c-42.7,6.3-137.8-2.4-137.8-2.4c6.5,14.6,22.1,34.9,22.1,34.9c-28.4,1.3-92.9-20.6-92.9-20.6l97.5,158.6
		c6.5,12.2,10.9,24.5,10.9,38.2c0,59.2-71.8,107.1-160.4,107.1c-88.6,0-160.5-47.9-160.5-107.1c0-59.1,71.9-107,160.5-107
		c22.8,0,45.4,3.1,65,8.8L77.9,43.6h44.2l61,96.8c0,0,118.6,15.3,46.8-96.8h621.3C839.8,78.1,788.2,111.9,762.6,126.9z"/>
	<path class="st3" d="M851.2,43.6H230c71.8,112-46.8,96.8-46.8,96.8l-61-96.8H77.9l264,431.1c-19.6-5.6-42.2-8.8-65-8.8
		c-88.6,0-160.5,48-160.5,107c0,59.2,71.9,107.1,160.5,107.1c88.7,0,160.4-47.9,160.4-107.1c0-13.8-4.4-26-10.9-38.2L329,376.1
		c0,0,64.4,21.9,92.9,20.6c0,0-15.6-20.3-22.1-34.9c0,0,95.1,8.6,137.8,2.4l-31.2-33.6c0,0,118.1,12.6,178.6-50.3h-13.2H361.1
		l-5.2-8.1h285.2c38.9-10,97.1-29.9,116-62.1h-12.9H318.6l-5.2-8.1h406.9c27.2-13.7,78.5-42.5,84.2-67h-20.8H271.5l-5.2-8.1h496.4
		C788.2,111.9,839.8,78.1,851.2,43.6z"/>
</g>
</svg>
