<?xml version="1.0" encoding="utf-8"?>
<!-- Generator: Adobe Illustrator 25.0.0, SVG Export Plug-In . SVG Version: 6.00 Build 0)  -->
<svg version="1.1" id="Layer_1" xmlns="http://www.w3.org/2000/svg" xmlns:xlink="http://www.w3.org/1999/xlink" x="0px" y="0px"
	 viewBox="0 0 796 796" style="enable-background:new 0 0 796 796;" xml:space="preserve">
<style type="text/css">
	.st0{fill:#FFFFFF;}
	.st1{fill:#FFC422;}
	.st2{fill:#231F20;}
</style>
<g>
	<path class="st0" d="M764.7,243.1c-20.1-47.4-48.7-90-85.3-126.5C642.9,80,600.3,51.4,552.9,31.3C503.8,10.5,451.7,0,398,0
		c-53.7,0-105.8,10.5-154.9,31.3c-47.4,20-90,48.7-126.5,85.3C80,153.1,51.4,195.7,31.3,243.1C10.5,292.2,0,344.3,0,398
		c0,53.7,10.5,105.8,31.3,154.9c20,47.4,48.7,90,85.3,126.5c36.5,36.5,79.1,65.2,126.5,85.3C292.2,785.5,344.3,796,398,796
		c53.7,0,105.8-10.5,154.9-31.3c47.4-20,90-48.7,126.5-85.3c36.5-36.5,65.2-79.1,85.3-126.5C785.5,503.8,796,451.7,796,398
		C796,344.3,785.5,292.2,764.7,243.1z M749.9,546.7c-19.2,45.5-46.8,86.3-81.8,121.4c-35.1,35.1-75.9,62.6-121.4,81.8
		C499.6,769.9,449.5,780,398,780c-51.5,0-101.6-10.1-148.7-30.1c-45.5-19.2-86.3-46.8-121.4-81.8C92.8,633.1,65.3,592.2,46,546.7
		C26.1,499.6,16,449.5,16,398c0-51.5,10.1-101.6,30-148.7c19.2-45.5,46.8-86.3,81.8-121.4c35.1-35.1,75.9-62.6,121.4-81.8
		c47.1-19.9,97.2-30,148.7-30s101.6,10.1,148.7,30c45.5,19.2,86.3,46.8,121.4,81.8c35.1,35.1,62.6,75.9,81.8,121.4
		C769.9,296.4,780,346.5,780,398C780,449.5,769.9,499.6,749.9,546.7z M239.4,610.4c4.1,0,113.2,0,120.6,0v97.7
		c-56.1-6.7-110-29.1-154.4-63.9L239.4,610.4z M249.5,493.2L152,590.6c-34.9-44.4-57.4-98.4-64.1-154.4h161.5V493.2z M249.5,360.4
		H87.9c6.6-56.1,29.1-110.2,63.9-154.7l97.7,97.7V360.4z M500.1,186.6c-7.9,0-55.3,0-64.3,0V87.9c56.2,6.7,110.3,29.2,154.8,64.1
		l-62.2,62.2C522.5,208.5,505.8,192.1,500.1,186.6z M445.9,342h-82.1v-41l82.1,0l7.4,7.4l0,26.2L445.9,342z M528.6,582.5l61.7,61.7
		c-44.4,34.8-98.4,57.2-154.5,63.9v-97.8c8.7,0,56.7,0,64.3,0l8.7-8.5L528.6,582.5z M353.8,88.7c2.1-0.3,4.2-0.6,6.3-0.8v98.7
		c-6.2,0-117.6,0-120.2,0l-34.5-34.5C248.1,118.4,299.8,96.3,353.8,88.7z M573.8,436.2h134.3c-6.8,56.1-29.2,110.1-64.2,154.5
		l-70.1-70.1V436.2z M644.2,205.6c34.9,44.5,57.3,98.6,64,154.7c0,0,0,0,0,0H573.8V276L644.2,205.6z M445.7,496.1h-82.1v-41l82.1,0
		l7.4,7.4l0,26.2L445.7,496.1z"/>
	<path class="st1" d="M163.2,604l58.9-58.9c0,13.7,0,44.6,0,58L192.2,633c-9.2-8.1-18-16.8-26.3-25.9
		C165,606.1,164.1,605.1,163.2,604z M249.5,377.8H86.3c-0.9,13.6-0.9,27.4,0,41h163.2V377.8z M633,192.2c-9-10.3-18.7-20-29-29
		l-63.2,63.2c4,3.9,25.9,25.3,29.3,28.6L633,192.2z M222.1,216.4v-22.9l-30.2-30.2c-10.3,9-19.9,18.7-29,29l59.2,59.2V216.4z
		 M377.4,709.7c13.6,0.9,27.4,0.9,41,0v-99.4h-41V709.7z M418.4,86.3c-13.6-0.9-27.4-0.9-41,0v100.3h41V86.3z M564.8,547.2
		l-23.7,23.2l62.7,62.7c10.3-9,20-18.7,29-29l-62.3-62.4L564.8,547.2z M482.9,450.1l0.1,50.9l-24.9,24.9H333.8V425.2l124.3,0
		L482.9,450.1z M469.3,495.4l0-39.6l-16.8-16.8l-105,0c0,0,0,73.3,0,73.3h105L469.3,495.4z M553.5,535.7l-56,54.7l-4,3.9
		c-9.2,0-249.4,0-255.3,0c0-12.8,0-45,0-58c2.3-2.2,24.4-23.3,27.3-26.1V286.9c-3-2.9-24.9-23.8-27.3-26.1c0-13.1,0-45.2,0-58.1
		c6,0,246,0,255.3,0c4.4,4.3,59.8,58.4,64.1,62.6c0,6.7,0,99.3,0,106c-2.2,2.1-25.3,24.4-28.2,27.1c2.9,2.8,25.9,25,28.2,27.1
		c0,6.7,0,99.3,0,106L553.5,535.7z M544,431.4l-34.2-33l34.2-32.9v-94.4l-56-54.7h-236V255l27.3,26.1V516L251.9,542v38.5h236
		l56-54.7V431.4z M709.7,377.8H573.8v0.5c-5.1,4.9-15.9,15.3-21,20.2c5.2,5,15.9,15.3,21,20.3v0h135.9c0.6-9,0.8-18,0.6-27.1
		C710.2,387.1,710,382.4,709.7,377.8z M780,398c0,51.5-10.1,101.6-30.1,148.7c-19.2,45.5-46.8,86.3-81.8,121.4
		c-35.1,35.1-75.9,62.6-121.4,81.8C499.6,769.9,449.5,780,398,780c-51.5,0-101.6-10.1-148.7-30.1c-45.5-19.2-86.3-46.8-121.4-81.8
		C92.8,633.1,65.3,592.2,46,546.7C26.1,499.6,16,449.5,16,398c0-51.5,10.1-101.6,30-148.7c19.2-45.5,46.8-86.3,81.8-121.4
		c35.1-35.1,75.9-62.6,121.4-81.8c47.1-19.9,97.2-30,148.7-30s101.6,10.1,148.7,30c45.5,19.2,86.3,46.8,121.4,81.8
		c35.1,35.1,62.6,75.9,81.8,121.4C769.9,296.4,780,346.5,780,398z M765.1,398c0-49.5-9.7-97.6-28.9-142.9
		c-18.5-43.7-45-83-78.6-116.7c-33.7-33.7-73-60.2-116.7-78.6C495.6,40.6,447.5,30.9,398,30.9c-49.5,0-97.6,9.7-142.9,28.9
		c-43.7,18.5-83,45-116.7,78.6c-33.7,33.7-60.2,72.9-78.6,116.7C40.6,300.4,30.9,348.5,30.9,398c0,49.5,9.7,97.6,28.9,142.9
		c18.5,43.7,45,83,78.6,116.7c33.7,33.7,72.9,60.2,116.7,78.7c45.3,19.2,93.4,28.9,142.9,28.9c49.5,0,97.6-9.7,142.9-28.9
		c43.7-18.5,83-45,116.7-78.6c33.7-33.7,60.2-73,78.6-116.7C755.4,495.6,765.1,447.5,765.1,398z M483.1,296l0.1,50.9l-24.9,24.9
		H333.9V271.1l124.3,0L483.1,296z M469.4,341.3l0-39.6l-16.8-16.8l-105,0c0,0,0,73.3,0,73.3h105L469.4,341.3z"/>
	<path class="st2" d="M251.9,542v38.5h236l56-54.7v-94.5l-34.2-33l34.2-32.9v-94.4l-56-54.7h-236V255l27.3,26.1V516L251.9,542z
		 M333.9,271.1l124.3,0l24.8,24.8l0.1,50.9l-24.9,24.9H333.9V271.1z M333.8,425.2l124.3,0l24.8,24.8l0.1,50.9l-24.9,24.9H333.8
		V425.2z M736.2,255.1c-18.5-43.7-45-83-78.6-116.7c-33.7-33.7-73-60.2-116.7-78.6C495.6,40.6,447.5,30.9,398,30.9
		c-49.5,0-97.6,9.7-142.9,28.9c-43.7,18.5-83,45-116.7,78.6c-33.7,33.7-60.2,72.9-78.6,116.7C40.6,300.4,30.9,348.5,30.9,398
		c0,49.5,9.7,97.6,28.9,142.9c18.5,43.7,45,83,78.6,116.7c33.7,33.7,72.9,60.2,116.7,78.7c45.3,19.2,93.4,28.9,142.9,28.9
		c49.5,0,97.6-9.7,142.9-28.9c43.7-18.5,83-45,116.7-78.6c33.7-33.7,60.2-73,78.6-116.7c19.2-45.3,28.9-93.4,28.9-142.9
		C765.1,348.5,755.4,300.4,736.2,255.1z M708.1,360.4H573.8V276l70.4-70.4C678.4,249.4,701.2,302.4,708.1,360.4z M633,192.2
		L570.2,255l-5.4-5.2l-31.4-30.7l7.5,7.3l63.2-63.2C614.3,172.2,624,181.9,633,192.2z M242.5,264.9l-4.2-4V255v-38.6v-13.7h13.7h236
		h5.6l4,3.9l56,54.7l4.1,4v5.8v94.5v5.8l-4.2,4l-24,23l24,23.1l4.2,4v5.8v94.5v5.8l-4.1,4l-56,54.7l-4,3.9H488h-236h-13.7v-13.7V542
		v-5.9l4.2-4l23.1-22V286.9L242.5,264.9z M435.8,87.9c58,7,111.1,29.9,154.8,64.1l-62.2,62.2l-19.6-19.1l-8.7-8.5H488h-52.2V87.9z
		 M377.4,86.3c6.8-0.4,13.6-0.7,20.6-0.7c6.9,0,13.7,0.2,20.4,0.7v100.3h-41V86.3z M360,87.9v98.7H251.9h-12.1l-34.5-34.5
		C249,117.8,302.1,94.9,360,87.9z M191.9,163.2l30.2,30.2v22.9v35l-59.2-59.2C171.9,182,181.6,172.3,191.9,163.2z M151.8,205.7
		l97.7,97.7v57H87.9C94.8,302.5,117.6,249.4,151.8,205.7z M85.6,398c0-6.8,0.2-13.5,0.7-20.2h163.2v41H86.3
		C85.8,411.9,85.6,405,85.6,398z M87.9,436.2h161.5v57L152,590.6C117.8,547,95,494,87.9,436.2z M163.2,604l58.9-58.9v35.4v22.5
		L192.2,633C181.9,624,172.2,614.3,163.2,604z M360,708.1c-57.8-7-110.8-29.8-154.4-63.9l33.8-33.8h12.5H360V708.1z M418.4,709.7
		c-6.8,0.4-13.6,0.7-20.4,0.7c-6.9,0-13.8-0.2-20.6-0.7v-99.4h41V709.7z M435.8,708.1v-97.8H488h12.1l8.7-8.5l19.8-19.3l61.7,61.7
		C546.6,678.4,493.7,701.1,435.8,708.1z M603.7,633.1l-62.7-62.7l23.7-23.2l9-8.8l-3.4,3.3l62.4,62.4
		C623.7,614.4,614,624.1,603.7,633.1z M643.9,590.7l-70.1-70.1v-84.4h134.3C701,494,678.2,547,643.9,590.7z M709.7,418.8H573.8v0
		l-9.1-8.8l-11.9-11.5l11.9-11.4l9.2-8.8v-0.5h136c0.4,6.7,0.7,13.4,0.7,20.2C710.4,405,710.2,411.9,709.7,418.8z M469.2,455.7
		l-16.8-16.8l-105,0v73.3v0h105l16.9-16.9L469.2,455.7z M445.7,496.1h-82.1v-41l82.1,0l7.4,7.4l0,26.2L445.7,496.1z M469.4,301.7
		l-16.8-16.8l-105,0v73.3v0h105l16.9-16.9L469.4,301.7z M445.9,342h-82.1v-41l82.1,0l7.4,7.4l0,26.2L445.9,342z"/>
</g>
</svg>
