<?xml version="1.0" encoding="utf-8"?>
<!-- Generator: Adobe Illustrator 25.0.0, SVG Export Plug-In . SVG Version: 6.00 Build 0)  -->
<svg version="1.1" id="Layer_1" xmlns="http://www.w3.org/2000/svg" xmlns:xlink="http://www.w3.org/1999/xlink" x="0px" y="0px"
	 viewBox="0 0 1241.4 855.2" style="enable-background:new 0 0 1241.4 855.2;" xml:space="preserve">
<style type="text/css">
	.st0{fill:#FFFFFF;}
	.st1{fill:#192168;}
	.st2{fill:#AF1E2D;}
</style>
<g id="XMLID_1_">
	<path class="st0" d="M1222.1,595.4l-115.6-172.6l71.2-76.1l12.8-13.8l-4-18.3l-43.2-200.4l-4.5-20.8l-20.4-6L924.5,29.3L904,23
		l-15.1,15.1l-4.5,4.5C835.8,29.8,711.2,0,596.7,0l0,0c-75.3,0-149.2,9.8-219.6,29.3C306.5,48.7,242.7,77,187.7,113.1
		c-57.8,38-103.5,83.1-135.4,134.3C17.6,302.7,0,363.1,0,426.8c0,61.6,14.5,119.7,43.2,172.8c28.1,52.3,69.3,98.2,122.2,136.5
		c107.6,78,256.8,119.2,431.5,119.2c75.9,0,155.6-11.1,237-33c64.6-17.4,130.5-41.7,195.6-72.3c111-51.9,181.3-103.5,184.3-105.6
		l27.6-20.4L1222.1,595.4z M596.7,819.4c-346.5,0-560.8-168.8-560.8-392.6c0-235.3,270.6-390.9,560.8-390.9
		c139.4,0,298.2,47,298.2,47l19.5-19.4l193.9,58.2l43.1,200.5l-90.5,97.1l131.4,196.2C1192.3,615.4,915.7,819.4,596.7,819.4z
		 M634.5,312.5v46.3h-51.7v-48.2C628.8,310.6,628.1,311.6,634.5,312.5z M582.7,542.7v-48.2h51.7v46.3
		C612.2,544.2,582.7,542.7,582.7,542.7z M322.9,428.8c0-63.8,110.7-92.7,110.7-92.7v184.1C433.6,520.2,322.9,479.8,322.9,428.8z
		 M779.5,510.8V343.7c113.1,33.4,175.6,92.7,175.6,92.7S869,487.2,779.5,510.8z M737.6,562.9V294c189.6,35.7,263,129.4,263,129.4
		l107.8-112.2l-36.6-159.6l-146.5-41l-19.6,19.6c0,0-136.9-55-323.1-55c-296.7,0-505.7,171.3-505.7,352.4c0.2,197.3,207,351,501,351
		c312.7,0,559.5-173.2,559.5-173.2l-112.2-166C929.1,504,837.5,544.2,737.6,562.9z M569.3,750.4c-248.9,0-462.6-124.3-462.6-325.9
		c0-183.2,218.1-319.9,475.1-319.9c216,0.2,330.3,60.2,330.3,60.2l21.5-23.8l116.5,34.6L1076,305l-79.7,79.7
		c0,0-129.4-133.7-418.6-133.7c-227.9,0-323.9,97.2-323.9,172.4s86.3,181.1,334.4,181.1c255.1,0,429.6-125,429.6-125l77.6,116.3
		C1095.2,596,884.1,750.4,569.3,750.4z M552.7,391.3V281c10-0.4,20.2-0.6,31-0.6c28.3,0,55,1.3,80.1,3.4v107.3h-111V391.3z
		 M663.8,461.7v111c-22.8,1.9-46.1,2.8-70.1,2.8c-14.4,0-27.9-0.4-41-0.9V461.5h111V461.7z M474.5,287.4v279.7
		c-195.4-31.5-192.4-138.8-192.4-138.8C282.1,389.8,308.2,311.2,474.5,287.4z"/>
	<path class="st1" d="M282.1,428.3c0,0-3,107.4,192.4,138.8V287.4C308.2,311.2,282.1,389.8,282.1,428.3z M433.6,336.3v184.1
		c0,0-110.7-40.4-110.7-91.4C322.9,365,433.6,336.3,433.6,336.3z M552.7,574.8c13,0.6,26.6,0.9,41,0.9c24,0,47.2-0.9,70.1-2.8v-111
		h-111L552.7,574.8L552.7,574.8z M582.7,494.6h51.7v46.3c-22.3,3.4-51.7,1.9-51.7,1.9V494.6z M552.7,281v110.3h111V284
		c-25.1-2.3-51.7-3.4-80.1-3.4C572.9,280.4,562.7,280.6,552.7,281z M634.5,312.5v46.3h-51.7v-48.2
		C628.8,310.6,628.1,311.6,634.5,312.5z M1060.9,419.2l90.5-97.1l-43.1-200.4L914.3,63.6l-19.5,19.4c0,0-158.8-47-298.2-47
		C306.5,35.9,35.9,191.5,35.9,426.8c0,223.8,214.3,392.6,560.8,392.6c318.9,0,595.6-204.1,595.6-204.1L1060.9,419.2z M577.8,778.8
		C283.8,778.8,77,625,77,427.7c0-181.1,209-352.4,505.7-352.4c186.2,0,323.1,55,323.1,55l19.5-19.4l146.5,41l36.6,159.6
		l-107.8,112.2c0,0-73.5-93.7-263-129.4v268.9c100.1-18.9,191.7-58.9,287.8-123.3l112.2,166C1137.4,605.6,890.5,778.8,577.8,778.8z
		 M955.1,436.4c0,0-86.3,50.6-175.6,74.4V343.7C892.6,377.1,955.1,436.4,955.1,436.4z"/>
	<path class="st2" d="M1017.6,479.6c0,0-174.7,125-429.6,125c-248.3,0-334.4-105.9-334.4-181.1s95.9-172.4,323.9-172.4
		c289.3,0,418.6,133.7,418.6,133.7l79.7-79.7l-25.7-129.5l-116.3-34.6l-21.7,23.8c0,0-114.2-60-330.3-60
		c-257,0-475.1,136.5-475.1,319.9c0,201.5,213.8,325.9,462.6,325.9c314.8,0,525.9-154.5,525.9-154.5L1017.6,479.6z"/>
</g>
</svg>
