<?xml version="1.0" encoding="utf-8"?>
<!-- Generator: Adobe Illustrator 25.0.0, SVG Export Plug-In . SVG Version: 6.00 Build 0)  -->
<svg version="1.1" id="Layer_1" xmlns="http://www.w3.org/2000/svg" xmlns:xlink="http://www.w3.org/1999/xlink" x="0px" y="0px"
	 viewBox="0 0 826.1 797" style="enable-background:new 0 0 826.1 797;" xml:space="preserve">
<style type="text/css">
	.st0{fill:#FFFFFF;}
	.st1{fill:#99999A;}
	.st2{fill:#00205B;}
	.st3{fill:#041C2C;}
</style>
<g id="XMLID_1_">
	<path class="st0" d="M417.8,504.3L581.1,423c101.1,29.4,134.2,67.3,135.7,69l11.7,15.6l12.8-14.9l66-74.6
		c5.9-6.2,18.8-23.3,18.8-52.7c0-33.2-29.8-56.7-50.1-71.4c-25.8-58.4-108.1-89.2-168.7-111.8c-15.5-5.8-30.2-11.3-41.2-16.3
		c-13.1-5.9-16.6-9.2-17.4-10.1c-3.1-7.5-17.7-55.1-30.3-97.9l-0.1-0.3l-0.1-0.3C510,33,493,15.5,469.1,6.8C450.6,0,432.5,0,422.8,0
		c-18.8,0-56.6,6-58.2,6.2l-13.5,2.1V22c0,30.1-1.9,64.8-5.3,95.1c-3.2,29.2-6.7,44.9-8.9,51.4c-9.4,4.7-31.6,15.4-57.2,25
		l-85.3-57.5l-36.6-24.7l12.3,42.4l20.8,71.5c-32.5,19.1-62.2,42.3-88.4,69.1C79.1,318.3,58.4,345,41,373.9
		c-29.8,49.4-39.8,87.8-40.2,89.4l-0.8,3l0.4,3c0.4,3.4,11.2,83.6,72.3,164.4c35.8,47.5,81.6,85.4,136.1,112.5
		c67.5,33.6,148.5,50.7,240.7,50.7c110.3,0,196-28.1,248.5-51.6c57.4-25.7,88.4-51.5,89.7-52.6l9.3-7.8l-4.9-11l-67-149.9l-6.9-15.5
		l-15.1,7.8c-1,0.5-100.6,51.4-225.7,51.4c-84.8,0-130.2-29.1-154.1-56.2c4.4,0,8.6,0.1,12.7,0.1C394.5,511.7,412.3,507,417.8,504.3
		z M477.4,583.8c130.8,0,233-53.2,233-53.2l67,149.9c0,0-120,100.5-328,100.5C56.3,781,16.3,467.3,16.3,467.3S54.2,318.4,209.8,233
		l-24.3-83.7l92.1,62.1c38.7-13.8,71.6-31.1,71.6-31.1c9.2-14.4,17.9-93.5,17.9-158.3c0,0,37.9-6,55.7-6c17.6,0,64.5,0,80.3,46.5
		c0,0,26.7,90,31.3,100.3c13.5,30,195.7,55.1,228.6,141.4c19.4,14,47.1,34.4,47.1,61.1c0,24.6-11,38.1-14.6,41.9l-66.2,74.8
		c0,0-34.3-43.8-149.9-76.2L410.6,490c0,0-11.2,5.7-74.5,5.7c-12.4,0-26.8-0.2-43.6-0.7C309.8,527.6,356.9,583.8,477.4,583.8z
		 M675.7,355.7c6,0,14.9,4.1,19.4,6.3c-4.6,2.2-10.8,5.4-11.7,5.7c-1.3,0.3-3.2,0.2-4.4,0c-1-0.2-11.4-4.4-19-7.5
		C659.8,360.3,670,355.6,675.7,355.7z M653.3,362.9c7.9,2.9,20.8,7.6,21.6,8.4c1.1,1.1,1.1,1.7,0.8,2.5c-0.5,0.6-6.2,3.5-11.4,5.7
		l-28.6-10.2L653.3,362.9z M692.7,392.2l-23-10.5c2.7-1.4,10.2-5.6,11.4-6.2c1.4-0.6,2.4-0.6,4.1-0.5c1.6,0.2,16.4,7.8,17.3,8.9
		c0.2,0.6,0,1.1-0.3,1.9C701.7,386.5,697.1,389.5,692.7,392.2z M735.2,401.1c0.8,0.3,9.4,6.2,15.4,10.3l-7.3,8.1l-19.7-12.2
		c3-2.4,7.1-5.6,7.8-5.7C732.4,401.3,734.4,401,735.2,401.1z M713.6,383.3c0.5-0.6,4.9-3.7,9.2-6.3l17.8,11.3
		c-2.2,1.9-5.7,4.6-6.5,4.9c-1.6,0.5-3.2,1-3.7,0.8l-15.9-8.7C713.6,384,713.6,383.5,713.6,383.3z M699.2,363.8l19.8,10.6
		c-3.5,2.4-8.7,5.7-9.5,5.9c-1.1,0.3-2.2,0.3-3.3,0.2c-1.1,0-16-7.8-17.1-8.6c-1-0.8-1.3-1.1-1-1.7
		C688.5,369.5,694.1,366.5,699.2,363.8z M602.8,273.2c0-9,8.3-10.8,14-10.8c30,0,76.4,23.8,84,44c-13-14.1-36.2-26.5-53.7-26.5
		c-3.7,0-7.6,1.1-7.6,5.7c0,11.9,21,30.5,98.1,39.1c19.5,15.7,42.5,27.5,42.5,44.9h0c0,5.2-1.3,9.4-2.9,12.4
		c7.9-28.4-33-50.3-72.4-59.7C631.4,316.2,602.8,292.2,602.8,273.2z M719.5,404.4l-21.7-10.2c3.8-2.9,7.9-5.7,8.6-5.9
		c1.3-0.5,3.3-0.8,4.6-0.5c1.1,0.2,15.2,7.8,16.2,8.7c0.6,0.6,0.8,1.6,0.5,2.1C727.3,399.4,723.1,402.1,719.5,404.4z M443.1,190.8
		c-13.5,0.8-41,9.7-41,9.7s24.8-14.3,29.7-21.9c4.9-7.6,6.3-94.1,6.3-94.1s7.9,84.6,14.6,93.2c6.8,8.6,31.7,19,31.7,19
		S453,190.1,443.1,190.8z M397.7,376.2c-73.7,15.1-144,85.1-147.5,88.4c3.5-6.7,67.6-124.8,204.9-132.9L397.7,376.2z M728.1,438.4
		c0,0-45.2-36.7-151.1-64.8c43.8-22.1,76-35.9,98.6-35.9c27.6,0,65.9,26.7,98.4,49.2l-8.6,9.5c-37.3-24.3-72.1-46.4-88.9-46.4
		c-7.5,0-35.1,10.6-57.8,19.7c76.4,25.1,115.4,52.1,120.6,55.9L728.1,438.4z M744.3,390.5l16.4,10.6l-7.1,7.1
		c-6.2-4.1-15.4-10.3-16-10.8c-0.3-0.3-0.2-0.8,0.3-1.7h0C738.1,395.2,741.2,392.7,744.3,390.5z"/>
	<path class="st1" d="M327.9,311.7l-44.1,24.6l87.8,11.9L327.9,311.7z M322.3,321.4l33.7,19.5l-57.3-7L322.3,321.4z M410.6,490
		l168.9-84.1c115.6,32.4,149.9,76.2,149.9,76.2l66.2-74.8c3.7-3.8,14.6-17.3,14.6-41.9c0-26.7-27.8-47.1-47.1-61.1
		c-32.9-86.4-215.1-111.4-228.6-141.4c-4.6-10.3-31.3-100.3-31.3-100.3C487.2,16,440.4,16,422.8,16c-17.8,0-55.7,6-55.7,6
		c0,64.8-8.7,143.8-17.9,158.3c0,0-32.9,17.3-71.6,31.1l-92.1-62.1l24.3,83.7C54.2,318.4,16.3,467.3,16.3,467.3S56.3,781,449.5,781
		c208,0,328-100.5,328-100.5l-67-149.9c0,0-102.2,53.2-233,53.2c-120.5,0-167.6-56.2-184.9-88.9C394.5,498.1,410.6,490,410.6,490z
		 M200.7,172.2l89.7,62.1L272,259l-45.6-11.3L200.7,172.2z M176.9,495.2l-14.6,55.9l33.2-15.6l17.6,62.4l37.3-0.5l0.8,40.8
		c0,0,61.4,38.4,155.9,48.4c123.5,13.2,259.5-40.2,259.5-40.2S552.5,690,425.2,678.6c-96.4-8.6-153.3-48.1-153.3-48.1l-10-45.2
		l-30.3,4l-25.2-64.3l-26.4,7.8l12.7-43.8l-61.4-11.4l30.2-19.8l35.1-12.7l-5.9-12.7l44.9-14.9c-1,7.6-1.7,17.1-1.7,28.3
		c0,50.5,49.2,184.3,244.6,184.3c99.1,0,179.4-26.8,210.2-38.7l33.2,74.5c-31.1,18.4-132.6,71.1-271.5,71.1
		c-321.6,0-379.9-231.1-386.7-264.5c55.7-145.6,152.1-195.1,196.8-210.7l-14.8,46.4l-37.3-21.3l21.1,42.4L169,340.6l37.1,14.4
		L121,418.4l20.3-0.5l-15.1,30.5l-13,39.1L176.9,495.2z M478.2,602.4c123.5,0,224.3-47.3,224.3-47.3l54,120.6
		c0,0-115.4,88.4-306.2,88.4c-372.9,0-415.1-294.8-415.1-294.8s41-141.9,179.9-218.8l1.4,4.9l16.5,1.9
		c-52.5,24.3-135.3,81.9-184.5,213.4c0,0,45.2,280.2,401.6,280.2c174.3,0,289.6-79.8,289.6-79.8l-44-98.4c0,0-94.9,42.9-217.6,42.9
		c-169.9,0-218-101.6-228-150.8c0,0,0.1-0.1,0.2-0.2c0,0,0,0,0,0v-0.2c-1.6-7.8-2.2-14.3-2.2-18.9c0-31.6,6.2-47.9,6.2-47.9
		l-81.4,32.9l11.6,11.9c0,0-12.2,3.7-52.7,21.9l27.9-50.6l-21.3-1.6l78.7-60.3l-27.3-9.4l48.3-8.1l-9.7-24l27,14.1l20.8-65.1
		l18.9-19c0.3-0.2,0.6-0.3,1-0.5c0,0,0,0,0,0l9.3-9.3l-9.8-6.7c32.9-12.7,63-24.9,67.1-30c16.4-17.9,23-120.6,23-155.9
		c0,0,21.4-3.5,37.9-3.5c17.3,0,51.9,0,63.7,34.6c14.6,47.8,24.8,87,32.5,103.5c19.7,40.8,196.8,56.7,228.9,143.5
		c15.4,11.1,44.4,30.6,44.4,50c0,20.8-9.8,30-9.8,30l-53.7,60.5c0,0-33.8-35.9-151.1-68.9l-173.2,86.5c-33.5,9-138.3,2.7-138.3,2.7
		S294.2,602.4,478.2,602.4z M356.8,229.8l-73.8,41.3l19.2,45.9L356.8,229.8z M294.2,273.6l46.7-26.4l-40.3,54.6L294.2,273.6z
		 M270.9,380.8l7.8-54.4l-102.1,68.6L270.9,380.8z M263.9,375.6l-62.5,9.7l69.1-46.8L263.9,375.6z"/>
	<path class="st2" d="M748.7,316c-32.1-86.8-209.2-102.7-228.9-143.5C512,156,501.9,116.8,487.2,69c-11.7-34.6-46.4-34.6-63.7-34.6
		c-16.5,0-37.9,3.5-37.9,3.5c0,35.2-6.7,137.9-23,155.9c-4.1,5.1-34.3,17.3-67.1,30l9.8,6.7l-9.3,9.3c32.3-16.8,59.4-22.8,75.4-36.3
		c24.1-24.3,27.3-140.8,27.3-154c0,0,47.8-6.5,66.4,7.8c17,12.9,33.8,107.9,44,122.7c36.5,53.3,199.2,59.4,228.8,144.5
		c-77-8.6-98.1-27.1-98.1-39.1c0-1.5,0.5-2.7,1.2-3.5c-0.8,0.9-1.3,2-1.3,3.7c0,11.9,21,30.5,98.1,39.1
		c19.5,15.7,42.5,27.5,42.5,44.9h0c0,4.9-1.1,8.8-2.6,11.8c-0.1,0.2-0.1,0.4-0.1,0.6c-1.4,2.8-3,4.5-3.6,5c0,0,0.1,0,0.1,0.1
		l-8.6,9.5c-37.3-24.3-72.1-46.4-88.9-46.4c-7.5,0-35.1,10.6-57.8,19.7c76.4,25.1,115.4,52.1,120.6,55.9l-11.3,12.7c0,0,0,0-0.1-0.1
		l-0.1,0.1c0,0-45.2-36.6-151-64.7c-45.6,22.9-103.6,54.4-176.2,88.1c-23,6.5-117,2.5-117,2.5l113.8-88.1
		C324.1,391.4,254,461,250.3,464.6c-0.1,0.1-0.2,0.2-0.2,0.2c10,49.2,58.1,150.8,228,150.8c122.7,0,217.6-42.9,217.6-42.9l44,98.4
		c0,0-115.2,79.8-289.6,79.8C93.7,751,48.5,470.8,48.5,470.8c49.2-131.4,131.9-189.1,184.5-213.4l-16.5-1.9l-1.4-4.9
		C76.1,327.5,35.1,469.4,35.1,469.4s42.2,294.8,415.1,294.8c190.8,0,306.2-88.4,306.2-88.4l-54-120.6c0,0-100.8,47.3-224.3,47.3
		c-184,0-211.1-125.6-211.1-125.6s104.8,6.3,138.3-2.7l173.2-86.5c117.3,33,151.1,68.9,151.1,68.9l53.7-60.5c0,0,9.8-9.2,9.8-30
		C793.2,346.7,764.1,327.1,748.7,316z M740.6,388.3c-2.2,1.9-5.7,4.6-6.5,4.9c-1.6,0.5-3.2,1-3.7,0.8l-15.9-8.7c-1-1.3-1-1.7-1-1.9
		c0.5-0.6,4.9-3.7,9.2-6.3L740.6,388.3z M719,374.4c-3.5,2.4-8.7,5.7-9.5,5.9c-1.1,0.3-2.2,0.3-3.3,0.2c-1.1,0-16-7.8-17.1-8.6
		c-1-0.8-1.3-1.1-1-1.7c0.5-0.6,6-3.7,11.1-6.3L719,374.4z M675.7,355.7c6,0,14.9,4.1,19.4,6.3c-4.6,2.2-10.8,5.4-11.7,5.7
		c-1.3,0.3-3.2,0.2-4.4,0c-1-0.2-11.4-4.4-19-7.5C659.8,360.3,670,355.6,675.7,355.7z M635.7,369.4l17.6-6.5
		c7.9,2.9,20.8,7.6,21.6,8.4c1.1,1.1,1.1,1.7,0.8,2.5c-0.5,0.6-6.2,3.5-11.4,5.7L635.7,369.4z M669.6,381.7
		c2.7-1.4,10.2-5.6,11.4-6.2c1.4-0.6,2.4-0.6,4.1-0.5c1.6,0.2,16.4,7.8,17.3,8.9c0.2,0.6,0,1.1-0.3,1.9c-0.5,0.6-5.1,3.7-9.5,6.3
		L669.6,381.7z M697.7,394.3c3.8-2.9,7.9-5.7,8.6-5.9c1.3-0.5,3.3-0.8,4.6-0.5c1.1,0.2,15.2,7.8,16.2,8.7c0.6,0.6,0.8,1.6,0.5,2.1
		c-0.3,0.6-4.4,3.3-8.1,5.7L697.7,394.3z M743.3,419.5l-19.7-12.2c3-2.4,7.1-5.6,7.8-5.7c1-0.3,3-0.6,3.8-0.5
		c0.8,0.3,9.4,6.2,15.4,10.3L743.3,419.5z M753.5,408.3c-6.2-4.1-15.4-10.3-16-10.8c-0.3-0.3-0.2-0.8,0.3-1.7h0
		c0.3-0.5,3.5-3,6.5-5.2l16.4,10.6L753.5,408.3z M226.4,247.8l-25.7-75.6l89.7,62.1L272,259L226.4,247.8z M294.2,273.6l46.7-26.4
		l-40.3,54.4L294.2,273.6z M298.5,334l23.8-12.5l33.7,19.5L298.5,334z M263.9,375.6l-62.5,9.8l69.1-46.8L263.9,375.6z M235.5,417.3
		c-1,7.6-1.7,17.1-1.7,28.3c0,50.5,49.2,184.3,244.6,184.3c99.1,0,179.4-26.8,210.2-38.7l33.2,74.5
		c-31.1,18.4-132.6,71.1-271.5,71.1c-321.6,0-379.9-231.1-386.7-264.5c55.7-145.6,152.1-195.1,196.8-210.7l-14.8,46.4l-37.3-21.3
		l21.1,42.4L169,340.6l37.1,14.4L121,418.4l20.3-0.5l-15.1,30.5l-13,39.1l63.7,7.8l-14.6,55.9l33.2-15.6l17.6,62.4l37.3-0.5
		l0.8,40.8c0,0,61.4,38.4,155.9,48.4c123.5,13.2,259.5-40.2,259.5-40.2S552.5,690,425.2,678.6c-96.4-8.6-153.3-48.1-153.3-48.1
		l-10-45.2l-30.3,4l-25.2-64.3l-26.4,7.8l12.7-43.8l-61.4-11.4l30.2-19.8l35.1-12.7l-5.9-12.7L235.5,417.3z"/>
	<path class="st3" d="M704.9,322.2c-73.5-6-102.1-30-102.1-49.1c0-3.4,1.2-5.8,3-7.4c2.9-2.8,7.6-3.5,11.2-3.5c30,0,76.4,23.8,84,44
		c-0.1-0.1-0.3-0.3-0.4-0.4c0.1,0.2,0.2,0.4,0.2,0.6c-13-14.1-36.2-26.5-53.7-26.5c-2.4,0-4.8,0.5-6.3,2c-0.7,0.8-1.2,2-1.2,3.5
		c0,11.9,21.1,30.5,98.1,39.1C708.2,239.4,545.5,233.3,509,180c-10.2-14.8-27-109.9-44-122.7c-18.6-14.3-66.4-7.8-66.4-7.8
		c0,13.2-3.2,129.7-27.3,154c-16.2,13.7-43.7,19.7-76.4,36.8l-18.9,19l-20.8,65.1l-27-14.1l9.7,24l-48.3,8.1l27.3,9.4l-78.7,60.3
		l21.3,1.6l-27.9,50.6c40.5-18.3,52.7-21.9,52.7-21.9l-11.6-11.9l81.4-32.9c0,0-6.2,16.4-6.2,47.9c0,4.6,0.6,11.1,2.2,18.9
		c3.5-6.7,67.6-124.8,204.9-132.9l-0.2,0.2c0.1,0,0.1,0,0.2,0l-57.5,44.4c-0.1,0-0.2,0-0.2,0.1l-113.8,88.1c0,0,94,4,117-2.5
		c72.5-33.7,130.6-65.2,176.2-88.1c43.8-22.1,76-35.9,98.6-35.9c27.6,0,65.8,26.6,98.3,49.2c0.6-0.5,2.2-2.2,3.6-5
		c0.1-0.2,0.1-0.4,0.1-0.6c-0.1,0.2-0.2,0.4-0.3,0.6C785.2,353.5,744.3,331.6,704.9,322.2z M270.9,380.8l-94.3,14.1l102.1-68.6
		L270.9,380.8z M356.8,229.8L302.2,317l-19.2-45.9L356.8,229.8z M283.7,336.3l44.1-24.6l43.7,36.5L283.7,336.3z M443.1,190.8
		c-13.5,0.8-41,9.7-41,9.7s24.8-14.3,29.7-21.9c4.9-7.6,6.3-94.1,6.3-94.1s7.9,84.6,14.6,93.2c6.8,8.6,31.7,19,31.7,19
		S453,190.1,443.1,190.8z"/>
</g>
</svg>
