<?xml version="1.0" encoding="utf-8"?>
<!-- Generator: Adobe Illustrator 25.0.0, SVG Export Plug-In . SVG Version: 6.00 Build 0)  -->
<svg version="1.1" id="Layer_1" xmlns="http://www.w3.org/2000/svg" xmlns:xlink="http://www.w3.org/1999/xlink" x="0px" y="0px"
	 viewBox="0 0 1012.7 650.7" style="enable-background:new 0 0 1012.7 650.7;" xml:space="preserve">
<style type="text/css">
	.st0{fill:#FFFFFF;}
	.st1{fill:#00214D;}
	.st2{fill:#CF132B;}
</style>
<g id="XMLID_1_">
	<path class="st0" d="M717.2,372.4c2.7,0,12.8-4.3,12.8-4.3s-6.6,23.7-21.5,23.7l-51.9,0c-3.1,0-3.5-3.4-3.5-5.5
		c0-2.1,3.9-13.9,15.6-13.9H717.2z M518,269.4c2.4,0,4.7-0.6,7.1-1.8c2.4-1.2,4.5-3,6.4-5.4c1.9-2.4,3-4.8,3.4-7.1
		c0.5-2.6-0.1-4.6-1.6-6.1c-1.5-1.5-3.7-2.2-6.5-2.2c-4.3,0-8,1.5-11.3,4.6c-3.2,3.1-5.2,6.4-5.8,10.1c-0.4,2.2,0.1,4.1,1.6,5.6
		C512.9,268.6,515.1,269.4,518,269.4z M261.6,248.6L249,261.8h12.7L261.6,248.6z M213.5,372.4c-11.6,0-15.6,11.8-15.6,13.9
		c0,2.1,0.5,5.5,3.5,5.5l51.9,0c14.9,0,21.5-23.7,21.5-23.7s-10,4.3-12.8,4.3H213.5z M990.1,349.3h-20.9c0,0,11.6,11.6,11.6,27.6
		c0,24-22.4,54.6-51.2,54.6h-274c-25.3,0-45.6-20.3-45.4-34.8l-32.2,79c0,0-1.5,2.6-1.5,8.1c0,5.5,0.6,6.1,1.5,6.9l70.4,60.4
		l36.1-44.6l116.6-0.2l-50.7,63.4h-92.8l-55.2,80.8c0,0-66.4-104.3-73.7-116.7c-7.3-12.3-9.8-31.5-9.8-41.6
		c0-27.2,7.7-45.1,9.8-50.5l4.1-10.5H344.6l-25.6,63h-64.2l26.3-63.2H197c-23.1,0-36.6-21.9-36.6-21.9s-29.7,22.1-52.1,22.1H43.9
		C16.8,431.5,0,406.9,0,390.2c0-38,57.6-95.7,131.3-95.7h27.5c0,0,5.2-64.6,26.6-64.6h39.2c0,0,3.9-91.5,37.8-91.5h390.8L712.4,0
		h63.2L653.5,294.5h76.9c32.4,0,47.8,24.8,47.8,24.8l63.2-155.1h64.1l-57.6,141c0,0,19.3-10.5,29.3-10.5h135.5L990.1,349.3z
		 M667.9,552.7h76l24.7-29.7h-77.2L667.9,552.7z M539.5,171.9l21.8,16l-8.3,26.4l22-16.3l21.3,15.6l-8.2-25.3l22.2-16.5h-27.6
		l-8.4-25.9l-8.1,25.9H539.5z M559.9,252.5l7.5,22h8.2l14.8-32.7h-8.1l-9.9,21.9l-7.6-21.9h-8.2l-14.8,32.7h8.2L559.9,252.5z
		 M522,309.9l-9.8,23.9h30l9.8-23.9H522z M503.3,255.5c-1.1,2.1-1.9,4.2-2.2,6.1c-0.4,2.1-0.2,4.1,0.6,6.2c0.8,2,2.3,3.8,4.8,5.1
		c2.4,1.4,5.6,2.1,9.6,2.1c4.6,0,8.8-0.9,12.8-2.6c3.9-1.7,7.2-4.2,9.9-7.5c2.7-3.2,4.4-6.6,5-10c0.8-4.2-0.3-7.5-3.1-10
		c-2.8-2.5-6.8-3.8-12.1-3.8c-3.9,0-7.5,0.6-10.8,1.8c-3.3,1.2-6.2,2.9-8.6,5C506.8,250.1,504.8,252.6,503.3,255.5z M470.4,247.2
		h12.5l-12.4,27.2h8.8l12.3-27.2h12.3l2.5-5.5h-33.5L470.4,247.2z M396.2,171.9l21.8,16l-8.3,26.4l22-16.3l21.3,15.6l-8.2-25.3
		l22.2-16.5h-27.6l-8.4-25.9l-8.1,25.9H396.2z M431.1,261.3c0.5-2.8,1.6-5.4,3.4-7.7c1.8-2.4,3.9-4.1,6.5-5.2
		c2.6-1.1,5.3-1.7,8.1-1.7c2.4,0,4.3,0.5,5.8,1.4c1.4,0.9,1,2,1.3,3.8l8.3,0c-0.4-3.4-0.5-6.3-3.1-8.1c-2.7-1.8-6.4-2.6-11.4-2.6
		c-4.9,0-9.4,1-13.4,2.9c-4,1.9-7.3,4.7-9.9,8.2c-2.2,2.9-3.5,6-4.1,9.1c-0.9,4.7,0.4,8.4,3.8,10.9c2.5,1.8,6.3,2.7,11.6,2.7
		c3.4,0,6.8-0.4,10.2-1.2c3.4-0.8,6.3-1.7,8.8-2.8l6.4-14h-19l-2.5,5.5h10.9l-2.2,4.9c-1.5,0.6-3.3,1.1-5.4,1.5
		c-2,0.4-4,0.6-5.9,0.6c-3.1,0-5.4-0.7-6.8-2C431,266.1,430.6,264.1,431.1,261.3z M389.5,241.7L374,274.4h8.2l10.6-22l7.8,22h8.2
		l13.9-32.7h-8.1l-9,21.9l-7.8-21.9H389.5z M370.4,241.7l-14.8,32.7h8.8l14.8-32.7H370.4z M328.6,241.7l-14.8,32.7h8.8l6.6-14.6
		h16.5l-6.6,14.6h8.8l14.8-32.7h-8.7l-5.7,12.6h-16.5l5.7-12.6H328.6z M293.7,250c0.2-1,0.8-1.8,2-2.5c1.2-0.7,2.9-1,5.4-1
		c2.5,0,4.2,0.4,5.3,1.2c1.1,0.8,1.6,2,1.6,3.6l8.4-0.3c0.3-3-0.8-5.4-3.2-7.2c-2.4-1.8-6.1-2.7-11.1-2.7c-4.9,0-8.8,0.9-11.8,2.7
		c-2.9,1.8-4.6,4.1-5.1,6.8c-0.3,1.6-0.1,3,0.6,4.1c0.7,1.2,1.7,2.1,3.1,2.9c1.4,0.7,3.6,1.7,6.7,2.8c3.1,1.1,5,1.9,5.6,2.4
		c0.9,0.7,1.3,1.5,1.1,2.5c-0.2,1.1-1,2.1-2.4,2.9c-1.4,0.8-3.6,1.2-6.4,1.2c-3.4,0-5.7-0.6-6.8-1.7c-0.7-0.7-0.9-2.1-0.6-4.1
		l-8.4,0.3c-0.5,2.2-0.3,4.1,0.5,5.8c0.8,1.7,2.5,3,5,3.9c2.5,0.9,5.6,1.4,9.3,1.4c5.3,0,9.6-1,13-3.1c3.3-2,5.3-4.5,5.8-7.4
		c0.4-2.3-0.2-4.2-2-5.7c-1.2-1-4-2.3-8.6-3.9c-3.1-1.1-5-1.9-5.8-2.6C293.9,251.7,293.5,250.9,293.7,250z M252.3,171.9l21.8,16
		l-8.3,26.4l22-16.3l21.3,15.6l-8.2-25.3l22.2-16.5h-27.6l-8.4-25.9l-8.1,25.9H252.3z M229.5,274.4h9l6.4-7.2h16.9l0.1,7.2h8.3
		l-1-32.7h-9.7L229.5,274.4z M182.8,274.4h9l19.8-23.9l-2.7,23.9h8.9l26.5-32.7h-8.5l-18.1,22.6l1.2-22.6h-9.5l-17.6,22.9l0.9-23.1
		h-8.6L182.8,274.4z M176.2,309.9H134c-62,0-118.1,46.8-118.1,80.2c0,17.4,19.3,25.8,23.5,25.8h67.3c17.4,0,47.7-21.7,47.7-21.7
		l-24-11.2c0,0-11.9,8.7-20.3,8.7H52.4c-4.3,0-6.2-3.2-6.2-7.8c0-10.2,24.4-50.2,81.3-50.2h38.9L176.2,309.9z M284.6,415.9l23.5-56
		c2.1-5.1,5-14.7,5-19.1c0-17.7-14.2-30.9-39.8-30.9h-79l-9.7,23.9H269c13.1,0,14.7,5.3,14.7,13.5h-62.2c-36.7,0-52.2,26-52.2,38.7
		c0,22,19.9,30,29.3,30h41.3c7.7,0,17.1-6.3,17.1-6.3l-2.4,6.4L284.6,415.9z M474.4,384.9l30.8-75h-71.6
		c-97.6,0-123.2,93.5-127.2,102.5l-29.3,66.3h31.2l40.4-95.4c9.9-23.3,44.8-49.5,87-49.5h29.1l-16.6,41.8c-3.1,7.8-6.1,16.2-17,16.2
		h-71.6l-9.8,24.2h89.6C454.7,416,468.2,399.9,474.4,384.9z M536.7,347.1h-30L478.5,416h29.9L536.7,347.1z M751.8,15.1h-29.3
		L600.9,309.9h-36.8l-9.5,23.9h35.7l-48,115.1c-3.5,8.4-7.8,20.1-7.8,48.4c0,10,1.9,20,4.6,24.2c2.7,4.2,64.4,99.8,64.4,99.8
		l39-55.5l-76.9-64.2c-2.3-1.9-4.4-7-4.4-17.1c0-10,1.9-13.1,4.6-19.4L751.8,15.1z M739.8,416l23.5-56c2.1-5.1,5-14.7,5-19.1
		c0-17.7-14.2-30.9-39.8-30.9h-89l-9.7,23.9h94.4c13.1,0,14.7,5.3,14.7,13.5h-62.2c-36.7,0-52.2,26-52.2,38.7c0,22,19.9,30,29.3,30
		H695c7.7,0,17.1-6.3,17.1-6.3l-2.4,6.4L739.8,416z M784.3,416l98-237.2h-29.3L755.3,416H784.3z M989.8,309.9h-98.5
		c-45.1,0-53.6,24.9-53.6,40.2s16.5,24.4,23.7,24.4h67c4.5,0,6.7,3.1,6.7,6.8c0,3.7-5.4,10.5-12.3,10.5c-6.9,0-112.3,0-112.3,0
		l-9.6,24.2h119.1c31.1,0,43.8-19.2,43.8-39.3c0-20.1-15.6-25.1-29.9-25.1h-62.7c-0.9,0-4.7-1.7-4.7-5.5c0-4.2,4.5-12.3,12.4-12.3
		h101L989.8,309.9z"/>
	<path class="st1" d="M46.2,384c0,4.6,1.8,7.8,6.2,7.8h57.8c8.4,0,20.3-8.7,20.3-8.7l24,11.2c0,0-30.4,21.7-47.7,21.7H39.4
		c-4.2,0-23.5-8.4-23.5-25.8c0-33.4,56.2-80.2,118.1-80.2h42.2l-9.9,23.9h-38.9C70.7,333.8,46.2,373.8,46.2,384z M254.6,416l2.4-6.4
		c0,0-9.4,6.3-17.1,6.3h-41.3c-9.3,0-29.3-7.9-29.3-30c0-12.7,15.6-38.7,52.2-38.7h62.2c0-8.2-1.5-13.5-14.7-13.5h-84.4l9.7-23.9h79
		c25.6,0,39.8,13.2,39.8,30.9c0,4.4-2.9,14.1-5,19.1l-23.5,56L254.6,416z M274.8,368.1c0,0-10,4.3-12.8,4.3h-48.5
		c-11.6,0-15.6,11.8-15.6,13.9c0,2.1,0.5,5.5,3.5,5.5l51.9,0C268.2,391.8,274.8,368.1,274.8,368.1z M433.7,309.9
		c-97.6,0-123.2,93.5-127.2,102.5l-29.3,66.3h31.2l40.4-95.4c9.9-23.3,44.8-49.5,87-49.5h29.1l-16.6,41.8c-3.1,7.8-6.1,16.2-17,16.2
		h-71.6l-9.8,24.2h89.6c15.2,0,28.8-16,34.9-31l30.8-75H433.7z M506.8,347.1L478.5,416h29.9l28.3-68.9H506.8z M552,309.9h-30
		l-9.8,23.9h30L552,309.9z M561.3,484.5c0-10,1.9-13.1,4.6-19.4l185.9-450h-29.3L600.9,309.9h-36.8l-9.5,23.9h35.7l-48,115.1
		c-3.5,8.4-7.8,20.1-7.8,48.4c0,10,1.9,20,4.6,24.2c2.7,4.2,64.4,99.8,64.4,99.8l39-55.5l-76.9-64.2
		C563.3,499.6,561.3,494.5,561.3,484.5z M763.3,360l-23.5,56l-30,0l2.4-6.4c0,0-9.4,6.3-17.1,6.3h-41.3c-9.3,0-29.3-7.9-29.3-30
		c0-12.7,15.6-38.7,52.2-38.7h62.2c0-8.2-1.5-13.5-14.7-13.5h-94.4l9.7-23.9h89c25.6,0,39.8,13.2,39.8,30.9
		C768.3,345.3,765.4,354.9,763.3,360z M730,368.2c0,0-10,4.3-12.8,4.3h-48.5c-11.6,0-15.6,11.8-15.6,13.9c0,2.1,0.5,5.5,3.5,5.5
		l51.9,0C723.4,391.8,730,368.2,730,368.2z M853.1,178.8L755.3,416h29.1l98-237.2H853.1z M879,333.8h101l9.8-23.9h-98.5
		c-45.1,0-53.6,24.9-53.6,40.2s16.5,24.4,23.7,24.4h67c4.5,0,6.7,3.1,6.7,6.8c0,3.7-5.4,10.5-12.3,10.5c-6.9,0-112.3,0-112.3,0
		l-9.6,24.2h119.1c31.1,0,43.8-19.2,43.8-39.3c0-20.1-15.6-25.1-29.9-25.1h-62.7c-0.9,0-4.7-1.7-4.7-5.5
		C866.5,341.9,871,333.8,879,333.8z"/>
	<path class="st2" d="M768.6,523l-24.7,29.7h-76l23.5-29.7H768.6z M235.9,241.7l-18.1,22.6l1.2-22.6h-9.5l-17.6,22.9l0.9-23.1h-8.6
		l-1.5,32.9h9l19.8-23.9l-2.7,23.9h8.9l26.5-32.7H235.9z M269.2,241.7l1,32.7h-8.3l-0.1-7.2h-16.9l-6.4,7.2h-9l30-32.7H269.2z
		 M261.7,261.8l-0.1-13.2L249,261.8H261.7z M309.2,258.8c-1.2-1-4-2.3-8.6-3.9c-3.1-1.1-5-1.9-5.8-2.6c-0.8-0.6-1.2-1.4-1-2.3
		c0.2-1,0.8-1.8,2-2.5c1.2-0.7,2.9-1,5.4-1c2.5,0,4.2,0.4,5.3,1.2c1.1,0.8,1.6,2,1.6,3.6l8.4-0.3c0.3-3-0.8-5.4-3.2-7.2
		c-2.4-1.8-6.1-2.7-11.1-2.7c-4.9,0-8.8,0.9-11.8,2.7c-2.9,1.8-4.6,4.1-5.1,6.8c-0.3,1.6-0.1,3,0.6,4.1c0.7,1.2,1.7,2.1,3.1,2.9
		c1.4,0.7,3.6,1.7,6.7,2.8c3.1,1.1,5,1.9,5.6,2.4c0.9,0.7,1.3,1.5,1.1,2.5c-0.2,1.1-1,2.1-2.4,2.9c-1.4,0.8-3.6,1.2-6.4,1.2
		c-3.4,0-5.7-0.6-6.8-1.7c-0.7-0.7-0.9-2.1-0.6-4.1l-8.4,0.3c-0.5,2.2-0.3,4.1,0.5,5.8c0.8,1.7,2.5,3,5,3.9c2.5,0.9,5.6,1.4,9.3,1.4
		c5.3,0,9.6-1,13-3.1c3.3-2,5.3-4.5,5.8-7.4C311.5,262.2,310.9,260.3,309.2,258.8z M353.8,241.7l-5.7,12.6h-16.5l5.7-12.6h-8.7
		l-14.8,32.7h8.8l6.6-14.6h16.5l-6.6,14.6h8.8l14.8-32.7H353.8z M370.4,241.7l-14.8,32.7h8.8l14.8-32.7H370.4z M414.5,241.7l-9,21.9
		l-7.8-21.9h-8.2L374,274.4h8.2l10.6-22l7.8,22h8.2l13.9-32.7H414.5z M434.5,253.6c1.8-2.4,3.9-4.1,6.5-5.2c2.6-1.1,5.3-1.7,8.1-1.7
		c2.4,0,4.3,0.5,5.8,1.4c1.4,0.9,1,2,1.3,3.8l8.3,0c-0.4-3.4-0.5-6.3-3.1-8.1c-2.7-1.8-6.4-2.6-11.4-2.6c-4.9,0-9.4,1-13.4,2.9
		c-4,1.9-7.3,4.7-9.9,8.2c-2.2,2.9-3.5,6-4.1,9.1c-0.9,4.7,0.4,8.4,3.8,10.9c2.5,1.8,6.3,2.7,11.6,2.7c3.4,0,6.8-0.4,10.2-1.2
		c3.4-0.8,6.3-1.7,8.8-2.8l6.4-14h-19l-2.5,5.5h10.9l-2.2,4.9c-1.5,0.6-3.3,1.1-5.4,1.5c-2,0.4-4,0.6-5.9,0.6c-3.1,0-5.4-0.7-6.8-2
		c-1.4-1.3-1.8-3.3-1.3-6.1C431.6,258.5,432.7,255.9,434.5,253.6z M506.4,241.7h-33.5l-2.5,5.5h12.5l-12.4,27.2h8.8l12.3-27.2h12.3
		L506.4,241.7z M543.7,254.9c-0.6,3.4-2.3,6.8-5,10c-2.7,3.2-6,5.7-9.9,7.5c-3.9,1.7-8.2,2.6-12.8,2.6c-4,0-7.2-0.7-9.6-2.1
		c-2.4-1.4-4-3.1-4.8-5.1c-0.8-2-0.9-4.1-0.6-6.2c0.4-1.9,1.1-4,2.2-6.1c1.5-2.9,3.5-5.4,5.9-7.5c2.4-2.1,5.3-3.8,8.6-5
		c3.3-1.2,6.9-1.8,10.8-1.8c5.3,0,9.3,1.3,12.1,3.8C543.4,247.5,544.5,250.8,543.7,254.9z M533.3,249c-1.5-1.5-3.7-2.2-6.5-2.2
		c-4.3,0-8,1.5-11.3,4.6c-3.2,3.1-5.2,6.4-5.8,10.1c-0.4,2.2,0.1,4.1,1.6,5.6c1.5,1.5,3.7,2.3,6.6,2.3c2.4,0,4.7-0.6,7.1-1.8
		c2.4-1.2,4.5-3,6.4-5.4c1.9-2.4,3-4.8,3.4-7.1C535.4,252.5,534.9,250.5,533.3,249z M572.3,263.6l-7.6-21.9h-8.2l-14.8,32.7h8.2
		l10-22l7.5,22h8.2l14.8-32.7h-8.1L572.3,263.6z M265.9,214.4l22-16.3l21.3,15.6l-8.2-25.3l22.2-16.5h-27.6l-8.4-25.9l-8.1,25.9
		h-26.8l21.8,16L265.9,214.4z M431.1,146.1l-8.1,25.9h-26.8l21.8,16l-8.3,26.4l22-16.3l21.3,15.6l-8.2-25.3l22.2-16.5h-27.6
		L431.1,146.1z M582.8,171.9l-8.4-25.9l-8.1,25.9h-26.8l21.8,16l-8.3,26.4l22-16.3l21.3,15.6l-8.2-25.3l22.2-16.5H582.8z"/>
</g>
</svg>
