<?xml version="1.0" encoding="utf-8"?>
<!-- Generator: Adobe Illustrator 26.0.2, SVG Export Plug-In . SVG Version: 6.00 Build 0)  -->
<svg version="1.1" id="Layer_1" xmlns="http://www.w3.org/2000/svg" xmlns:xlink="http://www.w3.org/1999/xlink" x="0px" y="0px"
	 viewBox="0 0 770.9 809.8" style="enable-background:new 0 0 770.9 809.8;" xml:space="preserve">
<style type="text/css">
	.st0{fill:#EDE1C6;}
	.st1{fill:#791026;}
	.st2{fill:#035130;}
	.st3{fill:#B95B27;}
	.st4{fill:#4A3291;}
	.st5{fill:#010101;}
</style>
<path class="st0" d="M348.9,550l19.6-26.7h0l19.4,26.5l19.6-26.5h0.7l0,55h-46.2l-0.1,8.9l46.3-0.1h0l0,8.8h0l-46.2,0l-0.1,8.9
	l46.3-0.1h0l0,10.3l-27.5,22.9l-73.9-66.6l-16.2-47.8l0-0.1h0l0,0l0,0l19.5,26.6l19.6-26.5L348.9,550z M653.7,459.4l-20.1-22.1
	l-25.7,20.8l24,20.2L653.7,459.4z M468.6,473l40.2-17.7l-42.6-6.8L468.6,473z M449,445.6l-30.3-5.8l19.4,34.2L449,445.6z
	 M493.3,415.6l17.5-53.7l-42.4-18.3l-19.4,91.8l35.8,6.2L493.3,415.6z M331.9,486.6c11.3,0,21.7-4.3,29.5-11.2
	c-4.5,1.4-9.7,2.2-15.5,2.2c-26.5,0-48-21.5-48-48c0-5,0.6-9.7,1.8-13.9c0.6-2.3,1.5-4.5,2.5-6.6c-2.2,2-4.2,4.2-6,6.6
	c-5.5,7.4-8.7,16.5-8.7,26.4C287.3,466.6,307.3,486.6,331.9,486.6z M140.9,727.7l-20.1,60.4h68.4l-20.3-19.3l30.4-10.9l0,0
	l-20.6-19.3l30.5-10.8L140.9,727.7z M531.2,523.9L388.7,643.6l-48.3,39.9l3,6.6l49.8-40l22.1,17L560.6,540L531.2,523.9z M700,775.4
	l-163.7,0l5.8,13.7h164.5L700,775.4z M734,807.2L530.2,807l-11.9-30l-0.1-43.6l-67.7-73.6L428.9,679l4.6,23.1L386,741.2l-26.7-2.6
	L280.8,806L0,805.8l14.8-41.3l0-39l63.6-38l-56.6-80.8l130.3-93.6l-52.4-87.8l78.7-52.9l17.7-150.1l31.2-52.5l-68.5-89.6l91.5,51.4
	l9.5-16.4L249.3,0l70.6,124.5l-3.3,75.2l7.1,0l82.2-97.5l8.5,140.1l-4,4l75.4,56.1l-68.9-6.5l15.9,13.1l161.9,69.6l3.6,60.2l2.5,2.1
	l34.7-28.1l70.3,77.5l16.5,150.1l-60.5-106.1l-36.9,90.2l-10.2-91.9l-32.3,29l-11.5-6.7l-15.2,13.3l55.4,69.9l15,41.4l87.4,46.6
	l0.1,38L734,807.2z M535.8,798.7l185.1,0.2l-15.7-33l0-34.9l-85.8-45.8l-15.6-43.1l-59.4-75l25.5-22.4l11.5,6.7l39.8-35.7l8.4,75.7
	l31-75.9l49.1,86.2l-11.9-107.8l-63.3-69.8l-33.9,27.5l-10.4-8.8l-3.5-58.7L428.3,316l-37.6-31l66.3,6.3l-59.3-44.2l8.1-8.1
	l-7-115.7L327.4,208l-19.5-0.1l3.6-81.5L261,37.4l7.3,79.7l-14.9,25.7L189.8,107l47.5,62.2L204.1,225l-18,152.1l-75.3,50.7
	l52.3,87.6L33.3,608.6l57,81.4l-67.2,40.2l0,35.7l-11.3,31.6l266,0.2l78.9-67.6l26.8,2.6l41-33.8l-4.6-22.9l31.3-27.8l75.3,81.9
	l0.1,45.2L535.8,798.7z M274.7,507.4l-13.9-39.7l-121.4-11.1v0.1l0.1,0l30.1,50.6L274.7,507.4z M26,787.9l84.8,0.1l3.7-12.3
	l-84.1-0.1L26,787.9z M290.4,727.7l-33.9,0l-19.6,60.4h37.5l55-47l-19.8-29.8L290.4,727.7z M220.9,380.9L193.4,396l19.9-167.9
	l58.5-98.2l22.4,84.2L264,241.8l7.3,24.2L220.9,380.9z M232.8,213.8h17.4l13.3-51.7L232.8,213.8z M223.1,257.5l29.5,9.6l4.7-10.7
	l-29.9-10L223.1,257.5z M216.9,341.3c0,2.4,1.9,4.3,4.3,4.3c2.4,0,4.3-1.9,4.3-4.3s-1.9-4.3-4.3-4.3
	C218.8,337,216.9,338.9,216.9,341.3z M214.9,355.4c0,2.4,1.9,4.3,4.3,4.3c2.4,0,4.3-1.9,4.3-4.3c0-2.4-1.9-4.3-4.3-4.3
	C216.8,351.1,214.9,353,214.9,355.4z M209.4,375.7c0-2.4-1.9-4.3-4.3-4.3s-4.3,1.9-4.3,4.3c0,2.4,1.9,4.3,4.3,4.3
	S209.4,378,209.4,375.7z M211.4,361.6c0-2.4-1.9-4.3-4.3-4.3c-2.4,0-4.3,1.9-4.3,4.3c0,2.4,1.9,4.3,4.3,4.3
	C209.5,365.9,211.4,363.9,211.4,361.6z M213.5,347.5c0-2.4-1.9-4.3-4.3-4.3c-2.4,0-4.3,1.9-4.3,4.3c0,2.4,1.9,4.3,4.3,4.3
	S213.5,349.8,213.5,347.5z M221.4,369.5c0-2.4-1.9-4.3-4.3-4.3c-2.4,0-4.3,1.9-4.3,4.3c0,2.4,1.9,4.3,4.3,4.3
	C219.5,373.7,221.4,371.8,221.4,369.5z M473.8,531.1l45.8-64.3l4.2,51l-24.9,20.7L473.8,531.1z M513.5,489.3l-26.6,37.4l10.3,3
	l18.5-15.3L513.5,489.3z"/>
<path class="st1" d="M209.2,727.7l38.7-0.1l0,0.1l-19.5,60.5l-39.1-0.1L209.2,727.7z M301.8,128.5l-8.5-14.8l-15.4,3.2l20.8,78.2
	L301.8,128.5z M361.9,595.9l-0.1,8.9l46.3-0.1h0.1l0-8.8h-0.1L361.9,595.9z M313.5,292.5c6.5,0,11.7-5.2,11.7-11.7
	c0-6.5-5.2-11.7-11.7-11.7c-6.5,0-11.7,5.2-11.7,11.7C301.8,287.3,307,292.5,313.5,292.5z M174.7,515.8l53.3,89.4l67.3-38.9
	l-17.7-50.6L174.7,515.8z M493.7,443.3l22.7,3.9l55.8-58.8l-52-22.4L493.7,443.3z M689.1,497.2L660,467l-30.5,26.1l2.8,28.5
	l14.3,2.4l7.2-17.6l0.4-28.6l15.6,33.3l7.6,14.3l5.1-1.9l9.2-3.6L689.1,497.2z M359,312.2l49.5,3.6l-0.1,99.8l-0.1,98.3l-120.8,0
	l-19.2-55l-134.8-12.4l-9.7-15.8l60.6-40.8l-1.3,12.1l54.9,26.6l82.6-90.8l67.7,15.6L359,312.2z M384.8,442c0-9.6-2.6-18.7-7.1-26.4
	c-8.2-14.2-22.9-24.3-40.1-26.2v-0.1c-0.4,0-0.7,0-1.1,0c-1.5-0.1-3.1-0.2-4.6-0.2c-19.6,0-36.6,10.7-45.8,26.5
	c-4.5,7.8-7.1,16.8-7.1,26.4c0,29.2,23.7,52.9,52.9,52.9C361,495,384.8,471.2,384.8,442z M418.6,430.3l21.2,3.7l19.2-94.4
	l-40.3-17.3L418.6,430.3z M361.9,578.3l-0.1,8.9l46.3-0.1h0.1l0-8.8h-0.1H361.9z"/>
<path class="st2" d="M274.5,80.6l18.8,33.1l-15.4,3.2L274.5,80.6z M242.3,160.7l5.3-8.9l-27.1-17.2L242.3,160.7z M46.2,611.2
	l24.2,34.2l100.9-7.2l47.8-29.3l-50.9-85.5L46.2,611.2z M458.5,642l25.7,28l109.1-25.3l-56.5-71.3L458.5,642z M417.6,524.6
	l-0.1,82.4l73.1-61.1L417.6,524.6z M691.8,519.9l-14.4,5.5l18.8,34.2L691.8,519.9z M632.2,521.5l3.2,29.5l11.3-27.1l-0.1,0
	L632.2,521.5z"/>
<path class="st3" d="M533,514l-6.4-64l50.9-53.1l3.8,50.8l36.2,31.4l2.4,24.9L580,539.7L533,514z M173.1,647.5l37.3,70.8l-76.5-0.2
	l-16.2,48l-84.6,0.1l0-30.8l71-42.4l-27.6-38.5l18.5-1.3l23.9,34.1l11.3-1.1l-24.1-33.8L173.1,647.5z M152.6,684.6l-24-33.8
	l-11.1,0.8l23.8,34L152.6,684.6z M175.3,682.9l-24-33.8l-11.1,0.8l23.8,34L175.3,682.9z M611.4,691.9l-13.8-38.4l-29.3,6.7
	l28.7,30.3l-11.1,2.6l-28.4-30.5l-10.9,2.5l28.6,30.4l-11,2.6l-28.4-30.5l-10.7,2.4l28.7,30.4l-11.1,2.6l-28.5-30.5l-23.4,5.3
	l44.8,48.4v39.5l159.9-0.1v-29L611.4,691.9z M231.3,384.6l51.2-118l-6.3-21.9l28.9-27.7l26.8,0.9l58.8-69.8l5.2,87.1l-12.8,13.1
	l40.4,30.2l-63.6-6.1l40.4,33.3l-60.7-4.6l26.4,37.3l-48.9-11.1l-0.1,0.1l-80.5,88.3l-0.2-1.1l0.1,0.7l0.1,0.4l47.4-51.9l-27.2-2.9
	l4.7,27.5L231.3,384.6z M351.8,218.6l33.4,0.6l-2-37.3L351.8,218.6z M317.1,327.3L317.1,327.3l-20.5-3.1l5.7,19.3L317.1,327.3z
	 M292,280.7c0,11.9,9.6,21.6,21.6,21.6c11.9,0,21.6-9.7,21.6-21.6c0-11.9-9.7-21.6-21.6-21.6C301.6,259.2,292,268.8,292,280.7z
	 M279.1,340.5l5.2,22.8l17.7-19.4L279.1,340.5z M393.3,662.4L347.5,699l9.3,21.5l23,2.4l34-27.9l-4.5-20.4L393.3,662.4z M461,486.1
	l-4.3-33.1L439,494.2l-21.1-37.1l0.1,57.6l45.3,13.4l45.5-62.6L461,486.1z M373.1,643.9L297.7,576l-64,37l80.5,51.2l-11.1,19.5
	l33.3,51l11.5-10.3L328.6,681L373.1,643.9z"/>
<path class="st4" d="M175.3,682.9L164,684l-23.8-34l11.1-0.8L175.3,682.9z M189.2,788.2L189.2,788.2l10.1-30.3l-30.4,10.9
	L189.2,788.2z M117.5,651.6l23.8,34l11.3-1.1l-24-33.8L117.5,651.6z M228.3,788.2h8.6l19.6-60.4l-8.7,0L228.3,788.2z M169.6,507.3
	l5.1,8.5l102.9-0.1l-2.9-8.3L169.6,507.3z M178.6,738.6l20.6,19.3l9.9-30.2h0L178.6,738.6z M383.2,181.8l-31.4,36.8l33.4,0.6
	L383.2,181.8z M308.4,415.6c-1.4,4-2.2,8.6-2.2,13.9c0,21.9,17.8,39.7,39.7,39.7c20.9,0,30.2-9.9,30.2-32c-0.2-1.8-0.5-3.6-0.9-5.4
	c-1.4-5.9-4-11.4-7.5-16.1c-6-8.1-14.7-14.1-24.8-16.7c-2.2-0.6-4.4-1-6.7-1.2C321.9,398.1,312.4,404.3,308.4,415.6z M95.1,653.2
	l23.9,34.1l11.3-1.1l-24.1-33.8L95.1,653.2z M317.1,327.3L317.1,327.3l-20.5-3.1l5.7,19.3L317.1,327.3z M568.3,660.2l-10.7,2.4
	l28.4,30.5l11.1-2.6L568.3,660.2z M514.3,672.5l28.5,30.5l11.1-2.6l-28.7-30.4L514.3,672.5z M510.8,361.9l-17.5,53.7l-8.5,26.1
	l9.2,1.6l9.4-27.7l16.8-49.6L510.8,361.9z M261.5,388.3l-30.2-3.7h0l0,0l1.3,7.6l3.9,23l0.1,0.4l47.4-51.9l-27.2-2.9L261.5,388.3z
	 M439.7,433.9l9.2,1.6l19.4-91.8l-9.4-4.1L439.7,433.9z M535.8,667.6l28.4,30.5l11-2.6l-28.6-30.4L535.8,667.6z M368.5,523.3
	l19.4,26.5l19.6-26.5l-1.4,0L368.5,523.3z M290.4,523.3L290.4,523.3l19.5,26.6l19.6-26.5l-0.1,0L290.4,523.3z M279.1,340.5l5.2,22.8
	l17.7-19.4L279.1,340.5z M329.6,523.4l19.3,26.6l19.6-26.7l-38.8,0L329.6,523.4z"/>
<path class="st5" d="M705.2,765.8l0-34.9l-85.8-45.8l-15.6-43.1l-59.4-75l25.5-22.4l11.5,6.7l39.8-35.7l8.4,75.7l31-75.9l49.1,86.2
	l-11.9-107.8l-63.3-69.8l-33.9,27.5l-10.4-8.8l-3.5-58.7L428.3,316l-37.6-31l66.3,6.3l-59.3-44.2l8.1-8.1l-7-115.7L327.4,208
	l-19.5-0.1l3.6-81.5L261,37.4l7.3,79.7l-14.9,25.7L189.8,107l47.5,62.2L204.1,225l-18,152.1l-75.3,50.7l52.3,87.6L33.3,608.6
	l57,81.4l-67.2,40.2l0,35.7l-11.3,31.6l266,0.2l78.9-67.6l26.8,2.6l41-33.8l-4.6-22.9l31.3-27.8l75.3,81.9l0.1,45.2l9.3,23.4
	l185.1,0.2L705.2,765.8z M689.1,497.3l7.1,62l-0.2-0.1l-26.2-48l-15.6-33.3l-0.4,28.6L635.4,551l-5.8-58L660,467L689.1,497.3z
	 M633.5,437.3l20.1,22.1l-21.8,18.9l-24-20.2L633.5,437.3z M581.3,447.7l36.2,31.4l2.4,24.9L580,539.7L533,514l-6.4-64l50.9-53.1
	L581.3,447.7z M418.6,322.3l153.6,66.1l-55.8,58.8l-97.8-16.9L418.6,322.3z M523.9,517.9l-24.9,20.7l-25.1-7.5l45.8-64.3
	L523.9,517.9z M508.8,455.3L468.6,473l-2.4-24.5L508.8,455.3z M449,445.6L438.2,474l-19.4-34.2L449,445.6z M439,494.2l17.7-41.1
	l4.3,33.1l47.7-20.6l-45.5,62.6L418,514.6l-0.1-57.6L439,494.2z M417.6,524.6l73,21.3L417.6,607L417.6,524.6z M331.9,218l58.8-69.8
	l5.2,87.1l-12.8,13.1l40.4,30.2l-63.6-6.1l40.4,33.3l-60.7-4.6l26.4,37.3l-48.9-11.1l-80.6,88.4l-5.3-31l0,0l0,0l0,0l51.2-118
	l-6.3-21.9l28.9-27.7L331.9,218z M301.8,128.5l-3.1,66.6L278,116.8l-3.5-36.3L301.8,128.5z M220.5,134.6l27.1,17.2l-5.3,8.9
	L220.5,134.6z M213.3,228.1l58.5-98.2l22.4,84.2L264,241.8l7.3,24.2l-50.4,114.8L193.4,396L213.3,228.1z M123.8,430.7l60.6-40.8
	l-1.3,12.1l54.9,26.6l82.6-90.8l67.7,15.6L359,312.2l49.5,3.6l-0.1,99.8l-0.1,98.3l-120.8,0l-19.2-55l-134.8-12.4L123.8,430.7z
	 M290.4,523.3l117.7,0l0,91.6l-27.5,22.9l-73.9-66.6l-16.2-47.8L290.4,523.3L290.4,523.3L290.4,523.3z M139.4,456.8v-0.1l121.4,11.1
	l34.5,98.6L228,605.3L139.4,456.8z M304.9,702.9l-18,15.6l-65.4-0.2l-39.7-74.8l42-25.4l78.1,49.6l-9.6,17.3L304.9,702.9z
	 M46.2,611.2l122-87.8l50.9,85.5l-47.8,29.3l-100.9,7.2L46.2,611.2z M110.8,787.9L26,787.9l4.4-12.3l84.1,0.1L110.8,787.9z
	 M33.2,766.2l0-30.8l71-42.4l-27.6-38.5l96.5-7l37.3,70.8l-76.5-0.2l-16.2,48L33.2,766.2z M274.3,788.2H120.8l20.1-60.4l149.5,0
	l19.2-16.4l19.8,29.8L274.3,788.2z M336.4,734.7l-33.3-51l11.1-19.5L233.7,613l64-37l75.4,67.9L328.6,681l19.3,43.5L336.4,734.7z
	 M379.8,722.8l-23-2.4l-9.3-21.5l45.7-36.6l16.1,12.2l4.5,20.4L379.8,722.8z M415.2,667.2l-22.1-17l-49.8,40l-3-6.6l48.3-39.9
	l142.5-119.8l29.3,16.1L415.2,667.2z M458.5,642l78.3-68.6l56.5,71.3L484.1,670L458.5,642z M535.7,765.8v-39.5l-44.8-48.5
	l106.7-24.3l13.8,38.4l84.1,44.7v29L535.7,765.8z M536.3,775.4l163.7,0l6.6,13.8H542.1L536.3,775.4z M221.4,369.5
	c0,2.4-1.9,4.3-4.3,4.3c-2.4,0-4.3-1.9-4.3-4.3c0-2.4,1.9-4.3,4.3-4.3C219.5,365.2,221.4,367.1,221.4,369.5z M211.4,361.6
	c0,2.4-1.9,4.3-4.3,4.3c-2.4,0-4.3-1.9-4.3-4.3c0-2.4,1.9-4.3,4.3-4.3C209.5,357.3,211.4,359.2,211.4,361.6z M313.5,302.3
	c11.9,0,21.6-9.7,21.6-21.6c0-11.9-9.7-21.6-21.6-21.6c-11.9,0-21.6,9.7-21.6,21.6C292,292.6,301.6,302.3,313.5,302.3z M313.5,269.1
	c6.5,0,11.7,5.2,11.7,11.7c0,6.5-5.2,11.7-11.7,11.7c-6.5,0-11.7-5.2-11.7-11.7C301.8,274.3,307,269.1,313.5,269.1z M331.9,495
	c29.2,0,52.9-23.7,52.9-52.9c0-9.6-2.6-18.7-7.1-26.4c-8.2-14.2-22.9-24.3-40.1-26.2v-0.1c-0.4,0-0.7,0-1.1,0
	c-1.5-0.1-3.1-0.2-4.6-0.2c-19.6,0-36.6,10.7-45.8,26.5c-4.5,7.8-7.1,16.8-7.1,26.4C279,471.2,302.7,495,331.9,495z M308.3,415.6
	c4-11.3,13.5-17.5,27.8-17.9c2.3,0.2,4.5,0.6,6.7,1.2c10.1,2.6,18.8,8.6,24.8,16.7c3.5,4.7,6.1,10.2,7.5,16.1
	c0.4,1.8,0.7,3.6,0.9,5.4c-0.1,22.2-9.4,32-30.3,32c-21.9,0-39.7-17.8-39.7-39.7C306.2,424.2,306.9,419.6,308.3,415.6z M296,415.6
	c1.8-2.4,3.8-4.6,6-6.6c-1,2.1-1.8,4.3-2.5,6.6c-1.2,4.2-1.8,8.8-1.8,13.9c0,26.5,21.5,48,48,48c5.8,0,11-0.7,15.5-2.2
	c-7.9,7-18.2,11.2-29.5,11.2c-24.6,0-44.5-20-44.5-44.5C287.3,432.2,290.6,423,296,415.6z M209.4,375.7c0,2.4-1.9,4.3-4.3,4.3
	s-4.3-1.9-4.3-4.3c0-2.4,1.9-4.3,4.3-4.3S209.4,373.3,209.4,375.7z M213.5,347.5c0,2.4-1.9,4.3-4.3,4.3s-4.3-1.9-4.3-4.3
	c0-2.4,1.9-4.3,4.3-4.3C211.5,343.2,213.5,345.1,213.5,347.5z M214.9,355.4c0-2.4,1.9-4.3,4.3-4.3c2.4,0,4.3,1.9,4.3,4.3
	c0,2.4-1.9,4.3-4.3,4.3C216.8,359.6,214.9,357.7,214.9,355.4z M252.6,267.1l-29.5-9.6l4.2-11.1l29.9,10L252.6,267.1z M250.2,213.8
	h-17.4l30.7-51.7L250.2,213.8z M216.9,341.3c0-2.4,1.9-4.3,4.3-4.3c2.4,0,4.3,1.9,4.3,4.3s-1.9,4.3-4.3,4.3
	C218.8,345.5,216.9,343.6,216.9,341.3z"/>
</svg>
