<?xml version="1.0" encoding="utf-8"?>
<!-- Generator: Adobe Illustrator 25.0.0, SVG Export Plug-In . SVG Version: 6.00 Build 0)  -->
<svg version="1.1" id="Layer_1" xmlns="http://www.w3.org/2000/svg" xmlns:xlink="http://www.w3.org/1999/xlink" x="0px" y="0px"
	 viewBox="0 0 738.7 756.8" style="enable-background:new 0 0 738.7 756.8;" xml:space="preserve">
<style type="text/css">
	.st0{fill:#FFFFFF;}
	.st1{fill:#CE1126;}
</style>
<g id="XMLID_1_">
	<path class="st0" d="M738.2,92.4c-4.2-30.6-9.4-40.7-33.3-63.5C675.6,1,626.7,0.2,621.2,0.2h-14.4h-26.1l17.2,19.7
		c1.7,1.9,3.9,4.7,4.7,5.7c2.3,3.5,4.2,6.1,6.1,8.6c2.6,3.6,5.3,7.2,9.7,14.2c1.8,2.9,2.1,5.6,0.7,8.1c-1.6,2.9-5.7,5.8-11.2,5.8
		c-0.8,0-84.6-0.2-95.7-0.2c-3.1,0-6-0.3-8.5-0.8c-2.5-1.1-4.8-2-6.9-2.9c-1.5-1.2-2-2.6-1.7-5c0.1-0.6,1.5-6.8,19.3-24.7l0.2-0.2
		l0.2-0.2c0.8-0.9,3.5-3.7,5.5-5.5L546,0l-34.4,2.2c-0.9,0.1-21.8,1.4-46.1,8.2c-18.5,5.2-37.2,13.6-51.4,23.2
		c-1.6,1.1-3.1,2.1-4.6,3.3C398,35.6,386.4,35,375,35c-87.5,0-169.8,34.1-231.8,96c-61.9,61.9-96,144.2-96,231.8
		c0,35.5,5.7,70.5,16.8,103.7l-6.4,7.6c-30.4,36.1-50.9,86-56.2,136.9c-4.5,42.4,1.7,79.1,21.3,126.8l7.8,18.9L43,740.7
		c10.6-13.7,41.8-36.7,78.7-52.5c33.3-14.3,94.1-17.5,103.9-17.5h37c35.7,13,73.7,19.9,112.4,19.9c87.5,0,169.9-34.1,231.8-96
		c61.9-61.9,96-144.2,96-231.8c0-57.6-15-113.7-43.4-163.2c19.4-6.8,36.7-16.4,48.8-27.3C731.8,151.1,741.2,115.3,738.2,92.4z
		 M700.2,163.5c-15.7,14.1-38.5,23.9-58.9,29.2c31.4,49.1,49.6,107.4,49.6,170c0,174.5-141.4,315.9-315.9,315.9
		c-80.9,0-154.6-30.4-210.5-80.4c-0.5,0.8-0.9,1.8-1.4,2.9c-3.4,7.6,2.5,20.2,10.8,26.8c23,18.1,47.2,28.9,51.8,30.9c0,0,0,0,0,0
		c-5.1,0-71,2.4-108.6,18.4c-36.6,15.7-70.6,39.8-83.4,56.1c-20.4-49.6-24.4-83.9-20.5-121.1c5.4-51.1,25.8-97.6,53.5-130.5
		c1.2,27.3,8,49.7,23.1,49.7c0.8,0,1.6-0.1,2.4-0.2c5.3-0.8,9.4-2.4,12.9-4.3c-29.2-47.9-46-104.1-46-164.2
		C59.1,188.3,200.5,46.9,375,46.9c12.8,0,25.4,0.8,37.9,2.3c2.5-2,5.1-3.9,7.9-5.7c14-9.4,31.7-17,48-21.6
		c23.3-6.5,43.6-7.8,43.6-7.8c-2.9,2.6-6.4,6.4-6.4,6.4c-5.9,5.9-21.6,21.7-22.7,31.7c-0.9,7.5,2.1,13.1,7.8,16.8c3,1.2,6,2.4,9,3.7
		c3.6,0.9,7.7,1.3,12.2,1.3c11.2,0,95.7,0.2,95.7,0.2c17.3,0,30.4-16.3,20.6-32c-7.8-12.5-10.6-15-16.2-23.5c0,0-3.1-3.9-5.4-6.5
		c0,0,9.5,0,14.4,0c12.1,0,52.1,3.1,75.4,25.5c21.9,20.9,25.9,28.4,29.7,56.5C729,113.3,720.5,145.3,700.2,163.5z M200,266.1
		l-83.8,210.3c-15.3-34.8-23.8-73.2-23.8-113.6C92.4,206.7,218.9,80.1,375,80.1c4,0,7.9,0.1,11.8,0.3c-6.9,13.8-9.5,28.8-9.5,44.6
		c0,41.8,39.2,69.2,80,69.2l-39.2,103.2c0,0-43.1-57.9-67.9-84.9c-27.4-29.9-48.4-42.8-83.6-35.3C230,185.1,220.9,216.5,200,266.1z
		 M618,218.4c25.2,42.3,39.7,91.7,39.7,144.4c0,156.1-126.5,282.7-282.6,282.7c-66.5,0-127.6-23-175.8-61.4
		c10.4,0.5,23.7,3.1,40.6,9.3c36.1,13.1,54.9,22.9,94.7,22.9c23.5,0,64.7-5.2,105.1-28.7c41.4-24,56.2-49.7,79-106.8L618,218.4z
		 M210.6,504c-29.7,0-52.4,1.4-75.3,8.7c-2.8-4.4-5.4-8.9-7.9-13.4c17.2-5.6,49.2-12.8,77.8-12.8c14.7,0,48.7,1.6,76.1,9.5
		l34.9-90.6l32.7,59.4c0,0-15,15.4-30,30.4C295.6,518.4,243.5,504,210.6,504z"/>
	<path d="M726.4,94c-3.8-28.1-7.8-35.6-29.7-56.5c-23.4-22.3-63.4-25.5-75.4-25.5c-4.9,0-14.4,0-14.4,0c2.3,2.6,5.4,6.5,5.4,6.5
		c5.6,8.5,8.4,11,16.2,23.5c9.8,15.7-3.3,32-20.6,32c0,0-84.5-0.2-95.7-0.2c-4.6,0-8.8-0.5-12.4-1.4c-2.9-1.2-5.8-2.5-8.7-3.6
		c-5.7-3.7-8.6-9.4-7.8-16.8c1.1-10,16.8-25.8,22.7-31.7c0,0,3.4-3.7,6.4-6.4c0,0-20.3,1.3-43.6,7.8c-16.3,4.6-34,12.2-48,21.6
		c-2.8,1.9-5.4,3.8-7.9,5.7c-12.4-1.5-25-2.3-37.9-2.3c-174.5,0-315.9,141.4-315.9,315.9c0,60.2,16.8,116.4,46,164.2
		c-3.6,1.9-7.6,3.5-12.9,4.3c-16.8,2.5-24.2-20.8-25.5-49.6c-27.8,33-48.1,79.5-53.5,130.5c-3.9,37.2,0.1,71.5,20.5,121.1
		c12.7-16.3,46.8-40.4,83.4-56.1c37.6-16.1,103.7-18.4,108.6-18.4c-4.6-1.9-28.7-12.7-51.8-30.9c-8.3-6.6-14.2-19.2-10.8-26.8
		l1.4-2.9c55.9,50,129.6,80.4,210.5,80.4c174.5,0,315.9-141.4,315.9-315.9c0-62.6-18.2-121-49.6-170c0,0,0,0,0,0
		c20.4-5.3,43.3-15.2,58.9-29.2C720.5,145.3,729,113.3,726.4,94z M92.4,362.8C92.4,206.7,218.9,80.1,375,80.1c4,0,7.9,0.1,11.8,0.3
		l0,0c-6.9,13.8-9.5,28.8-9.5,44.6c0,41.8,39.2,69.2,80,69.2l-39.2,103.2c0,0-43.1-57.9-67.9-84.9c-27.4-29.9-48.4-42.8-83.6-35.3
		c-36.6,7.8-45.7,39.2-66.6,88.8l-83.8,210.3C100.9,441.6,92.4,403.2,92.4,362.8z M657.6,362.8c0,156.1-126.5,282.7-282.6,282.7
		c-66.5,0-127.6-23-175.8-61.4c10.4,0.5,23.7,3.1,40.6,9.3c36.1,13.1,54.9,22.9,94.7,22.9c23.5,0,64.7-5.2,105.1-28.7
		c41.4-24,56.2-49.7,79-106.8L618,218.4C643.2,260.6,657.6,310,657.6,362.8z M691.5,153.8c-18.4,16.5-47.7,26.1-67.1,29.2l-7.5,1.2
		L506.6,475.7l-0.9,2c-21.5,54.5-35.4,76.9-72.6,98.6c-41.9,24.3-82.9,27-98.6,27c-31.5,0-48.7-6.5-74.8-16.3l-15.4-5.7
		c-43.2-15.7-65.2-10.4-76-3.2c-9.6,6.4-13.3,9.4-17.1,18c-6.4,14.3,2.5,32.8,14.7,42.4c5.1,4,10.2,7.6,15.1,10.9
		c-22.4,2.7-49,7.5-69,16.1c-28,12-55.1,28.6-73.3,44.2c-13.1-38.5-15.6-65.6-12.4-95.8c3.7-35.1,15.2-69.5,32.5-98.2
		c3.2,10.2,7.7,17.9,13.6,22.7c6.2,5.1,13.7,7.2,21.8,6.1c11.5-1.7,18.8-6.4,24.6-10.1c2.4-1.6,4.5-3,6.6-3.8
		c21.6-9.3,41.1-13.9,65.8-13.5l19.5,0.2l13.9,0.1c35.6,0.3,78.6,12.3,103.6-12.7c15.1-15.1,29.8-30.1,30.4-30.8l6.4-6.9l-50.7-92.3
		l-40.9,106c-31.1-6.8-64-7.1-68-7.1c-27.7,0-57.5,6.2-76.3,11.7l-3,0.9l86.2-214.9l6-14.5c17.4-42.2,26.1-61.1,51.2-66.4
		c27.2-5.8,43.9,1.5,71.2,31.3c24.1,26.3,66.7,83.3,67.1,83.9l14.2,19.1l54.4-143.2h-18.9c-19.7,0-39.1-7.6-51.8-20.2
		c-9.9-9.9-15.2-22.4-15.2-35.9c0-31.4,11.6-53.3,37.7-70.8c12.1-8.2,28.2-15.4,44.2-19.9c1.9-0.5,3.8-1,5.6-1.5
		c-4.6,6.7-7,12.4-7.6,17.7c-1,9.1,1.4,17.4,7.2,23.8c7.4,8.3,19.4,12.7,34.7,12.7l95.7,0.2c14,0,26.6-7.1,33-18.6
		c5.8-10.5,5.4-22.7-1.3-33.4c-2.4-3.8-4.4-6.8-6.1-9.3c16.7,1.9,40.1,7.6,54.2,21.1c19.8,18.9,22.4,23.9,25.8,48.8
		C715.4,110.1,708.8,138.2,691.5,153.8z M127.4,499.2c17.1-5.6,49.2-12.8,77.8-12.8c14.7,0,48.7,1.6,76.1,9.5l34.9-90.6l32.7,59.4
		c0,0-15,15.4-30,30.4c-23.3,23.3-75.3,8.8-108.2,8.8c-29.8,0-52.3,1.3-75.3,8.7C132.6,508.2,129.9,503.8,127.4,499.2z"/>
	<path class="st1" d="M713.4,95.8c-3.4-24.9-6-29.9-25.8-48.8c-14.1-13.5-37.5-19.2-54.2-21.1c1.7,2.5,3.7,5.5,6.1,9.3
		c6.7,10.7,7.2,22.8,1.3,33.4c-6.4,11.5-19,18.6-33,18.6L512.2,87c-15.3,0-27.3-4.4-34.7-12.7c-5.7-6.4-8.2-14.7-7.2-23.8
		c0.6-5.3,3-11,7.6-17.7c-1.9,0.5-3.7,0.9-5.6,1.5c-16,4.5-32.1,11.7-44.2,19.9c-26,17.5-37.7,39.4-37.7,70.8
		c0,13.6,5.2,26,15.2,35.9c12.7,12.7,32,20.2,51.8,20.2h18.9l-54.4,143.2l-14.2-19.1c-0.4-0.6-43-57.6-67.1-83.9
		c-27.4-29.8-44-37.2-71.2-31.3c-25.1,5.4-33.8,24.3-51.2,66.4l-6,14.5L125.9,486l3-0.9c18.8-5.6,48.6-11.7,76.3-11.7
		c4.1,0,37,0.2,68,7.1l40.9-106l50.7,92.3l-6.4,6.9c-0.6,0.7-15.4,15.8-30.4,30.8c-25,25-68,13-103.6,12.7l-13.9-0.1l-19.5-0.2
		c-24.8-0.4-44.3,4.2-65.8,13.5c-2.1,0.9-4.2,2.3-6.6,3.8c-5.8,3.8-13,8.5-24.6,10.1c-8,1.2-15.6-0.9-21.8-6.1
		c-5.9-4.9-10.5-12.5-13.6-22.7c-17.3,28.7-28.9,63.1-32.5,98.2c-3.2,30.2-0.7,57.2,12.4,95.8c18.2-15.5,45.3-32.2,73.3-44.2
		c20.1-8.6,46.6-13.4,69-16.1c-5-3.3-10.1-6.9-15.1-10.9c-12.2-9.6-21-28.1-14.7-42.4c3.8-8.5,7.5-11.5,17.1-18
		c10.8-7.2,32.8-12.5,76,3.2l15.4,5.7c26.1,9.8,43.4,16.3,74.8,16.3c15.7,0,56.7-2.6,98.6-27c37.3-21.7,51.1-44,72.6-98.6l0.9-2
		l110.3-291.4l7.5-1.2c19.5-3.2,48.7-12.7,67.1-29.2C708.8,138.2,715.4,110.1,713.4,95.8z"/>
</g>
</svg>
