<?xml version="1.0" encoding="utf-8"?>
<!-- Generator: Adobe Illustrator 25.0.0, SVG Export Plug-In . SVG Version: 6.00 Build 0)  -->
<svg version="1.1" id="Layer_1" xmlns="http://www.w3.org/2000/svg" xmlns:xlink="http://www.w3.org/1999/xlink" x="0px" y="0px"
	 viewBox="0 0 999.5 560.1" style="enable-background:new 0 0 999.5 560.1;" xml:space="preserve">
<style type="text/css">
	.st0{fill:#FFFFFF;}
	.st1{fill:#C1C6C8;}
	.st2{fill:#B9975B;}
	.st3{fill:#F47A38;}
</style>
<path class="st0" d="M999.5,216.7c-1.8-26.7-11.2-52.9-27.1-75.8c-19.5-28.6-47.6-53.1-85.8-75C845,42.3,796.1,24.5,741,13.1
	C699.5,4.4,655.8,0,611.2,0c-25.5,0-51.7,1.4-77.8,4.3c-53.6,5.9-108.2,17.4-162.1,34.2c-51.6,16-103.1,37.1-153.2,62.6l0,0l0,0
	c-20.2,10.5-46.6,24.7-71.6,41.4l-37.4,25l44.9-3.1c38.4-2.6,70.4-3.8,100.7-3.8c17.9,0,35.3,0.5,51.8,1.4
	c23.6,1.6,46.5,3.5,68.2,10.3c7.4,2.6,14.9,5.6,17.8,10.8c0.5,1.3-0.4,4.5-3.2,8.3c-4.7,6.2-10.9,12.1-20.3,19.1
	c-18.3,13.4-38.7,24.3-56.4,33.5c-33.9,17.1-70.4,33.1-111.5,48.8l-54,20.6l57.7,2.6c25,1.1,57.8,3.2,90.3,8.8
	c16.5,3.1,32.5,6.5,46.5,13.4c6.8,3.7,8.7,6.2,9.1,7.7c-0.1,3.6-2.6,8-7.9,13.7c-9.8,9.9-21.9,17.7-37.1,26.2
	c-38.4,21-80.1,36.8-116.2,49.9c-48.7,17.2-101.2,33.5-156,48.4L0,493l31.8,13.5c35.6,15.1,76,27,127.2,37.3l0,0l0,0
	c55.4,10.7,112.4,16.2,169.6,16.2c29.7,0,59.9-1.5,89.6-4.4c99.3-9.8,197.6-34,292.1-71.9c52.8-21.4,98.6-44.6,140.1-70.9
	c38.7-24.6,69.9-49.6,95.2-76.3l0-0.1l0-0.1c18.5-20,31.3-37.8,40.2-56.1c7.7-15.4,12.3-31.3,13.6-47.1l0-0.5v-0.5v-14.7v-0.4
	L999.5,216.7z M987.5,232.2c-1.2,14.9-5.7,29.5-12.4,42.8c-9.6,19.8-23.3,37.2-38.2,53.3c-27.4,28.9-59.4,53.1-92.9,74.4
	c-43.6,27.7-90.2,50.5-138.1,69.9c-92.3,37-189.8,61.3-288.8,71.1c-29.4,2.9-58.9,4.4-88.4,4.4c-56.1,0-112.2-5.3-167.3-16
	c-42.6-8.6-84.9-19.6-124.9-36.6c52.8-14.4,105.3-30.5,156.9-48.7c40.2-14.6,80.4-30.1,118-50.7c14.2-8,28.4-16.7,39.9-28.4
	c5.8-6.2,11.6-14,11.2-23c-0.9-8.4-8.7-13.6-15.5-17.3c-15.6-7.8-32.9-11.4-49.9-14.6c-30.4-5.3-61.1-7.6-91.9-9
	c38.3-14.6,76.1-30.8,112.7-49.3c20-10.4,39.8-21.2,58-34.5c8.5-6.3,16.6-13.2,22.9-21.6c4.3-5.9,7.7-13.9,4.2-20.9
	c-4.9-9.2-15.3-13.4-24.7-16.7c-23-7.2-47.3-9.3-71.3-10.9c-17.5-1-35-1.4-52.5-1.4c-33.9,0-67.7,1.6-101.5,3.9
	c22.6-15.1,46.4-28.2,70.5-40.7c97.2-49.4,202.7-83.6,311.2-95.5c25.4-2.8,50.9-4.2,76.5-4.2c42.7,0,85.5,4.1,127.3,12.8
	c49.5,10.3,98.1,26.5,142.1,51.5c31.6,18.1,61.2,41.1,81.9,71.4c14.3,20.6,23.3,44.9,25,69.8V232.2z M540.8,131.2
	c38.7,9.3,77.1,20.2,114.4,34c22.6,8.6,45.1,18,65.3,31.3c-80.4,21-161,41.5-241.4,62.7c76.2-2.6,152.5-5.2,228.7-7.4
	c-27.2,19.1-56.7,34.5-85.8,50.4c-49.9,26.6-100.6,51.6-151.4,76.6c38.2-6.7,75.9-16.1,112.9-27.6c51-15.8,100.8-35.8,147.9-61
	c40.3-21.7,78.7-47.2,112.5-78.2c-46.5-41.9-105.6-68.4-167-79.2C632.2,125,585.9,123.9,540.8,131.2z M830.3,212.3
	c-37,32.4-79.1,58.4-123,80.3c-53.3,26.2-109.4,46.5-166.8,61.6c40.6-20.3,81-40.8,120.5-63.3c25.8-15,51.9-30,75.1-48.8
	c-59.2,1.8-118.4,4-177.5,5.7c61-16,122-31.6,183-47.5c-30.4-22.4-65.7-36.9-101-49.6c-15.9-5.3-31.7-11-48.1-14.6
	c7.4-1.2,14.9-0.3,22.4-0.4c55.4,1.7,110.9,14.2,160.2,39.9C794.8,185.8,813.2,198.2,830.3,212.3z M861.6,118.1
	C790.3,76.2,707.3,56.3,625,55c-48.3-0.5-96.5,5.1-144,13.7c-54,9.9-107.3,23.7-159.4,41.1c15.4-0.7,30.9-0.2,46.3,0.7
	c21.1,1.5,42.2,4.2,62.4,10.2c12.5,3.8,24.8,8.9,34.9,17.4c7.9,6.6,13.8,16,14.7,26.4c1.4,15.1-4.7,29.9-13.4,41.9
	c-11.3,15.6-26.4,28.1-42.2,39c-17.7,12.1-36.6,22.1-56.2,30.7c19.6,5.6,39.4,13.2,54.4,27.5c7.8,7.3,13.6,17.4,13.2,28.3
	c0.2,19.2-10.5,36.5-23.3,50c-17.8,18.4-39.7,32.2-62.2,44.1c-42.7,22.3-88.4,38.3-134.7,51.2c76.2,3.5,152.9,0.1,228.4-11.3
	c105.1-15.9,208.2-47.3,303-95.7c44.6-23,87.5-49.5,126.6-81.1c20.6-16.9,40.5-34.9,56.9-56.1c6-8.4,12.8-17.2,13.8-27.8
	c-0.7-12.9-8.7-24-16.6-33.8C909.2,149.7,885.9,132.7,861.6,118.1z M934.9,210.7c-3.9,9.6-10.3,17.7-16.7,25.5
	c-14.6,17.1-31.4,32-48.8,46.1c-36.4,29-76,53.8-117.2,75.3c-93.9,49-196.2,81-300.6,97.9c-60,9.7-120.7,14.2-181.4,14.3
	c36-12.9,71.6-27.4,104.3-47.4c17.4-10.7,34.2-23,47.8-38.4c12.5-13.9,22.1-31.5,22.6-50.6c0.6-12.1-4.8-23.8-12.8-32.6
	c-10.9-11.9-25.4-19.7-40.1-25.8c22.2-11.5,43.7-24.7,62.2-41.6c16.2-14.9,30.8-33.4,34.3-55.7c2.4-13.2-0.9-27.4-9.6-37.8
	c-11.9-14.3-29.5-22.1-46.8-27.6c-18.2-5.6-37.2-8.4-56.1-9.9c52.3-14.7,105.6-26.3,159.6-33.1c43.2-5.3,87-7.3,130.4-3.2
	c56.1,5.2,111.6,19.6,162.5,44c22.1,10.7,43.4,23.3,62.9,38.4c14.3,11.3,28.1,23.7,38,39.1C933.5,194.4,937.7,202.7,934.9,210.7z"/>
<path class="st1" d="M962.5,147.7c-20.7-30.3-50.3-53.3-81.9-71.4c-44-25-92.6-41.2-142.1-51.5c-66.9-14-136-16-203.8-8.6
	c-108.5,11.9-214,46.1-311.2,95.5c-24.1,12.5-47.9,25.6-70.5,40.7c51.2-3.5,102.7-5.3,154-2.5c24,1.6,48.3,3.7,71.3,10.9
	c9.4,3.3,19.8,7.5,24.7,16.7c3.5,7,0.1,15-4.2,20.9c-6.3,8.4-14.4,15.3-22.9,21.6c-18.2,13.3-38,24.1-58,34.5
	c-36.6,18.5-74.4,34.7-112.7,49.3c30.8,1.4,61.5,3.7,91.9,9c17,3.2,34.3,6.8,49.9,14.6c6.8,3.7,14.6,8.9,15.5,17.3
	c0.4,9-5.4,16.8-11.2,23c-11.5,11.7-25.7,20.4-39.9,28.4c-37.6,20.6-77.8,36.1-118,50.7C141.8,465,89.3,481.1,36.5,495.5
	c40,17,82.3,28,124.9,36.6c84.1,16.3,170.5,20,255.7,11.6c99-9.8,196.5-34.1,288.8-71.1c47.9-19.4,94.5-42.2,138.1-69.9
	c33.5-21.3,65.5-45.5,92.9-74.4c14.9-16.1,28.6-33.5,38.2-53.3c6.7-13.3,11.2-27.9,12.4-42.8v-14.7
	C985.8,192.6,976.8,168.3,962.5,147.7z M975.5,236.9c-3.2,22.7-14.5,43.3-28,61.5c-24.3,32.2-55.7,58.2-88.6,81.1
	c-41.3,28.5-85.9,52.1-131.8,72.2c-99.4,43.1-205.5,70.6-313.3,81c-74.3,7-149.6,4.9-223.4-7.1c-39.6-6.5-78.9-15.6-117-28.4
	c48.2-13.8,96.2-28.7,143.2-46.2c35-13.2,69.7-27.6,102.2-46.2c15.3-9.1,30.5-18.9,42.5-32.2c7.1-8,13.5-18.2,12.5-29.4
	c-1-9.8-8.4-17.4-16.3-22.6c-13.1-8.4-28.2-12.8-43.1-16.4c-18.8-4.4-38-6.9-57.2-8.9c22.7-9.6,45.1-19.8,67.1-31
	c22.8-12,45.4-24.6,65.3-41c9.6-8.2,19.3-17.3,24.2-29.2c3.3-7.7,2.8-17-2.1-23.9c-6.9-9.9-18.5-15.1-29.5-19.2
	c-20.7-7.1-42.5-10.1-64.1-12.1c-39.7-3.5-79.6-3.1-119.4-0.9c52.5-29.2,107.8-53.3,164.9-72.3c87.7-28.9,180.3-45.2,272.9-41.9
	c58.6,2.4,117.1,12.6,172.5,32c39.1,13.9,77.1,32.6,109.1,59.3c16.8,14.1,31.8,30.8,42.4,50.1C972.4,186.9,978.3,212.2,975.5,236.9z
	"/>
<path d="M661.1,290.9c25.8-15,51.9-30,75.1-48.8c-59.2,1.8-118.4,4-177.6,5.7c61-16,122-31.6,183-47.5
	c-30.4-22.4-65.7-36.9-101-49.6c-15.9-5.3-31.7-11-48.1-14.6c7.4-1.2,14.9-0.3,22.4-0.4c55.4,1.7,110.9,14.2,160.2,39.9
	c19.7,10.2,38.1,22.7,55.2,36.8c-37,32.4-79.1,58.4-123,80.3c-53.3,26.2-109.4,46.5-166.8,61.6C581.2,333.9,621.6,313.3,661.1,290.9
	z M975.5,236.9c-3.2,22.7-14.5,43.3-28,61.5c-24.3,32.2-55.7,58.2-88.6,81.1c-41.3,28.5-85.9,52.1-131.8,72.2
	c-99.4,43.1-205.5,70.6-313.4,81c-74.3,7.1-149.6,4.9-223.4-7.1c-39.6-6.5-78.9-15.6-117-28.4c48.2-13.8,96.2-28.7,143.2-46.2
	c35-13.2,69.7-27.6,102.2-46.2c15.3-9,30.5-18.9,42.5-32.2c7.1-8,13.5-18.2,12.5-29.4c-1-9.8-8.4-17.4-16.3-22.6
	c-13.1-8.4-28.2-12.8-43.1-16.4c-18.8-4.4-38-6.9-57.2-8.9c22.7-9.6,45.1-19.8,67.1-31c22.8-12,45.4-24.6,65.3-41
	c9.6-8.2,19.3-17.3,24.2-29.2c3.3-7.7,2.8-17-2.1-23.9c-6.9-9.9-18.5-15.1-29.5-19.2c-20.7-7.1-42.5-10.1-64.1-12.1
	c-39.7-3.5-79.6-3.1-119.4-0.9c52.6-29.2,107.9-53.3,165-72.3c87.7-28.9,180.3-45.2,272.8-41.9c58.6,2.4,117.1,12.6,172.5,32
	C848,69.7,886,88.4,918,115.1c16.8,14.1,31.8,30.8,42.4,50.1C972.4,186.9,978.3,212.2,975.5,236.9z M215.6,477.3
	c76.2,3.5,152.9,0.1,228.4-11.3c105.1-15.9,208.2-47.3,303-95.7c44.6-23,87.5-49.5,126.6-81.1c20.6-16.9,40.5-34.9,56.9-56.1
	c6-8.4,12.8-17.2,13.9-27.8c-0.9-13-8.9-24.1-16.8-33.9c-18.4-21.7-41.7-38.7-66-53.3C790.3,76.2,707.3,56.3,625,55
	c-48.3-0.5-96.5,5.1-144,13.7c-54,9.9-107.3,23.7-159.4,41.1c15.4-0.7,30.9-0.2,46.3,0.7c21.1,1.5,42.2,4.2,62.4,10.2
	c12.5,3.8,24.8,8.9,34.9,17.4c7.9,6.6,13.8,16,14.7,26.4c1.4,15.1-4.7,29.9-13.4,41.9c-11.3,15.6-26.4,28.1-42.2,39
	c-17.7,12.1-36.6,22.1-56.2,30.7c19.6,5.6,39.4,13.2,54.4,27.5c7.8,7.3,13.6,17.4,13.2,28.3c0.2,19.2-10.5,36.5-23.3,50
	c-17.8,18.4-39.7,32.2-62.2,44.1C307.7,448.4,261.9,464.4,215.6,477.3z M950.7,233c-24.6,29-52.3,55.3-82.1,79
	c-77.7,61.4-167.9,105.6-261.8,135.8c-108.4,34.7-222.9,50.7-336.7,47.2c-12.3,3-24.6,6.3-36.9,9.8c88.9,7.5,178.9,3.3,266.5-14.2
	c103.6-20.6,203.8-58.4,294.7-112.2c41.3-24.7,81-52.4,116.4-85c12.8-12.1,25.4-24.7,35.2-39.4C950.2,247.8,953.7,240.3,950.7,233z"
	/>
<path class="st2" d="M929.1,187.6c-9.9-15.4-23.7-27.8-38-39.1c-19.5-15.1-40.8-27.7-62.9-38.4c-50.9-24.4-106.3-38.9-162.5-44
	c-43.4-4.1-87.2-2.1-130.4,3.2c-54,6.8-107.2,18.4-159.6,33.1c19,1.5,37.9,4.3,56.1,9.9c17.3,5.5,34.9,13.3,46.8,27.6
	c8.7,10.3,12,24.6,9.6,37.8c-3.5,22.3-18.1,40.8-34.3,55.7c-18.5,16.9-40,30.1-62.2,41.6c14.7,6.1,29.2,14,40.1,25.8
	c8.1,8.8,13.4,20.5,12.8,32.6c-0.4,19.1-10.1,36.7-22.6,50.6c-13.6,15.4-30.4,27.6-47.8,38.4c-32.7,20-68.3,34.6-104.3,47.4
	c60.7-0.1,121.5-4.6,181.4-14.3c104.4-16.9,206.7-48.9,300.6-97.9c41.2-21.5,80.9-46.3,117.2-75.3c17.4-14.1,34.3-29,48.8-46.1
	c6.5-7.8,12.8-15.9,16.4-25.4C937.4,202.7,933.2,194.4,929.1,187.6z M731.6,290.2c-47.1,25.2-96.9,45.1-147.9,61
	c-37,11.5-74.7,20.9-112.9,27.6c50.7-25,101.5-49.9,151.4-76.6c29.1-15.8,58.7-31.3,85.8-50.4c-76.3,2.2-152.5,4.8-228.7,7.4
	c80.4-21.1,161-41.7,241.4-62.7c-20.2-13.3-42.7-22.7-65.3-31.3c-37.3-13.8-75.7-24.8-114.4-34c45.1-7.3,91.3-6.2,136.3,1.6
	c61.4,10.8,120.5,37.3,167,79.2C810.3,243,771.8,268.6,731.6,290.2z"/>
<path class="st3" d="M950.7,233c-24.6,29-52.3,55.3-82.1,79c-77.7,61.4-167.9,105.6-261.8,135.8c-108.4,34.7-222.9,50.7-336.7,47.2
	c-12.3,3-24.6,6.3-36.9,9.8c88.9,7.5,178.9,3.3,266.5-14.2c103.6-20.5,203.8-58.4,294.7-112.2c41.3-24.7,81-52.4,116.4-85
	c12.8-12.1,25.4-24.7,35.2-39.4C950.2,247.8,953.7,240.3,950.7,233z"/>
</svg>
