<?xml version="1.0" encoding="utf-8"?>
<!-- Generator: Adobe Illustrator 25.0.0, SVG Export Plug-In . SVG Version: 6.00 Build 0)  -->
<svg version="1.1" id="Layer_1" xmlns="http://www.w3.org/2000/svg" xmlns:xlink="http://www.w3.org/1999/xlink" x="0px" y="0px"
	 viewBox="0 0 989.3 837.7" style="enable-background:new 0 0 989.3 837.7;" xml:space="preserve">
<style type="text/css">
	.st0{fill:#FFFFFF;}
	.st1{fill:#FFC600;}
	.st2{fill:#C62100;}
</style>
<g>
	<path class="st0" d="M215.4,467.5c-1.6,0-3.2,0.3-5,0.8c-11.6,7.3-19.4,22.6-32.7,26.9l1.4,2.4c11.3,14.3,20.3,25.3,38.3,29
		c8.3,2.4,16,3.4,23.2,3.4c20.3,0,37.2-8.3,55-19.5c-10.3-5-16.3-5.9-26.3-10.9C237.8,489.7,230.1,467.5,215.4,467.5z M240.6,511
		c-5.7,0-11.6-0.9-18-2.7l-0.7-0.2l-0.7-0.1c-6.4-1.3-10.9-3.9-15.9-8.9c2-2,3.9-4,5.7-5.9c1.8-1.9,3.6-3.8,5.3-5.4
		c1.6,1.3,3.7,3.1,5.3,4.6c5.9,5.2,13.8,12.2,25.1,18.3C244.7,510.9,242.7,511,240.6,511z"/>
	<path class="st0" d="M983.5,214.5c-8.4-40.5-25.5-77.2-50.7-109C906.4,72.4,872.7,46.3,832.4,28C791.5,9.4,746,0,697.2,0
		c-74.5,0-138.9,31.5-190.6,56.9c-31.3,15.3-58.3,28.6-76.8,29.4l-0.1,0c-2.5,0-9.6-2.9-20.6-13.6c-8.6-8.4-14.9-17.2-15-17.3
		l-11.3-15.9l-15.6,11.7C352.2,62.6,343.9,78.9,343,98c-7-2.7-14.2-5-21.6-6.9c-18.1-4.5-33.6-5.5-43.5-5.5c-5.6,0-9.2,0.3-10.1,0.4
		v0c-46.7,4.5-75.2,24.8-90.8,40.9c-10.2,10.6-16.6,20.9-20.1,27.8c-37.1,15.3-55.2,34.7-61.5,42.7c-17.9,12.3-28.4,13.3-30.1,13.4
		l-24.8-3l4.6,25.3c5.3,28.9,21.4,50.5,46.7,62.6c2.7,1.3,5.4,2.4,8,3.4c-9.6,6.5-20.4,11.1-29.8,14.3c-20.7,7.1-39.2,8.9-39.4,9
		L0,325.4l16.4,26.1c12.9,20.6,33.1,35.2,60.1,43.5c20.2,6.2,38.9,7.1,48.3,7.1c1.5,0,2.7,0,3.6-0.1c2.2,0.2,4.5,0.3,6.8,0.3
		c2,0,4.1-0.1,6.2-0.2c-3.1,7.7-5.6,15.5-7.9,22.9c-3.3,10.4-6.3,20.2-10.8,28.1l-0.3,0.5l-0.3,0.6c-1.5,3.1-9.2,7.6-14.2,10.6
		c-4.4,2.6-9,5.3-13.1,8.5l-23.4,18.5L98,505.3c6,3,14.2,6.7,23.6,9.6c1.2,11.9,3.6,26.2,6.4,39.6c-3.7-0.4-7.6-0.6-11.6-0.6
		c-12.2,0-21.3,1.9-22.3,2.1L64,562.4l19.3,24c19.7,24.5,21.7,41.9,24.3,63.9c1.8,15.1,3.8,32.3,12.1,51.9
		c9,28.7,34.2,50.3,53.9,63.4l1.3,0.9l1.4,0.6c9,4.1,18.2,7,27.3,8.7l-24.2,9.7l18.5,20.2c9.9,10.9,25.2,18.2,36.2,22.5
		c13.3,5.1,27.6,8.5,39,9.3c2.5,0.2,5.1,0.3,7.5,0.3c38.9,0,61.1-20.2,80.8-37.9c18.4-16.6,32.9-29.7,60.2-29.7
		c3.1,0,6.3,0.2,9.7,0.5c16.2,1.7,33,8.6,52.3,16.5c30.4,12.5,68.2,28.1,119.1,28.1c49.4,0,97.5-11.8,143-35
		c39.6-20.2,76.5-48.6,109.7-84.5c28.7-31.1,54.1-67.3,73.3-104.9c17.9-35.1,29.7-69.4,34-99.3l3.1-21.7h-21.9H720.2h-14.1
		l-4.1,13.4c-0.2,0.7-24.3,76.3-75.8,76.3c-25,0-43.1-9-55.3-27.6c-10.6-16.1-16.4-39.4-16.4-65.7c0-33.3,13.7-88.6,44.4-137.1
		c18.3-29,57.4-77.7,113.5-77.7c14.5,0,20.4,5.9,23.6,10.4c10.4,14.6,10.3,43.7-0.2,74.2l-8.7,25.2l26.6,0l208.2,0l15.1,0l3.4-14.7
		C991.2,300.9,992.2,256.5,983.5,214.5z M962.1,342.2l-208.2,0c18.3-53.1,10.3-109.8-41.4-109.8c-109.7,0-176.9,152.9-176.9,233.9
		c0,53.3,21.8,112.3,90.6,112.3c66.5,0,93.9-89.7,93.9-89.7h223.8c-15.5,107.5-143.7,307.3-341.2,307.3
		c-78.9,0-122.2-39.7-169.5-44.5c-4.1-0.4-7.9-0.6-11.6-0.6c-68.3,0-76.9,67.7-141,67.7c-2,0-4.1-0.1-6.3-0.2
		c-18.6-1.2-49.8-11.7-62.5-25.6c0,0,54.2-21.7,60.2-50.5c0,0-18.9,16.2-49,16.2c-11.5,0-24.6-2.3-39-8.8
		c-20.1-13.3-40.1-32.2-46.5-54.1c-19.2-44.3-1.2-73.7-39.4-121.2c0,0,7.8-1.7,18.3-1.7c11.7,0,26.8,2.1,38.5,10.8
		c-6.2-18.5-15.4-64.7-15.1-83.8c-11.1-2-22.9-6.3-33.2-11.5c9.5-7.5,26.8-13.4,32.7-25.7c15.4-27.4,14.8-65.8,44.7-86.9
		c0,0,4.9-4.3,15.3-9.8c-14.2,6.4-41.7,17.5-64.1,17.5c-2.2,0-4.3-0.1-6.3-0.3c0,0-1.5,0.1-4.1,0.1c-15.2,0-68-2.9-92.2-41.7
		c0,0,79.9-7.4,104.4-54.8c0,0-0.5,0-1.3,0c-9.1,0-61.8-2.4-71.7-56.8c0,0,0.4,0.1,1.3,0.1c4.4,0,19.9-1.4,43.8-18.6
		c0,0,16-24.5,62.2-41.6c0,0,19.4-57,98.6-64.7c0,0,3-0.3,8.2-0.3c16.7,0,56.2,3.2,92.2,29.7c0,0-23.4-43.9,8.6-67.9
		c0,0,27.6,38.8,51,38.8c0.3,0,0.6,0,0.9,0C487.1,102.7,580.5,19,697.2,19C880,19,1004.3,161,962.1,342.2z"/>
</g>
<path class="st1" d="M962.1,342.2C1004.3,161,880,19,697.2,19c-116.7,0-210.1,83.7-266.6,86.3c-23.6,1-51.9-38.8-51.9-38.8
	c-31.9,23.9-8.6,67.9-8.6,67.9C322.8,99.6,269.7,105,269.7,105c-79.2,7.7-98.6,64.7-98.6,64.7c-46.2,17.1-62.2,41.6-62.2,41.6
	c-28.5,20.5-45.1,18.5-45.1,18.5c10.8,59.6,73,56.8,73,56.8C112.3,334,32.5,341.4,32.5,341.4c28.5,45.6,96.4,41.7,96.4,41.7
	c23.2,2.5,54.8-10.1,70.4-17.1c-10.4,5.4-15.3,9.8-15.3,9.8c-29.9,21.1-29.3,59.5-44.7,86.9c-5.9,12.3-23.2,18.2-32.7,25.7
	c10.3,5.2,22.1,9.5,33.2,11.5c-0.3,19.1,9,65.4,15.1,83.8c-22.2-16.5-56.8-9.1-56.8-9.1c38.2,47.6,20.3,77,39.4,121.2
	c6.5,21.9,26.5,40.7,46.5,54.1c52.1,23.5,88-7.4,88-7.4c-6,28.8-60.2,50.5-60.2,50.5c12.7,13.9,43.8,24.4,62.5,25.6
	c73.5,4.8,77.3-75.2,158.9-66.9c47.3,4.8,90.6,44.5,169.5,44.5c197.4,0,325.6-199.8,341.2-307.3H720.2c0,0-27.4,89.7-93.9,89.7
	c-68.9,0-90.6-59-90.6-112.3c0-80.9,67.2-233.9,176.9-233.9c51.7,0,59.6,56.7,41.4,109.8L962.1,342.2z M90.6,244.7
	c0-1.2-2-2-1.6-3.2c34.9-4,53.1-43.2,87.3-49.6c40.8-15.1,82.5,3.2,108.6,33.7c0,1.2,1.6,1.6,2,2.8c-12.3-2-26.6-7.9-40.8-4.4
	c-25.4,3.6-41.7,28.6-66.2,33.3C152.4,267.7,112,269.3,90.6,244.7z M248.4,732.5c-15.9,7.5-38.1,7.5-53.5-0.8
	c-37.3-20.2-48.4-65-50.4-106.3c-1.6-9.9-5.9-18.6-9.1-28.2c37.7,12.3,38.1,63.5,75.4,75.7c42,24.2,73.4-22.6,116.2-6.7v1.6
	C293.6,680.1,279,716.6,248.4,732.5z M712.3,208.4c-117.6,0-200.7,151.6-200.7,257.7c0,45.2,17,136.2,114.5,136.2
	c78.1,0,110.3-89.8,110.3-89.8h177.3c-28.2,117.4-160.8,260.6-311.1,260c-75.5-0.3-118.1-41.8-175.2-45.6
	c-28.3-1.9-63.8,11.9-87.3,34.5c-16.2,21.8-40.8,40.5-69.8,35.7c-5.9-0.8-11.1-2-16.2-4.4c4.7-3.6,11.9-5.9,16.6-10.3
	c26.2-23.4,25.8-61.1,46.8-88.4c12.7-18.6,32.5-30.1,53.9-34.9c-40.5-19.8-84.9,11.1-126.1-7.9c-60.7-20.6-82.5-84.5-84.5-143.2
	c0.4-0.4,0.4-1.2,0.4-1.6c10.3,14.3,21,25.8,36.4,34.1c29.8,14.3,69.8,11.5,97.2-5.6c17.8-10.7,38.8-14.3,59.5-18.2
	c-19.4-27.8-55.1-23.4-82.1-36.5c-25.4-9.9-45.6-52-77.3-28.6c-12.7,15.9-25.4,32.1-47.6,30.1c31.7-21.4,16.7-65,46.4-87.6
	c31.7-29,78.9-7.9,110.2,7.5c5.5,0,10.3,4,15.1,2c-18.2-13.9-38.9-32.9-50-51.9c-15.9-17.9-42.8-21.8-65.5-14.7
	c-32.5,20.2-75.3,36.5-114.2,19.8l-9.9-4.3v-1.2c33.7-7.1,64.2-31.3,82.5-61.1c35.7-33.7,91.6-39.7,138.8-26.2
	c23,7.9,46,17.9,72.2,17.9c-36.5-24.6-61.1-58.7-83.3-94c-17.8-18.6-41.6-30.9-69-26.2c-11.5,2.4-22.2,7.5-31.3,15.9
	c18.2-30.9,51.2-53.5,88.4-52.3c53.1-4.4,86.1,40,132.5,52.7c15.5,3.6,30.5,10.3,48,9.1c-34.5-13.1-70.6-45.6-73.8-84.5
	c10.6,13.5,25.8,24.5,43.7,24.5c70.8,0,160.5-87.1,269.3-86.5C875.9,41.5,972.2,188.9,943,319.6v0H782.7
	C800.9,265.4,768,208.4,712.3,208.4z M177.7,495.2c13.3-4.3,21.1-19.5,32.7-26.9c18.4-5.7,24,20.3,59,31.3c10,5,15.9,5.8,26.3,10.9
	c-24.1,15.2-46.6,25.1-78.2,16.1c-18-3.7-27-14.7-38.3-29L177.7,495.2z"/>
<path class="st2" d="M90.6,244.7c0-1.2-2-2-1.6-3.2c34.9-4,53.1-43.2,87.3-49.6c40.8-15.1,82.5,3.2,108.6,33.7c0,1.2,1.6,1.6,2,2.8
	c-12.3-2-26.6-7.9-40.8-4.4c-25.4,3.6-41.7,28.6-66.2,33.3C152.4,267.7,112,269.3,90.6,244.7z M326.9,667.8v-1.6
	c-42.8-15.9-74.1,30.9-116.2,6.7c-37.3-12.3-37.7-63.4-75.4-75.7c3.2,9.5,7.6,18.2,9.1,28.2c2,41.3,13.1,86,50.4,106.3
	c15.5,8.3,37.7,8.3,53.5,0.8C279,716.6,293.6,680.1,326.9,667.8z M697.5,40.7c-108.9-0.5-198.5,86.5-269.3,86.5
	c-18,0-33.1-11-43.7-24.5c3.2,38.9,39.3,71.4,73.8,84.5c-17.4,1.2-32.5-5.6-48-9.1c-46.4-12.7-79.3-57.1-132.5-52.7
	c-37.3-1.2-70.2,21.4-88.4,52.3c9.1-8.3,19.8-13.5,31.3-15.9c27.3-4.8,51.1,7.5,69,26.2c22.2,35.3,46.8,69.4,83.3,94
	c-26.2,0-49.2-9.9-72.2-17.9c-47.2-13.5-103.1-7.6-138.8,26.2c-18.2,29.8-48.8,53.9-82.5,61.1v1.2l9.9,4.3
	c38.9,16.7,81.7,0.4,114.2-19.8c22.6-7.1,49.6-3.2,65.5,14.7c11.1,19,31.7,38.1,50,51.9c-4.8,2-9.5-2-15.1-2
	c-31.3-15.4-78.5-36.5-110.2-7.5c-29.7,22.6-14.7,66.2-46.4,87.6c22.2,2,34.9-14.3,47.6-30.1c31.7-23.4,51.9,18.6,77.3,28.6
	c27,13.1,62.7,8.7,82.1,36.5c-20.6,4-41.7,7.6-59.5,18.2c-27.4,17.1-67.4,19.8-97.2,5.6c-15.5-8.3-26.2-19.8-36.4-34.1
	c0,0.4,0,1.2-0.4,1.6c2,58.7,23.8,122.5,84.5,143.2c41.2,19,85.6-11.9,126.1,7.9c-21.4,4.8-41.2,16.3-53.9,34.9
	c-21,27.4-20.6,65-46.8,88.4c-4.8,4.4-11.9,6.7-16.6,10.3c5.1,2.4,10.3,3.6,16.2,4.4c29,4.8,53.6-13.9,69.8-35.7
	c23.4-22.6,58.9-36.4,87.3-34.5c57.2,3.8,99.8,45.3,175.2,45.6c150.2,0.6,282.9-142.6,311.1-260H736.3c0,0-32.2,89.8-110.3,89.8
	c-97.4,0-114.5-91-114.5-136.2c0-106.1,83.2-257.7,200.7-257.7c55.8,0,88.6,57,70.4,111.2H943v0C972.2,188.9,875.9,41.5,697.5,40.7z
	"/>
</svg>
