<?xml version="1.0" encoding="utf-8"?>
<!-- Generator: Adobe Illustrator 25.0.0, SVG Export Plug-In . SVG Version: 6.00 Build 0)  -->
<svg version="1.1" id="Layer_1" xmlns="http://www.w3.org/2000/svg" xmlns:xlink="http://www.w3.org/1999/xlink" x="0px" y="0px"
	 viewBox="0 0 840.4 594.3" style="enable-background:new 0 0 840.4 594.3;" xml:space="preserve">
<style type="text/css">
	.st0{fill:#FFFFFF;}
	.st1{fill:#F74902;}
</style>
<g id="XMLID_1_">
	<path class="st0" d="M819.5,166.4c-6.7-16-15-31.4-24.7-45.8c-9.6-14.4-20.7-27.9-32.9-40.2C749.6,68,736.1,56.8,721.7,47
		c-14.6-9.9-30.3-18.5-46.6-25.3C641,7.3,604.5,0,566.6,0C508.5,0,104.1,0.3,23.7,0.4l-2.3,0l-8.7,0l-9.8,0l-0.2,9.8l-0.2,8.7
		c-0.3,14.6-1.2,53.4,17.4,92.4c3,6.2,6.5,12.4,10.5,18.3l-9.3,0l-8.9,0l-10,0v10v8.9c0,0.2,0,0.6,0,1c-0.7,30.1,2.9,57.4,10.3,79
		c3.8,11,8.4,20.9,14.3,30.4H19h-9H0v10v9c0,33.7,3.5,61.1,10.5,81.5c0.4,1.2,0.8,2.4,1.2,3.5l0,0.2c1,3,2,6.2,3.3,9.4
		c2.5,6.2,5.7,12.5,9.2,18.4c0.3,0.5,0.6,1.1,1,1.6h-5h-9.2H0.9l0.3,10.3l0.2,9.2l0,0.7c0.5,20.1,2,81.3,44,128.9
		c17.8,20.2,40.7,34.8,68.1,43.6c23.6,7.5,45.8,9.1,60.2,9.1h102.4h5.1h5.7l2.9-5l2.6-4.4l77.2-132c9,9.6,21.2,21.2,36.8,32.8
		c21.1,15.8,43.9,28.3,68,37.3c30.1,11.3,62,17,95,17c36.6,0,72-7.1,105.4-21.1c16.1-6.7,31.6-15.1,46-24.8
		c14.4-9.6,27.9-20.7,40.1-32.9c12.3-12.2,23.4-25.6,33.1-39.9c9.8-14.4,18.2-29.9,25-45.9c14.1-33.4,21.3-68.9,21.3-105.5
		C840.4,234.2,833.4,199.3,819.5,166.4z M809.9,371.6c-6.5,15.4-14.6,30.3-24.1,44.2c-9.3,13.8-20.1,26.7-31.9,38.5
		c-11.8,11.7-24.8,22.4-38.6,31.7c-13.9,9.4-28.9,17.4-44.3,23.9c-32.1,13.5-66.3,20.3-101.5,20.3c-31.7,0-62.5-5.5-91.5-16.4
		c-23.2-8.7-45.2-20.8-65.5-36c-21.2-15.8-36-31.6-44.4-41.8l-84.2,143.9l-2.6,4.4h-5.1H173.8c-13.8,0-34.9-1.5-57.2-8.6
		c-25.7-8.2-47.1-21.9-63.7-40.7c-39.6-44.9-41-103.3-41.5-122.6l0-0.7l-0.2-9.2h9.2h25c-3.8-4.3-8.2-9.8-12.4-16.8
		c-3.3-5.4-6.2-11.3-8.5-17c-1.2-3-2.2-5.9-3.1-8.8c-0.4-1.2-0.8-2.5-1.3-3.8c-6.6-19.3-10-45.7-10-78.3v-9h9h27.1
		c-10.2-12.8-18.2-26.1-24.2-43.6c-7-20.4-10.4-46.5-9.7-75.5c0-0.5,0-1,0-1.2v-8.9l8.9,0l29.6,0c-9.1-10.3-16.4-21.3-21.8-32.6
		C11.3,70.2,12.1,33.1,12.5,19.2l0.2-8.7l8.7,0c4.8,0,481.9-0.4,545.2-0.4c36.5,0,71.7,7,104.6,20.9c15.7,6.6,30.8,14.8,44.9,24.4
		c13.9,9.4,26.9,20.2,38.8,32.1c11.8,11.8,22.4,24.8,31.7,38.7c9.3,13.9,17.3,28.7,23.8,44.1c13.3,31.7,20.1,65.3,20.1,99.7
		C830.4,305.2,823.5,339.4,809.9,371.6z M566.6,19c-64,0-545.2,0.4-545.2,0.4C21,36.9,21.1,70,37,103.1
		c7.5,15.7,19.2,31.1,35.2,45.4l-51.1,0.1c0,3.6-1.8,41.6,9.2,73.8c7.6,22,18.2,37,35.4,55.5H19c0,29.9,2.8,55.9,9.5,75.4
		c1.5,4.2,2.6,8.2,4.2,12.1c2.3,5.7,5.1,11.1,7.9,15.7c6.6,10.8,13.4,17.8,18.2,22.5c5.3,5.2,7.8,7.8,7.8,7.8H20.3
		C20.7,429,21.7,486,59.6,529c35.1,39.8,86,46.3,114.2,46.3h102.4L367,420c0,0,68,101.2,202.4,101.2
		c139.1,0,252.1-111.7,252.1-251.2C821.5,134.8,711.8,19,566.6,19z M572.1,503.4c-113.5,0-172.4-68.9-195.3-100.3l77.4-131.5
		c0.8,62.9,52.2,113.6,115.4,113.6c63.8,0,115.5-51.5,115.5-115.1c0-63.5-51.7-115.1-115.5-115.1c-42,0-78.7,22.3-98.9,55.7v0
		L266.1,555.3l-104.4-0.1c-16.2,0-51.1-2.4-85.5-40.3c-32.4-35.7-32.4-75.2-32.4-82c0,0,150.4,0.1,153.2,0.1c2.7,0,6.4-3.5,6.4-5.6
		c0-2.1-4-5.9-6.5-5.9c-2.5,0-47.7-0.1-47.7-0.1c-22.5,0-61.3-10.6-83.9-43.8c-21.4-31.4-22.9-70.9-22.9-77.7l234.8,0.1
		c1.6,0,5.6-3,5.6-5.2c0-1.6-4.3-6-5.6-6H158c-15-3-47.9,0-80.2-32.3c-32.5-32.5-32-83.9-32-89h310c1.7,0,4.7-3.5,4.7-5.8
		c0-2.3-3.4-5.4-4.7-5.4c-0.8,0-200.4-0.1-200.4-0.1c-36.8,0-61.7-13.5-78.3-30.1c-13-13-33.5-48.6-33.5-89.4c0,0,460.8,0,520.6,0
		c147.5,0,239.6,116,239.6,232.6C803.7,399.2,699.2,503.4,572.1,503.4z"/>
	<path d="M810.3,170.2c-6.5-15.4-14.5-30.2-23.8-44.1c-9.3-13.8-20-26.9-31.7-38.7C743,75.5,730,64.7,716.1,55.3
		c-14.1-9.6-29.2-17.8-44.9-24.4C638.3,17,603.1,10,566.6,10c-63.3,0-540.4,0.4-545.2,0.4l-8.7,0l-0.2,8.7c-0.3,14-1.2,51,16.5,87.8
		c5.4,11.4,12.8,22.3,21.8,32.6l-29.6,0l-8.9,0v8.9c0,0.2,0,0.7,0,1.2c-0.6,29,2.7,55.1,9.7,75.5c6,17.6,14,30.8,24.2,43.6H19h-9v9
		c0,32.6,3.4,58.9,10,78.3c0.4,1.3,0.9,2.5,1.3,3.8c0.9,2.9,1.9,5.8,3.1,8.8c2.3,5.7,5.2,11.6,8.5,17c4.2,7,8.6,12.5,12.4,16.8h-25
		h-9.2l0.2,9.2l0,0.7c0.5,19.2,2,77.7,41.5,122.6c16.6,18.8,38,32.5,63.7,40.7c22.3,7.1,43.4,8.6,57.2,8.6h102.4h5.1l2.6-4.4
		L368,436c8.4,10.1,23.2,25.9,44.4,41.8c20.3,15.2,42.3,27.3,65.5,36c29,10.9,59.7,16.4,91.5,16.4c35.2,0,69.4-6.8,101.5-20.3
		c15.5-6.5,30.4-14.5,44.3-23.9c13.8-9.3,26.8-19.9,38.6-31.7c11.8-11.8,22.5-24.7,31.9-38.5c9.4-13.9,17.5-28.8,24.1-44.2
		c13.6-32.1,20.5-66.3,20.5-101.6C830.4,235.5,823.7,202,810.3,170.2z M569.4,521.2C435,521.2,367,420,367,420l-90.9,155.3H173.8
		c-28.2,0-79-6.5-114.2-46.3c-37.9-43-38.9-100-39.3-117.6h46.3c0,0-2.5-2.6-7.8-7.8c-4.8-4.8-11.7-11.7-18.2-22.5
		c-2.8-4.6-5.6-10-7.9-15.7c-1.6-3.9-2.8-7.9-4.2-12.1c-6.7-19.4-9.5-45.5-9.5-75.4h46.8c-17.1-18.5-27.8-33.5-35.4-55.5
		c-11-32.2-9.2-70.2-9.2-73.8l51.1-0.1c-16-14.3-27.7-29.8-35.2-45.4C21.1,70,21,36.9,21.4,19.4c0,0,481.2-0.4,545.2-0.4
		c145.3,0,254.9,115.8,254.9,251C821.5,409.5,708.5,521.2,569.4,521.2z M803.7,269.4c0,129.8-104.5,234-231.7,234
		c-113.5,0-172.4-68.9-195.3-100.3l77.4-131.5c0.8,62.9,52.2,113.6,115.4,113.6c63.8,0,115.5-51.5,115.5-115.1
		c0-63.5-51.7-115.1-115.5-115.1c-42,0-78.7,22.3-98.9,55.7v0L266.1,555.3l-104.4-0.1c-16.2,0-51.1-2.4-85.5-40.3
		c-32.4-35.7-32.4-75.2-32.4-82c0,0,150.4,0.1,153.2,0.1c2.7,0,6.4-3.5,6.4-5.6c0-2.1-4-5.9-6.5-5.9c-2.5,0-47.7-0.1-47.7-0.1
		c-22.5,0-61.3-10.6-83.9-43.8c-21.4-31.4-22.9-70.9-22.9-77.7l234.8,0.1c1.6,0,5.6-3,5.6-5.2c0-1.6-4.3-6-5.6-6H158
		c-15-3-47.9,0-80.2-32.3c-32.5-32.5-32-83.9-32-89h310c1.7,0,4.7-3.5,4.7-5.8c0-2.3-3.4-5.4-4.7-5.4c-0.8,0-200.4-0.1-200.4-0.1
		c-36.8,0-61.7-13.5-78.3-30.1c-13-13-33.5-48.6-33.5-89.4c0,0,460.8,0,520.6,0C711.7,36.8,803.7,152.8,803.7,269.4z"/>
	<path id="XMLID_10_" class="st1" d="M636,270.1c0,36.6-29.8,66.3-66.5,66.3c-36.7,0-66.5-29.7-66.5-66.3
		c0-36.6,29.8-66.3,66.5-66.3C606.2,203.8,636,233.5,636,270.1"/>
</g>
</svg>
