<?xml version="1.0" encoding="utf-8"?>
<!-- Generator: Adobe Illustrator 25.0.0, SVG Export Plug-In . SVG Version: 6.00 Build 0)  -->
<svg version="1.1" id="Layer_1" xmlns="http://www.w3.org/2000/svg" xmlns:xlink="http://www.w3.org/1999/xlink" x="0px" y="0px"
	 viewBox="0 0 694 939" style="enable-background:new 0 0 694 939;" xml:space="preserve">
<style type="text/css">
	.st0{fill:#FFFFFF;}
	.st1{fill:#B4975A;}
	.st2{fill:#333F42;}
</style>
<g id="XMLID_1_">
	<path class="st0" d="M401.8,51.4C392.4,42.6,347.1,0,347.1,0s-45.3,42.6-54.9,51.4H0v641.7C109.2,814,200.6,871.8,347.1,939
		C492.8,871.6,584.8,814,694,693.1V51.4H401.8z M681.9,688.4C579.4,802.1,488.2,860.7,347.1,925.7c-141.8-65-232.7-124-335-237.3
		V63.5h284.8c0.6-0.6,50.2-46.9,50.2-46.9s49.4,46.5,49.8,46.9h285L681.9,688.4L681.9,688.4z M299.3,437.4l47.7,154.1l-8,15.2
		l-53.5-172.9l18-17.8L299.3,437.4z M296.9,63.5c2,2.5,3.5,5.3,4.3,8.4c1.8,4.7,3.1,9.4,4.3,14.3c-3.7-3.1-7.8-5.7-12.1-8
		C175,127.6,120.7,218.6,120.7,331.5v330.7c-4.1-4.1-8.2-8.2-12.1-12.3V331.7C108.8,196.7,186.2,103.9,296.9,63.5z M381.3,800.7
		l158-456.1l15.4-7.2L402.4,776.1L381.3,800.7z"/>
	<path class="st1" d="M396.9,63.5c0,0-4.3,4.3-8.6,22.7c93.2,34,152.8,103.7,168.4,195.1l-176.6,85l-33.2,106.7V16.6
		c0,0-49.4,46.3-50.2,46.9c2,2.5,3.5,5.3,4.3,8.4c1.8,4.7,3.1,9.4,4.3,14.3c-3.7-3.1-7.8-5.7-12.1-8
		c-118.4,49.4-172.7,140.4-172.7,253.4v45.7l109.4,316.6L169,550.5l-36.1-104.9l-12.1-68.4V662c54.7,54.1,125,107,192,138.5
		L154.5,344.4l149,71.7l-11.3,11.3l11.3-11.3l-4.3,21.3l47.7,154.1l-8,15.2l0,0h15.8l53.3-172.9l-18-17.8l149-71.7l-158,456.1l0,0
		l158-456.1l15.4-7.2L402.4,776.1l-21.1,24.6c71.5-33.8,147.3-92,203.9-150.8V331.5c0-112.5-53.9-195.9-136.3-243.8h208.8v591.7
		c-93.4,103.5-191,164.9-310.6,220c-119.5-55.1-217.4-116.6-310.8-220V87.5h209c-0.2,0-0.4,0.2-0.6,0.4
		c16.4-9.6,33.8-17.8,52.2-24.4H12.1v624.9c102.4,113.3,193.4,172.3,335,237.3c141-65.2,232.3-123.7,334.8-237.3V63.5H396.9z
		 M313.9,366.1l-153-73.3l140.8,53.3l12.1-203.5V366.1z M561,445.6v194.4c-36.7,42.2-96.5,88.1-96.5,88.1l-22.9,29.5L573.1,377
		L561,445.6z"/>
	<path id="XMLID_2_" d="M657.7,87.5v591.7c-93.4,103.5-191,164.9-310.6,220c-119.5-55.1-217.4-116.6-310.8-220V87.5h209
		C162.9,135.6,108.8,219,108.8,331.7v318.2c56.1,58.2,132,116.8,204.1,150.8L154.7,344.6l149,71.7l-18,17.8l53.5,172.9h15.8
		L408.5,434l-18-17.8l149-71.7l-158,456.1c71.5-33.8,147.3-92,203.9-150.8V331.5c0-112.5-53.9-195.9-136.3-243.8L657.7,87.5z"/>
	<path class="st2" d="M556.7,281.1l-176.6,85l-33.2,106.7V16.6l0.4,0.4c5.5,5.1,49.4,46.5,49.4,46.5s-4.3,4.3-8.6,22.7
		C481.5,119.9,541.1,189.7,556.7,281.1z M441.7,757.7l22.9-29.5c0,0,59.8-46.1,96.5-88.1V445.8l12.1-68.4L441.7,757.7z M161.2,292.6
		l153,73.3V142.6L302,345.9L161.2,292.6z M132.8,445.6l36.5,104.7l60.9,143.4L120.9,377L132.8,445.6z"/>
</g>
</svg>
