<?xml version="1.0" encoding="utf-8"?>
<!-- Generator: Adobe Illustrator 25.0.0, SVG Export Plug-In . SVG Version: 6.00 Build 0)  -->
<svg version="1.1" id="Layer_1" xmlns="http://www.w3.org/2000/svg" xmlns:xlink="http://www.w3.org/1999/xlink" x="0px" y="0px"
	 viewBox="0 0 1126 689.1" style="enable-background:new 0 0 1126 689.1;" xml:space="preserve">
<style type="text/css">
	.st0{fill:#FFFFFF;}
	.st1{fill:#A2AAAD;}
	.st2{fill:#CC0000;}
</style>
<g id="Layer_6">
	<path class="st0" d="M1097.1,139.3c-19.2-29.9-47.5-53.5-84-70.4c-10.6-4.9-21.8-9.2-33.5-12.8L999.8,43l29.5-19.1l-34.5-6.5
		L960,10.9C921.5,3.7,876.4,0,826.1,0C654.6,0,452.6,41.9,299,109.5c-89,39.1-159.7,85.2-210.1,137.1C29.9,307.2,0,374.4,0,446.2
		c0,40.6,9.9,76.3,29.3,106.2c19.4,29.9,48.1,53.4,85.1,69.8c10.5,4.7,21.6,8.7,33.2,12.1l-19.8,12.9l-29.5,19.2l34.7,6.3l34.9,6.3
		c37.1,6.7,80.5,10.1,129.1,10.1c171.3,0,373.1-41.3,526.9-107.7c89.7-38.8,161-84.7,211.9-136.4c59.6-60.6,90-128,90.2-200.3
		C1126,204.6,1116.3,169.1,1097.1,139.3z M1025.8,435.3c-49.6,50.4-119.4,95.3-207.5,133.3C666.2,634.3,466.5,675.1,297,675.1
		c-47.7,0-90.3-3.3-126.6-9.9l-34.9-6.3l29.8-19.4l17.5-11.4c-18.1-3.2-40.3-8.9-62.6-18.8C50.7,578.6,14,522.2,14,446.2
		c0-68,28.5-131.9,84.9-189.8c49.1-50.6,118.4-95.7,205.7-134C456.6,55.5,656.4,14,826.1,14c49.4,0,93.6,3.6,131.4,10.7l34.8,6.5
		l-29.7,19.2l-17.6,11.4c18,3.5,40.1,9.5,62.3,19.8c68.6,31.6,104.8,88,104.8,163.2C1111.8,313.3,1082.8,377.4,1025.8,435.3z
		 M904.7,70.9l50.2-32.4c-37.2-7-80.9-10.4-128.8-10.4c-311.5,0-798,146.2-798,418.1c0,171.2,195.4,172.3,195.4,172.3l-50.6,33
		c35.7,6.4,77.8,9.6,124.1,9.6c308.2,0,800-142.2,800.9-416.4C1097.9,75.5,904.7,70.9,904.7,70.9z M55.3,441.1
		c0-260.3,504.3-391.9,756.5-391.9c47.7,0,72.5,4,72.5,4c-63.4,0-630.1,91.9-630.1,347.5c0,102.4,99.6,118.9,99.6,118.9
		c-35.6,15.1-125.9,27.5-165.2,21.1c200.1,67.8,436.9-26.2,436.9-26.2c-63.5,35.8-221.3,85.6-353.6,85.6
		C195.3,600.3,55.3,583.2,55.3,441.1z M578.6,443.6c-108.6,39.5-226.2,42.8-241.3,0.8c-15.1-42,68.5-109.4,186.7-151.9
		c98-33.9,202-41.8,234.2-13.4c-11.8-16.5-39.3-25.1-79-25.1c-100.7,0-287.5,66.2-352.4,155.4c26.4-47.8,27-78.1,57.3-113.7
		c52.4-59.6,218.3-104.7,308.4-104.7c91,0,122.9,58.7,123.4,95.8c0,105.1-219.2,190.7-218.8,190.7c82.7-55.6,131.9-102,153.9-137.7
		C721.6,375.6,657.5,415.3,578.6,443.6z M314.5,640.6c-47.7,0-72.5-4-72.5-4c63.4,0,630.1-91.9,630.1-347.5
		c0-102.4-99.6-118.9-99.6-118.9c35.6-15.1,125.9-27.5,165.2-21.2c-200.1-67.8-436.9,26.2-436.9,26.2
		c63.5-35.8,221.3-85.6,353.6-85.6c76.6,0,216.6,17.1,216.6,159.2C1071,509,566.8,640.6,314.5,640.6z"/>
	<path class="st1" d="M1007.2,81.5c-22.2-10.3-44.4-16.3-62.3-19.8l17.6-11.4l29.7-19.2l-34.8-6.5C919.7,17.6,875.5,14,826.1,14
		c-169.6,0-369.5,41.5-521.5,108.3c-87.4,38.4-156.6,83.5-205.7,134C42.5,314.3,14,378.1,14,446.2c0,76,36.7,132.5,106.1,163.2
		c22.3,9.9,44.5,15.6,62.6,18.8l-17.5,11.4L135.5,659l34.9,6.3c36.3,6.6,78.9,9.9,126.6,9.9c169.5,0,369.2-40.8,521.3-106.5
		c88.1-38.1,157.9-82.9,207.5-133.3c57-57.9,86-122,86.2-190.6C1112,169.6,1075.8,113.2,1007.2,81.5z M297,661
		c-46.3,0-88.4-3.2-124.1-9.6l50.6-33c0,0-195.4-1-195.4-172.3c0-271.9,486.4-418.1,798-418.1c47.8,0,91.6,3.4,128.8,10.4
		l-50.2,32.4c0,0,193.2,4.5,193.2,173.8C1097,518.8,605.2,661,297,661z"/>
	<path d="M458.9,398.7c-5.5-16.4,30.4-43.1,80-59.6c49.7-16.6,94.4-16.7,99.8-0.3c5.5,16.4-30.4,43.1-80,59.6
		C509,415,464.3,415.1,458.9,398.7z M188.6,540.8c39.3,6.3,129.6-6,165.2-21.1c0,0-99.6-16.4-99.6-118.9
		c0-255.6,566.6-347.5,630.1-347.5c0,0-24.8-4-72.5-4c-252.3,0-756.5,131.5-756.5,391.9c0,142,140,159.2,216.6,159.2
		c132.3,0,290.1-49.9,353.6-85.6C625.5,514.7,388.7,608.7,188.6,540.8z M692.4,191.1c-90.2,0-256,45.1-308.4,104.7
		c-30.2,35.6-30.9,65.8-57.3,113.7c65-89.1,251.7-155.4,352.4-155.4c121.8,0,129.2,81.3-82.1,223.5c-0.4,0,218.8-85.6,218.8-190.7
		C815.3,249.8,783.5,191.1,692.4,191.1z"/>
	<path class="st2" d="M1071,248.7c0,260.3-504.3,391.9-756.5,391.9c-47.7,0-72.5-4-72.5-4c63.4,0,630.1-91.9,630.1-347.5
		c0-102.4-99.6-118.9-99.6-118.9c35.6-15.1,125.9-27.5,165.2-21.2c-200.1-67.8-436.9,26.2-436.9,26.2
		c63.5-35.8,221.3-85.6,353.6-85.6C931,89.6,1071,106.7,1071,248.7z M337.3,444.4c-15.1-42,68.5-109.4,186.7-151.9
		c110-38,227.6-43.4,242.7-1.3c15.1,42-69.9,110-188.1,152.4C470,483.1,352.4,486.4,337.3,444.4z M458.9,398.7
		c5.5,16.4,50.2,16.2,99.8-0.3c49.7-16.6,85.5-43.3,80-59.6c-5.5-16.4-50.2-16.2-99.8,0.3C489.3,355.7,453.4,382.4,458.9,398.7z"/>
</g>
</svg>
