<?xml version="1.0" encoding="utf-8"?>
<!-- Generator: Adobe Illustrator 25.0.0, SVG Export Plug-In . SVG Version: 6.00 Build 0)  -->
<svg version="1.1" id="Layer_1" xmlns="http://www.w3.org/2000/svg" xmlns:xlink="http://www.w3.org/1999/xlink" x="0px" y="0px"
	 viewBox="0 0 769 741.9" style="enable-background:new 0 0 769 741.9;" xml:space="preserve">
<style type="text/css">
	.st0{fill:#FFFFFF;}
	.st1{fill:#F47D30;}
	.st2{fill:#00539B;}
</style>
<g id="XMLID_1_">
	<path class="st0" d="M384.5,0C172.1,0,0,166.1,0,370.9c0,204.9,172.1,370.9,384.5,370.9c212.4,0,384.5-166.1,384.5-370.9
		C769,166.1,596.8,0,384.5,0z M384.5,714.5c-197.2,0-357.1-153.8-357.1-343.6c0-189.8,159.9-343.6,357.1-343.6
		c197.2,0,357.1,153.8,357.1,343.6C741.6,560.7,581.7,714.5,384.5,714.5z M405,458.5l29.9,15.3l-28.4,60.5c-1.8,3.8-5.2,6.5-9.2,7.5
		l-45.8,10.9c-0.5-0.5-1-0.8-1.7-0.9L326,549c-0.8-0.1-1.6,0.2-2.2,0.7c-0.6,0.5-1,1.3-1,2.1v7.7l-19.2,4.6l-2.7-17
		c-0.1-0.9-0.8-1.7-1.7-1.9l-29.9-7.3c-1.2-0.3-2.4,0.4-2.8,1.7l-9.1,35.5l-15.3,3.7c-1.4,0.3-2.9,0.1-4.1-0.7
		c-1.2-0.8-2-2.1-2.2-3.5l-9.4-61.6c-0.2-1.3,0.1-2.8,1-3.8c0.8-1.1,2.1-1.8,3.4-2l153.9-21.2c4.5-0.6,8.4-3.5,10.4-7.5h0L405,458.5
		z M411.2,446.1l29.7,15.2l-2.4,5.1l-29.8-15.2L411.2,446.1z M450.3,441.1l-29.4-15l1-2l1.5-3l29.3,14.9L450.3,441.1z M417.3,433.6
		l29.5,15l-2.4,5.1l-29.6-15.1L417.3,433.6z M577.5,108.1c7.5,5,14.7,10.3,21.7,15.9l-94.8,201.7l-18,38.3l-8.7,18.6l-17.7,37.7
		l-3.9,8.3l-29.1-14.9l35-71l9.7-19.7l-81-174.5v162.2c0,2.8-2.3,5.2-5.2,5.2h-78.8c-1.8,0-3.5-1-4.4-2.5l-51.7-86.3v83.6
		c0,2.8-2.3,5.2-5.1,5.2h-70.2c-2.8,0-5.1-2.3-5.1-5.2V123.8c26.5-21.2,56.4-38.4,88.8-51l54.4,105.1V77.3c0-2.8,2.3-5.2,5.2-5.2
		h123.7c2,0,3.8,1.2,4.7,3l71.3,153.5L577.5,108.1z M544.2,461.5c0,8.8-21.1,15.9-47.1,15.9c-26,0-47.1-7.1-47.1-15.9
		c0-8.8,21.1-15.9,47.1-15.9C523.1,445.6,544.2,452.7,544.2,461.5z"/>
	<path class="st1" d="M435,473.8L405,458.5l3.7-7.4l29.8,15.2L435,473.8z M253.6,443.4L253.6,443.4c12.4-14,29.9,2.6,44.6-6.3
		c11.4-5.8,21.1,4.4,33.3,2.5c7.7-0.1,19.2-8.6,25.9,1.6c5.6,2.7,13.4,1.7,18.2-1.8c3-10.7,15.3-6.6,23.4-9c5.4-1.2,15.9-6.6,23-6.2
		l1.5-3l29.3,14.9l3.5-7.5l-29.1-14.9l35-71c-20.7-3.3-46.4,10.4-64.4,0.8c-20.8-0.6-45,0.7-63.4-9c-12-1.9-24.8-1.7-35.7-6.1
		c-5.8,10.9-12.4-3.6-19.4-1.5c-4.2,1.3-7.7,6-6.9,10.9c-2.2,11.3-15.9,4.7-23,9.5c-13,7.4-20.2-11.2-32.6-11.1
		c-8.5-2.3-18.6-1.3-23.3,7.4c-7.3,1.9-11-7.7-19.3-4.6c-5.8-3.6,2.6-6,0.4-10.4c-4.7-5.2-13.6-8.9-20.2-4.6
		c-1.2,8.9,8.3,16.5,3.3,25.8c-5,1-4.7-6.2-8.9-7.9c-4.8-2.3-5,3.5-7.5,5.8c-9.3-0.4-7.3-10.8-10.2-16.4
		c-10.8-1.7-19.4,4.9-28.3,8.8c-6.2,4.7-2.2,14.9-7.5,19.8c-4.2-3.1-3.7-9.1-7.8-12.8c-3.5-2.3-7.7-3.9-12-2.4c-4,1-5.1,4.3-6,7.8
		c0.1,2.1,2.2,3.7,4.5,3.1c2.7,0.6,4.7,3.8,3.5,6.4c-1.4,1.9-2.2,5.7-5.5,5c-3.5-3.4-8.5-8.1-13.5-6c-2.1,1.9,0,4.4,0,6.4
		c-2.3,7.6,3.3,12,7.4,17.4c1.4,6,2,14.7-2.6,19c-6.2,1.2-7.7,8-8.3,13.2c1.5,5.2,7.2,4.8,9.3,9.1c1.1,3.5-2.7,6.2-5.9,8.2
		c1.2,5.9,2.6,11.7,4.2,17.5c3.8-1.5,8.1-2.9,10.5-2.5c2.1,1,3.5,2.9,3.5,5c2,3.9,6.2,7.8,10.9,5.6c4.8-2.1,9.1-8.6,14.2-5.9v-43.3
		l22.2,19.5v22.4c-7.1,1.9-15.4-0.4-22.2,1.4v59.3l15.7,22.6c3.9,5.7,6.5,4.3,6.5-0.6v-82.7c8.2-0.2,17.6,0.6,25.2-2.4
		c15.1,1.1,33.1,5.3,46.1-3.3c11.6-2.1,22.3-6,34.7-6C238.3,440.3,245.7,444,253.6,443.4z M511.7,349.9L511.7,349.9
		c8.3-11,29.6,2.2,32.3-14.8c3.3-8.8,13.2-5.5,19.4-9.9c1.9-3.3-1.4-5.6-2.1-8.4c8.1-8.9,19.1-15,27.8-24.1c6.2-6.2,15.9-4.8,24-4.9
		c3.7-2.2,9.1-5.6,9.9-9.9l-1-1.5c-11.4-1.7-23.7,0.4-34.3,3.8c-11.8,10.7-24.9,18.3-39.1,22.7c-9.7,12.3-29.8,18-44.2,23l-18,38.2
		C495.6,361.7,507.7,355.2,511.7,349.9z M450.3,441.1l-29.4-15l-3.6,7.4l29.5,15L450.3,441.1z M411.2,446.1l29.7,15.2l3.5-7.5
		l-29.6-15.1L411.2,446.1z M741.6,370.9c0,189.8-159.9,343.6-357.1,343.6c-197.2,0-357.1-153.8-357.1-343.6
		c0-189.8,159.9-343.6,357.1-343.6C581.7,27.3,741.6,181.2,741.6,370.9z M719.6,370.9c0-6.9-0.3-13.7-0.7-20.4
		c-31.5,11-70.6,23.9-101,34.3c-10.2-1.7-17.2,4.1-24.5,8.9c-10.8,4.7-24.4,2.8-35.1,7.3c-10,8.2-24.7,11.7-36.9,6.5
		c-3.3-3.7-7.6-8.3-12.8-7.1c-8.1,0.8-9.8,15.5-19.9,7.9c-6.2,3.2-11.6,7.8-18.5,9.4l-10.3,2.6l17.7-37.7c10.1,3.6,24.1,9,33.4,7.5
		c21.7-7,30.1-40,55.4-38c14.3,2.5,26.9-1.8,36.8-11.3c9.7-3.7,10.5,12,19.5,10.3c0.8-5.7,1.3-12.8,7.8-15.2
		c3.1-1.2,8.1-0.8,8.5,3.3c-6.9,9.7,8,12.9,5.9,22c1.2,3.9,5.7,3.9,8.9,2.9c5.2-9.9,15.9-10.8,25.8-11.3c7.7-11.3,26-0.8,30.3-16.7
		l7.1-2.4c-10.1-84-53.9-158.1-118.1-209.6c-7-5.6-14.2-10.9-21.7-15.9c-54.6-37-121.1-58.8-193.1-58.8c-44.4,0-86.7,8.4-125.5,23.4
		c-32.4,12.6-62.4,29.9-88.9,51c-73.8,59-120.8,147.8-120.8,247.2c0,177.6,150,321.6,335.1,321.6
		C569.6,692.5,719.6,548.5,719.6,370.9z M155.1,503.1c0,0-2.2-2.9-2.2-6.6v-3.3c0,0,0.9-4.8,4.7-1.3l6.2,5.6
		c1.6,1.5,2.7,3.7,2.7,6.4v4.5c0,2.6,0.7,4.6,3.1,6.8l11.7,10.5c4.9,4.4,7.3,1.2,7.3-2.6v-17.9c0-6.6-2.8-10.5-4.8-12.3l-32-28.8
		c-12.4-11.1-21-1.4-21,5.8v29.8c0,5.7,1.9,9.1,4.5,12.5l29,37.8c1.6,2.1,2.3,4.2,2.3,6.8v4.2c0,3.4-3,3.1-5.3,1l-6.3-5.3
		c-2.2-1.7-2-5.3-2-8.3v-3.8c0-2.1-2.2-5.7-4.4-7.5L134,523.6c-2.2-2.1-3.3-0.3-3.3,5.3v17.3c0,4.5,3,13.6,9.7,19.7l33.1,29.8
		c8,7.2,15,0.2,15-16.4v-19c0-9.4-4.2-19-9.1-25.4L155.1,503.1z M237.9,616.2l-17.5-10.4v-87.5c0-1-0.5-1.9-1.4-2.4l-16.4-9.8
		c-0.9-0.5-2-0.5-2.9,0c-0.9,0.5-1.4,1.4-1.4,2.5v103.5c0,1,0.5,2,1.4,2.5l35.4,21c0.9,0.5,2,0.5,2.9,0c0.9-0.5,1.4-1.5,1.4-2.5
		v-14.4C239.2,617.7,238.7,616.7,237.9,616.2z M318.8,660.5c0.1,0.8-0.2,1.5-0.8,2.1c-0.6,0.5-1.4,0.7-2.2,0.4l-18.4-6
		c-0.8-0.3-1.4-1-1.5-1.8l-3.5-21.9l-24.1-7.8l-4.5,18c-0.2,0.6-0.6,1.1-1.1,1.4c-0.6,0.3-1.2,0.3-1.8,0.2l-17.6-5.7
		c-1.2-0.4-1.8-1.6-1.5-2.8l15.8-61.5l9.1-35.5c0.3-1.2,1.5-1.9,2.8-1.7l29.9,7.3c0.9,0.2,1.6,1,1.7,1.9l2.7,17v0L318.8,660.5z
		 M288.9,611.2l-6.5-41.2l-9.2,36.1L288.9,611.2z M402,558l-16.4-1.9c-0.8-0.1-1.6,0.2-2.2,0.7c-0.6,0.5-1,1.3-1,2.1v57.4
		l-30.3-62.9c-0.1-0.3-0.4-0.5-0.6-0.7c-0.4-0.5-1-0.8-1.7-0.9L326,549c-0.8-0.1-1.6,0.1-2.2,0.7c-0.6,0.5-1,1.3-1,2.1v7.7v102
		c0,1.4,1.1,2.7,2.5,2.8l16.5,2.2c0.8,0.1,1.6-0.1,2.3-0.7c0.6-0.5,1-1.3,1-2.1v-66.6l35.9,69.9c0.5,1,1.6,1.6,2.7,1.6l18.3-1.1
		c1.5-0.1,2.7-1.3,2.7-2.8V560.8C404.6,559.4,403.5,558.1,402,558z M487.5,556.6v81.1c0,2.9,0,16.2-22.1,20.1l-44.9,8
		c-0.8,0.2-1.7-0.1-2.3-0.6c-0.6-0.6-1-1.3-1-2.2V559.7c0-1.4,1-2.6,2.3-2.8l46-9.2C487.5,543.3,487.5,556.6,487.5,556.6z
		 M465.4,629.1L465.4,629.1l0-51.3c0,0,0-9-9.6-7.1l-16.5,3.3v69.5l17.5-3.1C465.4,638.8,465.4,629.1,465.4,629.1z M544.5,607.8
		c-0.7-0.5-1.5-0.5-2.2-0.2l-17.4,7.8c-0.7,0.3-1.5,0.3-2.2-0.2c-0.6-0.4-1-1.1-1-1.9v-19.7c0-0.9,0.5-1.7,1.3-2.1l21.2-9.5
		c0.8-0.4,1.3-1.2,1.3-2.1v-14.8c0-0.8-0.4-1.5-1.1-2c-0.7-0.4-1.5-0.5-2.2-0.1l-17.3,8.5c-0.7,0.3-1.5,0.3-2.2-0.1
		c-0.7-0.4-1.1-1.2-1.1-1.9v-21.1c0-0.9,0.5-1.7,1.3-2l21.3-10.4c0.8-0.4,1.3-1.2,1.3-2.1v-15.3c0-0.8-0.4-1.5-1.1-1.9
		c-0.7-0.4-1.5-0.5-2.2-0.1l-41.4,20.3c-0.8,0.4-1.3,1.2-1.3,2v104.1c0,0.8,0.4,1.5,1,1.9c0.7,0.4,1.5,0.5,2.2,0.2l41.5-18.6
		c0.8-0.4,1.3-1.2,1.3-2.1v-14.7C545.6,608.9,545.2,608.2,544.5,607.8z M613.7,575.8c0.4,0.5,0.5,1.1,0.4,1.8
		c-0.1,0.6-0.4,1.2-1,1.5l-12.9,8.8c-1,0.7-2.4,0.5-3.1-0.5L578,562.1l-3.6,2.5v39.7c0,0.7-0.4,1.4-1,1.9l-17.6,11.9
		c-0.7,0.5-1.6,0.5-2.4,0.1c-0.8-0.4-1.2-1.2-1.2-2V513.3c0-0.8,0.4-1.5,1-1.9l34.6-23.8c10.5-7.3,19.8-5.9,19.8,8.5v27.3
		c0,17.6-13,27.3-13,27.3v0L613.7,575.8z M587.7,516.3c0-3.1-2.3-5-5.2-3l-7.2,5c-0.6,0.4-1,1.1-1,1.9v18.3c0,0.9,0.4,1.6,1.2,2.1
		c0.8,0.4,1.7,0.3,2.4-0.2l5-3.4c2.7-1.8,4.8-6.2,4.8-9.9V516.3z M642.9,431.7l-22.3,24.6c-5.7,6.4-7,13.3-7,21.1v10.5
		c0,7.3,1.5,13.9,11,15.9l12.2,2.8c3.9,0.9,6.1,2,6.1,4.8v2.7c0,4.3-1,5.4-2.8,7.2c-1.8,1.8-6,6.1-6,0.7v-4.6c0-3.8-1.6-3.8-4-1.4
		l-14.1,14.5c-1.7,1.5-2.4,3.3-2.4,6.3v9.2c0,16.6,8.6,19.8,17.3,8.3l21.1-27.9c8.7-11.4,8.7-22.9,8.7-29.5c0-7.9-6.7-11.1-11.6-12
		l-10.3-1.8c-3.7-0.7-4.7-3.2-4.7-6.7v-5.7c0-1.7,0-6.2,3-9.3l2.1-2.1c2.2-2.2,3.7-2.2,3.7,1.8v8.1c0,1.7,0.9,2.6,2.4,1.1l12.9-13.4
		c2.2-2.3,2.5-5.8,2.5-8.2v-13.5C660.7,421.3,651.1,422.7,642.9,431.7z M544.2,487.6v-26.1c0,8.8-21.1,15.9-47.1,15.9
		c-26,0-47.1-7.1-47.1-15.9v26.1c0,8.8,21.1,15.9,47.1,15.9C523.1,503.5,544.2,496.4,544.2,487.6z"/>
	<path class="st2" d="M101.6,410.7l22.2,19.5v22.4c-7.1,1.9-15.4-0.4-22.2,1.4V410.7z M719.6,370.9c0,177.6-150,321.6-335.1,321.6
		c-185.1,0-335.2-144-335.2-321.6c0-99.4,47-188.2,120.8-247.2v187.1c0,2.8,2.3,5.1,5.2,5.1h70.2c2.8,0,5.1-2.3,5.1-5.1v-83.6
		l51.7,86.3c0.9,1.5,2.6,2.5,4.4,2.5h78.8c2.8,0,5.1-2.3,5.1-5.1V148.6l81,174.5l-9.7,19.7c-20.7-3.3-46.3,10.4-64.4,0.8
		c-20.8-0.6-45,0.7-63.4-9c-12-1.9-24.8-1.7-35.7-6.1c-5.8,10.9-12.4-3.6-19.4-1.4c-4.2,1.3-7.7,5.9-6.9,10.9
		c-2.2,11.3-15.9,4.7-23,9.5c-13,7.4-20.2-11.2-32.6-11.1c-8.4-2.3-18.6-1.3-23.3,7.4c-7.3,1.9-11-7.7-19.3-4.6
		c-5.8-3.6,2.6-6,0.4-10.3c-4.7-5.2-13.6-8.9-20.2-4.6c-1.2,8.9,8.3,16.5,3.3,25.8c-5,1-4.7-6.2-8.9-7.9c-4.8-2.3-5,3.5-7.5,5.8
		c-9.3-0.4-7.3-10.8-10.3-16.4c-10.8-1.7-19.4,4.9-28.3,8.8c-6.2,4.7-2.1,14.9-7.5,19.8c-4.2-3.1-3.7-9.1-7.8-12.8
		c-3.5-2.3-7.7-4-12-2.5c-4,1-5.1,4.3-6,7.8c0.1,2.1,2.2,3.7,4.5,3.1c2.7,0.6,4.7,3.8,3.5,6.4c-1.4,1.9-2.2,5.6-5.6,4.9
		c-3.5-3.3-8.5-8-13.4-6c-2.1,1.9,0,4.4,0,6.4c-2.3,7.6,3.3,12,7.4,17.4c1.4,6,2,14.7-2.6,19c-6.2,1.2-7.7,8-8.3,13.2
		c1.5,5.2,7.2,4.8,9.3,9.1c1.1,3.6-2.7,6.2-5.9,8.2c1.2,5.9,2.6,11.7,4.2,17.5c3.7-1.5,8-2.9,10.5-2.5c2.1,1.1,3.5,2.9,3.5,5
		c2,3.9,6.2,7.8,10.9,5.6c4.8-2,9.1-8.6,14.2-5.9v59.3l15.7,22.6c3.9,5.7,6.5,4.3,6.5-0.6v-82.7c8.2-0.2,17.6,0.6,25.2-2.4
		c15.1,1.1,33.1,5.3,46.1-3.3c11.6-2.1,22.3-6,34.7-6c8.5-0.6,15.9,3.2,23.8,2.6c12.4-14,29.9,2.6,44.6-6.3
		c11.4-5.8,21.1,4.3,33.3,2.5c7.7-0.1,19.2-8.6,25.8,1.6c5.6,2.7,13.4,1.7,18.2-1.8c3-10.7,15.3-6.6,23.4-9c5.3-1.2,15.9-6.6,23-6.1
		l-1,2l-3.7,7.4l-2.5,5l-3.7,7.5l-2.5,5l-3.7,7.4l-9.8,19.8c-2,4.1-5.9,6.9-10.4,7.5l-153.9,21.2c-1.4,0.2-2.6,0.9-3.4,2
		c-0.8,1.1-1.2,2.5-1,3.8l9.4,61.6c0.2,1.4,1,2.7,2.2,3.5c1.2,0.8,2.7,1.1,4.1,0.7l15.3-3.7l-15.8,61.5c-0.3,1.2,0.4,2.4,1.5,2.7
		l17.6,5.7c0.6,0.2,1.3,0.1,1.8-0.2c0.6-0.3,1-0.9,1.1-1.5l4.5-18l24.1,7.8l3.5,21.9c0.1,0.8,0.7,1.5,1.6,1.8l18.4,6
		c0.8,0.2,1.6,0.1,2.2-0.5c0.6-0.5,0.9-1.3,0.8-2.1l-15.2-96.3l19.2-4.6v102c0,1.4,1.1,2.6,2.5,2.8l16.4,2.2
		c0.8,0.1,1.6-0.1,2.3-0.7c0.6-0.5,1-1.3,1-2.1v-66.6l35.8,69.9c0.5,1,1.6,1.6,2.7,1.6l18.3-1.1c1.5-0.1,2.7-1.4,2.7-2.9V560.8
		c0-1.4-1.1-2.7-2.5-2.8l-16.4-2c-0.8-0.1-1.6,0.2-2.2,0.7c-0.6,0.5-1,1.3-1,2.1v57.5l-30.3-62.9c-0.1-0.3-0.4-0.5-0.6-0.7
		l45.8-10.9c4-1,7.4-3.7,9.2-7.5l28.4-60.5l3.5-7.5l2.4-5l3.5-7.5l2.4-5.1l3.5-7.5l2.4-5.1l3.5-7.5l3.9-8.3l10.3-2.6
		c6.9-1.6,12.3-6.2,18.5-9.4c10,7.7,11.7-7.1,19.8-7.9c5.2-1.2,9.5,3.4,12.8,7.1c12.2,5.2,26.9,1.7,36.9-6.5
		c10.7-4.6,24.3-2.7,35.1-7.4c7.2-4.8,14.2-10.5,24.5-8.9c30.3-10.4,69.5-23.3,100.9-34.3C719.3,357.3,719.6,364.1,719.6,370.9z
		 M188.6,560.3c0-9.4-4.2-19-9.2-25.4l-24.4-31.7c0,0-2.2-2.9-2.2-6.6v-3.3c0,0,0.9-4.8,4.7-1.3l6.2,5.6c1.6,1.5,2.7,3.7,2.7,6.4
		v4.5c0,2.6,0.7,4.6,3.1,6.8l11.7,10.5c4.9,4.5,7.4,1.2,7.4-2.6l0,0v-17.9c0-6.6-2.9-10.5-4.9-12.3l-32-28.8
		c-12.4-11.2-21-1.4-21,5.8v29.8c0,5.7,1.9,9.1,4.5,12.4l29,37.8c1.6,2.1,2.3,4.2,2.3,6.8v4.2c0,3.4-3,3.1-5.3,1l-6.3-5.3
		c-2.2-1.7-2-5.2-2-8.3v-3.8c0-2.1-2.2-5.7-4.4-7.5l-14.5-13.2c-2.2-2.1-3.3-0.4-3.3,5.3v17.3c0,4.5,3,13.6,9.7,19.7l33.1,29.9
		c8,7.2,15,0.2,15-16.4V560.3z M239.2,633.1l0-14.4c0-1-0.5-2-1.4-2.5l-17.5-10.4v-87.5c0-1-0.5-1.9-1.4-2.5l-16.4-9.7
		c-0.9-0.5-2-0.5-2.9,0c-0.9,0.5-1.4,1.4-1.4,2.5v103.5c0,1,0.5,1.9,1.4,2.5l35.4,21c0.9,0.5,2,0.5,2.9,0
		C238.7,635,239.2,634.1,239.2,633.1z M487.5,556.6c0,0,0-13.3-22.2-8.9l-46,9.1c-1.3,0.3-2.3,1.4-2.3,2.8V663c0,0.8,0.4,1.6,1,2.2
		c0.7,0.5,1.5,0.8,2.3,0.6l44.9-8c22.2-3.9,22.2-17.3,22.2-20.1V556.6z M497.1,503.5c26,0,47.1-7.1,47.1-15.9v-26.1
		c0-8.8-21.1-15.9-47.1-15.9c-26,0-47.1,7.1-47.1,15.9v26.1C450,496.4,471.1,503.5,497.1,503.5z M545.6,565.2c0-0.8-0.4-1.5-1.1-1.9
		c-0.7-0.4-1.5-0.5-2.2-0.1l-17.3,8.4c-0.7,0.4-1.5,0.3-2.2-0.1c-0.7-0.4-1.1-1.2-1.1-2v-21c0-0.9,0.5-1.7,1.3-2.1l21.3-10.4
		c0.8-0.4,1.3-1.2,1.3-2h0v-15.3c0-0.8-0.4-1.5-1.1-1.9c-0.7-0.4-1.5-0.5-2.2-0.1l-41.4,20.3c-0.8,0.4-1.3,1.2-1.3,2.1v104.1
		c0,0.8,0.4,1.5,1.1,2c0.6,0.4,1.5,0.5,2.2,0.1l41.4-18.6c0.8-0.4,1.4-1.2,1.4-2.1v-14.7c0-0.8-0.4-1.5-1.1-1.9
		c-0.6-0.4-1.5-0.5-2.2-0.2l-17.4,7.8c-0.7,0.3-1.5,0.3-2.2-0.2c-0.6-0.4-1-1.2-1-1.9v-19.7c0-0.9,0.5-1.7,1.3-2.1l21.1-9.5
		c0.9-0.4,1.4-1.2,1.4-2.1V565.2z M613.7,575.8l-19.2-25.2c0,0,13-9.7,13-27.3v-27.3c0-14.4-9.3-15.8-19.8-8.5l-34.6,23.8
		c-0.6,0.4-1,1.1-1,1.9v102.9c0,0.8,0.5,1.6,1.2,2c0.7,0.4,1.7,0.3,2.4-0.1l17.6-11.9c0.6-0.5,1-1.2,1-1.9v-39.7l3.6-2.5l19.3,25.2
		c0.7,1,2.1,1.2,3.1,0.5l12.9-8.7c0.5-0.3,0.9-0.9,1-1.5C614.3,576.9,614.1,576.3,613.7,575.8z M660.7,435.3c0-14-9.6-12.7-17.8-3.7
		l-22.3,24.6c-5.7,6.4-7,13.2-7,21.1v10.5c0,7.3,1.5,13.9,11,15.9l12.2,2.8c3.9,0.9,6.1,2,6.1,4.8v2.7c0,4.3-1,5.4-2.8,7.2
		c-1.8,1.8-6,6.1-6,0.7v-4.6c0-3.8-1.6-3.8-4-1.4l-14.1,14.5c-1.7,1.5-2.4,3.3-2.4,6.3v9.2c0,16.6,8.6,19.8,17.3,8.3l21.1-27.9
		c8.7-11.5,8.7-22.9,8.7-29.5c0-7.9-6.7-11.1-11.6-12l-10.3-1.8c-3.7-0.6-4.7-3.2-4.7-6.7v-5.7c0-1.7,0-6.2,3-9.3l2.1-2.1
		c2.2-2.2,3.7-2.2,3.7,1.8v8.1c0,1.7,0.9,2.6,2.4,1.1l12.9-13.4c2.2-2.3,2.4-5.8,2.4-8.2h0V435.3z M288.9,611.2l-6.5-41.2l-9.2,36.1
		L288.9,611.2z M313.4,77.3c0-2.8,2.3-5.2,5.2-5.2h123.7c2,0,3.9,1.2,4.7,3l71.3,153.5l59.4-120.6c-54.6-37-121.1-58.8-193-58.8
		c-44.4,0-86.8,8.4-125.5,23.4l54.4,105.1L313.4,77.3z M548.7,302.8c14.2-4.3,27.2-12,39.1-22.6c10.6-3.5,22.9-5.5,34.3-3.9l1.1,1.5
		c-0.8,4.3-6.2,7.6-9.9,9.9c-8.1,0.2-17.8-1.2-24,4.9c-8.7,9.1-19.6,15.2-27.8,24.1c0.6,2.9,3.9,5.2,2.1,8.4
		c-6.2,4.4-16.1,1.1-19.4,9.9c-2.7,17-24,3.8-32.3,14.8c-4,5.3-16.1,11.8-25.2,14.2l-8.7,18.6c10.1,3.6,24.1,9,33.4,7.5
		c21.7-6.9,30.1-40,55.5-38c14.3,2.5,26.9-1.8,36.8-11.3c9.7-3.7,10.5,12,19.5,10.3c0.8-5.7,1.3-12.8,7.8-15.2
		c3.1-1.2,8.1-0.8,8.5,3.3c-6.9,9.7,8,12.9,5.9,22c1.2,3.9,5.7,3.9,8.9,2.9c5.2-9.9,15.9-10.8,25.8-11.3c7.7-11.3,26-0.8,30.3-16.7
		l7.2-2.4c-10.1-84-53.9-158.1-118.1-209.6l-94.8,201.7C518.9,320.9,539,315.1,548.7,302.8z M582.5,513.3L582.5,513.3l-7.2,5
		c-0.6,0.4-1,1.1-1,1.9v18.3c0,0.9,0.5,1.6,1.2,2c0.7,0.4,1.7,0.3,2.4-0.1l5-3.4c2.7-1.8,4.8-6.2,4.8-9.9v-10.7
		C587.7,513.3,585.4,511.3,582.5,513.3z M455.8,570.7l-16.5,3.3v69.5l17.5-3.1c8.6-1.5,8.6-11.3,8.6-11.3v-51.4
		C465.4,577.7,465.4,568.8,455.8,570.7z"/>
</g>
</svg>
