<?xml version="1.0" encoding="utf-8"?>
<!-- Generator: Adobe Illustrator 25.0.0, SVG Export Plug-In . SVG Version: 6.00 Build 0)  -->
<svg version="1.1" id="Layer_1" xmlns="http://www.w3.org/2000/svg" xmlns:xlink="http://www.w3.org/1999/xlink" x="0px" y="0px"
	 viewBox="0 0 940.6 852.7" style="enable-background:new 0 0 940.6 852.7;" xml:space="preserve">
<style type="text/css">
	.st0{fill:#FFFFFF;}
	.st1{fill:#A7B1B7;}
	.st2{fill:#00285D;}
	.st3{fill:#E13A3E;}
</style>
<g id="Group">
	<path class="st0" d="M739.3,266l157.8-117.4l43.5-32.3l-53.4,9.1L735,151.3c-8.3-4.8-27.6-15.1-57.2-25.3
		c-36.1-12.5-95.4-27.3-172.7-27.3c-3,0-6.1,0-9.2,0.1l-23.5-68.7L462.1,0l-13.7,28.7l-36.7,76.8c-30.6,3.4-64.8,10.4-99.5,20.6
		c-42.2,12.4-83.7,29-119.9,48.2c-54.8,29-101.1,65.5-134.2,105.7c-18.3,22.3-32.6,45.7-42.3,69.6C5.3,375.4,0,402,0,428.7
		c0,32.7,6.6,63,19.7,90c10.9,22.5,26.4,43,46,60.9c32.1,29.3,68.4,45.2,86.9,52.8l-60.4,149L73.6,827l38.6-30.6l167.9-132.9
		c33.5,4.5,71.6,6.7,113.4,6.7c53.9,0,111.5-4.1,152.4-10.7l183.8,161.5l36,31.7l-15.1-45.5l-60.3-181.4c15.3-5.4,41-14.9,52.8-21.5
		l3.8-2.1l1.8-4l174.8-402.4l15.8-36.5l-34.3,20.1C844.4,214.8,786,244.1,739.3,266z M736.9,592.9c-16.3,9.1-62.8,24.8-62.8,24.8
		l64.3,193.6L549.9,645.7c-37.1,6.6-95.5,11.6-156.4,11.6c-39.7,0-80.4-2.1-117.1-7.4L104.2,786.3l65.2-160.9
		C154.9,617.5,13,576.7,13,428.7c0-103.7,85.4-190,185.4-242.9c76.8-40.6,162.6-62.6,221.9-68.1l39.8-83.4l26.6,77.7
		c6.2-0.2,12.4-0.3,18.4-0.3c146.2,0,227.3,53.2,227.3,53.2l156.9-26.7L640.9,323c0,0,128.2-49.2,270.7-132.5L736.9,592.9z
		 M93.9,358.8c0-58.2,48.7-95.1,49.1-95.4c0.9-0.6,1.8-1.2,2.7-1.8c0,0-27.8,34.9-27.8,76.9c0,60.5,61.5,137.6,196.5,137.6
		c117.4,0,286.8-66.9,287.5-67.2c-52.9,31.1-105.2,56.9-146,75.7c-36.4,10.1-98.5,20.9-160.2,20.9
		C187.1,505.4,93.9,453.4,93.9,358.8z M487,543.1c34,6.6,73.7,13,115.7,17.5c0,0-105.8,29.5-232.6,29.5
		C61.3,590.1,50.5,429.9,50.4,427c0-19.9,3.3-39,9.3-57.1c0,41.7,19.4,182.4,298.8,182.4C429.2,552.3,487,543.1,487,543.1z
		 M616.2,630l26.3,42L607,643.7C608.4,639.5,611.1,634.4,616.2,630z M521.4,337.5l-102.1-21.7l266.5-80.7L521.4,337.5z M214.4,624.1
		c1.8,0.2,3.5,0.7,5,1.2l-26.7,41.3L214.4,624.1z M419.3,409.3v-93.5l51.7,82.5C454.7,402.3,437.2,406.1,419.3,409.3z M419.3,315.9
		L250,339.2l141.7-38.5L419.3,315.9L419.3,315.9L419.3,315.9L419.3,315.9L419.3,315.9l-65.7,101.7c-8.7,0.6-17.3,0.9-25.8,0.9
		c-2.8,0-5.6,0-8.3-0.1l23.5-46L419.3,315.9z M483.6,274.3l-64.3,41.6l33-148.7L483.6,274.3z M580,520.7l-8.4,4.7l1.2,7.6l-6.6-5
		l-9.4,4.9l5.6-7l-5-3.5l8.4-0.5l5.8-6.6l0.2,5.9L580,520.7z M600.7,474.3l-8.4,4.8l1.2,7.9l-6.6-4.9l-9.4,4.9l5.5-7.1l-5.7-3.3
		l8.8-0.9l5.9-7.4l0.1,6.7L600.7,474.3z M549.3,468.8l-9.1,5.1l1.3,8.6l-7.1-5.3l-10.1,5.3l5.9-7.7l-6.1-3.5l9.5-0.9l6.3-8l0.2,7.2
		L549.3,468.8z M625.1,423.6l-10.8,6.3l1.5,9.7l-8.2-6.1l-11.8,6.5l6.9-9.1l-6.9-3.7l11.4-1.4l6.5-8.5l0.4,7.6L625.1,423.6z
		 M636.7,527.4l10.1-0.4l-9.9,5.2l1.2,8.7l-7.4-5.7l-10.7,5.5l6.3-7.8l-6.2-3.5l9.9-1l6.9-7.9L636.7,527.4z M734.1,419l8.4-11.1
		l-8.4-4.4l13.7-1.6l8.2-10.5l0.6,9.2l13.2-1.2l-13.2,7.6l2.2,11.8l-10.1-7.4L734.1,419z M529.4,513.5l-8.7,4.7l0.8,7.9l-6.6-4.9
		l-9.2,4.5l5.7-7l-5.7-3.3l9.2-1l5.4-6.4l0,5.9L529.4,513.5z M684.3,383.7l-9.7-4.2l14-2.8l6.4-11.7l2.3,9.7l13.5-2.6l-11.6,9.1
		l4.5,11.7l-12.4-6.7l-13.5,9.2L684.3,383.7z M713.6,480.6l8-10.3l-7.9-4.2l12.6-1.4l8-10.2l-0.1,9l13.1-1.5l-13.1,7.4l1.9,10.5
		l-9.1-6.5L713.6,480.6z M477.9,502.6l-9,5.2l1.1,8.1l-6.9-5.1l-10.1,5.2l5.9-7.8l-6.3-3l9.6-1.2l6.1-7.3l0.3,6.8L477.9,502.6z
		 M722.1,526.4l-13.6,7.1l1.7,11.9l-9.9-7.8l-14.3,7.6l8.5-11.1l-8.7-4.3l13.8-1.5l9.1-10.5l-0.1,9L722.1,526.4z M762.9,336.8
		l-11.7-5.7l17.2-2l9.7-13.6l1.5,12.3l16.8-2l-15.9,9.6l3.2,14.9l-13.1-9.1l-17.5,10L762.9,336.8z M617.3,473.1
		c0,7.6,5.7,30,32.5,30c29.3,0,60-28.3,60-56.6c0-17.5-12.3-31.5-31.7-31.5C640.7,415,617.3,450.9,617.3,473.1z M675.3,422.2
		c15.6,0,25.2,12.5,25.2,24.9c0,23.5-23.9,47.8-49.6,47.8c-16.2,0-24.8-12.5-24.8-25.6C626.1,450.9,647.7,422.2,675.3,422.2z"/>
	<path class="st1" d="M222.6,369.3l71.8,20l-12.1,26.5c-47.5-6.3-62.1-22.8-62.1-36C220.3,374.9,222.6,369.3,222.6,369.3z
		 M674,617.7l64.3,193.6L549.9,645.7c-61.3,10.8-180.5,17.5-273.5,4.2L104.2,786.3l65.2-160.9C154.9,617.5,13,576.7,13,428.7
		c0-103.7,85.4-190,185.4-242.9c76.8-40.6,162.6-62.6,221.9-68.1l39.8-83.4l26.6,77.7c157.7-4.7,245.7,52.9,245.7,52.9l156.9-26.7
		L640.9,323c0,0,128.2-49.2,270.7-132.5L736.9,592.9C720.6,602,674,617.7,674,617.7z M654.2,607.6c0,0,35.1-8.9,71.1-25.8
		l154.1-354.9c-130,72.5-219.5,109.3-311.6,142.8l-5.4-16.1l281-195.2l-312.1,79.9L705.6,168c0,0-84-48-229.9-40.7L457.7,74
		l-97.2,201.8L213,317.7l136.5-56l63-128.5c-17.5,2.7-36.2,5.9-55.2,10.3C171.5,186.2,27.9,303.9,27.9,427.6
		c0,131,115.5,172.6,161.9,188.6l-60.9,133.9l143.1-116.2c98.4,14.8,217.7,9.3,283-3.9l158.6,141.1L654.2,607.6z M492.5,271.7
		l-40.2-126.1L388.4,298l-173.8,43.9l121.8,29.6L313,418.2c2.1,0.1,4.3,0.1,6.5,0.2l23.5-46l76.3-56.5L250,339.2l141.7-38.5
		l27.6,15.2l0,0l0,0l0,0l33-148.7l31.4,107.1l-64.3,41.6l266.5-80.7L521.4,337.5l-102.1-21.7l51.7,82.5
		c27.5-6.7,51.5-13.8,68.8-19.2l-13.3-35.2l194.6-127.7L492.5,271.7z M616.2,630l26.3,42L607,643.7c-1.6,4.8-1.5,8.5-1.5,8.5
		l52.8,41.5l-26.9-71.3C624.8,624.2,619.9,626.9,616.2,630z M235.1,641.1l-53.9,40.4l28.9-57.7C229.8,623.7,235.1,641.1,235.1,641.1
		z M219.4,625.3c-1.5-0.5-3.2-0.9-5-1.2l-21.7,42.5L219.4,625.3z M471,398.4L471,398.4c-0.1,0-0.1,0-0.2,0
		C470.9,398.4,470.9,398.4,471,398.4z M353.6,417.6c21.8-1.4,44.1-4.4,65.7-8.2v-93.5l0,0L353.6,417.6z M353.6,417.6L353.6,417.6
		c-2.1,0.1-4.2,0.3-6.4,0.4C349.3,417.8,351.5,417.7,353.6,417.6z"/>
	<path class="st2" d="M879.3,226.9c-130,72.5-219.5,109.3-311.6,142.8l-5.4-16.1l281-195.2l-312.1,79.9L705.6,168
		c0,0-84-48-229.9-40.7L457.7,74l-97.2,201.8L213,317.7l136.5-56l63-128.5c-17.5,2.7-36.2,5.9-55.2,10.3
		C171.5,186.2,27.9,303.9,27.9,427.6c0,131,115.5,172.6,161.9,188.6l-60.9,133.9l143.1-116.2c98.4,14.8,217.7,9.3,283-3.9
		l158.6,141.1l-59.4-163.5c0,0,35.1-8.9,71.1-25.8L879.3,226.9z M768.4,329l9.7-13.6l1.5,12.3l16.8-2l-15.9,9.6l3.2,14.9l-13.1-9.1
		l-17.5,10l9.8-14.3l-11.7-5.7L768.4,329z M734.1,403.5l13.7-1.6l8.2-10.5l0.6,9.2l13.2-1.2l-13.2,7.6l2.2,11.8l-10.1-7.4l-14.5,7.7
		l8.4-11.1L734.1,403.5z M734.4,454.5l-0.1,9l13.1-1.5l-13.1,7.4l1.9,10.5l-9.1-6.5l-13.4,7.2l8-10.3l-7.9-4.2l12.6-1.4L734.4,454.5
		z M500.7,141.2c103.1,0,153.5,25.2,153.5,25.2S607,154.9,536,154.9c-16.7,0-33.5,0.7-50.1,2.1c0,0,0,0-0.1,0l-4.8-15.4
		C487.8,141.3,494.4,141.2,500.7,141.2z M388.4,298l63.9-152.3l40.2,126.1l228.6-55.5L526.5,343.9l13.3,35.2
		c-44.7,14.2-134.9,39.3-212,39.3c-5.2,0-10.1-0.1-14.8-0.2l23.4-46.7l-121.8-29.6L388.4,298z M294.5,389.3l-12.1,26.5
		c-47.5-6.3-62.1-22.8-62.1-36c0-4.9,2.3-10.6,2.3-10.6L294.5,389.3z M181.2,681.5l28.9-57.7c19.7-0.1,25,17.3,25,17.3L181.2,681.5z
		 M658.4,693.8l-52.8-41.5c0,0-0.5-23.1,26-29.8L658.4,693.8z M388.5,620.3c-255.6,0-338.2-93.4-338.2-193
		c0-67.7,36.8-126.5,95.3-165.8c60-54.9,165.1-93.6,258.1-110.6l-9.1,18.6c-111.1,26.7-239.5,93.9-239.5,179.9
		c0,36.1,53.9,93.4,174.1,93.4c90.8,0,232.5-33.3,394.6-117.5c-137,112.2-345.6,192.4-345.6,192.4s163.8,47.7,324,48.7
		C664,585.7,551.4,620.3,388.5,620.3z M638,541l-7.4-5.7l-10.7,5.5l6.3-7.8l-6.2-3.5l9.9-1l6.9-7.9l-0.2,6.9l10.1-0.4l-9.9,5.2
		L638,541z M617.3,473.1c0-22.1,23.4-58,60.8-58c19.4,0,31.7,14,31.7,31.5c0,28.3-30.7,56.6-60,56.6
		C623,503.1,617.3,480.7,617.3,473.1z M615.9,439.5l-8.2-6.1l-11.8,6.5l6.9-9.1l-6.9-3.7l11.4-1.4l6.5-8.5l0.4,7.6l11-1.2l-10.8,6.3
		L615.9,439.5z M593.4,487l-6.6-4.9l-9.4,4.9l5.5-7.1l-5.7-3.3l8.8-0.9l5.9-7.4l0.1,6.7l8.6-0.7l-8.4,4.8L593.4,487z M572.9,533.1
		l-6.6-5l-9.4,4.9l5.6-7l-5-3.5l8.4-0.5l5.8-6.6l0.2,5.9l8.2-0.6l-8.4,4.7L572.9,533.1z M703.7,392.7l-12.4-6.7l-13.5,9.2l6.5-11.5
		l-9.7-4.2l14-2.8l6.4-11.7l2.3,9.7l13.5-2.6l-11.6,9.1L703.7,392.7z M541.5,482.5l-7.1-5.3l-10.1,5.3l5.9-7.7l-6.1-3.5l9.5-0.9
		l6.3-8l0.2,7.2l9.3-0.8l-9.1,5.1L541.5,482.5z M521.5,526.1l-6.6-4.9l-9.2,4.5l5.7-7l-5.7-3.3l9.2-1l5.4-6.4l0,5.9l9.1-0.4
		l-8.7,4.7L521.5,526.1z M470.1,515.9l-6.9-5.1l-10.1,5.2l5.9-7.8l-6.3-3l9.6-1.2l6.1-7.3l0.3,6.8l9.3-0.9l-9,5.2L470.1,515.9z
		 M710.2,545.4l-9.9-7.8l-14.3,7.6l8.5-11.1l-8.7-4.3l13.8-1.5l9.1-10.5l-0.1,9l13.6-0.6l-13.6,7.1L710.2,545.4z"/>
	<path class="st3" d="M601.4,409.1c0.2-0.1,0.3-0.2,0.5-0.3c0,0,0,0,0,0C601.8,408.9,601.6,409,601.4,409.1z M117.9,338.4
		c0,60.5,61.5,137.6,196.5,137.6c117.1,0,285.8-66.5,287.5-67.2c42.2-24.8,84.7-52.9,121.9-83.4C561.7,409.6,420,442.9,329.2,442.9
		c-120.2,0-174.1-57.3-174.1-93.4c0-86,128.4-153.2,239.5-179.9l9.1-18.6c-93,17-198,55.7-258.1,110.6c-0.1,0.1-0.2,0.2-0.3,0.2
		c0.1-0.1,0.2-0.2,0.3-0.2C145.7,261.5,117.9,296.5,117.9,338.4z M485.9,157c16.6-1.4,33.3-2.1,50.1-2.1
		c70.9,0,118.1,11.5,118.1,11.5s-50.4-25.2-153.5-25.2c-6.3,0-12.9,0.2-19.6,0.5L485.9,157C485.9,157,485.9,157,485.9,157z
		 M602.7,560.6c0,0-105.8,29.5-232.6,29.5C62.2,590.1,50.6,430.8,50.4,427c0,0.1,0,0.2,0,0.3c0,99.6,82.6,193,338.2,193
		c162.8,0,275.5-34.6,313.7-53.8c-34.5-0.2-69.2-2.6-102.4-6.2C600.8,560.4,601.7,560.5,602.7,560.6z M358.4,552.3
		c70.8,0,128.6-9.1,128.6-9.1c0.1,0,0.2,0,0.4,0.1c-64.9-12.5-109.1-25.4-109.1-25.4s31.4-12.1,77.7-33.4
		c-36.4,10.1-98.5,20.9-160.1,20.9c-108.7,0-201.9-51.9-201.9-146.6c0-55.9,45-92.2,48.9-95.2c-39.7,27.5-69.1,64.1-83.1,106.4
		C59.6,411.7,79.2,552.3,358.4,552.3z M626.1,469.3c0,13.1,8.5,25.6,24.8,25.6c25.7,0,49.6-24.3,49.6-47.8
		c0-12.4-9.6-24.9-25.2-24.9C647.7,422.2,626.1,450.9,626.1,469.3z"/>
</g>
</svg>
