<?xml version="1.0" encoding="utf-8"?>
<!-- Generator: Adobe Illustrator 25.0.0, SVG Export Plug-In . SVG Version: 6.00 Build 0)  -->
<svg version="1.1" id="Layer_1" xmlns="http://www.w3.org/2000/svg" xmlns:xlink="http://www.w3.org/1999/xlink" x="0px" y="0px"
	 viewBox="0 0 743 743.1" style="enable-background:new 0 0 743 743.1;" xml:space="preserve">
<style type="text/css">
	.st0{fill:#FFFFFF;}
	.st1{fill:#041E42;}
	.st2{fill:#7B303E;}
	.st3{fill:#AC162C;}
	.st4{fill:#55565A;}
	.st5{fill:#8E9090;}
</style>
<g id="XMLID_1_">
	<path class="st0" d="M713.9,226.9c-18.7-44.2-45.5-84-79.6-118.1c-34.1-34.1-73.8-60.9-118.1-79.6C470.3,9.8,421.7,0,371.5,0
		c-50.1,0-98.8,9.8-144.6,29.2c-44.2,18.7-84,45.5-118.1,79.6c-34.1,34.1-60.9,73.8-79.6,118.1C9.8,272.7,0,321.4,0,371.5
		c0,50.1,9.8,98.8,29.2,144.6c18.7,44.2,45.5,84,79.6,118.1c34.1,34.1,73.9,60.9,118.1,79.6c45.8,19.4,94.5,29.2,144.6,29.2
		c50.2,0,98.8-9.8,144.6-29.2c44.2-18.7,84-45.5,118.1-79.6c34.1-34.1,60.9-73.8,79.6-118.1c19.4-45.8,29.2-94.5,29.2-144.6
		C743,321.4,733.2,272.7,713.9,226.9z M371.6,722.1C371.6,722.1,371.6,722.1,371.6,722.1C178,722.1,21,565.1,21,371.5
		C21,177.9,177.9,21,371.5,21C565.2,21,722,177.9,722,371.5C722,565.1,565.2,722.1,371.6,722.1z M403.2,132.5l-31.6-79.7L338,132.5
		c-118,15.9-209,117-209,239.3c0,133.4,109.1,241.6,242.5,241.6c133.4,0,240.6-108.2,240.6-241.6
		C612.2,249.5,521.2,148.5,403.2,132.5z M559,358.6l-39.5,34.4v41.4l-14.5-7.2l-26.7,1.8L452,452l15.5,19.3l-33.9,5.5l21.2,30.5
		v36.5l-57.7-28.4l-4.7-12l0,0l0.1,0.2l-20.8,100.7L351,504.2l-4.4,11L289,543.6v-36.5l21.2-30.5l-33.5-5.5l15.5-19.2l-26.3-22.9
		l0.1,0l-27.2-1.8l-14.5,7.2v-41.8l0,0l-39.1-34.1l39.1-0.2v-8.3l0,0v6.2l-26.6-70.4l71.7,27.1l1.3-38.6l49,48.9
		c0,0-18.5-109.7-18.5-109.7l46,30.2l24.5-114.1l25.8,117.9l0,0l-0.8-3.5l46.4-30.5c0,0-17.3,102.1-18.5,109.7l49-48.9l1.4,38.6
		l71.7-27.1l-27,71.5v1L559,358.6z"/>
	<path class="st1" d="M371.5,44.5c-180.6,0-327,146.4-327,327c0,180.6,146.4,327,327,327c180.6,0,326.9-146.4,326.9-327
		C698.5,190.9,552.1,44.5,371.5,44.5z M371.6,613.5C238.1,613.5,129,505.3,129,371.9c0-122.4,91-223.4,209-239.3l33.5-79.7
		l31.6,79.7c118,15.9,209,117,209,239.3C612.2,505.3,505,613.5,371.6,613.5z"/>
	<path class="st2" d="M224.2,392.7v-34.3l-39.1,0.2L224.2,392.7z M224.1,388.4l-30.4-26.5l30.4-0.1V388.4z M292.1,452l-15.5,19.2
		l33.5,5.5l20.6-29.7v-13.6l-65-4.3L292.1,452z M330.7,433.4V447l-18.6,26.7l-29.5-4.8c0,0,13.3-16.4,13.7-17.5l-25.2-22
		L330.7,433.4L330.7,433.4z M519.5,350.2l-0.4-24.3l-19.5,48.8l-33.5-16l74.8-67l-68.5,25.9l-20,34.6l-44.1-21.1v0l-4.9-56l-1.4-6.4
		l36.3-48.1l-40.9,27l-0.8-3.5l46.4-30.5c0,0-17.3,102.1-18.5,109.7l49-48.9l1.4,38.6l71.7-27.1l-27,71.5V350.2z M559,358.6
		l-39.5,34.5v-34.6L559,358.6z M319.6,323.3l-49-48.9l-1.3,38.6l-71.7-27.1l26.6,70.4v-6.2l-0.2-23.7l20,48.2l91.4-43.6l4.9-56
		l6.8-31.3l-46-30.2C301.1,213.6,319.6,323.3,319.6,323.3z M270.6,362l-67-70.2l68.6,25.8l1.3-35.5l45.9,45.7c0.1,0,0.1,0.1,0.1,0.1
		l7.4,7.3L270.6,362z M340.2,275.1l-2.2,25l-32.4-79.3c-0.1-0.3-0.1-0.5-0.1-0.5l40.8,26.8L340.2,275.1z M478.4,429L452,452
		l15.5,19.3l-33.9,5.5L412.9,447v-13.6L478.4,429z M371.6,549l-20.2-45.8l-0.4,1l20.6,99.9l20.8-100.7l-0.1-0.2L371.6,549z
		 M356.7,515.4l14.8,33.9l0.1,41.3L356.7,515.4z"/>
	<path class="st3" d="M326.9,335.1L270.6,362l-67-70.2l68.6,25.8l1.3-35.5l45.9,45.7c0.1,0,0.1,0.1,0.1,0.1L326.9,335.1z
		 M224.1,388.4v-26.7l-30.4,0.1L224.1,388.4z M271.1,429.4l25.2,22c-0.4,1.1-13.7,17.5-13.7,17.5l29.5,4.8l18.6-26.7v-13.6h0
		L271.1,429.4z M472.5,317.6l-20,34.6l13.7,6.5l74.8-67.1L472.5,317.6z M401.9,268.8l36.3-48.2l-40.9,27L401.9,268.8z M356.7,515.4
		l14.9,75.2l-0.1-41.3L356.7,515.4z M305.6,220.8l32.4,79.3l2.2-25l6.1-28l-40.8-26.8C305.5,220.3,305.5,220.5,305.6,220.8z"/>
	<path class="st4" d="M519.2,325.8l-19.5,48.8l-91.3-43.6l-4.9-56l-31.8-145.4l-31.3,145.4l-4.9,56L244,374.7L224,326.5l0.2,23.7
		v84.3l14.5-7.2l92.1,6.2V447L289,507.2v36.5l57.7-28.4l4.8-12l20.1,46l20.8-46l4.7,12l57.7,28.4v-36.5L412.9,447v-13.6l92.1-6.2
		l14.5,7.2v-84.3L519.2,325.8z M371.5,533.5l-19.9-45.3l-6.8-15.7l4,20l-7.2,18.1l-46.4,22.9v-24.4l41.8-60.2v-21.5l-99.7-6.7
		l-6.9,3.5v-65.8l10.3,24.7l91.8-43.8l6,29.3l2.8-33.5l0,0l5.2-59.2l25-120.8L371.5,533.5z"/>
	<path class="st5" d="M346.6,276l25-120.8l0,378.3l-19.9-45.3l-6.8-15.7l4,20l-7.2,18.1l-46.4,22.9v-24.4l41.8-60.2v-21.5l-99.7-6.7
		l-6.9,3.5v-65.8l10.3,24.7l91.8-43.8l6,29.3l2.8-33.5l0,0L346.6,276z M722,371.5c0,193.6-156.9,350.5-350.5,350.5
		C178,722.1,21,565.1,21,371.5C21,177.9,177.9,21,371.5,21C565.2,21,722,177.9,722,371.5z M698.5,371.5c0-180.6-146.4-327-327-327
		c-180.6,0-327,146.4-327,327c0,180.6,146.4,327,327,327C552.2,698.5,698.5,552.1,698.5,371.5z"/>
</g>
</svg>
