<?xml version="1.0" encoding="utf-8"?>
<!-- Generator: Adobe Illustrator 25.0.0, SVG Export Plug-In . SVG Version: 6.00 Build 0)  -->
<svg version="1.1" id="Layer_1" xmlns="http://www.w3.org/2000/svg" xmlns:xlink="http://www.w3.org/1999/xlink" x="0px" y="0px"
	 viewBox="0 0 708.6 848" style="enable-background:new 0 0 708.6 848;" xml:space="preserve">
<style type="text/css">
	.st0{fill:#FFFFFF;}
	.st1{fill:#B0B7BB;}
</style>
<g id="XMLID_1_">
	<path class="st0" d="M0,0v592l354.3,256l354.3-256V0H0z M685.2,580L354.3,819.1L23.4,580V434.4h661.8V580z M685.2,413.9H23.4V23.4
		h661.8V413.9z M88.1,213.7c0-62.6-10.5-96.3-16.6-110.5h60c-6.1,14.2-16.6,47.8-16.6,110.5v79h124.9c47.9,0,76.5-14.5,90.3-23.8
		c-2.6,28.8-13.9,49.1-17.9,55.3H71.5C77.5,310,88.1,276.4,88.1,213.7z M410.2,324.2v-86.3h183.5v86.3h43.4
		c-6.1-14.2-16.6-47.8-16.6-110.5s10.6-96.3,16.6-110.5H366.9c6.1,14.2,16.6,47.8,16.6,110.5s-10.6,96.3-16.6,110.5H410.2z
		 M410.2,134.7h183.5v71.6H410.2V134.7z M261.1,686l-23-131.8l4.8-2.1c0,0,18.7,25,22.2,29.7c7.7-9.4,22.4-21.1,42.2-27.6
		c-1.6-3.8-8.8-21.4-8.8-21.4s11.1,4.5,15.8,6.4c-0.5-1-1-2-1-2s17,0.9,19.7,1c1.4-2.4,10.6-18.8,11.9-21c-1.1-1.9-4.6-8.1-5-8.7
		c-0.6-0.5-4.9-4.2-4.9-4.2l5.6-10.7l12,0.8c0,0,0.2,5.6,0.2,6.6l1.4,2.3l1.4-2.3c0.1-1,0.3-6.6,0.3-6.6l12-0.8l5.7,10.7
		c0,0-4.3,3.7-4.9,4.2c-0.4,0.6-3.9,6.8-5,8.7c1.3,2.2,10.5,18.6,11.9,21c2.7-0.1,19.7-1,19.7-1s-0.5,1-1,2
		c4.8-1.9,15.9-6.4,15.9-6.4s-7.2,17.5-8.8,21.4c19.9,6.6,34.6,18.2,42.2,27.6c3.5-4.7,22.2-29.7,22.2-29.7l4.8,2.1l-23,131.8
		c0,0-32.7,8.4-93.2,8.4C293.8,694.3,261.1,686,261.1,686z"/>
	<path d="M664.3,44.2H44.2v338.9h620.1V44.2z M315.1,329.5H62.8c0,0,19.9-30.5,19.9-115.8c0-85.3-19.9-115.8-19.9-115.8h77.2
		c0,0-19.9,30.5-19.9,115.8v73.6h119.6c67.5,0,96.3-30,96.3-30C336.1,300.9,315.1,329.5,315.1,329.5z M645.7,329.5h-57.4v-86.3
		H415.6v86.3h-57.4c0,0,19.9-30.5,19.9-115.8c0-85.3-19.9-115.8-19.9-115.8h287.5c0,0-19.9,30.5-19.9,115.8
		C625.8,299.1,645.7,329.5,645.7,329.5z M44.2,470.6v98.8l310,224.1l310-224.1v-98.8H44.2z M447.5,686c0,0-32.7,8.3-93.2,8.3
		c-60.5,0-93.2-8.3-93.2-8.3l-23-131.8l4.8-2.1c0,0,18.8,25,22.2,29.7c7.7-9.4,22.4-21.1,42.2-27.6c-1.6-3.8-8.8-21.4-8.8-21.4
		s11.1,4.5,15.8,6.4c-0.5-1-1-2-1-2s17,0.9,19.7,1c1.4-2.4,10.6-18.8,11.9-21c-1.1-1.9-4.6-8.1-5-8.7c-0.6-0.5-4.9-4.2-4.9-4.2
		l5.6-10.7l12,0.8c0,0,0.2,5.6,0.2,6.6l1.4,2.3l1.4-2.3c0-1,0.2-6.6,0.2-6.6l12-0.8l5.6,10.7c0,0-4.3,3.7-4.9,4.2
		c-0.4,0.7-3.9,6.8-5,8.7c1.3,2.2,10.5,18.6,11.9,21c2.7-0.1,19.7-1,19.7-1s-0.5,1-1,2c4.8-1.9,15.8-6.4,15.8-6.4
		s-7.2,17.5-8.8,21.4c19.9,6.5,34.6,18.2,42.2,27.6c3.5-4.7,22.2-29.7,22.2-29.7l4.8,2.1L447.5,686z M415.6,140.1h172.8V201H415.6
		V140.1z M321.7,607c0,4-3.3,7.3-7.3,7.3c-4,0-7.3-3.3-7.3-7.3c0-4,3.3-7.3,7.3-7.3C318.4,599.7,321.7,603,321.7,607z M400,607
		c0,4-3.3,7.3-7.3,7.3c-4,0-7.3-3.3-7.3-7.3c0-4,3.3-7.3,7.3-7.3C396.7,599.7,400,603,400,607z M394.4,557.3l6.2-15.1l-31.7,14.2
		v-7.8l-14.6-25.2l-14.7,25.2v7.8l-31.7-14.2l6.2,15.1c-22.4,6.6-39.9,18.4-48.9,33.1L244.7,563L265,680.6c0,0,26.1,6.6,70.2,7.8
		c0,0-30-2.8-47.8-9.6c12.1,1.7,31.8,4.1,49.8,4.1c0,0-24.3-2.5-40.5-8.6c12.2,1.6,29.5,3.5,45.5,3.5c0,0-23.7-2.5-39.9-8.4
		c14.4-3.1,32.2-5.6,51.8-5.6c19.6,0,37.4,2.5,51.8,5.6c-16.1,5.9-39.8,8.4-39.8,8.4c16,0,33.3-1.9,45.5-3.5
		c-16.2,6.1-40.5,8.6-40.5,8.6c18,0,37.7-2.4,49.8-4.1c-17.8,6.8-47.8,9.6-47.8,9.6c44.1-1.2,70.2-7.8,70.2-7.8L463.8,563
		l-20.5,27.4C434.3,575.7,416.8,563.9,394.4,557.3z M258,624.5c0.3-0.1,0.6-0.1,0.9-0.1c1.9,0,3.4,1.6,3.4,3.6
		c0,1.9-1.4,3.4-3.1,3.6L258,624.5z M260.3,638.1l-0.2-1.3c4-0.6,7.1-4.4,7.1-8.9c0-5-3.7-9-8.3-9c-0.6,0-1.2,0.1-1.9,0.2l-0.2-1.3
		c0.7-0.1,1.4-0.2,2.1-0.2c5.3,0,9.7,4.6,9.7,10.3C268.6,633.1,265,637.4,260.3,638.1z M314.4,615.3c-4.5,0-8.2-3.7-8.2-8.2
		c0-4.5,3.7-8.2,8.2-8.2c4.5,0,8.2,3.7,8.2,8.2C322.6,611.6,318.9,615.3,314.4,615.3z M330.4,633l-8.8-16.1c2.8-1.5,4.7-4.5,4.7-7.9
		c0-3.3-1.7-6.1-4.3-7.7c-1.7-2.3-4.5-3.8-7.6-3.8c-5.3,0-9.6,4.3-9.6,9.6c0,4.1,2.6,7.6,6.2,9l-4.2,20.8c-2.8,0.6-5.3,1.3-7.6,1.9
		c-5.7-16.9-8.3-42.5,19.6-56.8c0,0-39.4,9.2-27.3,59.2c-1.5,0.5-2.9,1-4,1.4c-3.7-7.9-3.1-26.6-3.1-26.6l-5.2-7
		c3.2-13.4,12.8-27.1,36.2-35.7c0,0-27.2,3-40.8,29.6l-5.6-7.4c7.9-14.3,25.2-26.3,47.4-32.7l28.5,69.5
		C339.9,632.2,335.1,632.5,330.4,633z M434.1,602.7c-13.6-26.6-40.8-29.6-40.8-29.6c23.3,8.7,33,22.3,36.2,35.7l-5.2,7
		c0,0,0.7,18.8-3.1,26.6c-1.2-0.4-2.5-0.9-4.1-1.4c12.1-50-27.3-59.2-27.3-59.2c27.8,14.4,25.3,40,19.6,56.8
		c-2.3-0.6-4.9-1.3-7.7-1.9l-3.9-19.1c3.8-1.1,6.6-4.6,6.6-8.7c0-3.3-1.7-6.1-4.3-7.7c-1.8-2.3-4.5-3.8-7.6-3.8
		c-5.3,0-9.6,4.3-9.6,9.6c0,3.5,1.9,6.6,4.7,8.3l-9.7,17.7c-4.7-0.5-9.5-0.8-14.3-1l28.5-69.5c22.1,6.5,39.5,18.4,47.4,32.7
		L434.1,602.7z M392.7,615.3c-4.5,0-8.2-3.7-8.2-8.2c0-4.5,3.7-8.2,8.2-8.2c4.5,0,8.2,3.7,8.2,8.2
		C400.9,611.6,397.3,615.3,392.7,615.3z M449.3,631.5c-1.7-0.1-3.1-1.7-3.1-3.6c0-2,1.5-3.6,3.4-3.6c0.3,0,0.6,0.1,1,0.1
		L449.3,631.5z M451.7,617.9l-0.2,1.3c-0.6-0.1-1.2-0.2-1.9-0.2c-4.6,0-8.3,4-8.3,9c0,4.5,3.1,8.3,7.1,8.9l-0.2,1.3
		c-4.6-0.7-8.2-5-8.2-10.2c0-5.7,4.3-10.3,9.6-10.3C450.3,617.6,451,617.7,451.7,617.9z M325.9,547.8l-1.5-3h12.5l15.8-27.2
		l-7.7-13.2l-1.9-1.9l1.3-1.9l2.9,0.2l0.5,2.4l6.7,11.5l6.6-11.5l0.5-2.4l2.9-0.2l1.3,1.9l-1.9,1.9l-7.7,13.2l15.7,27.2h12.5l-1.5,3
		h-12.6l-15.8-27.2l-15.8,27.2H325.9z"/>
	<path class="st1" d="M685.2,434.4H23.4V580l330.9,239.1L685.2,580h0V434.4z M664.3,569.4l-310,224.1l-310-224.1v-98.8h620.1V569.4z
		 M415.6,329.5v-86.3h172.8v86.3h57.4c0,0-19.9-30.5-19.9-115.8c0-85.3,19.9-115.8,19.9-115.8H358.2c0,0,19.9,30.5,19.9,115.8
		c0,85.3-19.9,115.8-19.9,115.8H415.6z M366.8,103.2h270.3c-6.1,14.2-16.6,47.8-16.6,110.5c0,62.7,10.5,96.3,16.6,110.5h-43.4v-86.3
		H410.2v86.3h-43.4c6.1-14.2,16.6-47.8,16.6-110.5C383.5,151.1,372.9,117.4,366.8,103.2z M685.2,23.4H23.4v390.5h661.8L685.2,23.4
		L685.2,23.4z M664.3,383.2H44.2V44.3h620.1V383.2z M315.1,329.5c0,0,21-28.6,21-72.2c0,0-28.8,30-96.3,30H120.2v-73.6
		c0-85.3,19.9-115.8,19.9-115.8H62.8c0,0,19.9,30.5,19.9,115.8c0,85.3-19.9,115.8-19.9,115.8H315.1z M71.5,103.2h60
		c-6.1,14.2-16.6,47.8-16.6,110.5v79h124.9c47.9,0,76.6-14.5,90.3-23.8c-2.6,28.8-13.9,49.1-17.9,55.4H71.5
		c6.1-14.2,16.6-47.8,16.6-110.5C88.1,151.1,77.5,117.4,71.5,103.2z M593.7,134.7L593.7,134.7H410.2v71.6h183.5V134.7z M588.4,201
		H415.6v-60.9h172.8V201z M339.6,559.4l-26.8-12l26.8,65.1V559.4z M330.5,571.7c-1,0-1.9-0.3-2.7-0.8c-2.2-0.5-3.8-2.5-3.8-4.9
		c0-2.7,2.3-5,5-5c1.6,0,3.1,0.8,4,2c1.3,0.8,2.2,2.3,2.2,4C335.2,569.5,333.1,571.7,330.5,571.7z M368.9,559.4v53.1l26.8-65.1
		L368.9,559.4z M378.9,571.7c-1,0-1.9-0.3-2.7-0.8c-2.2-0.5-3.8-2.5-3.8-4.9c0-2.7,2.2-5,5-5c1.6,0,3,0.8,4,2c1.3,0.8,2.2,2.3,2.2,4
		C383.6,569.5,381.4,571.7,378.9,571.7z M366.2,558.2l-12-15.6l-12,15.6l12,14.2L366.2,558.2z M349.3,557.7c0-2.8,2.2-5,5-5
		c2.8,0,5,2.2,5,5c0,2.8-2.2,5-5,5C351.5,562.8,349.3,560.5,349.3,557.7z M258.9,616.3c6.1,0,11,5.2,11,11.6
		c0,5.8-4.1,10.6-9.3,11.5l6.5,37.5c10.2-3.9,44.6-15.8,87.2-15.8c42.7,0,77.1,11.8,87.2,15.8l6.5-37.5c-5.3-0.8-9.3-5.6-9.3-11.5
		c0-6.4,4.9-11.6,10.9-11.6c0.8,0,1.6,0.1,2.3,0.2l7.4-43.3l-32.4,43.3c0.7,20.8-4.4,29.1-4.4,29.1s-10.9-4.4-22.9-6.8l-4.3-21
		c-1.8-0.1-3.5-0.6-4.9-1.6l-0.2-0.1l-10.6,19.4c0,0-13.4-1.3-20.2-1.3l6-18.6L354.3,587l-11.2,28.8l6,18.6
		c-6.7,0-20.2,1.3-20.2,1.3l-9.9-18c-0.6,0.1-1.3,0.2-1.9,0.2c-1.4,0-2.7-0.3-3.8-0.9l-4.4,21.8c-12.1,2.4-22.9,6.8-22.9,6.8
		s-5.1-8.4-4.4-29.1l-32.4-43.3l7.5,43.3C257.4,616.4,258.2,616.3,258.9,616.3z M261.9,640.8l4.3-1.9l0.2,6.4L261.9,640.8z
		 M442.3,638.9l4.3,1.9l-4.5,4.5L442.3,638.9z M440,637l-6.3,1.3l3.7-5.2L440,637z M448.7,609l2.6,5.9l-4.7,0.2L448.7,609z
		 M444.4,615.8l-3.9,2.6l-1.3-6.3L444.4,615.8z M438.9,620.2l-2.1,4.2l-4.4-4.7L438.9,620.2z M436.5,626.7l0.4,4.7l-6.2-1.8
		L436.5,626.7z M418,655.3c0,2.4-1.9,4.4-4.4,4.4c-0.7,0-1.4-0.2-1.9-0.5l0.1,0c2.7,0,4.8-2.2,4.8-4.8c0-1.1-0.4-2.2-1-3
		C417,652.1,418,653.6,418,655.3z M411.7,650.5c2.1,0,3.9,1.7,3.9,3.9c0,2.1-1.8,3.9-3.9,3.9c-2.2,0-3.9-1.8-3.9-3.9
		C407.8,652.2,409.6,650.5,411.7,650.5z M380.6,648.7c0,2.4-2,4.4-4.4,4.4c-0.7,0-1.4-0.2-2-0.5h0.1c2.7,0,4.8-2.2,4.8-4.8
		c0-1.1-0.4-2.1-1.1-3C379.6,645.5,380.6,647,380.6,648.7z M374.3,643.9c2.1,0,3.9,1.8,3.9,3.9c0,2.2-1.8,3.9-3.9,3.9
		c-2.2,0-3.9-1.7-3.9-3.9C370.4,645.6,372.2,643.9,374.3,643.9z M360.3,615.2c0,2.4-2,4.4-4.4,4.4c-0.7,0-1.3-0.2-1.9-0.5h0.1
		c2.6,0,4.8-2.2,4.8-4.8c0-1.1-0.4-2.1-1.1-3C359.3,612,360.3,613.5,360.3,615.2z M354,610.4c2.1,0,3.9,1.8,3.9,3.9
		c0,2.2-1.8,3.9-3.9,3.9c-2.2,0-3.9-1.7-3.9-3.9C350.1,612.2,351.9,610.4,354,610.4z M337.7,648.7c0,2.4-2,4.4-4.4,4.4
		c-0.7,0-1.4-0.2-1.9-0.5h0.1c2.7,0,4.8-2.2,4.8-4.8c0-1.1-0.4-2.1-1-3C336.7,645.5,337.7,647,337.7,648.7z M331.5,643.9
		c2.2,0,3.9,1.8,3.9,3.9c0,2.2-1.8,3.9-3.9,3.9c-2.2,0-3.9-1.7-3.9-3.9C327.6,645.6,329.3,643.9,331.5,643.9z M300.4,655.3
		c0,2.4-1.9,4.4-4.4,4.4c-0.7,0-1.4-0.2-1.9-0.5l0.1,0c2.7,0,4.8-2.2,4.8-4.8c0-1.1-0.4-2.2-1-3
		C299.4,652.1,300.4,653.6,300.4,655.3z M294.2,650.5c2.1,0,3.9,1.7,3.9,3.9c0,2.1-1.8,3.9-3.9,3.9c-2.2,0-3.9-1.8-3.9-3.9
		C290.3,652.2,292,650.5,294.2,650.5z M268.5,637l2.6-3.9l3.7,5.2L268.5,637z M271.7,631.4l0.4-4.7l5.7,2.9L271.7,631.4z M276,619.7
		l-4.3,4.7l-2.1-4.2L276,619.7z M269.4,612.1l-1.3,6.3l-3.9-2.6L269.4,612.1z M259.8,609l2.1,6.1l-4.7-0.2L259.8,609z"/>
	<path class="st0" d="M354.3,553.5c-2.4,0-4.3,1.9-4.3,4.3c0,2.4,1.9,4.3,4.3,4.3c2.4,0,4.3-1.9,4.3-4.3
		C358.6,555.4,356.6,553.5,354.3,553.5z M354.3,561.5c-2.1,0-3.8-1.7-3.8-3.8c0-2.1,1.7-3.8,3.8-3.8c2.1,0,3.8,1.7,3.8,3.8
		C358.1,559.8,356.4,561.5,354.3,561.5z M377.4,561.7c-2.4,0-4.3,1.9-4.3,4.3c0,2.4,1.9,4.3,4.3,4.3c2.4,0,4.3-1.9,4.3-4.3
		C381.7,563.6,379.7,561.7,377.4,561.7z M377.4,569.8c-2.1,0-3.8-1.7-3.8-3.8c0-2.1,1.7-3.8,3.8-3.8c2.1,0,3.8,1.7,3.8,3.8
		C381.2,568.1,379.5,569.8,377.4,569.8z M329,561.7c-2.4,0-4.3,1.9-4.3,4.3c0,2.4,1.9,4.3,4.3,4.3c2.3,0,4.3-1.9,4.3-4.3
		C333.3,563.6,331.3,561.7,329,561.7z M329,569.8c-2.1,0-3.8-1.7-3.8-3.8c0-2.1,1.7-3.8,3.8-3.8c2.1,0,3.8,1.7,3.8,3.8
		C332.8,568.1,331.1,569.8,329,569.8z"/>
</g>
</svg>
