<?xml version="1.0" encoding="utf-8"?>
<!-- Generator: Adobe Illustrator 25.0.0, SVG Export Plug-In . SVG Version: 6.00 Build 0)  -->
<svg version="1.1" id="Layer_1" xmlns="http://www.w3.org/2000/svg" xmlns:xlink="http://www.w3.org/1999/xlink" x="0px" y="0px"
	 viewBox="0 0 981.7 922.6" style="enable-background:new 0 0 981.7 922.6;" xml:space="preserve">
<style type="text/css">
	.st0{fill:#FFFFFF;}
	.st1{fill:#002868;}
</style>
<g>
	<path class="st0" d="M807.9,156.7c-4.1-2.2-8.2-4.9-13.4-8.3l119.8-95L981.7,0l-83.1,21.9l-305.9,80.5c-3.1-0.1-6.6-0.1-10.1-0.1
		c-63.3,0-125.7,10.3-185.4,30.6c-57,19.4-108.8,46.8-154,81.6c-22.2,17-42.4,35.7-60.1,55.3c-17.9,19.9-33.4,41-46,62.7
		c-12.9,22.2-22.8,45.3-29.5,68.4c-6.9,24-10.4,48.2-10.4,72.2c0,83.8,39.9,157.4,113,209.1L109.7,797.1L0,922.6l134-99.2
		l138.4-102.5c3.9,1.2,7.3,2.2,10.3,3.1c14.1,4.2,20.5,6.1,29.6,8.5c39.8,10.5,98.3,23,151.3,23c64.1,0,127.5-10.3,188.4-30.8
		c57.9-19.4,110.6-46.8,156.9-81.6c94.8-71.3,149.2-164.5,149.2-255.8c0-44.3-14-89.3-40.5-130.1
		C891.1,216.5,853.2,181.7,807.9,156.7z M123.3,809l113.9-130.3C163,632.8,115.1,562.1,115.1,473.2c0-181.2,214.8-352.9,467.5-352.9
		c4.1,0,8.2,0.1,12.3,0.1l308.3-81.1L638.3,249.3l136.3-18.3L481.9,471.6l132-25.8L123.3,809z M463.6,737.5
		c-53.7,0-105.1-8.3-151.1-23.8l72.9-54c21,3.1,42.8,4.7,64.9,4.7c216.1,0,410.3-142.3,410.3-299.4c0-66.4-36.1-125-97.6-164.7
		c-0.9-0.6-1.7-1.1-2.6-1.7l35.4-28.1c92.3,50.7,144.3,133.1,144.3,216.8C940.1,564.3,720.1,737.5,463.6,737.5z M479.8,352.6
		L253.2,571.8l91.9-16.6l-64.2,73.5c-78-36.9-130.6-100.7-130.6-182.3c0-162.5,203.3-299.4,410.3-299.4c1.4,0,2.8,0,4.3,0
		L364.8,370.8L479.8,352.6z"/>
	<path class="st1" d="M940.1,387.4c0,176.9-220,350.1-476.5,350.1c-53.7,0-105.1-8.3-151.1-23.8l72.9-54c21,3.1,42.8,4.7,64.9,4.7
		c216.1,0,410.3-142.3,410.3-299.4c0-66.4-36.1-125-97.6-164.7c-0.9-0.6-1.7-1.1-2.6-1.7l35.4-28.1
		C888.1,221.2,940.1,303.7,940.1,387.4z M123.3,809l113.9-130.3C163,632.8,115.1,562.1,115.1,473.2c0-181.2,214.8-352.9,467.5-352.9
		c4.1,0,8.2,0.1,12.3,0.1l308.3-81.1L638.3,249.3l136.3-18.3L481.9,471.6l132-25.8L123.3,809z M280.9,628.7l64.2-73.5l-91.9,16.6
		l226.7-219.2l-115,18.2L564.9,147c-1.4,0-2.8,0-4.3,0c-206.9,0-410.3,137-410.3,299.4C150.3,528,202.8,591.7,280.9,628.7z"/>
</g>
</svg>
