<?xml version="1.0" encoding="utf-8"?>
<!-- Generator: Adobe Illustrator 25.0.0, SVG Export Plug-In . SVG Version: 6.00 Build 0)  -->
<svg version="1.1" id="Layer_1" xmlns="http://www.w3.org/2000/svg" xmlns:xlink="http://www.w3.org/1999/xlink" x="0px" y="0px"
	 viewBox="0 0 814.7 906.8" style="enable-background:new 0 0 814.7 906.8;" xml:space="preserve">
<style type="text/css">
	.st0{fill:#FFFFFF;}
	.st1{fill:#00205B;}
</style>
<g id="XMLID_1_">
	<path class="st0" d="M813.6,353.5c-1.5-5.2-5.6-9.4-10.7-11.1c-5.9-2.3-12.1-4.2-18.2-5.9c1.7-4.6,3.3-9.4,4.8-14
		c3.5-11.5,6.3-23.2,8.6-35.1v-0.2v-0.2c0.8-5.2-0.8-10.4-4-14.4l-0.2-0.2l-0.2-0.2c-3.5-3.8-8.3-5.9-13.4-5.9c-0.2,0-0.4,0-0.4,0
		h-1.3H777l-1.5,0.4c-10,2.7-21.3,6.5-34,11.1h-0.2h-0.2c-5.4,2.3-10.6,4.4-15.5,6.5c-0.2-1-0.6-1.9-0.8-2.9l0,0l0,0
		c-2.5-7.9-5.8-15.5-9.6-22.8l-0.2-0.4l-0.2-0.4c-3.3-5.2-8.8-8.4-15-8.6h-0.2h-0.2l0,0h-0.2c-3.8,0-7.7,1.3-10.7,3.5
		c-10.7,7.7-21.1,15.9-30.9,24.8c-5.2,4.6-10.2,9.2-15,14.2c-2.7-2.9-5.8-5.6-9-7.9l-0.2-0.2l-0.2-0.2c-2.9-1.9-6.3-3.1-9.8-3.3
		h-0.6h-0.6c-4.8,0.4-9.4,2.5-12.7,5.9l-0.4,0.4l-0.4,0.4c-13.8,17.7-28.8,34.5-44.5,50.5c-3.5,3.5-7.1,7.1-10.7,10.4
		c5.2-11.3,10.7-22.6,16.5-33.6l0.2-0.4l0.2-0.4c2.1-4.8,2.1-10.2,0-14.8c-2.3-5.4-6.9-9-12.5-10.2c4.6-8.4,9-16.9,12.7-25.7
		c7.1-15.4,13-31.5,17.7-47.8c1.7-5.4,1-11.3-2.3-15.9l-0.2-0.2l-0.2-0.2c-3.5-4.4-8.6-6.9-14.2-7.1h-0.2h0.4h-0.2h-0.4h-0.4
		c-10.4,0.6-20.7,1.9-30.9,4.2c0.4-6.7,0.4-13.6,0-20.3l0,0l0,0c-0.8-14.4-2.7-28.8-5.2-43c-1.5-8.6-8.6-14.8-17.5-14.8
		c-0.2,0-0.6,0-0.8,0c-1.9,0-3.6,0.4-5.4,1h-0.2h-0.2c-4.6,1.7-9.2,3.6-13.6,5.8c-0.2-4.2-0.4-8.4-0.8-12.7l0,0l0,0
		c-1.2-12.7-3.1-25.3-6.1-37.8l0,0l0,0c-1.9-7.9-9-13.4-17.3-13.4c0,0,0,0-0.2,0s-0.4,0-0.4,0c-1.9,0-3.6,0.4-5.6,1
		c-4.4,1.7-8.8,3.5-13.2,5.6c-3.1-7.3-6.5-14.4-10-21.3c-6.3-11.9-12.7-23.2-20.7-36.5c-1.5-2.5-3.6-4.6-6.1-6.1
		c-2.9-1.7-6.1-2.7-9.4-2.9H407c-3.1,0-5.9,0.8-8.6,2.3c-2.5,1.3-4.8,3.5-6.3,5.9l-0.2,0.2l-0.2,0.2c-8.1,13.2-14.6,24.6-20.7,36.5
		c-3.6,7.1-7.1,14.2-10.2,21.5c-4-1.9-8.3-3.8-12.5-5.6l-0.6-0.2l-0.6-0.2c-1.7-0.4-3.5-0.8-5.2-0.8c-0.2,0-0.6,0-0.8,0
		c-3.6,0.2-7.1,1.3-10,3.5c-3.5,2.5-5.9,6.3-6.9,10.6c-2.9,12.3-5,24.8-6.1,37.2c-0.4,4.2-0.6,8.6-0.8,12.9
		c-4.4-1.9-8.8-3.8-13.2-5.6c-1.9-1-4.2-1.3-6.3-1.3h-0.4c-5,0-9.4,1.9-12.7,5.4h-3.3l-1.7,9.4c-2.7,14.2-4.2,28.8-5,43.2
		c-0.4,6.7-0.4,13.6,0,20.5c-10.2-2.1-20.7-3.5-31.1-4h-0.4H243h-0.2h-0.2h-0.2c-4.8,0.2-9.4,2.3-12.7,5.8s-5,8.3-4.8,13
		c0,1.5,0.4,2.9,0.8,4.4l0,0l0,0c5,16.1,10.9,32.2,17.7,47.8c3.8,8.8,8.3,17.3,12.9,25.7c-5.4,1.2-9.8,4.6-12.1,9.6
		c-2.7,5.2-2.7,11.3,0.2,16.3c5.8,10.9,11.1,22.1,16.3,33.2c-22.1-21.1-41.1-43.6-55.1-61l-0.2-0.4l-0.4-0.4
		c-3.3-3.6-7.9-5.8-12.7-5.9h-0.4h-0.4l0,0h-0.2c-2.3,0-4.6,0.4-6.7,1.3h-1l-3.1,2.1c-3.3,2.3-6.3,5-9,7.7
		c-5.2-5.2-10.2-10-14.8-14.2l-0.2-0.2l-0.2-0.2c-11.5-10-21.3-17.7-30.7-24.2c-2.9-2.5-6.7-3.8-10.6-3.8c-0.2,0-0.6,0-0.8,0
		c-5.9,0.2-11.5,3.3-14.8,8.3l-0.4,0.6l-0.2,0.6c-3.8,7.3-6.9,14.8-9.4,22.6c-0.4,1-0.8,2.1-1,3.1c-5-2.1-10-4.2-15.5-6.5h-0.2h-0.2
		c-13.2-5-24.6-8.6-34.2-11.1l-1.5-0.4h-1.5H34l0,0l0,0c-5,0-9.6,1.9-13,5.6l-0.6,0.6l-0.4,0.6c-3.1,4.2-4.4,9.4-3.5,14.6
		c2.1,11.7,5,23.2,8.4,34.5c1.3,4.8,2.9,9.8,4.6,14.4c-6.1,1.7-12.1,3.6-18,5.8l-0.2,1l-0.4,0.2c-4.2,1.9-7.5,5.4-9.6,9.6l-0.2,0.6
		L1,353.1c-1.7,5-1.2,10.4,1.3,15c7.1,12.1,15.2,23.8,23.8,34.7c4.2,5.4,8.8,10.4,13.6,15.4c-2.3,1.9-4.6,4-6.7,6.1
		c-3.6,3.3-5.6,7.9-5.8,12.7v0.2v0.2c0,4.8,2.1,9.6,5.6,12.9c11.9,11.7,24.6,23,37.6,33.6c7.5,6.1,15.5,12.3,24,18.4
		c-4.4,4.2-8.8,8.6-13.2,13.8l-0.4,0.4l-0.2,0.4c-2.5,3.3-3.8,7.5-3.8,11.7v0.8L77,530c0.6,4.4,2.7,8.4,5.9,11.3l0,0l0,0
		c5.4,4.8,10.9,9.2,16.7,13.4c5.8,4.4,11.7,8.4,17.7,12.3c5.8,3.6,11.7,7.1,17.8,10.2c-3.1,3.3-5.9,6.5-8.8,10l-0.2,0.2l-0.2,0.2
		c-2.9,4-4,8.8-3.5,13.6v0.4v0.4c1.2,5.4,4.6,9.8,9.4,12.3l0,0l0,0c6.9,3.5,14,6.5,21.3,9.2c-13,5.6-26.1,11.9-38.6,18.8h0.4
		l-2.7,1.5c-5.2,3.1-8.6,8.4-8.8,14.4c-0.6,6.1,2.3,12.3,7.5,15.7c10,7.7,20.5,14.8,31.3,21.1c4.2,2.5,8.4,5,12.9,7.3
		c-24.6,22.8-46.4,48.2-65.4,75.8l0,0v0.2c-3.6,5.4-4,12.1-1.3,18l0.2,0.6l0.2,0.4c3.3,5.6,9.2,9,15.5,9.2h0.2h0.2h0.8h0.8l0.8-0.2
		c16.1-2.1,32.6-4.4,47.4-7.3c4.4-0.8,8.6-1.5,12.9-2.3c-1,2.7-2.1,5.4-3.1,8.1c-2.1,5.6-1.3,11.7,2.1,16.5
		c3.3,4.8,8.8,7.9,14.6,7.9l0,0l0,0h0.8h0.8h0.8l4.2-0.6c14.2-1.7,26.5-3.1,37.8-4.8c1.9-0.4,3.6-0.6,5.4-1
		c-2.5,6.1-4.8,12.7-7.1,19.6v0.2v0.2c-1.7,5.6-0.6,11.7,2.9,16.3c3.5,4.4,8.6,7.1,14.2,7.1h0.2h0.2h1.2h1.2l1.2-0.2
		c13.2-2.7,26.1-5.4,38.4-8.6c11.9-2.9,24.4-6.3,37-10.4c10.7-3.5,22.6-7.7,34.9-12.5c5-1.9,9.8-4,14.6-6.1c0.6,2.5,1,5,1.5,7.5v0.2
		v0.2c2.1,8.4,5,16.7,8.6,24.6v0.2v0.2c6.9,14.6,15.9,28,26.9,39.9l0.2,0.2l0.2,0.2c3.6,3.5,8.3,5.4,13.2,5.4h0.2h0.2
		c4.6,0,9-1.7,12.5-5l26.7-24.6l0.4-0.2l0.2-0.2c3.1-3.3,5-7.1,5.4-11.5v-0.6v-0.6c0.2-4.8-1.5-9.6-4.8-13.2
		c-7.9-8.8-12.9-16.1-15.9-21.9c14.6,5.6,29.4,10.7,44.3,15.4c14,4.6,27.8,8.6,41.3,12.1c15.2,3.8,28.6,7.1,40.5,9.4l1.2,0.2h1.2
		h1.3h0.2h0.2c5.6-0.2,10.7-2.7,14.2-7.1l0.2-0.4l0.2-0.4c2.9-4.4,4-9.8,2.7-15l-0.2-0.6l-0.2-0.4c-2.3-6.9-4.6-13.2-7.1-19.4
		c0.4,0,1,0.2,1.3,0.2l3.6,0.6l0,0l0,0c13,1.9,27.2,3.6,42.2,5.4h0.6h0.6h0.8h0.2h0.2c5.6-0.2,10.7-2.7,14.2-7.1l0.4-0.4l0.4-0.4
		c3.1-4.8,3.8-10.6,2.1-15.9v-0.2V805c-1-2.9-2.1-5.6-3.1-8.3c4.2,0.8,8.4,1.5,12.9,2.3c14.8,2.9,31.3,5,47.4,7.3l0.8,0.2h0.8h0.6
		c0.2,0,0.2,0,0.4,0c6.7,0,12.7-3.6,15.7-9.6c3.3-5.9,2.7-13.2-1.3-18.8c-18.8-27.6-40.9-53.2-65.2-75.8c4.4-2.3,8.8-4.8,13-7.3
		c10.7-6.3,21.5-13.4,31.5-21.1l0,0l0,0c4.8-3.6,7.5-9.6,7.1-15.7V658v-0.2c-0.6-6.1-4-11.5-9.4-14.4c-13.2-7.5-27.1-14.2-41.1-20.3
		c7.3-2.7,14.4-5.8,21.3-9.2h0.2h0.2c4.8-2.5,8.1-6.9,9.2-12.1v-0.4V601c0.8-5.2-0.8-10.6-4.2-14.6c-2.7-3.3-5.6-6.5-8.4-9.6
		c5.6-2.9,11.9-6.3,18-10.2c6.1-3.6,12.1-7.9,17.7-12.3c5.8-4.2,11.3-8.6,16.7-13.4c3.6-3.1,5.8-7.5,5.9-12.3
		c0.4-4.6-1-9.2-3.8-12.9l-0.2-0.2l-0.2-0.2c-4.6-5.2-9-9.8-13.2-13.8c8.3-5.8,16.3-11.9,24.2-18.4c12.9-10.4,25.5-21.7,37.4-33.4
		c3.8-3.5,5.9-8.3,5.6-13.4c0-4.6-1.9-9.2-5.2-12.5l0,0H782c-2.3-2.1-4.6-4.2-7.1-6.3c4.8-4.8,9.4-10,13.6-15.4
		c9-10.7,17.1-22.5,24-34.5l0.2-0.2v-0.2C815,363.4,815.3,358.2,813.6,353.5z M800.2,360.6l-0.2,0.6c-6.7,11.5-14.2,22.5-22.5,32.8
		c-7.5,9.2-15.9,17.8-24.9,25.5c7.1,4.2,13.4,9.4,19.4,15.2c0.8,0.8,1.2,1.7,1.2,2.7c0,1.2-0.4,2.1-1.2,2.9
		c-11.7,11.5-23.8,22.5-36.6,32.6c-12.5,10.2-25.5,19.4-38.8,28.2c9.6,7.1,18.2,15.5,25.9,24.8c1.3,1.5,1.2,4-0.6,5.4
		c-10.2,9-20.9,17.3-32.4,24.4c-11.5,7.1-23.4,13.2-35.9,18.2c8.6,6.5,16.3,14.2,23,22.5c0.8,0.8,1.2,2.1,0.8,3.3
		c-0.2,1.2-1,2.3-2.1,2.7c-19.2,9.4-39.5,15.9-60.4,19.6c27.6,9,54.5,20.7,79.8,34.9c1.2,0.6,1.9,1.9,2.1,3.3c0,1.3-0.6,2.7-1.5,3.5
		c-22.8,16.7-41.8,28.2-61.8,36.1c30.5,25.3,57.2,54.7,79.6,87.5c1,1.2,1.2,2.9,0.2,4.2c-0.6,1.3-1.9,2.1-3.5,2.1l-0.6-0.2
		c-29-3.3-57.8-8.4-86.2-15.7c4.8,10.2,9.6,21.5,14,33.2c0.4,1.3,0.2,2.7-0.6,3.6s-1.9,1.5-3.3,1.5h-0.6
		c-24.9-2.3-49.9-5.9-74.5-11.1c8.1,13.4,14.6,27.8,19.2,43c0.6,1.2,0.4,2.7-0.6,3.6c-0.8,1-1.9,1.5-3.3,1.5l-0.8-0.2
		c-27.1-5.4-53.7-12.5-80-20.9c-25.7-8.3-49.5-16.9-65.8-24.2l-0.6-0.2c-0.8,0-1.3,0.4-1.5,1.2c-1.5,8.3,1.3,18.8,8.8,31.1
		c4.6,7.7,10,15,16.1,21.5v0.2c1.5,1.9,1.3,4.6-0.2,6.3l-27.1,24.8c-0.8,0.8-1.7,1.3-2.9,1.3c-1.3,0-2.5-0.6-3.5-1.3
		c-10.2-10.7-18.4-23-24.4-36.3c-3.3-7.1-5.8-14.6-7.7-22.3c-2.1-8.3-3.5-16.5-4-24.9c-21.1,10-43,18.4-65.2,25.5
		c-24.2,7.7-48.9,14-74.1,18.6h-0.8c-1.2,0-2.5-0.6-3.3-1.5c-0.6-1.2-0.8-2.3-0.6-3.5c4.4-15.2,10.9-29.6,19.4-43
		c-24.6,5-49.5,8.8-74.5,11.1h-0.6c-1.3,0-2.5-0.6-3.3-1.5c-0.8-1-1-2.5-0.6-3.6c4-11.3,8.6-22.5,14-33.2
		c-28.4,7.1-57.4,12.3-86.5,15.7h-0.6c-1.5,0-2.7-0.8-3.5-2.1c-0.6-1.3-0.6-2.7,0.2-4c22.5-32.6,49.3-62.2,79.6-87.9
		c-22.1-9.2-42.6-21.3-61.6-35.9c-1.2-0.8-1.7-2.1-1.5-3.5c0-1.3,0.6-2.5,1.9-3.3c25.5-14.4,52.4-26.1,80-34.9
		c-21.1-3.8-41.4-10.4-60.8-19.6c-1.2-0.4-1.9-1.5-1.9-2.7c-0.2-1.2,0-2.3,0.8-3.3c6.7-8.4,14.4-15.9,22.8-22.5
		c-12.3-5.2-24.2-11.3-35.5-18.2c-11.5-7.3-22.5-15.4-32.6-24.4c-1.5-1.3-1.9-3.6-0.6-5.4c7.9-9,16.5-17.3,25.9-24.8
		c-13.2-8.6-26.1-18-38.4-28.2c-12.9-10.2-25.1-21.1-36.8-32.6c-0.6-0.8-1-1.9-1.2-2.9c0-1,0.4-1.9,1.2-2.7
		c5.9-5.8,12.5-10.7,19.4-15.2c-9-7.7-17.3-16.3-24.8-25.5c-8.4-10.4-15.9-21.5-22.8-32.8c-0.6-1-0.6-2.1-0.2-3.3
		c0.4-1.2,1.3-1.9,2.3-2.3c10.6-4.2,21.7-7.1,32.8-9c-9-19.8-15.4-40.5-18.8-61.8c-0.2-1.2,0-2.3,0.8-3.3c0.6-1,1.7-1.5,2.9-1.5
		c0.4,0,0.8,0,1.2,0.2c21.7,6.1,42.8,14,63.1,23.8c2.7-13.4,7.1-26.5,13.2-38.8c0.8-1.3,1.9-2.1,3.5-2.1c0.8,0,1.7,0.4,2.3,0.8
		c10.4,7.5,20.1,15.5,29.7,24.2c8.8,7.9,17.3,16.1,25.1,24.9c4.4-6.9,10.2-12.7,16.7-17.5c0.8-0.6,1.5-0.8,2.3-0.8
		c1.2,0,2.1,0.6,2.9,1.3c23.8,29.7,60.3,70.2,100,99.2c-10.2-29.9-22.8-59.1-37.6-86.9c-0.6-1-0.8-2.3-0.2-3.5
		c0.6-1,1.5-1.7,2.7-2.1c6.7-1.3,13.4-2.1,20.1-2.3c-17.5-27.6-31.1-57.6-40.3-88.8c-0.2-1.2,0-2.5,0.8-3.5c0.6-1,1.7-1.5,2.9-1.5
		h0.2c16.3,0.8,32.2,3.8,47.8,8.8c-1.9-12.7-2.5-25.5-1.9-38.4c0.6-13.8,2.3-27.6,4.8-41.4c0.2-1.9,1.9-3.3,3.6-3.3
		c0.4,0,1,0,1.3,0.2c11.3,4.4,22.5,9.8,32.8,15.9c-0.6-11.7-0.2-23.4,0.8-34.9c1-11.9,2.9-23.8,5.6-35.5c0.4-1.7,1.9-2.9,3.6-2.9
		c0.4,0,1,0,1.3,0.2c8.8,3.3,17.3,7.3,25.1,12.3c8.4-24.9,22.3-48.5,35.5-70.6c1.3-1.9,3.8-2.5,5.8-1.2c0.4,0.4,1,0.8,1.2,1.2
		c8.8,14,14.8,25.1,20.3,35.5c5.8,11.3,10.9,23,15.4,34.9c7.9-5,16.1-9,24.9-12.3c0.4-0.2,1-0.2,1.3-0.2c1.7-0.2,3.5,1.2,3.6,2.9
		c2.9,11.7,4.8,23.6,5.8,35.5c1.2,11.7,1.3,23.4,0.6,34.9c10.6-6.3,21.5-11.5,32.8-15.9c0.4-0.2,1-0.2,1.3-0.2c1.9,0,3.5,1.3,4,3.3
		c2.5,13.6,4.2,27.4,4.8,41.4c0.6,12.9,0,25.7-1.9,38.4c15.5-5,31.5-7.9,47.8-8.8c1.3,0,2.5,0.6,3.3,1.5c0.8,0.8,1,2.1,0.6,3.3
		c-9.2,31.5-22.6,61.4-40.3,88.8c6.7,0.2,13.6,1.2,20.1,2.7c1.2,0.2,2.1,1,2.7,2.1c0.6,1.2,0.6,2.3,0,3.5
		c-13.8,27.1-28.2,56.2-38,86.7c43.6-31.9,76.4-69.5,100-99c0.8-0.8,1.9-1.3,3.3-1.3c0.8,0,1.5,0.2,2.1,0.8
		c6.7,4.6,12.3,10.6,16.7,17.5c7.9-8.8,16.3-17.3,25.1-25.1c9.2-8.3,19.4-16.1,29.7-23.8c0.8-0.6,1.5-0.8,2.3-0.8
		c1.3,0,2.7,0.8,3.5,1.9c6.5,12.3,10.9,25.3,13.2,39c20.3-9.8,41.4-18,63.1-24.2h1.2c1.2,0,2.1,0.4,2.9,1.3s1.2,2.1,1.2,3.3
		c-3.6,21.3-10.2,42-19.2,61.8c11.3,1.7,22.3,4.8,32.8,9C800,355.9,801.1,358.4,800.2,360.6z M365.6,618.6H380l-17.5-71.6h-19.2
		l-17.8,71.6h14.6l2.9-13.4h19.4L365.6,618.6z M346.2,591.6l6.7-29.7l6.7,29.7H346.2z M328.7,654.3v15.4h22.1v13.4h-22.1v15.7h30.7
		v13.4h-44.9v-71.6h44.9v13.4h-30.7V654.3z M326.2,281.7l0.6-0.2c19.6,29.4,45.3,53.9,75.4,72.1h0.2v-0.2c-0.2-22.3,0-44.5,0.6-66.8
		c0-0.8-0.2-1.3-0.8-1.9c-17.1-12.9-31.1-29.6-41.1-48.5l0.2-0.2c11.1,16.9,25.1,31.9,41.4,43.7l0.6-0.2c0.2-7.9,0.6-14.8,0.8-21.3
		c1.3-18.6,2.1-37.6,2.9-57.4c0-0.8-0.2-1.3-0.8-1.9c-12.9-15-24-31.5-33.2-48.7h0.6c9.6,15.2,20.7,29.4,33.2,42.4h0.2l0,0l0.2-0.2
		c0.8-29.9,1.3-60.3,1.2-89.6h0.2c2.7,27.8,3.6,86.7,2.9,137.4v0.2l0.6,0.2c14.8-7.7,28.4-17.3,40.9-28.4l0.2,0.2
		c-11.9,13-25.9,24-41.1,32.8c-0.6,0.2-0.8,0.6-0.8,1.2c0,4.4-0.2,8.4-0.2,12.5c-1.3,28.4-1.3,62.4,0,103.2l0.6,0.2
		c33.4-23.8,58.5-49.5,74.5-76.4l0.6,0.2c-13,27.1-40.3,57.6-75,83.9l-0.2,0.8c0.2,6.3,0.6,13,0.8,19.4l-0.2,0.6l-0.6,0.2h-7.1
		c-0.6,0-0.8-0.2-0.8-0.6c-0.2-9.2-0.6-18.6-0.8-29l-0.2-0.6C370.9,341,345,313.7,326.2,281.7z M474.4,425.8
		c5.4,15.7,10.6,31.3,15.9,47l1.3,4l7.9-46.6c4.8,1.2,9.6,1.9,14,2.9l-13.4,81.2c-4-0.8-7.7-1.5-11.3-2.3
		c-5.4-15.4-10.6-31.3-15.9-46.6l-1.3-4.2l-7.9,46.6c-4.8-0.6-9.6-1.3-14.4-2.1l13.8-81.2l0,0C466.9,424.6,470.5,425.2,474.4,425.8z
		 M564,618.6h-41.4v-71.6H564v13.2h-27.2V576h18.6v13.4h-18.6v15.7H564V618.6z M527.3,522.1l21.7-65l-0.8-0.2
		c-5.8-1.9-11.7-3.6-17.3-5.6l4.2-13c16.7,5,33.8,10.9,50.1,16.7l-4.4,13c-5.6-2.1-11.3-4-16.9-6.1l-1.2-0.2l-21.7,64.9
		C536.5,525,531.9,523.7,527.3,522.1z M515,698.3v-6.7h14.4v3.3v0.2c0,2.3,1.9,4.2,4.2,4.2h11.7c2.5,0,4.4-1.9,4.4-4.2v-4.4
		c-0.2-1.5-1.2-3.1-2.3-4L522,675.4c-4.6-2.5-7.3-7.5-6.9-12.7v-7.5c0-7.9,6.5-14.2,14.4-14h20.1c7.9,0,14.2,6.1,14.4,14v6.7h-14
		v-2.9c0-2.5-2.1-4.2-4.4-4.2h-11.7h-0.2c-2.3,0-4.2,1.9-4.2,4.2v1.5c0,1.7,1,3.1,2.3,4l25.1,11.1c4.6,2.5,7.3,7.5,6.9,12.7v10.2
		v0.2c0,7.9-6.5,14.2-14.4,14.2h-20l0,0C521.6,712.5,515.2,706.1,515,698.3z M504.5,618.6h-40.1v-71.6h14v58.1h26.1V618.6z
		 M515.4,764.8c31.9,0,40.9-2.9,50.5-4.8c-8.8,3.6-23.4,9.2-54.9,9.2c-8.1,0-15.9-0.8-23.8-2.1l0,0l-0.2,0.2
		c7.5,7.1,22.1,14.4,29.9,17.5l4,1.5l-4-0.8c-9.8-1.5-29.7-11.1-40.5-20.3l-0.6-0.2c-17.8-4-33.2-9.6-48.5-9.6
		c-20,0-34.2,4.4-41.4,24.4c-0.6-4-0.2-8.1,1.2-11.9l0,0l-0.2-0.2c-3.6-2.7-18.6-11.7-33.2-11.7c-22.1,0-50.1,24.8-72,27.1
		c10.4-3.5,22.3-11.3,34.2-18.6v-0.2c-20.1-4-45.3,0.2-72.1,7.1c25.7-10.2,51.8-15.4,79.1-11.3h0.6c10.2-5.8,20.3-10.4,29.7-10.4
		c13,0.6,25.7,4.6,36.6,11.9h0.2c6.9-10.2,21.3-14.4,36.3-14.4C449.6,747.2,486.3,765,515.4,764.8z M465.7,654.5v15.4h22.1v13.4
		h-22.1v29.2h-14v-71.6h44.9v13.4L465.7,654.5z M307.4,618.6h-14v-33.2L280.8,614l-12.5-28.6v33.2h-14v-71.6h11.1l15.4,35.9
		l15.7-35.9h11.1v71.6H307.4z M181,441.7c-10.2-11.1-18.8-20.1-26.5-27.8l-0.8-0.2h-2.3c-20.5,0-40.7-5.6-58.1-16.5v-0.6
		c15.2,7.7,32,11.9,49.1,12.3c2.1,0,4.4-0.2,6.7-0.2c-4-4-7.5-7.5-10.9-10.6c-20.3-19.8-39.7-40.5-58.1-62l0.2-0.2
		c19.2,20.1,35.9,36.6,50.8,50.5h0.2c1.9-12.3,0.8-24.8-3.3-36.6l0.2-0.2c6.1,12.5,8.6,26.3,7.1,40.1c0,0.6,0.4,1.2,0.8,1.3
		c13.4,12.3,26.5,24.2,38.2,36.1h0.2c0.2-16.3-4.8-32.4-14-45.9l0.6-0.2c12.1,14.2,19,32.2,19.2,50.8c0,0.6,0.2,1.2,0.6,1.5l5.6,5.6
		l0.2,0.6l-0.6,0.6l-4.8,2.3H181L181,441.7z M394.5,699h22.3l3.3,13.4h14.6l-19.4-71.6h-19.2l-19.6,71.6h14.6L394.5,699z
		 M405.7,655.7l7.7,29.7H398L405.7,655.7z M203.2,483.5l31.5,61c-4.2,2.1-8.4,4.2-12.7,6.7l-31.5-61l-1.2,0.6
		c-5.4,2.9-10.6,5.8-15.9,8.4l-6.3-11.9c15.4-8.4,31.1-16.7,47-24.4l6.3,12.3c-5.6,2.7-10.9,5.4-16.5,7.9L203.2,483.5z M267.9,529
		c1.9,0,3.6-0.4,5.4-1.2c6.3-2.1,12.7-4.2,19.2-6.3c3.8-1.2,7.1-4,9-7.7c1.9-3.6,2.1-7.9,0.8-11.7l-16.1-48.5
		c-2.3-6.5-8.4-10.7-15.4-10.9c-1.5,0-3.3,0.2-4.8,0.8c-6.3,2.1-12.7,4.2-19.2,6.3c-8.1,3.1-12.3,11.9-9.6,20.1l16.5,48.5
		C255.8,524.8,261.4,528.8,267.9,529z M256.2,461.3L256.2,461.3c2.9-1.2,5.9-2.1,8.8-3.3c0.8,0,1.3-0.2,2.1-0.2c2.7,0,5,1.7,5.8,4.2
		l13.8,40.3c0.6,1.5,0.4,3.3-0.6,4.8c-0.8,1.3-1.9,2.5-3.5,2.9c-2.9,1.2-5.8,2.1-8.8,3.3c-0.8,0-1.3,0.2-2.1,0.2
		c-2.7,0-5-1.7-5.8-4.2L252.6,469C251.4,465.9,253.1,462.4,256.2,461.3z M268.3,640.9V699h27.8v13.4h-41.8v-71.6H268.3z M654.2,417
		v0.2h0.2c2.1,0.2,4,0.4,6.1,0.2c15.4-0.2,30.7-3.8,44.5-10.4l0.2,0.6c-16.9,10-36.1,15.4-55.6,15.2c-0.6,0-1.2,0.2-1.5,0.8
		c-6.1,6.3-11.3,11.9-16.1,16.9l-0.6,0.2h-0.6l-5-2.7l-0.2-0.6l0,0l0.2-0.2c12.7-13.2,26.9-26.9,41.8-40.3l0,0
		c0.6-0.4,0.8-1,0.6-1.5c-1.3-14.6,0.6-29.2,5.4-43h0.6c-2.7,13-3.1,26.5-1.3,39.7h0.2c19.6-18.6,38.2-36.6,56-54.7l0.6,0.2
		c-15.4,17.8-31.9,35.9-49.3,53.3C671.6,399.5,662.8,408.3,654.2,417z M419.1,504.1L419.1,504.1c8.4,0.2,15.5-6.7,15.7-15.4v-0.2
		v-51.2c-0.2-8.6-7.1-15.5-15.7-15.9H399c-8.6,0.4-15.5,7.3-15.7,15.9v51.2c0,8.4,6.9,15.4,15.4,15.4
		C400.3,504.1,408,503.7,419.1,504.1z M398.2,483.9v-42.4c0-3.3,2.5-6.1,5.9-6.1h0.2h9.2c3.5,0,6.1,2.7,6.3,6.1v42.4
		c0,3.5-2.9,6.3-6.3,6.3h-9.2C400.9,490.3,398.2,487.4,398.2,483.9L398.2,483.9z M443.3,583.3v-22.3c0-7.7-6.1-14-13.8-14h-0.2
		h-31.1v71.6h14v-20.9h16.9C437,597.5,443.3,591.2,443.3,583.3z M429.3,579.9c0,2.3-1.7,4.2-4.2,4.2h-0.2h-12.7v-23.8h12.7
		c2.5,0,4.2,2.1,4.2,4.4v15.2H429.3z M336.4,510.6l-4-24.4l1.2-0.2c1.9-0.2,4-0.6,5.8-0.8l0.8-0.2l0.2,0.6
		c5.4,7.5,10.4,14.6,15.7,22.1c4.8-0.8,9.2-1.3,14-2.1c-5.4-7.1-10.4-14.6-15.4-21.7l-0.8-1.2l1.2-0.6c6.5-2.7,10.4-9.4,9.2-16.5
		l-4.2-25.9c-1.3-7.7-7.9-13.4-15.7-13.4c-0.8,0-1.5,0-2.3,0.2c-10.9,1.5-22.1,3.5-33.2,5.6l13.2,81.2
		C326.8,512.3,331.6,511.4,336.4,510.6z M326.2,442.7c4.4-0.8,8.8-1.5,13-2.1c3.3-0.6,6.5,1.7,7.1,5l2.9,17.5
		c0.2,1.7-0.2,3.3-1.2,4.8c-1,1.3-2.5,2.1-4.2,2.3c-4.2,0.6-8.4,1.3-12.7,2.1l-1.3,0.2l-4.8-29.9h1.2V442.7z M636.1,479.3
		L636.1,479.3c-5.8-3.3-11.9-6.3-17.8-9.2c-2.1-1-4.4-1.5-6.9-1.5c-5.9-0.2-11.5,3.3-14.4,8.4l-23.4,45.3c-1.9,3.6-2.1,7.9-0.8,11.7
		c1.2,4,4,7.3,7.7,9c6.1,3.3,11.9,6.1,18,9.2c2.1,1.3,4.6,1.9,7.1,1.9c5.8,0,10.9-3.1,13.4-8.3l23.6-45.3
		C646.7,492.9,643.8,483.4,636.1,479.3z M627.7,497.2L627.7,497.2L608.3,535c-1,2.1-3.3,3.5-5.6,3.5c-1,0-2.1-0.4-2.9-0.8
		c-2.7-1.3-5.6-2.9-8.3-4.2c-1.5-0.8-2.5-2.1-2.9-3.6c-0.6-1.5-0.6-3.3,0.2-4.8l19.6-37.6c1-2.1,3.3-3.5,5.6-3.5
		c1,0,1.9,0.4,2.7,0.8c2.9,1.3,5.6,2.9,8.3,4.2C628.1,490.5,629.2,494.1,627.7,497.2z"/>
	<path class="st1" d="M429.3,564.7v15.2c0,2.3-1.7,4.2-4.2,4.2h-0.2h-12.7v-23.8h12.7C427.4,560.3,429.3,562.4,429.3,564.7z
		 M346.2,591.6h13.2l-6.7-29.7L346.2,591.6z M271.9,513.7c0.8,0,1.3-0.2,2.1-0.2c2.9-1.2,5.8-2.1,8.8-3.3c1.5-0.4,2.7-1.5,3.5-2.9
		c0.8-1.5,1-3.3,0.6-4.8l-13.8-40.3c-0.8-2.5-3.1-4.2-5.8-4.2c-0.8,0-1.3,0.2-2.1,0.2c-2.9,1.2-5.8,2.1-8.8,3.3l0,0
		c-3.1,1.2-4.8,4.6-3.6,7.7l13.4,40.3C266.9,511.8,269.2,513.5,271.9,513.7z M331.4,472.4c4.2-0.8,8.4-1.5,12.7-2.1
		c1.7-0.2,3.3-1,4.2-2.3c1-1.3,1.3-3.1,1.2-4.8l-2.9-17.5c-0.6-3.3-3.8-5.6-7.1-5c-4.2,0.6-8.4,1.3-13,2.1h-1.2l4.8,29.9
		L331.4,472.4z M625,488.9c-2.7-1.3-5.4-2.9-8.3-4.2c-0.8-0.6-1.7-0.8-2.7-0.8c-2.3,0-4.6,1.3-5.6,3.5L588.9,525
		c-0.8,1.5-0.8,3.3-0.2,4.8c0.4,1.5,1.5,2.9,2.9,3.6c2.7,1.3,5.6,2.9,8.3,4.2c1,0.4,1.9,0.8,2.9,0.8c2.3,0,4.6-1.3,5.6-3.5
		l19.4-37.6l0.2-0.2C629.2,494.1,628.1,490.5,625,488.9z M800.2,360.6l-0.2,0.6c-6.7,11.5-14.2,22.5-22.5,32.8
		c-7.5,9.2-15.9,17.8-24.9,25.5c7.1,4.2,13.4,9.4,19.4,15.2c0.8,0.8,1.2,1.7,1.2,2.7c0,1.2-0.4,2.1-1.2,2.9
		c-11.7,11.5-23.8,22.5-36.6,32.6c-12.5,10.2-25.5,19.4-38.8,28.2c9.6,7.1,18.2,15.5,25.9,24.8c1.3,1.5,1.2,4-0.6,5.4
		c-10.2,9-20.9,17.3-32.4,24.4c-11.5,7.1-23.4,13.2-35.9,18.2c8.6,6.5,16.3,14.2,23,22.5c0.8,0.8,1.2,2.1,0.8,3.3
		c-0.2,1.2-1,2.3-2.1,2.7c-19.2,9.4-39.5,15.9-60.4,19.6c27.6,9,54.5,20.7,79.8,34.9c1.2,0.6,1.9,1.9,2.1,3.3c0,1.3-0.6,2.7-1.5,3.5
		c-22.8,16.7-41.8,28.2-61.8,36.1c30.5,25.3,57.2,54.7,79.6,87.5c1,1.2,1.2,2.9,0.2,4.2c-0.6,1.3-1.9,2.1-3.5,2.1l-0.6-0.2
		c-29-3.3-57.8-8.4-86.2-15.7c4.8,10.2,9.6,21.5,14,33.2c0.4,1.3,0.2,2.7-0.6,3.6s-1.9,1.5-3.3,1.5h-0.6
		c-24.9-2.3-49.9-5.9-74.5-11.1c8.1,13.4,14.6,27.8,19.2,43c0.6,1.2,0.4,2.7-0.6,3.6c-0.8,1-1.9,1.5-3.3,1.5l-0.8-0.2
		c-27.1-5.4-53.7-12.5-80-20.9c-25.7-8.3-49.5-16.9-65.8-24.2l-0.6-0.2c-0.8,0-1.3,0.4-1.5,1.2c-1.5,8.3,1.3,18.8,8.8,31.1
		c4.6,7.7,10,15,16.1,21.5v0.2c1.5,1.9,1.3,4.6-0.2,6.3l-27.1,24.8c-0.8,0.8-1.7,1.3-2.9,1.3c-1.3,0-2.5-0.6-3.5-1.3
		c-10.2-10.7-18.4-23-24.4-36.3c-3.3-7.1-5.8-14.6-7.7-22.3c-2.1-8.3-3.5-16.5-4-24.9c-21.1,10-43,18.4-65.2,25.5
		c-24.2,7.7-48.9,14-74.1,18.6h-0.8c-1.2,0-2.5-0.6-3.3-1.5c-0.6-1.2-0.8-2.3-0.6-3.5c4.4-15.2,10.9-29.6,19.4-43
		c-24.6,5-49.5,8.8-74.5,11.1h-0.6c-1.3,0-2.5-0.6-3.3-1.5c-0.8-1-1-2.5-0.6-3.6c4-11.3,8.6-22.5,14-33.2
		c-28.4,7.1-57.4,12.3-86.5,15.7h-0.6c-1.5,0-2.7-0.8-3.5-2.1c-0.6-1.3-0.6-2.7,0.2-4c22.5-32.6,49.3-62.2,79.6-87.9
		c-22.1-9.2-42.6-21.3-61.6-35.9c-1.2-0.8-1.7-2.1-1.5-3.5c0-1.3,0.6-2.5,1.9-3.3c25.5-14.4,52.4-26.1,80-34.9
		c-21.1-3.8-41.4-10.4-60.8-19.6c-1.2-0.4-1.9-1.5-1.9-2.7c-0.2-1.2,0-2.3,0.8-3.3c6.7-8.4,14.4-15.9,22.8-22.5
		c-12.3-5.2-24.2-11.3-35.5-18.2c-11.5-7.3-22.5-15.4-32.6-24.4c-1.5-1.3-1.9-3.6-0.6-5.4c7.9-9,16.5-17.3,25.9-24.8
		c-13.2-8.6-26.1-18-38.4-28.2c-12.9-10.2-25.1-21.1-36.8-32.6c-0.6-0.8-1-1.9-1.2-2.9c0-1,0.4-1.9,1.2-2.7
		c5.9-5.8,12.5-10.7,19.4-15.2c-9-7.7-17.3-16.3-24.8-25.5c-8.4-10.4-15.9-21.5-22.8-32.8c-0.6-1-0.6-2.1-0.2-3.3
		c0.4-1.2,1.3-1.9,2.3-2.3c10.6-4.2,21.7-7.1,32.8-9c-9-19.8-15.4-40.5-18.8-61.8c-0.2-1.2,0-2.3,0.8-3.3c0.6-1,1.7-1.5,2.9-1.5
		c0.4,0,0.8,0,1.2,0.2c21.7,6.1,42.8,14,63.1,23.8c2.7-13.4,7.1-26.5,13.2-38.8c0.8-1.3,1.9-2.1,3.5-2.1c0.8,0,1.7,0.4,2.3,0.8
		c10.4,7.5,20.1,15.5,29.7,24.2c8.8,7.9,17.3,16.1,25.1,24.9c4.4-6.9,10.2-12.7,16.7-17.5c0.8-0.6,1.5-0.8,2.3-0.8
		c1.2,0,2.1,0.6,2.9,1.3c23.8,29.7,60.3,70.2,100,99.2c-10.2-29.9-22.8-59.1-37.6-86.9c-0.6-1-0.8-2.3-0.2-3.5
		c0.6-1,1.5-1.7,2.7-2.1c6.7-1.3,13.4-2.1,20.1-2.3c-17.5-27.6-31.1-57.6-40.3-88.8c-0.2-1.2,0-2.5,0.8-3.5c0.6-1,1.7-1.5,2.9-1.5
		h0.2c16.3,0.8,32.2,3.8,47.8,8.8c-1.9-12.7-2.5-25.5-1.9-38.4c0.6-13.8,2.3-27.6,4.8-41.4c0.2-1.9,1.9-3.3,3.6-3.3
		c0.4,0,1,0,1.3,0.2c11.3,4.4,22.5,9.8,32.8,15.9c-0.6-11.7-0.2-23.4,0.8-34.9c1-11.9,2.9-23.8,5.6-35.5c0.4-1.7,1.9-2.9,3.6-2.9
		c0.4,0,1,0,1.3,0.2c8.8,3.3,17.3,7.3,25.1,12.3c8.4-24.9,22.3-48.5,35.5-70.6c1.3-1.9,3.8-2.5,5.8-1.2c0.4,0.4,1,0.8,1.2,1.2
		c8.8,14,14.8,25.1,20.3,35.5c5.8,11.3,10.9,23,15.4,34.9c7.9-5,16.1-9,24.9-12.3c0.4-0.2,1-0.2,1.3-0.2c1.7-0.2,3.5,1.2,3.6,2.9
		c2.9,11.7,4.8,23.6,5.8,35.5c1.2,11.7,1.3,23.4,0.6,34.9c10.6-6.3,21.5-11.5,32.8-15.9c0.4-0.2,1-0.2,1.3-0.2c1.9,0,3.5,1.3,4,3.3
		c2.5,13.6,4.2,27.4,4.8,41.4c0.6,12.9,0,25.7-1.9,38.4c15.5-5,31.5-7.9,47.8-8.8c1.3,0,2.5,0.6,3.3,1.5c0.8,0.8,1,2.1,0.6,3.3
		c-9.2,31.5-22.6,61.4-40.3,88.8c6.7,0.2,13.6,1.2,20.1,2.7c1.2,0.2,2.1,1,2.7,2.1c0.6,1.2,0.6,2.3,0,3.5
		c-13.8,27.1-28.2,56.2-38,86.7c43.6-31.9,76.4-69.5,100-99c0.8-0.8,1.9-1.3,3.3-1.3c0.8,0,1.5,0.2,2.1,0.8
		c6.7,4.6,12.3,10.6,16.7,17.5c7.9-8.8,16.3-17.3,25.1-25.1c9.2-8.3,19.4-16.1,29.7-23.8c0.8-0.6,1.5-0.8,2.3-0.8
		c1.3,0,2.7,0.8,3.5,1.9c6.5,12.3,10.9,25.3,13.2,39c20.3-9.8,41.4-18,63.1-24.2h1.2c1.2,0,2.1,0.4,2.9,1.3s1.2,2.1,1.2,3.3
		c-3.6,21.3-10.2,42-19.2,61.8c11.3,1.7,22.3,4.8,32.8,9C800,355.9,801.1,358.4,800.2,360.6z M549,457.1l-21.7,65
		c4.4,1.5,9.2,2.9,13.8,4.4l21.7-65l1.2,0.2c5.6,2.1,11.3,4,16.9,6.1l4.4-13c-16.5-5.8-33.4-11.7-50.1-16.7l-4.2,13
		c5.6,1.9,11.3,3.6,17.3,5.6L549,457.1z M522.5,618.6H564v-13.4h-27.2v-15.7h18.6V576h-18.6v-15.7H564v-13.2h-41.4V618.6z
		 M515,698.3c0,7.9,6.5,14.2,14.4,14.4l0,0h20.1c7.9,0,14.2-6.3,14.4-14.2v-0.2v-10.2c0.4-5.2-2.3-10.2-6.9-12.7l-25.1-11.1
		c-1.3-0.8-2.3-2.3-2.3-4v-1.5c0-2.3,1.7-4.2,4.2-4.2h0.2h11.7c2.5,0,4.4,1.9,4.4,4.2v2.9h14v-6.7c0-7.9-6.5-14.2-14.4-14h-20.3
		c-7.9,0-14.2,6.1-14.4,14v7.5c-0.4,5.2,2.3,10.2,6.9,12.7l25.5,11.1c1.3,1,2.1,2.3,2.3,4v4.4c0,2.5-2.1,4.2-4.4,4.2h-11.7
		c-2.3,0-4.2-1.7-4.2-4.2v-0.2v-2.9H515V698.3z M490.3,472.8c-5.4-15.7-10.6-31.3-15.9-47c-3.6-0.6-7.5-1.2-11.3-1.5l0,0l-13.8,81.2
		c4.8,0.8,9.6,1.5,14.4,2.1l7.9-46.6l1.3,4.2c5.4,15.4,10.6,31.3,15.9,46.6c3.6,0.8,7.5,1.5,11.3,2.3l13.4-81.2
		c-4.4-1.2-9.2-1.9-14-2.9l-7.9,46.6L490.3,472.8z M465.7,669.9v-15.4h30.7v-13.4h-44.9v71.6h14v-29.2h22.1v-13.4h-21.9V669.9z
		 M504.5,618.6v-13.4h-25.9v-58.1h-14v71.6H504.5z M326.2,281.7c18.6,32,44.7,59.3,75.8,79.2l0.2,0.6c0.2,10.4,0.6,19.6,0.8,29
		c0,0.2,0.2,0.6,0.8,0.6h7.1l0.6-0.2l0.2-0.6c-0.2-6.3-0.6-13-0.8-19.4l0.2-0.8c34.7-26.3,62-56.8,75-83.9l-0.6-0.2
		c-15.9,26.9-41.1,52.6-74.5,76.4l-0.6-0.2c-1.3-40.9-1.3-74.8,0-103.2c0-4,0.2-7.9,0.2-12.5c0-0.6,0.2-0.8,0.8-1.2
		c15.4-8.8,29.2-20,41.1-32.8l-0.2-0.2c-12.5,11.1-26.1,20.5-40.9,28.4l-0.6-0.2v-0.2c0.8-50.7-0.2-109.6-2.9-137.4h-0.2
		c0.2,29.4-0.2,59.7-1.2,89.6l-0.2,0.2l0,0h0.2c-12.5-13-23.6-27.2-33.2-42.4h-0.6c9.2,17.5,20.3,33.8,33.2,48.7
		c0.6,0.4,0.8,1.2,0.8,1.9c-0.8,19.6-1.5,38.8-2.9,57.4c-0.2,6.3-0.6,13.2-0.8,21.3l-0.6,0.2c-16.3-11.9-30.3-26.9-41.4-43.7
		l-0.2,0.2c10,19,24,35.7,41.1,48.5c0.6,0.4,1,1.2,0.8,1.9c-0.6,22.3-0.8,44.5-0.6,66.8v0.2H402c-30.1-18.2-55.8-42.8-75.4-72.1
		L326.2,281.7z M328.7,669.9v-15.4h30.7v-13.4h-44.9v71.6h44.9v-13.4h-30.7v-15.7h22.1v-13.4h-22.1V669.9z M362.3,605l3.3,13.4H380
		l-17.5-71.6h-19.2l-17.8,71.6h14.6l2.9-13.4H362.3z M376.5,712.5h14.6l3.5-13.4h22.3l3.3,13.4h14.6l-19.4-71.6h-19.2L376.5,712.5z
		 M398.8,504.1c1.5,0,9.2-0.2,20.3,0l0,0c8.4,0.2,15.5-6.7,15.7-15.4v-0.2v-51.2c-0.2-8.6-7.1-15.5-15.7-15.9H399
		c-8.6,0.4-15.5,7.3-15.7,15.9v51.2C383.4,497.2,390.1,504.1,398.8,504.1z M443.3,583.3v-22.3c0-7.7-6.1-14-13.8-14h-0.2h-31.1v71.6
		h14v-20.9h16.9C437,597.5,443.3,591.2,443.3,583.3z M308.8,431.9l13.2,81.2c4.8-0.8,9.6-1.5,14.4-2.3l-4-24.4l1.2-0.2
		c1.9-0.2,4-0.6,5.8-0.8l0.8-0.2l0.2,0.6c5.4,7.5,10.4,14.6,15.7,22.1c4.8-0.8,9.2-1.3,14-2.1c-5.4-7.1-10.4-14.6-15.4-21.7
		l-0.8-1.2l1.2-0.6c6.5-2.7,10.4-9.4,9.2-16.5L360,440c-1.3-7.7-7.9-13.4-15.7-13.4c-0.8,0-1.5,0-2.3,0.2
		C331,427.9,319.9,429.8,308.8,431.9z M268.3,699v-58.1h-14v71.6h41.8V699H268.3z M307.4,618.6v-71.6h-11.1l-15.7,35.9l-15.4-35.9
		h-11.1v71.6h14v-33.2l12.5,28.6l12.7-28.6v33.2H307.4z M181,441.7l0.6,0.2h0.2l4.8-2.3l0.6-0.6l-0.2-0.6l-5.6-5.6
		c-0.4-0.6-0.4-1-0.6-1.5c-0.2-18.6-6.9-36.6-19.2-50.8l-0.6,0.2c9.4,13.4,14.2,29.6,14,45.9h-0.2c-11.7-11.9-24.8-23.8-38.2-36.1
		c-0.6-0.2-0.8-0.8-0.8-1.3c1.5-13.8-1-27.6-7.1-40.1l-0.2,0.2c4,11.7,5,24.4,3.3,36.6h-0.2c-15.2-13.8-31.9-30.3-50.8-50.5
		l-0.2,0.2c18.2,21.7,37.6,42.4,58.1,62c3.5,3.3,6.9,6.7,10.9,10.6c-2.1,0-4.4,0.2-6.7,0.2c-17.1-0.4-33.8-4.4-49.1-12.3v0.6
		c17.5,10.7,37.6,16.5,58.1,16.5h2.1l0.8,0.2C162.2,421.6,170.8,430.6,181,441.7z M234.7,544.6l-31.5-61l0.8-0.6
		c5.6-2.7,10.9-5.4,16.5-7.9l-6.3-12.3c-15.9,7.7-31.5,15.9-47,24.4l6.3,11.9c5.4-2.7,10.6-5.6,15.9-8.4l1.2-0.6l31.5,61
		C226.3,548.8,230.5,546.7,234.7,544.6z M237.2,470.1l16.5,48.5c2.1,6.1,7.9,10.2,14.4,10.4c1.9,0,3.6-0.4,5.4-1.2
		c6.3-2.1,12.7-4.2,19.2-6.3c3.8-1.2,7.1-4,9-7.7c1.9-3.6,2.1-7.9,0.8-11.7l-16.1-48.5c-2.3-6.5-8.4-10.7-15.4-10.9
		c-1.5,0-3.3,0.2-4.8,0.8c-6.3,2.1-12.7,4.2-19.2,6.3C238.5,452.8,234.3,461.9,237.2,470.1z M565.7,760.1
		c-9.6,1.9-18.6,4.8-50.5,4.8c-29.2,0.2-65.8-17.5-89.4-17.5c-15.2,0-29.4,4.2-36.3,14.4h-0.2c-10.9-7.3-23.6-11.3-36.6-11.9
		c-9.2,0-19.6,4.6-29.7,10.4h-0.6c-27.2-4-53.3,1.3-79.1,11.3c26.9-6.9,52-11.1,72.1-7.1v0.2c-11.9,7.1-23.8,15.2-34.2,18.6
		c21.7-2.3,49.9-27.1,72-27.1c14.6,0,29.4,9,33.2,11.7l0.2,0.2l0,0c-1.2,3.8-1.5,7.9-1.2,11.9c7.1-20,21.5-24.4,41.4-24.4
		c15.4,0,30.7,5.6,48.5,9.6l0.6,0.2c10.9,9.2,30.7,18.8,40.5,20.3l4,0.8l-4-1.5c-7.9-3.3-22.5-10.4-29.9-17.5l0.2-0.2l0,0
		c7.9,1.3,15.9,2.1,23.8,2.1C542.5,769.3,557.1,763.7,565.7,760.1z M636.1,479.3L636.1,479.3c-5.8-3.3-11.9-6.3-17.8-9.2
		c-2.1-1-4.4-1.5-6.9-1.5c-5.9-0.2-11.5,3.3-14.4,8.4l-23.4,45.3c-1.9,3.6-2.1,7.9-0.8,11.7c1.2,4,4,7.3,7.7,9
		c6.1,3.3,11.9,6.1,18,9.2c2.1,1.3,4.6,1.9,7.1,1.9c5.8,0,10.9-3.1,13.4-8.3l23.6-45.3C646.7,492.9,643.8,483.4,636.1,479.3z
		 M654.2,417.3v-0.2c8.8-8.8,17.5-17.5,25.9-25.7c17.5-17.5,34-35.5,49.3-53.3l-0.6-0.2c-17.8,18-36.3,36.1-56,54.7h-0.2
		c-1.7-13.2-1.3-26.7,1.3-39.7h-0.6c-4.8,13.8-6.5,28.4-5.4,43c0.4,0.6,0,1.3-0.6,1.5l0,0c-15.2,13.4-29.2,27.1-41.8,40.3l-0.2,0.2
		l0,0l0.2,0.6l5,2.7h0.6l0.6-0.2c4.8-5,10.2-10.6,16.1-16.9c0.4-0.6,1-0.8,1.5-0.8c19.6,0.2,39-5.2,55.6-15.2l-0.2-0.6
		c-14,6.5-29.2,10.2-44.5,10.4c-2.1,0-4,0-6.1-0.2l0,0V417.3z M404.3,490.3h9.2c3.5,0,6.3-2.9,6.3-6.3v-42.4
		c-0.2-3.5-2.9-6.1-6.3-6.1h-9.2h-0.2c-3.3,0-5.9,2.9-5.9,6.1v42.4l0,0C398.2,487.4,400.9,490.3,404.3,490.3z M405.7,655.7
		l-7.7,29.7h15.4L405.7,655.7z"/>
</g>
</svg>
