<?xml version="1.0" encoding="utf-8"?>
<!-- Generator: Adobe Illustrator 25.0.0, SVG Export Plug-In . SVG Version: 6.00 Build 0)  -->
<svg version="1.1" id="Layer_1" xmlns:svg="http://www.w3.org/2000/svg"
	 xmlns="http://www.w3.org/2000/svg" xmlns:xlink="http://www.w3.org/1999/xlink" x="0px" y="0px" viewBox="0 0 782.9 782.9"
	 style="enable-background:new 0 0 782.9 782.9;" xml:space="preserve">
<style type="text/css">
	.st0{fill:#FFFFFF;}
	.st1{fill:#FF4C00;}
	.st2{fill:#041E42;}
</style>
<g>
	<path class="st0" d="M391.5,0C175.6,0,0,175.6,0,391.4c0,215.9,175.6,391.5,391.5,391.5c215.8,0,391.4-175.6,391.4-391.5
		C782.9,175.6,607.3,0,391.5,0z M454.6,155.1c0,30.2-25,59.6-63.1,59.6c-38.2,0-63.2-29.4-63.2-59.6c0-44.2,38.4-67.9,63.2-129.7
		C416.2,87.2,454.6,110.9,454.6,155.1z M391.5,764.9c-206.2,0-373.4-167.2-373.4-373.4C18.1,192.5,173.7,30,369.7,18.8L326.4,87
		c-18.5,29.1-21.5,53.5-21.5,66.9c0,51.4,45.5,85.2,86.7,85.2c41,0,86.6-33.9,86.6-85.2c0-13.4-3.1-37.8-21.5-66.9l-43.3-68.2
		c196,11.2,351.6,173.8,351.6,372.6C764.9,597.6,597.6,764.9,391.5,764.9z M478.9,63.5c14.3,19.9,32.9,48.7,32.9,89
		c0,62.7-53,121.3-120.3,121.3c-67.4,0-120.4-58.6-120.4-121.3c0-40.3,18.6-69.1,33-89C159.1,102,52.1,234.3,52.1,391.4
		c0,187.4,152,339.4,339.4,339.4c187.3,0,339.3-152,339.3-339.4C730.9,234.3,624,102,478.9,63.5z M176.4,620.1
		c-37.5-43.2-61.6-95-66.2-159.8V333.9c0-18.4,7-42.8,33.6-42.8h25.6c12.8,0,33.8,3.9,33.8,32.1v282
		C203.3,628.3,188.8,634.3,176.4,620.1z M243,679.4c-20.7-11.8-39.1-26.5-55.4-44.4c0,0,6.1,2.1,13-1.8c7.4-4.4,9.8-14.3,9.8-19.9
		V484.4c7,0,12.6-7.9,12.6-14.7V357c0-10.4-6.1-15-12.4-15v-50.4h53V342c-5.9,0-12.5,6-12.5,15v112.4c0,8.1,4.6,15,10.3,15v181
		C261.3,677.4,252,684.6,243,679.4z M333.4,713.9c-29.5-4.6-53.1-14.5-78.3-28.1c0,0,12.6-2.2,12.6-15.3V484.4
		c7.1,0,14.6-6.7,14.6-15V357c0-9.9-6.1-15-12-15v-50.4h57.3V342c-6.2,0-16.6,5.1-16.6,15c0,4.7-0.1,106.6,0,110.9
		c0.2,10,0.5,16.6,11,16.6c10.2,0,11.6-4.7,11.6-15.7v-36.6h24.3v261C357.8,707.3,347.1,716.1,333.4,713.9z M431.3,716.5
		c-14.4,2.3-26.8,2.9-40.6,2.9c-12,0-29.4-0.7-41-2c0,0,14.5-3.5,14.5-23V484.4c6.1,0,9.4-6.4,9.4-15c0,0,0.3-104.7,0-112.4
		c0-9-5.9-15-20.5-15v-50.1h105.6v82.1h-26.8v-16.5c0-7.2-1.2-15.8-10.7-15.8c-11.4,0-13.3,7.6-13.3,17.4c0,1.5,0,12.9,0,25.7h26.5
		v36.8h-26.5c0,19.3,0,44.1,0,45.8c0.1,10.8,0.5,17.9,11,17.9c10.2,0,11.6-4.9,11.6-17.9c0-16.1,0-34.8,0-34.8h27.8v255
		C458.2,703.3,446.4,714,431.3,716.5z M578.7,621.8c-0.5,21.3-2,27.6-6.7,31.9c-14,12.8-24.3,19.3-42.2,29.6
		c0.9-0.7,3.5-4.6,3.2-25.1V431.3c0-9.9-4.1-16.7-11.4-16.7c-9,0-11.4,7.8-11.4,15v39.8c0,9,8.7,15.3,15.8,15.3
		c0,3.5,0,174.7,0,178.6c0,13.3-3.5,24.8-12.5,28.7c-16.9,7.2-40,15.8-58.4,20c0,0,10-6.4,9.7-34.6c0-6,0-186.1,0-193
		c6.8,0,13.7-6.4,13.7-15v-112c0-8.9-7.6-15.4-12.4-15.4v-50.4h75.2c15.3,1.7,26.2,7.2,26.2,29.5v47c0,5.6,1.7,20.1-5.6,26.1
		c-7.3,5.9-5.9,5.5-5.9,5.5s10.7,5.1,10.7,17.6v52.1c0,8.4,4.7,15.1,11.9,15.1V621.8z M616.3,354.4v26.1c0,4.2,2.7,6.8,6.4,9.8
		c5.9,4.7,36.6,29.5,36.6,29.5c3.5,3.8,11.1,7.7,11.1,22.2c0,11.9,1.9,50.7-14.9,91.1c-16.6,39.7-35.9,70.9-70.5,109.3V433.9h28.3
		V474c0.4,14.9,23.9,13.3,23.9,2.1V448c0-4.7,0-6-2.6-8.2c-2.6-2.1-39.7-32-42.8-34.1c-3-2.1-4.7-5.6-4.7-14.1V313
		c0.5-10.3,5.8-21.4,22.1-21.4H649c15.4,1.7,23.7,6.8,23.7,26.1v57.2h-32.9v-20C639.8,338.1,616.3,337.7,616.3,354.4z M169.1,354.6
		V471c0,18.8-26.5,19.7-26.5,0.8V355.4C142.5,337.4,167.8,336.6,169.1,354.6z M532.8,353.8c0.6,8.9,0,7.4,0,21
		c0,15.1-21.1,15.7-21.1,0.7v-21.1C511.7,338.7,531.8,338.1,532.8,353.8z"/>
	<path class="st1" d="M391.5,25.4c-24.8,61.8-63.2,85.5-63.2,129.7c0,30.2,25,59.6,63.2,59.6c38.1,0,63.1-29.4,63.1-59.6
		C454.6,110.9,416.2,87.2,391.5,25.4z"/>
	<path class="st2" d="M413.3,18.8L456.5,87c18.5,29.1,21.5,53.5,21.5,66.9c0,51.4-45.5,85.2-86.6,85.2c-41.1,0-86.7-33.9-86.7-85.2
		c0-13.4,3.1-37.8,21.5-66.9l43.3-68.2C173.7,30,18.1,192.5,18.1,391.4c0,206.2,167.2,373.4,373.4,373.4
		c206.1,0,373.3-167.2,373.3-373.4C764.9,192.5,609.3,30,413.3,18.8z M391.5,730.9c-187.4,0-339.4-152-339.4-339.4
		c0-157.1,107-289.4,252.1-327.9c-14.4,19.9-33,48.7-33,89c0,62.7,53,121.3,120.4,121.3c67.3,0,120.3-58.6,120.3-121.3
		c0-40.3-18.6-69.1-32.9-89c145.1,38.5,252,170.8,252,327.9C730.9,578.8,578.8,730.9,391.5,730.9z M243,679.4
		c-20.7-11.8-39.1-26.5-55.4-44.4c0,0,6.1,2.1,13-1.8c7.4-4.4,9.8-14.3,9.8-19.9V484.4c7,0,12.6-7.9,12.6-14.7V357
		c0-10.4-6.1-15-12.4-15v-50.4h53V342c-5.9,0-12.5,6-12.5,15v112.4c0,8.1,4.6,15,10.3,15v181C261.3,677.4,252,684.6,243,679.4z
		 M333.4,713.9c-29.5-4.6-53.1-14.5-78.3-28.1c0,0,12.6-2.2,12.6-15.3V484.4c7.1,0,14.6-6.7,14.6-15V357c0-9.9-6.1-15-12-15v-50.4
		h57.3V342c-6.2,0-16.6,5.1-16.6,15c0,4.7-0.1,106.6,0,110.9c0.2,10,0.5,16.6,11,16.6c10.2,0,11.6-4.7,11.6-15.7v-36.6h24.3v261
		C357.8,707.3,347.1,716.1,333.4,713.9z M458.2,687.5c0,15.8-11.7,26.5-26.8,29c-14.4,2.3-26.8,2.9-40.6,2.9c-12,0-29.4-0.7-41-2
		c0,0,14.5-3.5,14.5-23V484.4c6.1,0,9.4-6.4,9.4-15c0,0,0.3-104.7,0-112.4c0-9-5.9-15-20.5-15v-50.1h105.6v82.1h-26.8v-16.5
		c0-7.2-1.2-15.8-10.7-15.8c-11.4,0-13.3,7.6-13.3,17.4c0,1.5,0,12.9,0,25.7h26.5v36.8h-26.5c0,19.3,0,44.1,0,45.8
		c0.1,10.8,0.5,17.9,11,17.9c10.2,0,11.6-4.9,11.6-17.9c0-16.1,0-34.8,0-34.8h27.8V687.5z M639.8,374.9v-20
		c0-16.7-23.5-17.2-23.5-0.5v26.1c0,4.2,2.7,6.8,6.4,9.8c5.9,4.7,36.6,29.5,36.6,29.5c3.5,3.8,11.1,7.7,11.1,22.2
		c0,11.9,1.9,50.7-14.9,91.1c-16.6,39.7-35.9,70.9-70.5,109.3V433.9h28.3V474c0.4,14.9,23.9,13.3,23.9,2.1V448c0-4.7,0-6-2.6-8.2
		c-2.6-2.1-39.7-32-42.8-34.1c-3-2.1-4.7-5.6-4.7-14.1V313c0.5-10.3,5.8-21.4,22.1-21.4H649c15.4,1.7,23.7,6.8,23.7,26.1v57.2H639.8
		z M203.3,605.2v-282c0-28.2-21-32.1-33.8-32.1h-25.6c-26.5,0-33.6,24.4-33.6,42.8v126.4c4.6,64.7,28.7,116.6,66.2,159.8
		C188.8,634.3,203.3,628.3,203.3,605.2z M169.1,471c0,18.8-26.5,19.7-26.5,0.8V355.4c0-18,25.3-18.8,26.5-0.8V471z M566.8,469.3
		v-52.1c0-12.5-10.7-17.6-10.7-17.6s-1.3,0.4,5.9-5.5c7.4-6,5.6-20.5,5.6-26.1v-47c0-22.3-10.9-27.8-26.2-29.5h-75.2V342
		c4.8,0,12.4,6.5,12.4,15.4v112c0,8.6-6.8,15-13.7,15c0,6.8,0,186.9,0,193c0.3,28.2-9.7,34.6-9.7,34.6c18.4-4.2,41.4-12.8,58.4-20
		c9-3.9,12.5-15.4,12.5-28.7c0-3.9,0-175.1,0-178.6c-7.1,0-15.8-6.3-15.8-15.3v-39.8c0-7.2,2.5-15,11.4-15c7.3,0,11.4,6.8,11.4,16.7
		v226.8c0.3,20.5-2.2,24.4-3.2,25.1c17.9-10.3,28.2-16.8,42.2-29.6c4.7-4.3,6.2-10.5,6.7-31.9V484.4
		C571.5,484.4,566.8,477.7,566.8,469.3z M532.8,374.9c0,15.1-21.1,15.7-21.1,0.7v-21.1c0-15.7,20.1-16.3,21.1-0.6
		C533.4,362.7,532.8,361.2,532.8,374.9z"/>
</g>
</svg>
