<?xml version="1.0" encoding="utf-8"?>
<!-- Generator: Adobe Illustrator 25.0.0, SVG Export Plug-In . SVG Version: 6.00 Build 0)  -->
<svg version="1.1" id="Layer_1" xmlns="http://www.w3.org/2000/svg" xmlns:xlink="http://www.w3.org/1999/xlink" x="0px" y="0px"
	 viewBox="0 0 830.2 928" style="enable-background:new 0 0 830.2 928;" xml:space="preserve">
<style type="text/css">
	.st0{fill:#FFFFFF;}
	.st1{fill:#041E42;}
	.st2{fill:#B99758;}
	.st3{fill:#C8102E;}
</style>
<g id="XMLID_1_">
	<path class="st0" d="M823.8,93.3C706.8,32.2,565.4,0,415.2,0C264.8,0,123.6,32.2,6.4,93.3L0,96.4v178.3c0,47.5,7,172.7,69.5,308.5
		C140.1,735.7,241.6,838,409.6,925.1l5.6,2.9l5.4-2.9c168-87.1,269.5-189.4,340.1-341.9c62.9-136,69.5-261,69.5-308.5V96.4
		L823.8,93.3z M818.4,274.7c0,46.8-6.8,169.8-68.5,303.8c-75.7,164.3-187.4,260-334.7,336.4C266.4,837.6,155.4,741.5,80.3,578.4
		C18.6,444.5,11.8,321.5,11.8,274.7V103.6c125.5-65.4,268.7-91.8,403.4-91.8c136,0,278.6,26.6,403.2,91.8L818.4,274.7L818.4,274.7z
		 M208,545c36.5,25.8,92.9,48.9,92.9,48.9c-25.4,2.3-50.6,7.8-74.5,16.9c-12.6-10.3-21.9-23.9-27-39.2
		C199.8,561.9,202.9,552.8,208,545z M203.1,528.7c-7,7.8-13.4,16.3-19.2,25.2c-9.7-16.9-17.7-34.7-24.4-53l11.8-30.1
		c2.3,3.3,5,7.6,8.5,12.2c3.5,4.5,7.4,8.9,11.8,12.6L203.1,528.7z M273.8,490.5c13.2,3.7,25.8,9.3,37.4,16.5l-0.8,6
		c-10.9-1-21.9-0.8-32.8,0.6c9.9,5,19.4,10.7,28.3,17.3c-0.8,2.3-1.7,4.5-2.5,6.4c-9.7-1.9-19.4-2.7-29.3-2.5
		c8,5.2,15.5,10.9,22.5,17.3c-2.5,5-4.5,8.5-4.5,8.5c-32.8-9.7-73.3-28.3-83.6-33l-0.6-32.2c3.1-4.3,6.8-8.3,10.7-11.8
		c3.1-2.3,7-5.6,9.9-7.6c0,0,16.1-2.3,33.4-3.3c8.7-0.6,17.1-0.8,25.8-0.6l11.1,13.2C290.3,486,281.9,487.8,273.8,490.5z
		 M370.4,421.4c-19.8,4.5-40,6.2-60.5,4.7l-25-11.8c11.3,2.1,22.9,2.9,34.5,2.9c14.7,0,29.1-1.2,43.5-3.9
		c11.1-9.5,21.7-19.6,31.4-30.5c2.5-2.5,4.7-5,6.4-7c2.3-2.5,3.7-4.1,4.1-4.7c0.2,3.1,0.2,6,0,9.1
		C395.2,395.2,383.6,409,370.4,421.4z M397,85.8v92h18.8v-36.7h4.5c5,12.4,9.9,24.4,14.9,36.7c6.8,0.2,13.4,0.6,20,0.8
		c-4.7-12.6-9.9-25-14.9-37.4c2.1,0,4.1,0,6.2,0.2c3.1-5.4,6-10.3,8.7-15.7v-23.1c-2.9-5.6-5.6-10.9-8.7-16.3
		C429.8,85.8,413.5,85.6,397,85.8z M415.8,104.4c6.8,0,13.8,0,20.4,0.2v18.2c-6.8-0.2-13.8-0.2-20.4-0.2V104.4z M344.2,180.8
		L344.2,180.8c2.9-5.6,5.6-11.1,8.7-16.5v-60.5c-3.1-5-6-10.1-8.7-15.1c-13.8,1-27.2,2.5-40.7,4.1c-2.9,5.6-6,11.1-8.7,16.9v60.5
		c2.9,4.7,6,9.9,8.7,14.7C317,183,330.6,181.6,344.2,180.8z M313.7,110.4c6.8-0.8,13.4-1.7,20.4-2.3v55.1c-7,0.6-13.8,1-20.4,2.1
		V110.4z M680.6,181.4c6.8,2.3,13.2,4.1,20,6.4v36.7c6,2.1,12.2,3.9,18,6.2v-75.9c-2.9-6.2-5.6-12.6-8.5-18.8
		c-13-4.5-26.2-8.7-39.2-12.6c-2.9,4.5-5.6,8.7-8.5,13.2V213c6.2,1.7,12.2,3.3,18.2,5.4V181.4z M680.6,144.7
		c6.8,2.3,13.2,4.1,20,6.4v18.2c-6.8-2.3-13.2-4.5-20-6.4V144.7z M518,183.9c-6.2-0.8-12.4-1.4-18.8-2.1v-92
		c6.4,0.6,12.6,1,18.8,2.1V183.9z M619.5,185.5L619.5,185.5v-60.3c-2.9-6-6-11.8-8.7-17.7c-16.3-3.7-32.6-6.8-48.9-9.5v92
		c16.3,2.5,32.6,6,48.9,9.5C613.5,194.8,616.6,190.1,619.5,185.5z M600.9,178.9l-20.2-4.1v-54.9c6.8,1,13.4,2.5,20.2,3.9V178.9z
		 M130,169.2c7-2.5,14-4.7,21-6.8V181c-7,2.1-14,4.5-21,6.8v36.7c-6.2,2.1-12.2,3.9-18.2,6.2v-92c15.7-5.6,31.8-10.7,47.7-15.5v18.6
		c-9.9,2.9-19.6,6-29.5,9.3C130,151.1,130,169.2,130,169.2z M250.9,193.2c-16.3,2.9-32.2,6.4-48.5,10.3v-92l18.6-4.1v73.3
		c10.1-2.3,20-4.1,30.1-6.2v18.8H250.9z M319,367.7c0,0,46.6-18.6,85.8-11.8c-1.7,0-3.3,0.2-5,0.6c-0.8,0-2.1,0.2-2.9,0.2
		c-2.3,0.2-4.7,0.8-7.6,1.4c-22.3,4.7-44,12-64.6,21.7l-2.5-5L319,367.7z M475.7,714.4c0.8-9.3,0.2-18.6-1.7-27.4
		c-2.3-11.6-5.6-22.7-9.9-33.6c0,0,56.3,45.8,87.1,113.9c-25,22.3-51.8,42.5-80.1,60.7c-17.7,11.1-36.3,22.1-55.9,32.2
		c0,0,10.1-21.3,11.8-40.4c24.8-116-84-205.5-84-205.5S421.4,652.3,475.7,714.4z"/>
	<path class="st1" d="M61.3,302.7c6.4,128.6,59.8,361.1,279.6,512.8c29.3-15.7,48.9-42.1,60.7-62.9c23.1,28.1,25.6,67.1,25.6,67.1
		c24.8-116-84-205.5-84-205.5s78.4,38.2,132.5,100.3c0.8-9.3,0.2-18.6-1.7-27.4c-2.3-11.6-5.6-22.7-9.9-33.6
		c0,0,56.3,45.8,87.1,113.9c0.6-0.6,1.4-1,2.1-1.7c77.6-80.3,79.7-200.6,79.7-200.6c-16.9-70-46.6-94.3-46.6-94.3
		c6,32,9.5,67.5,9.5,67.5c-12.6,26.4-30.5,49.9-52.4,69.3c-30.3,3.3-54.5,0.2-96.8-13.8c-22.5-7.8-44-18.6-63.8-31.8
		c-9.9-0.4-19.8-0.2-29.7,0.8c-13.8,1.4-30.1,5-30.1,5c18.2-32,28.9-64.8,31-79.4c-12-13-25.2-24.8-39.2-35.3
		c-30.3,1.4-54.3,3.1-54.3,3.1l10.1-41.1c0,0-6.8,5.6-14.7,13.4c-8,8-17.3,18.6-17.3,18.6c-14,5.2-28.5,8.9-43.3,11.1
		c-9.1-2.7-17.5-6.6-25.6-11.8c30.5-45.2,80.1-63.1,80.1-63.1c-9.1-10.7-8.5-19.2-8.5-19.2c12.6-8.5,24.1-15.1,34.5-20.8
		c-1.4,3.7-2.5,7.4-3.1,11.1c8.9-7.2,18.4-14,28.1-20.2c11.8-7.2,23.3-13.2,23.3-13.2c7.6-24.8,20.8-44.6,24.1-47.5
		c3.5-0.6,6.8-0.8,10.3-0.8c0.8,8,9.9,21,13.8,25.8c-12.8,4.5-24.8,10.9-35.7,18.8c0,0,41.9-11.1,79.2-12.4
		c50.4-1.7,81.5,9.5,81.5,9.5c-5.6,7.8-11.6,15.3-18,22.5c83.4-28.3,92-49.9,137.2-59.4c10.7,1.7,21.3,4.3,31.4,7.8
		c6.2,6.4,10.7,14.4,13.2,23.1c-6.2,48.1-25.6,102.1-25.6,102.1c-15.1,18.6-41.5,35.3-41.5,35.3c26.4-3.3,65.2-15.1,65.2-15.1
		c24.1,17.3,55.9,55.9,69.1,72.4c23.3-64.6,36.9-132.3,40.7-200.8c-10.9-5.6-147.8-72.4-353.7-72.4
		C208.8,230.3,72.2,297.2,61.3,302.7z M263.3,599.7c-12.4,2.9-24.8,6.4-36.7,10.9c-3.1-2.5-6-5.4-8.7-8.3
		c-6.8-7.4-12.2-15.9-16.1-25.4c-0.8-1.9-1.4-3.7-2.1-5.8c0.2-9.5,3.1-18.6,8.5-26.4c36.5,25.8,92.9,48.9,92.9,48.9
		C288.3,594.9,275.7,597,263.3,599.7z M218.5,483.5L218.5,483.5c3.1-2.3,7-5.6,9.9-7.6c0,0,16.1-2.3,33.4-3.3
		c8.7-0.6,17.1-0.8,25.8-0.6l5.2,6l6,7.2c-8.5,0.8-16.9,2.7-25,5.4c10.5,3.1,20.8,7.2,30.5,12.6c2.3,1.2,4.5,2.7,6.8,3.9l-0.8,6l0,0
		c-10.9-0.8-21.9-0.6-32.8,0.6l0,0c4.7,2.3,9.3,5,13.8,7.6c3.7,2.3,7.2,4.5,10.7,7c1.2,0.8,2.5,1.9,3.7,2.7l0,0
		c-0.8,2.3-1.7,4.5-2.5,6.4c-9.7-1.9-19.4-2.7-29.1-2.5l0,0l0,0c8,5.2,15.7,10.9,22.7,17.3c-2.9,5.4-4.7,8.5-4.7,8.5
		c-8.3-2.5-16.9-5.4-25.4-8.7c-25.8-9.5-50.4-20.8-58.2-24.6l-0.6-32.2C210.9,490.9,214.4,487,218.5,483.5z M171.3,470.9
		L171.3,470.9c2.3,3.5,5.2,7.6,8.5,12.2c2.3,3.1,5,6,7.6,8.9c1.2,1.2,2.7,2.5,4.1,3.7l0,0l7.4,21.7l3.9,11.6l0,0l0,0
		c-7,7.8-13.4,16.3-19.2,25.2c0,0,0-0.2-0.2-0.2l-0.2,0.2c-9.5-16.9-17.5-34.7-24.1-53l0,0l0,0l0,0L171.3,470.9z M569.3,412.7
		c7.4-15.1,14-30.5,19.6-46.4c-8.7,2.1-17.5,3.1-26.4,3.3c0,0,14-26.4,18-36.5c-10.1,1.9-20.4,3.1-31,3.7
		c21.7-17.1,48.9-37.6,69.5-41.1c7,1,13.8,2.9,20.4,5.4c0,0,6,8,6,13.2c0,0-10.9,51.4-23.9,89.6c0,0-24.4,22.7-42.3,32.8
		L569.3,412.7z M404.9,356c-1.7,0-3.3,0.2-5,0.6c-0.8,0-2.1,0.2-2.9,0.2c-2.3,0.2-4.7,0.8-7.6,1.4c-22.3,4.7-44,12-64.6,21.7l-2.5-5
		l-3.3-7l-34,46.6c11.3,2.1,22.9,2.9,34.5,2.9c14.7,0,29.1-1.2,43.5-3.9c11.1-9.5,21.7-19.6,31.4-30.3c2.5-2.9,4.7-5.4,6.4-7.2
		c2.3-2.5,3.7-4.1,4.1-4.7c7.8-2.3,14-3.3,23.9-5.4c-2.9-1-6-2.3-8.7-3.3C412.1,358.9,404.9,356,404.9,356z M354.7,401.2
		c-10.9,5.8-23.9,6.4-35.3,1.7c0,0,2.3-3.9,4.5-7.6c4.3,4.1,10.5,5.6,16.3,3.7c4.3-2.3,7.6-6.2,8.7-10.9c6.8-1.4,13.6-2.3,20.4-2.9
		C366.7,392.3,361.5,398.1,354.7,401.2z M415.2,11.8c-134.8,0-278,26.4-403.4,91.8v171.1c0,46.8,6.8,169.8,68.5,303.8
		c75.3,163.2,186.1,259.2,334.9,336.4c147.3-76.4,259-172.1,334.7-336.4c61.7-133.9,68.5-256.9,68.5-303.8V103.6
		C693.8,38.4,551.2,11.8,415.2,11.8z M796.5,274.7c0,45.2-6.4,164.5-66.2,294.5c-70,151.3-175.8,248.9-315.1,321.3
		C276.5,818.2,170,721.2,100.1,569.1C40,439.1,33.6,319.9,33.6,274.7V116.8C144,59.2,288.3,33.6,415.2,33.6
		c126.3,0,271,25.6,381.4,83.2V274.7z M474.6,424.9l-66.4,30.3c14.4-15.7,28.1-32.2,40.7-49.3c1.7-7,0.6-28.7,0.6-28.7
		s12.4,4.1,31.4,19.4C480.6,396.4,478.1,410.4,474.6,424.9z"/>
	<path class="st2" d="M753.6,96.8c-11.1-4.7-22.3-9.1-33.8-13.2c-3.9-1.4-7.6-2.7-11.6-3.9c-50.4-17.1-104.4-29.1-158.3-36.5
		c-4.1-0.6-8.3-1-12.4-1.7c-16.5-2.1-33.2-3.7-49.5-5c-24.6-1.9-48.9-2.7-72.6-2.7c-7.8,0-15.9,0-23.9,0.2
		c-96.8,2.3-201.4,19.4-292.4,53.7c-22.7,8.7-44.6,18.2-65.4,29.1v157.9c0,12.8,0.4,31.4,2.7,54.3c5.4,58.8,20.8,146.7,64,240.2
		c28.5,61.7,62.7,114.3,103,159.9c3.1,3.5,6.2,7,9.3,10.3c6.4,6.8,12.8,13.6,19.4,20c52.6,52.2,113.9,94.7,183.2,130.6
		c52.2-27.2,99.7-57.8,142.4-93.5c7-6,14-12,20.8-18.4c3.5-3.1,6.8-6.2,10.1-9.5c57-54.3,104.4-119.5,141.6-200
		c42.9-93.5,58.4-181.4,63.8-240.2c0.2-2.5,0.4-5.2,0.6-7.4c0.4-5,0.6-9.5,1-14c0.8-13.2,1-24.4,1-32.8V116.8
		C782.7,109.6,768.5,103,753.6,96.8z M728.5,503.5c-13.2-16.5-45-55.1-69.1-72.4c0,0-38.8,11.8-65.2,15.1c0,0,26.4-16.9,41.5-35.3
		c0,0,19.4-54.3,25.6-102.1c-2.5-8.7-7-16.5-13.2-23.1c-10.3-3.5-20.8-6.2-31.4-7.8c-45.2,9.5-53.9,31.2-137.2,59.4
		c6.4-7.2,12.4-14.7,18-22.5c0,0-31.2-11.1-81.5-9.5c-37.4,1-79.2,12.4-79.2,12.4c10.9-7.8,22.9-14.2,35.7-18.8
		c-3.9-4.7-13-17.7-13.8-25.8c-3.5,0-7,0.2-10.3,0.8c-3.3,2.9-16.5,22.7-24.1,47.5c0,0-11.6,6-23.3,13.2c-9.7,6.2-19.2,13-28.1,20.2
		c0.6-3.9,1.7-7.6,3.1-11.1c-10.3,5.6-21.9,12.4-34.5,20.8c0,0-0.6,8.5,8.5,19.2c0,0-49.3,18-80.1,63.1c7.8,5.2,16.5,9.1,25.6,11.8
		c14.7-2.3,29.3-6.2,43.3-11.1c0,0,9.3-10.3,17.3-18.6c7.8-7.8,14.7-13.4,14.7-13.4l-10.1,41.1c0,0,23.9-1.7,54.3-3.1
		c14.2,10.5,27.2,22.5,39.2,35.3c-2.1,14.7-12.6,47.5-31,79.4c0,0,16.3-3.7,30.1-5c9.9-1,19.8-1.2,29.7-0.8
		c19.8,13.2,41.3,23.9,63.8,31.8c42.3,14,66.4,17.1,96.8,13.8c22.1-19.4,39.8-42.9,52.4-69.3c0,0-3.7-35.3-9.5-67.5
		c0,0,29.7,24.4,46.6,94.3c0,0-2.3,120.1-79.7,200.6c-0.6,0.6-1.4,1-2.1,1.7c-25,22.3-51.8,42.5-80.1,60.7
		c-17.7,11.1-36.3,22.1-55.9,32.2c0,0,10.1-21.3,11.8-40.4c1.7-7.8,2.7-15.7,3.3-23.3c-0.6,7.6-1.7,15.5-3.3,23.3
		c0,0-2.5-39-25.6-67.1c-11.8,20.8-31.4,47.3-60.7,62.9C120.9,663.9,67.7,431.3,61.3,302.7c10.9-5.6,147.8-72.4,354.1-72.4
		c206.2,0,342.8,66.9,353.7,72.4C765.4,371.2,751.6,438.9,728.5,503.5z M562.7,369.8c0,0,14-26.4,18-36.5c-10.1,1.9-20.4,3.1-31,3.7
		c21.7-17.1,48.9-37.6,69.5-41.1c7,1,13.8,2.9,20.4,5.4c0,0,6,8,6,13.2c0,0-10.9,51.4-23.9,89.6c0,0-24.4,22.7-42.3,32.8l-10.1-24.1
		c7.4-15.1,14-30.5,19.6-46.4C580.5,368.4,571.6,369.6,562.7,369.8z M401,375.8c2.3-2.5,3.7-4.1,4.1-4.7c0.2,3.1,0.2,6,0,9.1
		c-9.9,15.3-21.7,29.1-34.9,41.5c-19.8,4.5-40,6.2-60.5,4.7l-25-11.8l34-46.6l0,0c0,0,46.6-18.6,85.8-11.8c0,0,7.2,2.9,15.5,6.2
		c2.9,1,6,2.3,8.7,3.3c-9.9,2.1-16.1,3.1-23.9,5.4C404.7,371.4,403.2,373.1,401,375.8L401,375.8L401,375.8z M448.6,405.7
		c1.7-7,0.6-28.7,0.6-28.7s12.4,4.1,31.4,19.4c0,0-2.5,14-6.2,28.3L408,455C422.4,439.3,436,422.8,448.6,405.7z M769.9,274
		c-106.5-48.5-238.1-70.6-354.7-70.6c-117,0-248.5,21.9-354.9,70.6V133.1c0,0,139.9-72.6,354.9-72.6s354.7,72.6,354.7,72.6V274z"/>
	<path class="st3" d="M415.8,104.4c6.8,0,13.8,0,20.4,0.2v18.2c-6.8-0.2-13.8-0.2-20.4-0.2V104.4z M313.7,165.1
		c6.8-0.8,13.4-1.4,20.4-2.1v-54.9c-7,0.6-13.8,1.4-20.4,2.3V165.1z M580.7,174.6l20.2,4.1v-54.9c-6.8-1.4-13.4-2.9-20.2-3.9V174.6z
		 M340.1,399.1c-5.8,1.9-12,0.4-16.3-3.7c-2.3,3.7-4.5,7.6-4.5,7.6c11.6,4.5,24.4,3.9,35.3-1.7c6.8-3.1,12.2-8.9,14.7-16.1
		c-6.8,0.4-13.8,1.4-20.4,2.9C347.5,392.9,344.4,396.8,340.1,399.1z M769.9,133.1V274c-106.5-48.5-238.1-70.6-354.7-70.6
		c-117,0-248.5,21.9-354.9,70.6V133.1c0,0,139.9-72.6,354.9-72.6C630.4,60.5,769.9,133.1,769.9,133.1z M159.5,123.2
		c-16.1,4.7-32,9.9-47.7,15.5v92c6.2-2.3,12.2-4.1,18.2-6.2v-36.7c7-2.3,14-4.7,21-6.8v-18.6c-7,2.1-14,4.1-21,6.8v-18.2
		c9.9-3.3,19.6-6.4,29.5-9.3V123.2z M250.9,174.4c-10.1,2.1-20,3.9-30.1,6.2v-73.3l-18.6,4.1v92c16.3-3.9,32.2-7.6,48.5-10.3v-18.8
		H250.9z M352.9,103.8c-3.1-5-6-10.1-8.7-15.1c-13.8,1-27.2,2.5-40.7,4.1c-2.9,5.6-6,11.1-8.7,16.9v60.5c2.9,4.7,6,9.9,8.7,14.7
		c13.4-1.7,27-3.1,40.7-3.9l0,0c2.9-5.6,5.6-11.1,8.7-16.5V103.8z M455.2,102.8c-2.9-5.6-5.6-10.9-8.7-16.3
		c-16.5-0.6-32.8-0.8-49.3-0.6v92H416v-36.7h4.5c5,12.4,9.9,24.4,14.9,36.7c6.8,0.2,13.4,0.6,20,0.8c-4.7-12.6-9.9-25-14.9-37.4
		c2.1,0,4.1,0,6.2,0.2c3.1-5.4,6-10.3,8.7-15.7v-23.1H455.2z M518,91.8c-6.2-0.8-12.4-1.4-18.8-2.1v92c6.4,0.6,12.6,1,18.8,2.1V91.8
		z M619.5,125.3c-2.9-6-6-11.8-8.7-17.7c-16.3-3.7-32.6-6.8-48.9-9.5v92c16.3,2.5,32.6,6,48.9,9.5c2.9-4.7,6-9.5,8.7-14l0,0V125.3z
		 M718.5,154.8c-2.9-6.2-5.6-12.6-8.5-18.8c-13-4.5-26.2-8.7-39.2-12.6c-2.9,4.5-5.6,8.7-8.5,13.2V213c6.2,1.7,12.2,3.3,18.2,5.4
		v-36.9c6.8,2.3,13.2,4.1,20,6.4v36.7c6,2.1,12.2,3.9,18,6.2V154.8z M680.6,162.8c6.8,2.1,13.2,4.1,20,6.4v-18.2
		c-6.8-2.3-13.2-4.1-20-6.4V162.8z"/>
</g>
</svg>
