<?xml version="1.0" encoding="utf-8"?>
<!-- Generator: Adobe Illustrator 25.0.0, SVG Export Plug-In . SVG Version: 6.00 Build 0)  -->
<svg version="1.1" id="Layer_1" xmlns="http://www.w3.org/2000/svg" xmlns:xlink="http://www.w3.org/1999/xlink" x="0px" y="0px"
	 viewBox="0 0 813.6 774.4" style="enable-background:new 0 0 813.6 774.4;" xml:space="preserve">
<style type="text/css">
	.st0{fill:#FFFFFF;}
	.st1{fill:#FCB514;}
</style>
<g id="XMLID_1_">
	<path class="st0" d="M674.1,260.9l83.7-145.6h-52.3c-2.4-6.5-6.1-12.5-11-17.4c-15.3-15.3-35.8-17.7-47.8-5.7
		c-2.5,2.5-4.4,5.5-5.6,8.9c-4.1-2.9-8.5-5.3-13.1-7.1c-7.4-15.4-17.7-37.3-41.2-37.3c-7.5,0.1-15,1.9-21.7,5.4
		C547.8,48.6,510.5,23,472.5,23c-41.8,0-99.9,38.4-116.8,38.4C343.1,61.4,315.4,0,272.3,0c-23.1,0-46.6,15.8-74.7,32.7
		c-26.6,16.1-33.6,35.3-41.4,55.8c-6.3,9.9-13.8,19-22.5,26.9H0l227.9,396.5H71.9l-49.7,89.4h228.9c8.6-0.3,16.9-2.6,24.5-6.7
		l103.4,179.9l100.6-175.1h83.9v-49.1h-5.7c0-17.1-13-35.6-19.4-43.8l-1.1-7.1l19.2-33.5l112.1-41.4c15.2-6.5,26.5-19.7,30.5-35.8
		c9.3-1,17.9-5.7,23.6-13.1c8.4,2.4,17,3.8,25.8,4.1c16.9,0,34.8-9.5,39.4-27.7c0,0,17.9-11,25.9-45L674.1,260.9z"/>
	<path d="M654.3,271.9l-5.1,15.1l17.6,5.9l-0.2,11.2c-9.4-0.3-16.9-2.1-16.9,25.3c0,20.3,3.9,26.9,3.9,32.7c0,9.7-0.8,12-31.5,12
		c-6.2-5.6-13.5-9.9-21.5-12.3c0,0-0.3-1.5-1-4.3l129.6-225.5h-39.4c3-5.6,0.2-14.9-7.1-22.2c-8.4-8.4-19.2-11-24.3-5.9
		c-2.4,2.6-3.2,6.3-2.3,9.7l-16.1,16.9c0.3-2.5,1.1-15.9-24.1-23.1c-7.5-15.1-13.9-34-29.2-34c-8.5,0.6-16.6,3.9-23.1,9.4
		c0,0-46.3-43.2-91.2-43.2c-39.2,0-93,38.4-116.8,38.4c-25.3,0-47.8-61.4-83.2-61.4c-19.2,0-41.8,15.4-66.1,30.4
		c-24.3,14.6-28.9,32.8-34.8,47.6c-3.9,9.8-16.4,23-30.9,37.3H28.6l227.8,396c-1.7,0.3-3.4,0.5-5.1,0.7H81.6l-31.3,56.3h201
		c9.7-0.5,18.9-4.5,25.9-11.3l3.3-3.4l98.5,171.3L470,582.9h76.8v-16.1h-18.4l-3.3-10.2h2.8l13.3-6.2c0-15.3-18.5-36.9-18.5-36.9
		l-3-17.2l25.3-43.8l117.7-43.5c20.8-7.5,23.1-38.1,23.1-38.1s19.2,9,29.7-14.3c10.7,3.4,21.7,5.7,32.8,6.7c10,0,24.1-5.4,24.1-20.3
		c9.3-6,16.4-14.8,20.3-25.1L654.3,271.9z M660.7,120c4.9,0,7.5,1.8,7.5,4.4c-3.9,8.9-12.5,14.9-22.2,15.6l0,0
		c-2.5,0-3.1-1.5-3.1-2.3C643,133.7,655.9,120,660.7,120z M650.2,146.5c6.8,8.2,11,18.3,11.8,28.9l-15.1-26.6
		C646.9,146.1,650.2,146.5,650.2,146.5z M643.1,155.6c0,0,16.7,18.4,16.7,28.9c0,5.7-4.6,3.4-4.6,3.4l-16.1-24.3L643.1,155.6z
		 M645.9,200.4c-8,0-15.4-21.5-15.4-21.5c0,0,0,0,0,0v0l0,0c0.3-2.5,2.4-4.4,4.9-4.4C643.3,180.6,647.3,190.5,645.9,200.4z
		 M618.8,188.9L618.8,188.9L618.8,188.9L618.8,188.9c13.6,0,18.9,24.6,17.6,29C623.4,217.9,618.8,188.9,618.8,188.9z M623.6,233
		L623.6,233c-19,0-28.6-34.3-28.6-34.3s0.3-4.8,13.8-3.8C608.8,195,628,214.3,623.6,233z M636.2,146.7c0,17.4-20,38.6-29.9,38.6
		c-2.7,0.3-5.2-1.5-5.9-4.1h0c0,0,12.3-26.3,30.5-38.1C631,143.1,636.2,143.3,636.2,146.7z M618.5,120.3c8.4-4.8,20.7,10.5,8.9,16.4
		l0,0c-17.2,8.4-35.8,44.1-35.8,44.1c-4.2,1.1-8.6-0.3-11.3-3.6C584.4,153.7,598.3,133,618.5,120.3z M421.3,442.3l-1.8,5.4l-6.4-1
		l1-9.5v0C417.8,436.2,419.5,441.3,421.3,442.3z M408.3,419.1c-6.4,7.4-24.5-5.3-17.6-12.3l188.6-198.2l1-1.1c2.8-2.3,7-1.9,9.4,0.9
		c2.3,2.8,1.9,7-0.9,9.4L408.3,419.1z M397.1,454.2c0-5.3-2.6-21.2,4.6-21.2v0c6.6,0,6.2,9.2,6.2,24.8c0,10.3-3.9,14.4-6.7,14.4
		c-4.8,0-4.6-7.4-6.1-10.2C396.6,459.8,397.3,457,397.1,454.2z M313.6,414.7c-3.3,2.7-7.6,4-11.8,3.6c0,0-20.7-18.2-8-35.8l0,0
		C307.2,390.7,313.6,414.7,313.6,414.7z M303.9,376.6c0-7.9,16.6-13.5,16.6,1.3c0,18.5,3.6,18.4,3.6,20.8h0c0,3.6-6.7,1-6.7,1
		C317.4,394,303.9,384.3,303.9,376.6z M338.7,412.4c8,0,5.3,10.3,5.3,10.3h0c-14.4-3.4-35.9,17.1-35.9,17.1
		c-0.9-2.1-1.4-4.4-1.5-6.7C306.5,426,322.3,412.4,338.7,412.4z M327.1,375.1c0-10.7,10.2-15.8,10.2,13.9h0
		C333.8,392.5,327.1,387.1,327.1,375.1z M320,440.9c6.7,22.8,15.4,45.1,25.8,66.5L341,510c0,0-24.5-17.4-28.1-58.1L320,440.9z
		 M329.9,435.5L329.9,435.5L329.9,435.5C329.9,435.5,329.9,435.5,329.9,435.5c23.6-13.1,33,26.6,33,26.6c0,37.7-3.8,44.1-3.8,44.1
		C353.6,504.8,340.5,479.2,329.9,435.5z M354.5,402.9c-2.8,1.5-8.5,1.8-8.5-6.9c0-8.4-2.6-20.3,1.1-28.6h0
		C360,373.7,351.2,396.3,354.5,402.9z M353,421.4c1-4.8,5.5-8.1,10.3-7.5c6.7,0,13,1.3,13,8.4c-0.9,6.9-5.8,12.6-12.5,14.6
		C357.6,434.2,353.4,428.2,353,421.4z M360.2,371.9L360.2,371.9c0,0,10.3-1.1,10.3,11.5c0,5.1,0,13.5,0.5,17.2
		c-2.3,3.4-9.2,0.7-9.2,0.7C360.1,391.5,359.6,381.7,360.2,371.9z M372.4,451.9L372.4,451.9c0,0,13.8-13.8,13.8,19.5
		c0,28.2-19,42.5-19,31.3C367.1,495.9,374.3,496.7,372.4,451.9z M379.1,381.5c0,0,6.6-3,6.6,10.8s-1.5,13.1-3.6,14.3
		C378.2,398.9,377.2,390,379.1,381.5z M385.6,443.2c-2.1,0-5.6-2.1-5.6-4.9c0-8.5,2.3-13.6,6.6-13.6l0,0c2.5,0,3.6,2.8,3.6,5.7
		C390.2,440.1,387,443.2,385.6,443.2z M575.7,190.9c0,0,6.7-2.8,10.5,9c-3.3-0.3-6.7,0.5-9.5,2.3v0
		C576.7,202.2,573.1,194.8,575.7,190.9z M594.4,81.2l7.4,15.8c-7.9,0-13.3-11.8-13.1-13.9C588.6,79.9,593.7,79.8,594.4,81.2z
		 M578.1,82.1l23.3,31.7c0,0-1.8,3.8-5.1,0.3l-25.3-26.9C571.9,84,574.9,81.9,578.1,82.1z M566.3,93.9l27.7,31.7l0,0
		c1.5,1.5-3.6,5.6-6.6,2.8l-31.2-30.7C556.3,97.6,562.7,89.8,566.3,93.9z M549.9,104.7c4.6,0,34.3,22.8,34.3,29.7v0
		c0,0.8-2.1,3.8-3.3,3L543,110.4C543,110.4,545.2,104.7,549.9,104.7z M536.8,119.5c14.2,6.7,27.8,14.6,40.7,23.6
		c2.1,1.5-1.3,8.2-3.4,7.1l-39.7-21.5C533.8,125.4,534.7,122,536.8,119.5z M532.4,137.4c13.1,5.5,25.8,11.9,38.1,19.2
		c2.8,2-1.3,6.4-2.8,5.7l-37.3-17.6C530.4,144.7,527.8,142,532.4,137.4z M525.1,152.5c11.7,3.8,23,8.6,33.8,14.3v0
		c-26.6,1.3-34.8-11.2-34.8-11.2L525.1,152.5z M491.7,143.4h22.2c1.9,1.3,3.5,3,4.8,4.9c0,0-5.9,11.8-0.5,14.6
		c5.4,2.8,24.5,13.6,45.6,10l4.1,9.2l4.1,24.5l-24.6,25.8c-16.2-27.4-35.4-52.9-57.4-76l-0.4-0.6
		C486.6,151.8,487.6,146.2,491.7,143.4z M357.6,148.7c56.5,0,119,53.7,161.8,113.1L402.2,385c-65.5-34.6-128.8-89.4-128.8-160
		C273.4,185.8,307.4,148.7,357.6,148.7z M204.8,64.3c5.7-2.5,12.4-0.6,16.1,4.4c-1.3,3.4-11.5,10.8-11.5,18.1l-0.2,0
		c0,3.9,19.5,4.3,19.4,19c0.2,3.6-1,7.1-3.3,9.8l-7.7,0.7c2.3-2.5,3.6-5.9,3.4-9.4c-0.3-5-4.1-9-9-9.7c-11,0-8.5,15.9-16.1,9.5
		C198.2,94.4,203.5,84.7,204.8,64.3z M167.7,117.5c12.4,12.5,22.5,27.1,29.9,43.2c-4.1,10.2-49.2,30.7-49.2,30.7l26.7-49.1
		l-66.8,57.3c0,0,1.1-26.6,9.2-35.8C125.9,154.6,167.7,117.5,167.7,117.5z M48.6,143.4h80.2c-3.8,3.6-7.5,7.4-11.2,11
		c-22.6,22.6-14.4,64.7-14.4,64.7l42-43l-17.4,40c45.9-27.2,77.5-48.1,87.6-48.1c8.9,0,21,13.5,21,31.3c0,22-12.8,19.4-12.8,46.1
		c0,51.7,60.1,138.8,60.1,138.8c-6.9,23.8,16.4,43,16.4,43s-3.1,3.9,4.1,21.5c0.6,11.6,3.3,23,8,33.6l-34.6,34.8
		c-2.9,2.9-6.4,5.2-10.2,6.9L48.6,143.4z M89.4,577.8H62.2l23.5-42.3h27.4L89.4,577.8z M271.9,568.6c-5.6,5.5-13,8.7-20.8,9.2h-20
		l19.2-42.3h1c11.7-0.6,22.8-5.3,31.5-13.1l32.3-32.7l12.8,18.1L271.9,568.6z M378.9,718l-90.4-157l45.6-49.7
		c5.4,3.4,11.6,5.1,17.9,5.1c20.8,0,26.3-5.3,39.4-28.4c9.2,3.9,23.6-22.6,23.6-22.6l7.2-2c2.8-6.9,4.4-14.2,4.8-21.7
		c0-16.9-16.7-19.4-3.8-24.5c14.1,5.4,50.2,14.9,50.2,17.4c0,4.6-8.4,7.1-8.4,13c0,15.3,8.4,22.6,8.4,52.5h-8.2
		c0,0,0.7,9.2,0.7,16.9c0,10.8-9.2,9-31.3,11c-10.5,1-24.8,5.7-24.8,28.7c-5.5,7.7-8.6,16.8-9,26.3h55.8L378.9,718z M471.6,556.6
		l-4.8,8.2l-3-8.2H471.6z M444.2,556.6l-3.3,10.2h-7.5l-5.7-10.2H444.2z M419.1,546.8c-1.8-2.1,0-6.6,4.1-9.7
		c3.9-3.1,8.7-3.9,10.5-1.6c1.6,2.3-0.2,6.6-4.1,9.7C425.5,548.3,420.9,549.1,419.1,546.8z M524.3,572.2h17.1v5.3H406.5
		c1.6-7.7,5.1-14.8,10.2-20.8h4.8l8.9,15.6h14.6l5.1-15.6h8.2l5.7,15.6h43.5l4.4-15.6h7.5L524.3,572.2z M479.2,566.8l5.9-10.2
		l21.2,0l-3,10.2H479.2z M509.2,491.3l-2-21l19.5-9.5L509.2,491.3z M529.9,426.5c-19,0-55.6-9-95-25.9l101.4-113.4
		c21.8,35.6,35.4,71.1,35.4,96.2C571.7,421.6,547.6,426.5,529.9,426.5z M561.9,258.6l26.9-30c5.1,2.5,10.6,4.1,16.2,4.8
		c0,0,39.7,14.6,39.7-21.5c0,0,14.4,4.9,14.4-22.5c0,0,6.2,0.2,6.2-11.7c2.8-10.8,0-22.4-7.5-30.7l3.1-3.6l48.2,0L595.4,341.5
		C586.7,312.9,575.5,285.2,561.9,258.6z M684.8,309l5.6-8.4l34,11.3l0.2,10.3L684.8,309z M749.6,354.3c-5.1,1.1-9.5-0.2-10.2-3
		c-0.7-2.6,2.8-5.9,7.7-7.1c4.9-1.1,9.5,0,10.2,2.8C758,349.9,754.6,353.2,749.6,354.3z M743.6,328.5l6.1-8.2l7.2,2.5l2.1,10.8
		L743.6,328.5z M770.6,337.6l-5.7-2l-3.4-17.1l-13.9-4.6l-9.2,12.8l-8.2-2.6l-0.5-16.1l-41.4-13.8l-8.9,13.1l-7.5-2.5h0.2l0.2-15.9
		l-16.2-5.4l1.6-4.9L785.7,321C782,327.6,776.8,333.2,770.6,337.6z"/>
	<path class="st1" d="M473.4,434.6c0,4.6-8.4,7.1-8.4,13c0,15.3,8.4,22.6,8.4,52.5h-8.2c0,0,0.7,9.2,0.7,16.9c0,10.8-9.2,9-31.3,11
		c-10.5,1-24.8,5.7-24.8,28.7c-5.5,7.7-8.6,16.8-9,26.3h55.8L378.9,718l-90.4-157l45.6-49.7c5.4,3.4,11.6,5.1,17.9,5.1
		c20.8,0,26.3-5.3,39.4-28.4c9.2,3.9,23.6-22.6,23.6-22.6l7.2-2c2.8-6.9,4.4-14.2,4.8-21.7c0-16.9-16.7-19.4-3.8-24.5
		C437.3,422.6,473.4,432.1,473.4,434.6z M466.9,564.8l4.8-8.2h-7.7L466.9,564.8z M304.3,448.8c-7.2-17.6-4.1-21.5-4.1-21.5
		s-23.3-19.2-16.4-43c0,0-60.1-87.1-60.1-138.8c0-26.7,12.8-24.1,12.8-46.1c0-17.9-12.1-31.3-21-31.3c-10.2,0-41.7,20.8-87.6,48.1
		l17.4-40l-42,43c0,0-8.2-42,14.4-64.7c3.6-3.6,7.4-7.4,11.2-11H48.6l218.9,380.7c3.8-1.7,7.2-4,10.2-6.9l34.6-34.8
		C307.6,471.8,304.8,460.4,304.3,448.8z M509.2,491.3l17.6-30.5l-19.5,9.5L509.2,491.3z M661,143.4l-3.1,3.6
		c7.5,8.3,10.3,19.8,7.5,30.7c0,11.8-6.2,11.7-6.2,11.7c0,27.4-14.4,22.5-14.4,22.5c0,36.1-39.7,21.5-39.7,21.5
		c-5.6-0.7-11.1-2.3-16.2-4.8l-26.9,30c13.6,26.6,24.8,54.3,33.5,82.9l113.9-198.1L661,143.4z M567.8,182.2l-4.1-9.2
		c-21.2,3.6-40.2-7.2-45.6-10c-5.4-2.8,0.5-14.6,0.5-14.6c-1.2-1.9-2.9-3.6-4.8-4.9h-22.2c-4,2.8-5,8.4-2.2,12.4l0.4,0.6
		c22,23,41.3,48.5,57.4,76l24.6-25.8L567.8,182.2z M433.4,566.8h7.5l3.3-10.2h-16.6L433.4,566.8z"/>
</g>
</svg>
