<?xml version="1.0" encoding="utf-8"?>
<!-- Generator: Adobe Illustrator 25.0.0, SVG Export Plug-In . SVG Version: 6.00 Build 0)  -->
<svg version="1.1" id="Layer_1" xmlns="http://www.w3.org/2000/svg" xmlns:xlink="http://www.w3.org/1999/xlink" x="0px" y="0px"
	 viewBox="0 0 1122.6 660.4" style="enable-background:new 0 0 1122.6 660.4;" xml:space="preserve">
<style type="text/css">
	.st0{fill:#FFFFFF;}
	.st1{fill:#041E42;}
	.st2{fill:#FFB81C;}
</style>
<g id="XMLID_1_">
	<path class="st0" d="M1120.6,330.5l-29.9-73.1c-2.5-6.1-7.1-10.9-12.9-13.7l-56.5-27.3l-15.5-11.9l-23.1-28.6l-7.9-35.4
		c-1.6-7.2-6.2-13.5-12.7-17.2l-39-22.2l-24.3-24.4c-2.3-2.4-5.1-4.3-8.2-5.6l-158.6-69c-3.3-1.5-6.9-2.2-10.5-2.2
		c-1.7,0-3.4,0.2-5.1,0.5L502,43.3c-12.6-0.9-25.7-1.4-39.2-1.4c-40.1,0-71.1,4.2-74.5,4.7l-0.1,0l-0.2,0
		c-10.1,1.7-17.9,8.2-20.9,17.5c-0.7,2.1-1.1,4.2-1.2,6.3L55.3,132.6c-6.3,1.2-11.9,4.7-15.8,9.8l-34.3,45
		c-5.6,7.4-6.9,17.4-3.3,26.1c3.6,8.7,11.4,14.7,20.8,15.9c2.2,0.3,225.3,31.4,225.3,161.6c0,47.8-33.6,96.4-33.9,96.8
		c-5.1,7.3-6.2,17-2.8,25.4c3.4,8.3,10.6,14.1,19.6,15.7l129.1,23.3c14.8,11.2,49.2,32.4,98,32.4c28.5,0,50.9-5.1,66.4-15.3
		c10.9-7.1,18.5-16.8,22.5-28.2c29.5-14.2,66.9-44.4,66.9-73.8c0-21.6-18.6-36.3-36.6-37.1c-2.5-2.5-5.7-4.9-9.6-6.8
		c11.3-7.5,24.2-13.7,38.5-18.4c43.2-14.3,97-26.9,135.2-35c-60.3,136.6-222.1,208.7-223.8,209.5c-9,3.9-14.9,12.2-15.7,22
		c-0.1,1.5-0.1,3,0,4.5l-9,4c-11.6,5.1-17.7,16.9-15.1,29.2c2.6,12.4,13.2,21.1,25.6,21.1c0.8,0,1.6,0,2.4-0.1
		c194.9-16.6,339.1-84.3,440.6-206.9h33.9c4.4,0,8.8-1.1,12.7-3.3l0.1,0l0,0c33.6-18.8,56.3-19.3,58.8-19.3l0.1,0c0.3,0,0.7,0,1,0
		c10,0,19.3-5.8,23.7-14.7c17.6-35.8,36.4-55.4,37.8-56.8l0.2-0.2C1120.8,353.1,1125.5,342.4,1120.6,330.5z M1105.7,350.1
		c-0.2,0.2-21,21-40.4,60.4c-2.3,4.6-7.1,7.5-12.2,7.5c-0.2,0-0.4,0-0.6,0c0,0-0.2,0-0.5,0c-3.9,0-29,0.8-65,20.9
		c-2,1.1-4.3,1.7-6.6,1.7h-39.9c-99.3,122.7-241.8,190.5-435.6,207c-0.4,0-0.9,0.1-1.3,0.1c-13.9,0-19.2-19.8-5.3-25.9l20.1-9
		c-4.5-2.9-6.5-16.7,4.5-21.5c1.9-0.8,185.6-82.7,239.2-238.5c-35.3,7.1-105.7,22.3-159.7,40.2c-35,11.6-56.9,29.7-70.2,45
		c5.4-2.3,12.3-5.5,18.7-5.5c14.9,0,21.1,11.4,21.1,11.4c1.3-0.2,2.6-0.7,4-0.7c12.2,0,25.3,9.8,25.3,24.3
		c0,23.4-36.1,52.4-64.9,64.6c-3.8,18-20.2,39.9-78.1,39.9c-49,0-82.6-23.6-92.6-31.6l-132.2-23.9c-10.7-1.9-13.8-13.8-8.6-21.1
		c0.4-0.5,36.3-51.9,36.3-104.2c0-142-234.1-174-236.4-174.3c-10.5-1.4-15.1-13.6-9-21.6l34.2-45c2-2.6,4.9-4.4,8.1-5.1l323.6-64.6
		c-4.6-4.6-4.5-18.9,8.7-21.1c1.7-0.2,32.1-4.6,72.7-4.6c12.5,0,26,0.4,39.9,1.5L719,13.1c0.9-0.2,1.8-0.3,2.6-0.3
		c1.8,0,3.7,0.4,5.4,1.1l158.6,69c1.6,0.7,3,1.7,4.2,2.9l25.5,25.6l40.5,23c3.3,1.9,5.7,5.1,6.5,8.8l8.5,38.3l25.9,32.1l17.8,13.7
		l57.7,27.8c3,1.5,5.4,4,6.6,7.1l29.9,73.1C1111.4,341.8,1108.6,347.2,1105.7,350.1z M292.9,161c0,0-26.8,33.2-39.9,83.2
		c-8.5,2.6-16,5-22.3,7.1c-6.9-5-14.1-9.8-21.5-14.3C213.8,227.1,237.4,181.7,292.9,161z M220.5,171.4c0,0-22.7,23.7-31.8,54.2
		c-38.3-19.6-80.4-31.7-118.6-34.3L424,112.1l4.7,15.8c0,0,27.5,51.9,88.5,42.9l-9.8,23c-41.4,4-80,9.8-114.7,16.3
		c23-18.1,47.2-28,62.6-31.1l0.6-6.1c-33.2-20-40.8-45-40.8-45L220.5,171.4z M629,163c-31.9,1.3-56.9,12.9-75.9,27.2
		c24.9-1.5,50.7-2.3,77.2-2.3c13-17.1,20.7-35.8,20.7-55.4c0-33.8-17.3-53.6-17.3-53.6l83.8-18.6l26,12.8c0,0-61.5,23.7-61.5,90.4
		c0,9.5,1.4,18.1,3.6,25.9c44.3,2.2,90.1,7.1,136.6,15.5c0,0,15,36.5,56.4,36.5c20,0,35.4-11.1,35.4-11.1c44.9,33.9,86,15.2,86,15.2
		l-15.4-12.8l-14.7,7.8l9.1-13.7l-5.6-6.4l-19.9,10.2l12.4-18.9l-4.3-5l-16.8,7.4l9.6-16.4l-6.8-10.4c0,0,0,0,0,0l-6.4-33.2
		l-40.2-19.5L873.6,109L719.1,46.6L567,80.3c35.8,8.6,65.5,27.3,65.5,27.3S643.9,133.8,629,163z M931.7,168.1l-7.5,29.1
		c0-22-13-34.6-51.5-57.3L931.7,168.1z M862.4,146.7c50.6,15.6,48.4,40.7,48.9,54.3c8.5,3.8,27.7,6.5,36.3-13.4
		c-6.3,27.6-30.9,30.9-52.1,29.3l-1.1-12.2c-4.6,2.9-10,4.5-15.8,4.5c-16.5,0-29.9-13.4-29.9-29.9c0-9.5-46.6-51.2-46.6-51.2
		L862.4,146.7z M429.8,89.4l-8.8-7.6c0,0,26.2-2.9,62.1-1.4l-15.4,35.9l25.4-35.4c8.1,0.5,16.5,1.3,25.2,2.3l-20.6,48l33.2-46.3
		c7.1,1.1,14.2,2.4,21.4,4l-24.5,57.3l38.5-53.8c19.7,5.3,38.9,12.8,56,23.1l-46.1,7.1l-33.8,35.3l-41.1,2.8
		c-39.6,0-61.8-37.8-61.8-37.8L429.8,89.4z M1007,248.8l54.8,25.8c-16,29.1-51.9,6.4-51.9,6.4s-20.7-9.4-47.1-16.7
		C976.7,262.3,991.7,257.7,1007,248.8z M332.5,222.8c-15.9,3.7-30.5,7.5-43.8,11.1c29.2-44,71.6-61.2,71.6-61.2
		S345.5,192.6,332.5,222.8z M1045.9,390.4c-8.7,0.7-38.3,4.2-71.8,23.1l-7.3,0.3c0,0,5-99.4-145.6-99.4
		c-53.1,0-158.6,26.5-227.6,49.2c-59.1,19.5-114.2,65-114.2,108.8c0,27,22.9,39.7,22.9,49c0,12.3-25.4,14.5-44.8,14.5
		c-61.2,0-89.7-41.5-89.7-41.5l-75.4-15.3c0,0,22.5-33.9,22.5-87.8c0-11.3-1.4-22.3-4.1-33c2.1-2.3,4.9-5.2,8.3-8.4
		c7.7,30.1,20.7,47.7,20.7,47.7c-8.5-36.4,11.4-72,11.4-72s45.8-29.3,119.7-43.1c-2.2,2.6-4,5.5-5.3,8.7l-22,51.4
		c-66.3,28.2-77,87.5-71.8,121c1.8-48.3,51.6-117.1,133.8-102.3c0,0,11.7-23.4,37.6-42.7c-6.3-14.2-7.4-30.7-3.3-48.5
		c0.3,17.3,4.7,31.8,11.9,42.7c7.3-4.5,15.1-8.4,23.2-11.5c-2.4-17.7,2.4-36.2,13.8-53.6c-6.5,18.8-6.9,36-2.7,50
		c8.1-2.3,16.6-3.8,25.2-4.4c2.5-21,14.3-40,34-54.8c-14.8,18.4-21.4,37.6-20.7,54.4c12.4,0.3,24.3,2.2,35.6,5.6l30.3-33.3
		c46.4-0.9,94.9,1.1,94.9,1.1l-18.4,34.5c15.9-13.6,30-24.7,46.3-32.8C1032.8,287.7,1060.4,336.4,1045.9,390.4z M575.9,468.4
		c-25.3,37.6-63.4,45.5-63.4,45.5c-1.4-8.2-16.1-14.4-20.9-36.3C491.6,477.6,526.6,493.2,575.9,468.4z M937.3,386.7
		c0,57.8-156.4,198.7-363.6,228.6C817,491.2,816.1,344.6,885.1,344.6C901.8,344.6,937.3,365.2,937.3,386.7z"/>
	<path class="st1" d="M1066.4,267.3l-58.9-28.4l-20.2-15.5l-28.9-35.8l-9.2-41.4l-42.1-23.9l-26.8-26.9l-158.7-69L503.7,69.8
		c-58.9-4.9-111.6,2.9-111.6,2.9l18.3,15.7l-350,69.9l-34.2,45c0,0,248.2,32,248.2,187.7c0,57.4-38.7,112-38.7,112l135.7,24.5
		c0,0,33.7,30.8,86.8,30.8c61.7,0,65.6-25.8,65.6-35.9c27.1-8.8,63.9-38.5,63.9-55c0-6.6-6.9-10.8-11.8-10.8
		c-4.1,0-9.7,3.2-14.2,5.2c2.6-5.8-1.1-15.9-10.9-15.9c-8.2,0-22.1,11.6-49.1,14.1c0,0,20.6-54.9,96.3-80
		c76.4-25.3,183.8-45,183.8-45c-45.5,178.3-253.6,268.6-253.6,268.6l76.8-17.3c-35.6,18.8-101.3,47.7-101.3,47.7
		C697.2,617.6,838.1,551,937,423.4l6.7,3.6h36.6c43.7-24.4,72.9-22.6,72.9-22.6c20.8-42.3,43-64.1,43-64.1L1066.4,267.3z
		 M483.1,80.3l-15.4,36l25.4-35.4c8.1,0.5,16.5,1.2,25.2,2.3l-20.6,48l33.2-46.3c7.1,1.1,14.2,2.4,21.4,4l-24.5,57.3l38.5-53.8
		c19.7,5.3,38.9,12.8,56,23.1l-46.1,7.1l-33.8,35.3l-41.1,2.8c-39.6,0-61.8-37.8-61.8-37.8l-9.8-33.5l-8.8-7.6
		C421,81.7,447.2,78.8,483.1,80.3z M248.6,265.4c-5.7-4.9-11.6-9.6-17.8-14.1c-6.9-5-14.1-9.8-21.5-14.3c4.6-9.9,28.2-55.3,83.7-76
		c0,0-26.8,33.2-39.9,83.2C251.3,250.9,249.8,258,248.6,265.4z M575.9,468.4c-25.3,37.6-63.4,45.5-63.4,45.5
		c-1.4-8.2-16.1-14.4-20.9-36.3C491.6,477.6,526.6,493.2,575.9,468.4z M573.8,615.3C817,491.2,816.1,344.6,885.1,344.6
		c16.7,0,52.3,20.6,52.3,42.1C937.3,444.5,780.9,585.4,573.8,615.3z M1048.4,390.3c0,0-0.9,0-2.5,0.1c-8.6,0.7-38.3,4.3-71.8,23.1
		l-7.3,0.3c0,0,5-99.4-145.6-99.4c-53.1,0-158.6,26.5-227.6,49.2c-59.1,19.5-114.2,65-114.2,108.8c0,27,22.9,39.7,22.9,49
		c0,12.3-25.4,14.5-44.8,14.5c-61.2,0-89.7-41.4-89.7-41.4l-75.4-15.3c0,0,22.5-33.9,22.5-87.7c0-11.3-1.4-22.3-4.1-33
		c-7-27.9-22.7-53.4-43.7-75.6c4.8-19.2,12.6-35.4,21.7-49.1c29.2-44,71.6-61.2,71.6-61.2s-14.9,20-27.9,50.1
		c-10,23.3-18.9,52.6-18.9,83.5c0,16.6,2.3,31.3,5.5,43.9c7.7,30.1,20.7,47.7,20.7,47.7s-10.4-25.7-10.4-57.2
		c0-62.7,30.5-104.9,63.3-130.6c23-18.1,47.2-28,62.6-31.1l0.6-6.2c-33.2-20-40.8-45-40.8-45l-194.4,43.5c0,0-22.7,23.7-31.8,54.2
		c-38.3-19.6-80.4-31.7-118.6-34.3L424,112.1l4.7,15.8c0,0,27.5,51.9,88.5,42.9l-9.8,23l-27.2,63.7l23.5-5.5
		c0,0,14.8-35.6,49.5-61.9c19-14.4,44-25.9,75.9-27.2c14.8-29.2,3.5-55.4,3.5-55.4S602.8,88.9,567,80.3l152.1-33.7L873.6,109
		l27.6,25.8l40.2,19.5l6.4,33.2l6.8,10.4l-9.6,16.4l16.8-7.4l4.3,5l-12.4,18.9l19.9-10.2l5.6,6.4l-9.1,13.7l14.7-7.8l15.4,12.8
		c0,0-41.1,18.7-86-15.2c0,0-15.3,11.1-35.4,11.1c-41.4,0-56.4-36.5-56.4-36.5l-7.4,43.7l-47.8,52.6c15.9-13.6,30-24.7,46.3-32.8
		c19.9-10,43.2-15.4,77.3-15.4c0,0,31.3,17.2,72.3,11.3c13.9-2,28.9-6.6,44.3-15.5l54.8,25.8c-16,29.1-51.9,6.4-51.9,6.4l-30.2,10.7
		c78.5,3.9,100.8,50.8,100.8,50.8C1063.2,362.5,1048.4,390.3,1048.4,390.3z M848.7,179.2c0,16.5,13.4,29.9,29.9,29.9
		c5.8,0,11.3-1.7,15.8-4.5l1.1,12.2c21.2,1.7,45.8-1.7,52.1-29.3c-8.6,20-27.8,17.2-36.3,13.5c-0.6-13.6,1.6-38.7-48.9-54.3
		L802.1,128C802.1,128,848.7,169.7,848.7,179.2z M871.1,158.8c0,0,6,3.6,12,12.1c-4.8,1.3-8.2,5.7-8.2,10.6c0,5.8,4.2,11,11,11
		c2.6,0,4.8-1,6.3-1.9c0.6,2,1,4.1,1.5,6.4c0,0-4.6,3-10.9,3c-11.3,0-22.2-9.3-22.2-22.2C860.6,164.7,871.1,158.8,871.1,158.8z
		 M924.2,197.1L924.2,197.1C924.2,197.1,924.2,197.1,924.2,197.1L924.2,197.1z M872.7,139.9l59,28.2l-7.5,29
		C924.2,175.1,911.2,162.5,872.7,139.9z M682,163.5c0,9.5,1.4,18.1,3.6,25.9c8.8,31,30.5,48,30.5,48l-25.7,28.3l-30.3,33.3
		c-11.3-3.4-23.2-5.3-35.6-5.6c-0.7-16.9,5.9-36,20.7-54.4c-19.6,14.8-31.5,33.8-34,54.8c-8.6,0.7-17.1,2.2-25.2,4.4
		c-4.2-14-3.8-31.3,2.7-50c-11.4,17.4-16.1,35.9-13.8,53.6c-8.1,3.1-15.9,6.9-23.2,11.5c-7.1-10.9-11.5-25.4-11.8-42.7
		c-4.1,17.7-3,34.2,3.3,48.5c-25.9,19.3-37.6,42.7-37.6,42.7c-82.3-14.8-132.1,54-133.8,102.3c-5.2-33.5,5.5-92.8,71.8-121l22-51.4
		c1.4-3.3,3.2-6.2,5.3-8.7c5.2-6.2,12.7-10.5,23.6-13.3c53-13.8,107.2-43.7,135.9-81.5c12.9-17.1,20.7-35.8,20.7-55.4
		c0-33.8-17.3-53.6-17.3-53.6l83.7-18.6l26.1,12.8C743.5,73.1,682,96.8,682,163.5z"/>
	<path class="st2" d="M1108.8,335.3l-29.9-73.1c-1.3-3.1-3.6-5.6-6.6-7.1l-57.7-27.8l-17.8-13.7l-25.9-32.1l-8.5-38.3
		c-0.8-3.7-3.2-6.9-6.5-8.8l-40.5-23l-25.5-25.6c-1.2-1.2-2.6-2.2-4.2-2.9L727,13.9c-2.5-1.1-5.3-1.4-8-0.9L502.8,56.2
		c-58.9-4.6-110.4,2.8-112.6,3.1c-13.3,2.2-13.3,16.5-8.7,21.1L57.9,145.1c-3.2,0.6-6.1,2.4-8.1,5.1l-34.2,45
		c-6.1,8-1.5,20.2,9,21.6c2.4,0.3,236.4,32.4,236.4,174.3c0,52.3-35.9,103.7-36.3,104.2c-5.2,7.3-2,19.2,8.6,21.1l132.2,23.9
		c10,8,43.7,31.6,92.6,31.6c58,0,74.4-21.9,78.1-39.9c28.7-12.2,64.9-41.2,64.9-64.6c0-14.6-13.1-24.3-25.3-24.3
		c-1.4,0-2.6,0.5-4,0.7c0,0-6.2-11.4-21.1-11.4c-6.4,0-13.3,3.2-18.7,5.5c13.2-15.2,35.2-33.4,70.2-45
		c54-17.9,124.5-33.1,159.7-40.2c-53.6,155.8-237.3,237.7-239.2,238.5c-10.9,4.8-8.9,18.6-4.5,21.5l-20.1,9
		c-14.3,6.3-8.2,27.1,6.6,25.8c193.8-16.5,336.4-84.3,435.6-207h39.9c2.3,0,4.6-0.6,6.6-1.7c39.1-21.8,65.3-20.9,65.5-20.9
		c5.4,0.2,10.5-2.7,12.8-7.5c19.4-39.3,40.2-60.2,40.4-60.4C1108.6,347.2,1111.4,341.8,1108.8,335.3z M1053.2,404.5
		c0,0-29.1-1.8-72.9,22.6h-36.6l-6.7-3.6C838.1,551,697.2,617.7,503.6,634.1c0,0,65.7-28.9,101.3-47.7l-76.8,17.3
		c0,0,208.2-90.3,253.6-268.6c0,0-107.4,19.7-183.8,45c-75.6,25-96.3,80-96.3,80c26.9-2.5,40.8-14.1,49.1-14.1
		c9.8,0,13.5,10.1,10.9,15.9c4.5-1.9,10.1-5.2,14.2-5.2c4.9,0,11.8,4.2,11.8,10.8c0,16.5-36.7,46.3-63.8,55c0,10.1-4,35.9-65.6,35.9
		c-53,0-86.8-30.8-86.8-30.8l-135.7-24.5c0,0,38.7-54.6,38.7-112c0-155.7-248.2-187.7-248.2-187.7l34.2-45l350-69.9l-18.3-15.8
		c0,0,52.7-7.7,111.6-2.9l217.9-43.5l158.7,69l26.8,26.9l42.1,23.9l9.2,41.4l28.9,35.8l20.1,15.5l58.9,28.5l29.9,73.1
		C1096.2,340.4,1074,362.2,1053.2,404.5z M979.6,291.6c78.5,3.9,100.8,50.8,100.8,50.8c-17.2,20.1-32.1,47.8-32.1,47.8
		s-0.9,0-2.5,0.2c14.5-54-13-102.7-232.7-122c20-10,43.2-15.4,77.3-15.4c0,0,31.3,17.2,72.3,11.4c26.4,7.2,47.1,16.7,47.1,16.7
		L979.6,291.6z M313.6,306.2c0,16.6,2.3,31.3,5.5,43.9c-3.4,3.2-6.2,6.1-8.3,8.4c-7-27.9-22.7-53.4-43.7-75.6
		c4.8-19.1,12.6-35.4,21.7-49.1c13.2-3.6,27.9-7.3,43.8-11.1C322.5,246,313.6,275.4,313.6,306.2z M814.7,248.6l-47.8,52.6l18.4-34.5
		c0,0-48.5-2-94.9-1.1l25.7-28.3c0,0-21.8-17-30.5-48c44.3,2.2,90.1,7.1,136.6,15.5L814.7,248.6z M553.2,190.2
		c24.9-1.5,50.7-2.3,77.2-2.3c-28.6,37.8-82.8,67.7-135.9,81.5c-10.9,2.8-18.5,7.2-23.6,13.3c-73.9,13.8-119.7,43-119.7,43
		s-19.9,35.6-11.4,72c0,0-10.4-25.7-10.4-57.2c0-62.7,30.5-104.9,63.3-130.6c34.7-6.5,73.2-12.2,114.7-16.3l-27.2,63.7l23.5-5.5
		C503.6,252.1,518.4,216.4,553.2,190.2z M230.8,251.3c6.3-2.1,13.8-4.5,22.3-7.1c-1.8,6.8-3.3,13.8-4.5,21.2
		C242.9,260.5,237,255.8,230.8,251.3z M860.6,177.6c0-12.9,10.5-18.8,10.5-18.8s6,3.6,12,12.1c-4.8,1.3-8.2,5.7-8.2,10.6
		c0,5.8,4.2,11,11,11c2.6,0,4.8-1,6.3-1.9c0.6,2,1,4.1,1.5,6.4c0,0-4.6,3-10.9,3C871.4,199.9,860.6,190.6,860.6,177.6z"/>
</g>
</svg>
