<?xml version="1.0" encoding="utf-8"?>
<!-- Generator: Adobe Illustrator 25.0.0, SVG Export Plug-In . SVG Version: 6.00 Build 0)  -->
<svg version="1.1" id="Layer_1" xmlns="http://www.w3.org/2000/svg" xmlns:xlink="http://www.w3.org/1999/xlink" x="0px" y="0px"
	 viewBox="0 0 797.2 760.5" style="enable-background:new 0 0 797.2 760.5;" xml:space="preserve">
<style type="text/css">
	.st0{fill:#FFFFFF;}
	.st1{fill:#0038A8;}
	.st2{fill:#CE1126;}
</style>
<g id="XMLID_1_">
	<path class="st0" d="M778.3,1.7h-46.5H597.3h-11h-4.5l-3.2,3.1l-7.9,7.6L559.9,23l-13.6-12.8L538.4,3l-3.2-3h-4.3h-2.3h-8.4H398.8
		H277.5h-10.7h-4.3l-3.2,3l-7.8,7.3L237.8,23l-10.9-10.6L219,4.8l-3.2-3.1h-4.5h-11H65.9h-47H0l9.3,16.4l56,98.9l0.2,489.2
		c0,4.2,0.4,12.8,3,23.4c4.6,18.8,14.1,35.1,27.3,47.1c17.7,16.1,42.8,24.6,72.6,24.6l0.2,0h62.4H318c11.6,0,22.7,2.7,32.8,8
		c6.9,3.6,13.5,8.5,19.5,14.5c4.7,4.7,8.3,9.1,10.6,12c1.2,1.6,2.2,2.9,2.7,3.6c0.2,0.3,0.4,0.5,0.5,0.7l0.1,0.2l0,0.1v0l0,0.1
		l4.6,7l8.5,13l9.4-12.4l5-6.6l0,0c0.1-0.1,0.2-0.2,0.3-0.3c0.3-0.4,0.8-1.1,1.5-1.9c1.3-1.7,4-5.2,6.7-8.5c2.9-3.6,5.1-6.1,5.9-6.9
		l0,0l0,0c0.3-0.3,6.8-6.7,17.3-12.6c11.8-6.5,23.9-9.8,36.1-9.8H629c16,0,30.6-2.1,43.4-6.2c19.1-6.1,34.6-17,44.8-31.5
		c9.7-13.8,14.9-31,14.9-49.7V116.5l32.8-57.9l22.9-40.5l9.3-16.4H778.3z M755.4,53.2l-34.3,60.4V614c0,16.1-4.1,31-12.9,43.4
		c-8.7,12.3-21.9,21.9-39.2,27.4c-11.5,3.7-24.9,5.6-40,5.6H479.7c0,0,0,0,0,0c-16.5,0-30.7,5.3-41.4,11.2
		c-10.7,5.9-17.8,12.4-19.8,14.4c-1.4,1.4-4.1,4.5-6.7,7.7c-2.6,3.2-5.2,6.6-6.9,8.7c-1.1,1.4-1.8,2.3-1.8,2.3l-5,6.6l-4.6-7l0-0.1
		l-0.2-0.3c-0.2-0.2-0.4-0.6-0.7-1.1c-0.7-0.9-1.7-2.3-3-4c-2.6-3.4-6.6-8.1-11.5-13c-4.9-4.9-12.2-11.3-22.2-16.5
		c-10-5.2-22.5-9.2-37.9-9.2h-86.9h-62.5c-0.1,0-0.1,0-0.2,0c-30.2,0-51.3-9.1-65.2-21.8c-14-12.7-20.8-28.6-24-41.5
		c-2.1-8.7-2.7-16.1-2.7-20.8l-0.2-492.1L18.9,12.7h47h134.5h11l7.9,7.6l18.5,17.9L259,18.3l7.8-7.3h10.7h121.4h121.4h8.4h2.3
		l7.8,7.3L560,38.2l18.5-17.9l7.9-7.6h11h134.5h46.5L755.4,53.2z M597.3,18.6h-8.6l-6.2,6l-22.5,21.8l-25.4-23.7l-6.1-5.7h-8.4
		H398.8H277.5h-8.4l-6.1,5.7l-25.4,23.7l-22.5-21.8l-6.2-6h-8.6H65.9H29l53.2,94l0.2,493.7c0,17.1,8.4,78.3,86.2,78.3H318
		c32.8,0,54,17.2,64.3,27.4c10.3,10.3,16.2,19.3,16.2,19.3s11.2-14.7,15.9-19.4c4.7-4.7,29.8-27.4,65.4-27.4H629
		c58.7,0,86.2-30.3,86.2-70.5V112l35-61.8l18-31.7h-36.4H597.3z M694,106.4V614c0,33.1-25.1,49.3-65,49.3H479.7
		c-55.3,0-80.9,37.4-80.9,37.4s-25.6-37.4-80.9-37.4H168.6c-39.9,0-65-16.2-65-49.3V106.4L65.9,39.8h134.5l37,35.9l40.1-37.5h121.4
		h121.4l40.1,37.5l37-35.9h134.5L694,106.4z M119.6,348.9L534,647.2h-55.5c-52.6,0-79.6,33.8-79.6,33.8s-26.2-33.8-85.1-33.8H171.7
		c-36,0-52.1-16.4-52.1-38.6V348.9z M119.6,222.9h558.2v13.3H119.6V222.9z M305.7,256.5l372.1,265.3v13.7L286.7,256.5H305.7z
		 M119.6,307.8l470.9,339.4h-19.2L119.6,321.4V307.8z M247.1,206h-40.5V105.8h40.5v16.1h-24.4v25.5H247v15.8h-24.3V190h24.4V206z
		 M141.3,206.4h-15.6V105.7h16l27.3,63.3v-63.3h15.6v100.7h-15.6l-27.8-64.9V206.4z M488.3,206.2c9.2,0,18.3-5.4,21.6-10.2
		c3.8-5.6,3.8-8.5,3.8-22.3v-35.5c0-12.8,0.9-16.1-4.2-23.5c-4.2-6.1-12.3-9-21.3-9c-9.5,0-16.2,2-20.8,8.8
		c-4.4,6.4-4.6,12.1-4.6,23.7v35.5c0,11,0.4,17.2,4.2,22.7C471.2,202.6,479.4,206.2,488.3,206.2z M478.9,172.6v-33.1
		c0-7.3,0-10,1.2-12.8c1.4-3,4.8-4.8,8.2-4.8c3.5,0,6.9,1.8,8.3,4.8c1.3,2.9,1.2,5.3,1.2,12.8v33.1c0,7.5,0,10-1.3,12.9
		c-1.4,3-4.7,4.7-8.2,4.7c-3.5,0-6.9-1.6-8.3-4.6C478.9,182.6,478.9,179.9,478.9,172.6z M279.5,206.4l-16.3-100.8h15.3l10.7,63.2
		l10.3-63.2h16.1l10.8,62.5l10-62.5h16.1l-16.8,100.7H317l-9.3-53.3l-9.2,53.3H279.5z M415.3,164.5l-21.6-58.8h16.2l13.8,37l13.4-37
		h16.6l-21.8,59.2v41.2h-16.5V164.5z M547.1,156.6h9.9l17.2,49.5h16.4l-17.8-49.7c0.3-0.2,5.1-1.3,9.1-4.9c3.2-2.8,5.9-8.6,5.9-13.7
		l0-11.9c0-5.6-1.8-10.8-7.8-15.6c-5.2-4.2-8.9-4.8-23.1-4.8h-26v100.5h16.2V156.6z M547,121.7h6.6c7.7,0,12.6-0.2,15.4,1.4
		c3,1.7,2.9,5,2.9,8.6c0,3.7-0.2,7.3-3.2,8.9c-2.8,1.6-7.4,1.2-15.1,1.2H547V121.7z M251.8,378.9l12.9,9.4l17.4-13.3l21.9,16.3
		l-7.1,20.4l13,9.5l36.3-97.9l-12.4-9.9L251.8,378.9z M309.2,377.6l-15.9-11.3l31.5-26.6L309.2,377.6z M276.6,273.2l-21-15.4
		l-59.4,81l13,9.6l26.4-36l8,5.9l-12.5,46.2l13.2,9.7l12.2-47.2c0.4,0.1,4.9,1.9,10.3,1.5c4.3-0.4,9.9-3.5,12.8-7.6l9.9-12.9
		c3.3-4.6,5-9.8,3-17.2C290.7,284.2,288.1,281.6,276.6,273.2z M271.7,304.6c-2.6,3.5-5.3,6.9-8.9,6.7c-3.4-0.1-6.8-3.3-13-7.8
		l-5.3-3.9l14.2-19.4l5.3,3.9c6.2,4.5,10.3,7.3,11.4,10.5C276.7,298.1,274.3,301.2,271.7,304.6z M647.6,575.7l-13-9.8
		c9.2-8.7,7.7-17.4,1.7-21.4c-5.6-3.7-12.5-5.1-18,1.9c-2.1,2.7-3,6.6-2.2,10.6c0.7,3.9-0.2,4.9,5,18c4,10.5,4.3,15.9,4.3,21.2
		c0,1.3-0.3,12.3-4.9,17.1c-12.5,13-25.1,15.1-42.3,1.2c-26.2-21.1-0.4-42.8,0.7-45l10.6,7.7c-5.4,8.2-15,19.2,1,28
		c4.4,2.4,12.2,4.9,17.2-1.5c3.2-4,3.7-10-1.9-24.7c-6.6-17.5-6.4-18.7-7-24.8c-0.6-5.9,1.2-11.8,5-16.6c10.2-13,28.3-17.3,44.1-3.5
		C667.3,551.2,654.4,564.8,647.6,575.7z M624.7,206.1h-15.9V105.7h15.9v34.2l21.2-34.2h16.3l-19.7,32.2l30.6,68.2h-16.3l-24-53.3
		l-8.1,12.5V206.1z M392.6,356.5L378,424.2l37-51.6l12.8,9.2l-58.7,82.1l-12.8-9.1l15.1-69.2l-37.9,52.9l-12.8-9.2l58.7-82.1
		L392.6,356.5z M550,594l12.2-47.2c0.4,0.1,4.9,1.9,10.3,1.5c4.3-0.4,9.9-3.5,12.9-7.6l9.9-12.9c3.3-4.6,5-9.8,3-17.2
		c-1.7-6.5-4.3-9.1-15.8-17.5l-21-15.4l-59.4,81l13,9.6l26.4-36l8,5.9l-12.5,46.2L550,594z M564.5,500.2l5.3,3.9
		c6.2,4.5,10.3,7.3,11.4,10.5c1.2,3.4-1.2,6.5-3.8,10c-2.6,3.5-5.3,6.9-8.9,6.7c-3.4-0.1-6.8-3.3-13-7.8l-5.3-3.9L564.5,500.2z
		 M482.2,432.4c0,9-4.4,12.9-12.8,24.4l-12.9-9.5c5.9-8.1,12.7-15,4.3-21.8c-3.6-2.9-4.9-3.9-7.4-3.9c-3.9,0-5.4,0.8-10.2,7.6
		l-19.8,27.2c-4.3,6-9.4,12.7-9.4,15c0,4.6,2.5,6.2,7.1,9.5c7.4,5.3,10.8,0.7,18.9-10.6l2.4-3.3l-12.9-9.1l7.1-10.4l26.4,18.6
		l-31.2,42.2l-7.3-5.3l0.4-4.3c-5.7-0.2-8-0.7-16.2-6.5c-7.9-5.7-11.6-15.5-11.1-20.5c0-6.7,4.6-13.7,8.4-18.9
		c1.2-1.6,2.4-3.1,3.3-4.4l16-22.1c11.1-15.4,13.3-18.9,22.6-21.2c7.5-2,13.2,0.6,21.6,6.6C479.9,419.1,482.2,425.9,482.2,432.4z
		 M509.3,440.1l32.5,24.2l-9.6,12.9l-19.5-14.6L497.4,483l19.4,14.5l-9.5,12.7l-19.4-14.5l-16.1,21.5l19.5,14.6l-9.5,12.8
		l-32.5-24.2L509.3,440.1z"/>
	<path class="st1" d="M480.1,185.5c-1.2-2.9-1.2-5.6-1.2-12.9v-33.1c0-7.3,0-10,1.2-12.8c1.4-3,4.8-4.8,8.2-4.8
		c3.5,0,6.9,1.8,8.3,4.8c1.3,2.9,1.2,5.3,1.2,12.8v33.1c0,7.5,0,10-1.3,12.9c-1.4,3-4.7,4.7-8.2,4.7
		C484.9,190.1,481.5,188.6,480.1,185.5z M568.7,140.6c3-1.7,3.2-5.3,3.2-8.9c0-3.6,0.1-6.9-2.9-8.6c-2.8-1.6-7.7-1.4-15.4-1.4H547
		v20.1h6.6C561.3,141.8,565.9,142.2,568.7,140.6z M264.1,284.2l-5.3-3.9l-14.2,19.4l5.3,3.9c6.2,4.5,9.6,7.7,13,7.8
		c3.6,0.1,6.3-3.2,8.9-6.7c2.5-3.4,4.9-6.6,3.8-10C274.4,291.5,270.3,288.7,264.1,284.2z M778.3,12.7l-22.9,40.5l-34.3,60.4V614
		c0,16.1-4.1,31-12.9,43.4c-8.7,12.3-21.9,21.9-39.2,27.4c-11.5,3.7-24.9,5.6-40,5.6H479.7c-16.5,0-30.7,5.3-41.4,11.2
		c-10.7,5.9-17.8,12.4-19.8,14.4c-1.4,1.4-4.1,4.5-6.7,7.7c-2.6,3.2-5.2,6.6-6.9,8.7c-1.1,1.4-1.8,2.3-1.8,2.3l-5,6.6l-4.6-7l0-0.1
		l-0.2-0.3c-0.2-0.2-0.4-0.6-0.7-1.1c-0.7-0.9-1.7-2.3-3-4c-2.6-3.4-6.6-8.1-11.5-13c-4.9-4.9-12.2-11.3-22.2-16.5
		c-10-5.2-22.5-9.2-37.9-9.2h-86.9h-62.5c-30.3,0-51.4-9.1-65.4-21.8c-14-12.7-20.8-28.6-24-41.5c-2.1-8.7-2.7-16.1-2.7-20.8
		l-0.2-492.1L18.9,12.7h47h134.5h11l7.9,7.6l18.5,17.9L259,18.3l7.8-7.3h10.7h121.4h121.4h8.4h2.3l7.8,7.3L560,38.2l18.5-17.9
		l7.9-7.6h11h134.5H778.3z M768.2,18.6h-36.4H597.3h-8.6l-6.2,6l-22.5,21.8l-25.4-23.7l-6.1-5.7h-8.4H398.8H277.5h-8.4l-6.1,5.7
		l-25.4,23.7l-22.5-21.8l-6.2-6h-8.6H65.9H29l53.2,94l0.2,493.7c0,17.1,8.4,78.3,86.2,78.3H318c32.8,0,54,17.2,64.3,27.4
		c10.3,10.3,16.2,19.3,16.2,19.3s11.2-14.7,15.9-19.4c4.7-4.7,29.8-27.4,65.4-27.4H629c58.7,0,86.2-30.3,86.2-70.5V112l35-61.8
		L768.2,18.6z M597.3,39.8h134.5L694,106.4V614c0,33.1-25.1,49.3-65,49.3H479.7c-55.3,0-80.9,37.4-80.9,37.4s-25.6-37.4-80.9-37.4
		H168.6c-39.9,0-65-16.2-65-49.3V106.4L65.9,39.8h134.5l37,35.9l40.1-37.5h121.4h121.4l40.1,37.5L597.3,39.8z M531,206.1h16.2v-49.5
		h9.9l17.2,49.5h16.4l-17.8-49.7c0.3-0.2,5.1-1.3,9.1-4.9c3.2-2.8,5.9-8.6,5.9-13.7l0-11.9c0-5.6-1.8-10.8-7.8-15.6
		c-5.2-4.2-8.9-4.8-23.1-4.8h-26V206.1z M462.9,173.7c0,11,0.4,17.2,4.2,22.7c4.2,6.1,12.3,9.7,21.3,9.7c9.2,0,18.3-5.4,21.6-10.2
		c3.8-5.6,3.8-8.5,3.8-22.3v-35.5c0-12.8,0.9-16.1-4.2-23.5c-4.2-6.1-12.3-9-21.3-9c-9.5,0-16.2,2-20.8,8.8
		c-4.4,6.4-4.6,12.1-4.6,23.7V173.7z M393.7,105.7l21.6,58.8v41.6h16.5v-41.2l21.8-59.2h-16.6l-13.4,37l-13.8-37H393.7z
		 M263.2,105.6l16.3,100.8h18.9l9.2-53.3l9.3,53.3h18.6l16.8-100.7h-16.1l-10,62.5l-10.8-62.5h-16.1l-10.3,63.2l-10.7-63.2H263.2z
		 M206.6,206h40.5V190h-24.4v-26.9H247v-15.8h-24.3v-25.5h24.4v-16.1h-40.5V206z M125.6,206.4h15.6v-64.9l27.8,64.9h15.6V105.7H169
		v63.3l-27.3-63.3h-16V206.4z M534,647.2L119.6,348.9v259.8c0,22.2,16.1,38.6,52.1,38.6h142.1c58.9,0,85.1,33.8,85.1,33.8
		s27-33.8,79.6-33.8H534z M590.5,647.2L119.6,307.8v13.6l451.7,325.8H590.5z M378,424.2l14.6-67.7l-13.2-9.4l-58.7,82.1l12.8,9.2
		l37.9-52.9l-15.1,69.2l12.8,9.1l58.7-82.1l-12.8-9.2L378,424.2z M549.3,538.1l-12.5,46.2L550,594l12.2-47.2
		c0.4,0.1,4.9,1.9,10.3,1.5c4.3-0.4,9.9-3.5,12.9-7.6l9.9-12.9c3.3-4.6,5-9.8,3-17.2c-1.7-6.5-4.3-9.1-15.8-17.5l-21-15.4l-59.4,81
		l13,9.6l26.4-36L549.3,538.1z M541.8,464.3l-32.5-24.2l-59.9,80.3l32.5,24.2l9.5-12.8l-19.5-14.6l16.1-21.5l19.4,14.5l9.5-12.7
		L497.4,483l15.2-20.4l19.5,14.6L541.8,464.3z M482.2,432.4c0-6.5-2.4-13.3-12.7-20.7c-8.4-6-14.1-8.7-21.6-6.6
		c-9.3,2.3-11.5,5.8-22.6,21.2l-16,22.1c-1,1.3-2.1,2.7-3.3,4.4c-3.9,5.2-8.4,12.2-8.4,18.9c-0.4,5,3.3,14.8,11.1,20.5
		c8.1,5.9,10.5,6.3,16.2,6.5l-0.4,4.3l7.3,5.3l31.2-42.2l-26.4-18.6l-7.1,10.4l12.9,9.1l-2.4,3.3c-8.1,11.3-11.5,15.9-18.9,10.6
		c-4.5-3.3-7.1-4.9-7.1-9.5c0-2.3,5.1-9,9.4-15l19.8-27.2c4.9-6.8,6.3-7.6,10.2-7.6c2.5,0,3.8,1,7.4,3.9c8.5,6.8,1.6,13.7-4.3,21.8
		l12.9,9.5C477.8,445.3,482.2,441.3,482.2,432.4z M346.1,323.3l-12.4-9.9l-81.9,65.5l12.9,9.4l17.4-13.3l21.9,16.3l-7.1,20.4l13,9.5
		L346.1,323.3z M292.4,290.7c-1.7-6.5-4.3-9.1-15.8-17.5l-21-15.4l-59.4,81l13,9.6l26.4-36l8,5.9l-12.5,46.2l13.2,9.7l12.2-47.2
		c0.4,0.1,4.9,1.9,10.3,1.5c4.3-0.4,9.9-3.5,12.8-7.6l9.9-12.9C292.8,303.3,294.4,298.1,292.4,290.7z M647.8,534.1
		c-15.7-13.8-33.9-9.5-44.1,3.5c-3.8,4.8-5.5,10.7-5,16.6c0.6,6.2,0.4,7.4,7,24.8c5.6,14.7,5.1,20.6,1.9,24.7
		c-5,6.4-12.8,3.9-17.2,1.5c-16-8.9-6.4-19.8-1-28l-10.6-7.7c-1.1,2.2-26.9,23.8-0.7,45c17.3,14,29.8,11.9,42.3-1.2
		c4.6-4.8,4.9-15.9,4.9-17.1c0-5.3-0.3-10.7-4.3-21.2c-5.2-13.1-4.3-14.1-5-18c-0.8-4,0-7.9,2.2-10.6c5.5-7,12.4-5.6,18-1.9
		c6.1,4,7.6,12.7-1.7,21.4l13,9.8C654.4,564.8,667.3,551.2,647.8,534.1z M677.8,521.8L305.7,256.5h-19l391.1,278.9V521.8z
		 M677.8,256.5H344.2l333.5,237.8V256.5z M677.8,222.9H119.6v13.3h558.2V222.9z M608.7,206.1h15.9v-40.8l8.1-12.5l24,53.3H673
		l-30.6-68.2l19.7-32.2h-16.3l-21.2,34.2v-34.2h-15.9V206.1z M309.2,377.6l15.6-37.9l-31.5,26.6L309.2,377.6z M568.6,531.3
		c3.6,0.1,6.3-3.2,8.9-6.7c2.5-3.4,4.9-6.6,3.8-10c-1.1-3.2-5.2-5.9-11.4-10.5l-5.3-3.9l-14.2,19.4l5.3,3.9
		C561.8,528,565.3,531.1,568.6,531.3z"/>
	<polygon class="st2" points="344.2,256.5 677.8,494.3 677.8,256.5 	"/>
</g>
</svg>
