<?xml version="1.0" encoding="utf-8"?>
<!-- Generator: Adobe Illustrator 25.0.0, SVG Export Plug-In . SVG Version: 6.00 Build 0)  -->
<svg version="1.1" id="Layer_1" xmlns="http://www.w3.org/2000/svg" xmlns:xlink="http://www.w3.org/1999/xlink" x="0px" y="0px"
	 viewBox="0 0 977 757" style="enable-background:new 0 0 977 757;" xml:space="preserve">
<style type="text/css">
	.st0{fill:#CE1126;}
	.st1{fill:#FFFFFF;}
</style>
<g>
	<path class="st0" d="M954.2,112.5c0-6.1-0.6-12.1-2.1-18.2c-1.3-5.4-3.1-9.5-5.2-12.8c-4.2-6.4-14.6-8.8-16.5-9.2
		c0.5-3.8,1.2-9.4,1.2-15.9c0-9-1.3-19.3-6.5-27.7c-2-3-4.8-4.9-8.3-5.6C912,22,906,23.5,901,26.8c-9.2,6.4-18.1,12.9-26.6,19.3
		C852.5,62.2,832,77.6,807,88.4c-15,6.5-30.3,12.5-46.6,18.5c-19,6.8-37.8,10-57.8,13.3l-11.3,2c-52,8.9-103.2,7.3-152.8,5.7
		c-15-0.5-30.5-1.1-45.9-1.2c-78.4-1.1-150.3,36.6-187.4,98.1c0,0-1.4,3.7-1.7,4.1c-9-0.9-18.1-1.3-27.2-1.3
		c-139.7,0-253.5,113.6-253.5,253.2c0,139.8,113.8,253.4,253.5,253.4c48,0,94.8-13.5,135.1-38.9c39.2-24.8,70.9-59.8,91.7-101.1
		c0.1,0,0.3,0,0.3,0c19.9,1.2,36.7-2.8,50.2-11.8c7-4.8,10.9-14.7,11.5-22.2c38.5-3.1,77.6-10.5,77.6-42.4c0-0.5,0-1.2,0-1.8
		c48.9-3.4,88.9-19.6,101.9-41.4c2.7-4.7,4-9.4,4-14.1c0-3.4-0.6-6.7-2.1-9.8c0.6-0.3,9.7-5,9.7-5c18.4-9.6,39.3-20.5,54.4-36.6
		c5.6-6,7.2-13,7.2-19.8c0-2.8-0.3-5.3-0.6-7.8c0.3-0.1,2.4-1.5,2.4-1.5c24.3-15.1,47.2-29.5,65.2-53c4.4-5.6,8.3-11.8,8.3-18.6
		c0-0.1,0-0.3,0-0.5c0-1.6-0.4-3.2-0.8-5.1c-0.4-1.6-0.8-3.3-0.8-4.6c0-0.7,0.3-1.3,0.6-1.8c22-18.2,40.7-35.4,45.1-60.9
		c0.1-0.6,0.1-1.4,0.1-2c0-3.4-1.1-6.7-3.7-9.7c-3.5-4.4-8.9-7.2-14.3-7.8c8.7-13.2,25-50.1,28-62.2
		C951.3,139.3,954.2,125.7,954.2,112.5z"/>
	<path class="st1" d="M977,112.5c0-8.2-0.9-15.9-2.7-23.6v-0.1v-0.1c-1.9-7.5-4.5-14-8.1-19.6l-0.1-0.1l-0.1-0.1
		c-3.2-4.8-7.3-8.5-11.6-11.2c0-0.4,0-0.9,0-1.3c0-15.7-3.4-29.1-10-39.7l-0.1-0.2l-0.1-0.2c-5.3-8.2-13.4-13.6-22.9-15.5
		c-2.5-0.5-5.1-0.8-7.8-0.8c-8.7,0-17.6,2.8-25.2,8l-0.1,0.1l-0.2,0c-8.7,6-17.6,12.5-27.2,19.7l-2.2,1.6
		c-20,14.7-38.9,28.7-60.7,38c-14.4,6.2-29.2,12.1-45.3,18c-17.6,6.3-36,9.3-53.8,12.2h-0.1h-0.1l-11.3,2c-26.3,4.5-54.9,6.6-90,6.6
		c-19.8,0-39.3-0.6-58.2-1.3l-5.2-0.2c-13.4-0.4-27.2-0.9-41.1-1c-1.2,0-2.3,0-3.5,0c-41.6,0-82.4,10-118,29
		c-33.1,17.6-60.8,42.5-80.7,72.3c-4.7-0.2-9.5-0.3-14.4-0.3C123.9,204.8,0,328.6,0,480.8C0,633.1,123.9,757,276.2,757
		c52.3,0,103.2-14.7,147.2-42.4c38.6-24.4,70.6-57.9,93.2-97.6c18.7-1,35.4-6.3,49.5-15.7l0.1-0.1l0.1-0.1
		c7.6-5.1,12.8-12.3,16.3-19.8c14.9-1.8,31-4.8,44.6-10.6c20.7-8.8,30.5-21.9,34.9-33.9c19.6-2.6,37.9-7.2,53.6-13.6
		c22.8-9.2,39.5-22,48.5-37l0.1-0.1l0.1-0.1c4.2-7.2,6.5-14.8,7-22.6c18-9.5,39.6-21.3,56-38.9c7.9-8.5,12.3-18.8,13.1-30.7
		c22-13.9,44.1-29.1,62.4-52.9c5.6-7.2,13.1-18.4,13.1-32.5V308c0-0.6,0-1.1,0-1.6c20.9-18.1,38.8-37.8,43.9-66.5
		c0.5-2.8,0.5-5.1,0.5-6.2c0-8.8-3.1-17.2-8.8-24.2c-0.5-0.6-0.9-1.1-1.4-1.7c8.4-17.1,17-37.9,19.6-48.3
		C973.2,145.4,977,129,977,112.5z M947.3,153.8c-2.9,11.8-18.5,47.2-27.3,61.2c4.8,0.9,9.5,3.6,12.6,7.5c0.3,0.4,0.6,0.8,0.9,1.2
		c0,0,0,0.1,0.1,0.1c2.6,3,3.7,6.3,3.7,9.7c0,0.6,0,1.4-0.1,2c-4.4,25.5-23.1,42.7-45.1,60.9c-0.3,0.5-0.6,1.1-0.6,1.8
		c0,1.3,0.4,3,0.8,4.6c0.4,1.9,0.8,3.5,0.8,5.1c0,0.2,0,0.4,0,0.5c0,6.8-3.9,13-8.3,18.6c-18,23.5-40.9,37.9-65.2,53
		c0,0-2.1,1.4-2.4,1.5c0.3,2.5,0.6,5,0.6,7.8c0,6.8-1.6,13.8-7.2,19.8c-15.1,16.1-36,27-54.4,36.6c0,0-9.1,4.7-9.7,5
		c1.5,3.1,2.1,6.4,2.1,9.8c0,4.7-1.3,9.4-4,14.1c-13,21.8-53,38-101.9,41.4c0,0.6,0,1.3,0,1.8c0,31.9-39.1,39.3-77.6,42.4
		c-0.6,7.5-4.5,17.4-11.5,22.2c-13.5,9-30.3,13-50.2,11.8c0,0-0.2,0-0.3,0c-20.8,41.3-52.5,76.3-91.7,101.1
		c-40.3,25.4-87.1,38.9-135.1,38.9c-81.3,0-153.9-38.5-200.3-98.3c-33.9-43.1-54.2-97.4-54.2-156.4c0-139.6,113.8-253.2,253.5-253.2
		c9.1,0,18.2,0.4,27.2,1.3c0.3-0.5,1.7-4.1,1.7-4.1c37.1-61.5,109-99.2,187.4-98.1c15.4,0.1,30.9,0.7,45.9,1.2
		c49.6,1.6,100.9,3.2,152.8-5.7l11.3-2c20-3.3,38.8-6.5,57.8-13.3c16.2-6,31.5-12,46.6-18.5c25-10.8,45.6-26.2,67.4-42.3
		c8.5-6.4,17.4-12.9,26.6-19.3c5-3.4,11-4.8,15.8-3.7c3.5,0.6,6.3,2.5,8.3,5.5c0.4,0.4,0.7,0.9,1,1.4c5.2,8.4,6.5,18.7,6.5,27.7
		c0,5.9-0.6,11.1-1.1,14.9c3.4,0.8,11.6,3.3,15.3,8.9c0.4,0.4,0.7,0.9,1,1.3c2.1,3.3,3.9,7.4,5.2,12.8c1.5,6.1,2.1,12.1,2.1,18.2
		C954.2,125.7,951.3,139.3,947.3,153.8z M923.8,109.4c-32.1,42.1-70.1,80.9-123.5,87.5c-2.6,0.3-2.7-4.2-0.8-5.6
		c48.7-31.6,84.4-74,96.2-131c0.1-0.6-1.1-1.5-1.8-0.9c-34.9,36.4-76.6,61.8-124.7,76c-86.4,25.2-174.7,16.7-262.3,16.9
		c-34.7,0.1-69.7,3.2-101.6,18.1c-39.5,18.6-73.6,48.3-91.8,88.5L313,260c-12.4-2.1-25-3.3-37.9-3.3c-123.1,0-223,99.9-223,222.9
		c0,123.1,99.9,222.9,223,222.9c94.4,0,175.1-58.7,207.7-141.6l3.1-0.1c11,0.5,22.9,0.9,33.8-3.4c1.2-0.5,5.1-3.1,3.6-5.7
		c-1.7-3.4-7-10.1-8.7-14.4c-0.4-1.1-0.6-3,0.9-3c27.1-0.3,56.1,1.5,80.9-8.4c-6.2-10.3-20.7-18-28.6-28.3c-1.7-2.2,1.8-3.5,3-3.5
		c37.7-0.1,72.9-0.3,106.2-17.2c1.3-0.6,1.3-2,0.6-2.7c-7.3-7.7-16.5-15-25-21c42.1-8.4,88.4-29.5,101.7-41.4
		c1.4-1.3,0.5-2.5-0.1-3.4c-3.7-4.2-13.1-10.5-14.8-12.3c-0.5-0.6-0.4-2.6,0-2.7c37.3-14.3,74.3-30.6,101.3-62.5
		c1.2-1.5-0.5-3.4-2-3.7c-10.9-2.1-21.2-2.6-31.9-2.5c0-1.4-0.4-3.5,0.3-3.9c28.1-16.3,52.7-33.3,73.8-58c0.6-0.4,1.1-3.2-0.9-3.4
		c-11.7-0.9-23.2,0.4-35-0.6c-1.8-0.2-1.5-3.1-0.8-3.7c46.3-36.8,80.8-86.2,81.4-144.8C925.6,109.5,924.4,108.6,923.8,109.4z
		 M809.3,206.7c35.7-8.7,66.5-27.3,91.7-55.1l2.4-2.9c2.4-3.1,5.8-7.5,6.6-9.1c0.4-0.6,1.3-2.3,2.3-2c0.4,0.3,0.4,1.2,0.1,2.7
		c-0.6,1.6-3.1,5.9-5.3,9.8l-3.1,5.4c-16,26.1-41.7,41.6-64.7,53.4c-36.9,18.8-75.9,29.5-115.8,31.7c-49.6,2.8-99.8,2.4-148.5,2
		c-21.8-0.2-44.2-0.4-66.1-0.4c-25.3,0.1-50.2,7.8-74,22.9c-23.6,14.8-41.6,35.8-53.8,62.4c-7.8,17.1-8.9,35.7-10,55l-1.1,14.7
		c-2.7,32.1-18.8,60.3-41.9,73.2l-1.2,0.6l0.6-1.1c10.6-19.4,20.8-40.2,24.4-62c1.2-7.7,1.5-14.9,1.5-21.8c0-5.3-0.1-10.2-0.4-15.1
		c-0.1-4.9-0.4-9.8-0.4-14.8c0-2.4,0-4.7,0.1-7c2-42.7,28.1-82.4,69.8-105.9c29.7-16.8,58.6-25.5,88.2-26.7
		c21.7-0.8,43.7,0.8,64.9,2.1l8.5,0.7c26,1.7,53.5,2.1,89.2,1.1h5.7l6.1-0.1C724.9,219.1,767.1,217,809.3,206.7z M654,309.4l0.3,0.4
		l-0.4,0.3c-44,16.8-92,16.8-137.4,14.2c-1.5-0.1-2.1-1.8-2.8-3.4l-1.1-2.4c-1.1-1.3-3-2.1-4.6-2.8c-1.1-0.4-2-0.9-2.8-1.4
		c-0.9-0.7-1.4-1.6-1.8-2.5c-0.3-0.8-0.6-1.7-1.5-2.3c-0.9-0.6-2.5-0.9-4.2-1c-1.6-0.3-3.2-0.6-4.5-1.1c-0.9-0.4-1.6-2.3-1.8-3.6
		c0-1.1,0.4-1.4,0.7-1.7c2.7-1.6,6.3-1.1,9.6-0.7c3.5,0.4,6.8,0.8,8.6-1.3c3.7-5.1,8.4-4.7,12.9-4.4c2.6,0.1,5.4,0.4,8.1-0.6
		c1.2-0.4,1.4-1.4,1.7-2.5c0.1-0.8,0.4-1.6,0.8-2.1c5.8-7.2,16.6-8.4,27.1-8.6c8.9-0.2,18,0.1,24.4,0.9c20,3.2,36.7,6.3,53.4,14.3
		l4.1,1.7c3.7,1.5,7.3,3,10.4,6c1.2,1.2,0.9,2.3,0.8,3.2C653.9,308.6,653.9,309,654,309.4z M391,372.7c-0.6-1.5-1.1-3.4,0-4.8
		l2.3-3.9c1.1-2.3,2.1-4.2,3.4-5.1c13.8-7.8,31.8-4.4,47.5,0l3.2,0.9c12.2,3.2,24.9,6.8,34,16.4c0.4,0.5,0.4,1.8,0.4,2.5
		c-0.1,0.6-0.3,0.8-0.5,1c-30.2,13.8-62.9,19.3-94.6,15.9c-0.7-0.1-0.7-1.6-0.6-4.8c0.1-2.2,0.2-4.9,0-7c-0.4-2.4,1.1-4.1,3-6l1.9-2
		C391.6,375.1,391.2,373.9,391,372.7z M455.7,274.5c-0.3-2,2.7-3,4.3-3.2l3.4-0.4c2.7-0.3,5.5-0.5,8.1-1.2c1.8-0.5,2.8-1.8,4.1-3.2
		c0.6-0.9,1.5-1.9,2.5-2.5c4.9-3.4,10.3-3,15.5-2.7c4,0.4,7.9,0.6,11.4-0.8c3-1.3,7.5-2.7,11.3-0.6c2.2,1.3,4.6,2.3,7.2,3.5
		c6.8,2.9,13.8,5.8,15.6,13.2v0.3l-0.3,0.1c-25.4,14.8-57,21.9-96.8,21.4h-0.4l-0.1-3.8c-0.2-4.1-0.5-8.9,3.8-10.3l1.4-0.6
		C451.4,282.1,456.4,280.5,455.7,274.5z M459,307.4l3.5,0.8c7,1.5,12.9,4.4,18.7,7.2c3.2,1.5,6.4,3.1,9.8,4.4
		c2.3,0.9,8.9,4.2,9.1,6.8c0.1,0.5-0.1,1.1-1,1.8c-30.2,17.2-65.6,19.5-99.4,19.3h-0.4v-0.5c0.3-3.1,1.3-5.8,2.4-8.4
		c0.6-1.6,1.3-3.4,1.8-5.3c0.6-2.7,2.7-4.5,5.1-6.3c2.9-2.5,5.8-4.9,5.7-9.6c0-2.9,2.9-3.8,6-4.9c2.5-0.8,5-1.5,6.2-3.2l0.8-1.3
		c0.9-1.5,2-3.2,3.3-3.4C440.2,303.2,449.3,305.3,459,307.4z M415.6,409.9l4.3,2c7.5,3.4,15.3,7,21.3,12.9l0.4,0.4l-0.5,0.3
		c-15.9,9.6-33.8,12.4-51.5,15.5c-6.6,1.1-13.4,2-20.1-0.5l-0.3-0.1l0.1-0.4c3.3-12,7.7-23.8,11.8-35.4l2-4.9l0.1-0.4h0.3
		C396,401.1,407.3,405.8,415.6,409.9z M369.3,448.8c1.2,0.6,2.5,1.5,3.5,1.5c1.5,0.3,3,0,4.3-0.2c1.4-0.4,2.7-0.7,4.1-0.3h0.3
		c3.4,0.8,4.8,1.2,7.4,2.5c1.3-0.8,3-1.1,4.1-1.4l0.9-0.3c3-0.9,6.3-0.3,9.4,0.4c2.3,0.4,4.5,0.9,6.8,0.6c1.1,0,1.5-1.5,2.1-3.2
		c0.5-1.4,1.1-2.7,2.1-3.2c4-1.9,8.7-1.2,13.2-0.6c3.8,0.4,7.7,0.9,10.9,0.1c0.1-0.1,0.3-0.6,0.4-1.1c0.3-1.5,0.8-3.9,3.2-5.6
		c0.8-0.7,3-0.9,5.3-1.2c1.4-0.1,3-0.4,3.8-0.7V436c0.2-0.9,0.6-2.5,2.3-3.4c4.1-1.9,9.1-0.4,14.3,1.2c2.6,0.8,5.4,1.5,8.1,2.1
		c4.9,0.8,9.8,2.3,14.4,4l2.7,0.8c3.6,1.2,9.5,4.6,10,6.6c0.1,0.4,0,0.8-0.2,1.1c-18.9,19.1-48.5,26.9-90.7,24l-4.9-0.4
		c-17.3-1.1-35.2-2.2-49-13.5c-1.1-0.8-1.5-2-1.4-3.3c0.4-3.1,3.5-6.5,6.5-8.1C365.2,446.4,367.3,447.6,369.3,448.8z M474.9,424.9
		l-1.8-0.4c-7.7-2-17.3-4.4-19-8.9l-0.4-0.8l1,0.2c0,0,0.1,0,0.4-0.2c1.1-0.6,2-2.2,2-2.7c0.1-1.8-2.3-2.9-4.8-3.9
		c-1.6-0.8-3.2-1.4-4.1-2.3c-0.6-0.6-0.9-2.2-0.5-3.4c0.2-0.6,0.8-1.1,1.5-1.1c1.1,0,2.7,0.3,4.5,0.6c3.9,0.7,8.8,1.6,12.2-0.2
		c0.6-0.3,0.9-0.8,1.3-1.3c0.5-0.9,1.2-1.8,2.6-2.4c1.2-0.6,2.7-0.4,3.9-0.3c1.1,0.1,2.1,0.1,2.7-0.1l1.7-0.6
		c1.1-0.4,2.2-0.8,2.8-1.8c0.3-0.4,0.3-1.2,0.1-2c-0.1-1.2-0.1-2.4,0.5-3.1c1.1-1.1,2.4-1.3,3.7-1.5c1.1-0.3,2.3-0.6,3.6-1.3
		c0.9-0.5,1.7-1.5,2.6-2.6c0.8-1,1.6-1.9,2.3-2.3c2.7-1.5,6.3-1.8,9.3-2.1h0.2c8.5-0.5,17.2-0.2,26.7,0.9l2.8,0.4
		c6.8,0.8,13.2,1.5,19.6,3.5l5.9,1.7c10.4,2.9,20.2,5.6,29.3,11.3l0.4,0.2l-0.3,0.3c-4.6,6.1-11,8.4-17.4,10.5
		c-3,1.1-6.3,2.3-9.1,3.7c-4.8,2.5-9.7,3.5-14.6,4.6c-2.7,0.6-5.5,1.2-8.2,2C518.1,425.4,496.4,430.3,474.9,424.9z M573.9,368.4
		c-1.1,0.3-2.1,0.8-3.2,1.4c-0.9,0.6-2,1.2-3.2,1.5c-21.1,4.9-42.3,4.4-67-1.5c-3.3-0.8-5.7-3.3-7.9-5.8l-3.3-3.2
		c-0.3-0.4-1.8-0.4-2.7-0.4c-1.5-0.1-2-0.1-2.1-0.6c-1.7-4.6-2.9-6.3-6.4-9.1c-0.4-0.3-0.6-1.2-0.6-2.1c0-0.4,0.1-0.7,0.1-0.9
		c0.3-0.8,0.8-1.3,1.5-1.3l16.9-1.9c1.5-0.1,2.1-1.5,2.9-3.2c0.7-1.3,1.3-2.7,2.7-3.3c5.1-2.1,10.8-2.7,16.2-3.2l2.9-0.3l9.9-1.1
		c13.2-1.5,26.6-3.1,40.1-2.1c14.6,1.1,28,5.3,42.2,9.6l6.8,2.1c1.9,0.7,4,1.5,4.5,3c0.3,0.8,0.1,1.6-0.4,2.5
		c-1.4,2.3-3.7,3.2-6.2,4c-1.6,0.5-3.2,1.2-4.6,2.1c-2.3,1.5-5,2.1-7.6,2.6c-3.3,0.8-6.3,1.3-8.6,3.4c-5.8,5.5-13.3,6.4-20.6,7.3
		L573.9,368.4z M599.1,278c-11.6,1.2-35.8-0.9-50.5-9.5c-2.3-1.1-3.2-2.3-3.1-3.5c0.3-2.6,5.1-4.3,9.1-5.6l2.1-0.9
		c2.4-0.9,5.1,0,7.9,0.9c3.7,1.1,7.4,2.5,10.7-0.5c3-2.5,7.9,0.1,12.3,2.3l3.4,1.8c4.3,2,7.3-0.1,10.9-2.7l2-1.3
		c1.5-1,3.5-0.1,5.6,0.8c2,1,4.4,2.1,6.8,1.5c0.7-0.1,1-1.1,1.3-1.9c0.3-1.2,0.7-2.4,1.8-2.5c2.8-0.3,5.3,0.6,7.7,1.5
		c3,1.2,5.7,2.2,8.6,0.9c0.9-0.4,1.9-1.5,3-2.6c0.9-1.1,2-2.3,3-2.9c1.5-0.9,3.2-0.3,4.6,0.2c1.3,0.6,2.5,0.9,3.3,0.3
		c4.8-4.4,9.8-3.4,14.3-2.7l2.3,0.5c0.8,0,1.4,1.4,1.7,2.6c0.1,0.6,0.3,2.6-0.7,3.4C645,271.9,622.3,275.4,599.1,278z M319.7,541.3
		l0.4-0.4c3.9-2.7,7-5.3,9.7-8l4.8-4.4l0.3-0.3l36.4,26l-0.6,0.7c-3,3.6-6.3,7.6-10.8,12l-0.3,0.1L319.7,541.3z M354.6,571.5
		l-0.6,0.4c-10.3,8.8-21.9,15.7-34.5,20.5l-0.5,0.3l-3.2-45.4v-0.8L354.6,571.5z M327.7,524.1c-4.2,5.1-6.6,7.9-11.7,11.5l-0.6,0.4
		l-2-29.7l-0.1-1.5l3,4.4c3.5,5.1,7.5,10.9,11.5,14.2l0.4,0.2L327.7,524.1z M318.7,462c-1.1-3.2-2.7-5.4-4.6-7.8L312,451l11.8-0.4
		h0.6l-5.3,12.4L318.7,462z M154,479v-2.1l0.1-1.8l45.4-8.6l0.6-0.1L200,467c-0.7,4-1,8.1-1,12c0,11.5,2.5,22.6,7.6,33.1l0.3,0.5
		l-47.4,3.3v-0.3C155.8,503.5,154,491.4,154,479z M248,415.1c8.8-3.9,18.1-5.8,27.8-5.8c6.5,0,12.9,0.9,19.2,2.7h0.3l0.3,2.8
		l-20.8,17.8l-0.1,0.1l-5.6,0.5l-21.3-15.5v-2.5L248,415.1z M247.8,407.3l0.4-47.1l0.2-0.1c8.9-2.1,18.2-3.2,27.4-3.2
		c4,0,8.2,0.2,13.2,0.8l0.4,0.1l4.9,46.4l-0.5-0.1c-6.1-1.3-12.2-2.2-18.1-2.2c-9.4,0-18.6,1.7-27.5,5.2L247.8,407.3z M256.9,521.3
		c5,2.2,10.3,3.5,15.8,3.9h0.9l-14.3,16.4l-3-19.9l-0.1-0.6L256.9,521.3z M250.4,478.7c0-14.1,11.4-25.6,25.3-25.6
		c14.1,0,25.6,11.5,25.6,25.6c0,14-11.5,25.3-25.6,25.3C261.8,504,250.4,492.7,250.4,478.7z M282.1,524.8l0.3-0.2l24.5,15.9
		l-0.7,0.3c-9.6,4.7-19.8,7.2-30.6,7.2c-3.7,0-7.7-0.4-11.8-1.1l-0.8-0.1L282.1,524.8z M290.7,522.5l0.8-0.3c5.6-2,10.6-5,15-8.9
		l0.6-0.6l1.6,21.2L290.7,522.5z M300.9,406.2l-5.1-47l-0.1-0.6h0.5c15.9,2.7,30.8,8.5,44.3,16.9l0.4,0.3l-36.7,31.4l-0.1,0.1
		l-2.7-0.9L300.9,406.2z M295.9,422.7l0.5-0.5l1.9,15.9l-0.8-0.4c-4.1-2.1-8.3-3.7-12.8-4.6L284,433L295.9,422.7z M247.9,426.5v-0.8
		l13.2,9.5l-0.8,0.3c-4.3,1.6-8.3,3.7-11.8,6.5l-0.8,0.5L247.9,426.5z M248.1,515.7L248.1,515.7l1,0.6l4.4,27.9l-0.7-0.3
		c-10.1-3.4-18.8-9-26.2-16.4c-2.7-2.7-5.2-5.7-7.7-9.3l-0.5-0.5L248.1,515.7z M209.9,457.5l0.1-0.6c3.3-10.6,9.1-19.8,16.9-27.6
		c3.7-3.5,7.8-6.9,12.4-9.8l0.3-0.1l1.8,1.5l-0.2,27.3v0.1l-2.9,3.9L209.9,457.5z M234,459.5l-0.4,0.6c-2.1,4.9-3.4,10.1-3.7,15.5
		l-0.1,0.8l-15.2-13.3l18.6-3.4L234,459.5z M230.2,485.1l0.1,0.1l0.1,1.1l0.1,0.8l-16,23.8l-0.3-0.6c-5.3-9.9-7.8-20.7-7.8-32
		c0-3.9,0.3-7.9,1.1-12.2l0.1-0.8L230.2,485.1z M222.3,511l10.2-15l0.4-0.6l0.3,0.8c2,4.6,4.6,9.1,8.1,12.9l0.5,0.6L222.3,511z
		 M241.2,410.4l-2.3,1.2l-38.8-28l0.4-0.4c12.2-9.7,25.8-16.7,40.6-21.1l0.5-0.1L241.2,410.4z M232.9,415.1l-0.5,0.4
		c-13.3,9.1-23.6,22.4-28.9,37.6l-0.3,0.5l-35.5-30.9l0.1-0.4c6.8-12.9,15.9-24.5,26.9-34.5l0.1-0.3L232.9,415.1z M200.3,459.2
		l-45.9,8.9v-0.6c1.2-13.4,4.6-26.7,10.2-38.7l0.1-0.6L200.3,459.2z M209,518.6l0.9-0.1l-26.7,39.4l-0.2-0.5
		c-9-10.5-16-22.3-20.8-35l-0.3-0.6L209,518.6z M213.3,524l0.3-0.4l0.4,0.4c2.5,3.4,4.8,6.3,7.3,8.8c8.2,8,17.8,14.1,28.9,18
		l0.5,0.1l-31.1,35.9l-0.3-0.3c-11.7-6.1-22.4-14.1-31.8-23.8l-0.1-0.1L213.3,524z M254.4,556.8l0.6-0.7l6.7,43.8h-0.6
		c-12.1-1.4-23.9-4.6-35.2-9.6l-0.5-0.3L254.4,556.8z M261.5,553.8l0.6,0.1c4.7,0.8,9.3,1.2,13.7,1.2c11.6,0,22.8-2.5,33.3-7.6
		l0.5-0.2l3.4,47.3l-0.3,0.1c-12,3.8-24.3,5.6-36.9,5.6l-7.2-0.1L261.5,553.8z M309.4,447.3l-0.1-0.1c-1.3-1.3-2.7-2.7-4.3-4
		l-0.1-0.1l-2.7-25.5l2.1-1.8l0.3-0.3l0.2,0.1c7.6,3.4,14.2,8.2,20,13.9l6.3,6.3l-4.9,10.3L309.4,447.3z M329.6,424.3
		c-5.4-5.6-11.8-10.2-18.7-13.8l-0.6-0.3l32.4-27.7l0.8-0.5v0.9c0.1,13.8-3.5,30.9-9.5,44.7l-0.3,0.5L329.6,424.3z M342.9,366.1
		l-0.6-0.4c-20.1-11.8-43.2-18-66.5-18c-72.8,0-131.9,59-131.9,131.8c0,72.6,59.1,131.7,131.9,131.7c41.9,0,81.7-20.3,106.6-54.2
		l0.1-0.3l18.6,6.6l-0.3,0.4c-28.2,41.6-74.8,66.5-125,66.5c-83.2,0-150.8-67.7-150.8-150.6c0-83.1,67.6-150.7,150.8-150.7
		c21.9,0,45.5,5.4,66.9,15.3l0.2,0.1V366.1z M326.2,504.8c-4.9-5.5-5.6-13.9-2-21.2c1.5-2.8,5.5-6.5,8.9-6.9
		c1.3-0.2,2.3,0.1,3.1,1.1c1.6,1.8,2.7,3.9,3.7,6.1c0.8,1.7,1.5,3.4,2.5,4.6c0.7,1.1,1.6,1.8,2.7,2.4c1.3,0.8,2.5,1.5,3.6,3l1.9,3.4
		c1.2,2.4,2.3,4.8,3.8,5.9l2.4,1.4c1.1,0.6,2.4,1.3,3.3,2.4c0.7,0.8,1.1,1.5,1.5,2.4c0.4,0.8,0.6,1.6,1.2,2c0.5,0.6,1.3,0.8,2,1.2
		c0.8,0.3,1.7,0.6,2.3,1.3c0.9,0.8,1.7,2,2.5,3.2c1.1,1.7,2.3,3.7,3.9,4c0.5,0.1,1.4-0.1,2.2-0.4c1.2-0.3,2.3-0.7,3.2-0.1
		c2.6,1.5,4.7,3.7,6.3,5.4l2.5,3.3l3.2,3.7l1.8,2c1.3,1.7,2.4,3.2,3.9,4.1c0.7,0.4,1.9,0.1,3-0.2c1.1-0.4,2.4-0.8,3.2-0.1
		c0.9,0.8,1.6,2,2.3,3.2c0.6,1.1,1.2,2.4,2.1,2.8c0.9,0.5,1.9,0.6,3.1,0.8c1.5,0.1,3.3,0.4,4.2,2l2,4.1c1.5,3.2,3.4,7.2,5.2,9.8
		l0.7,0.9l-1.1-0.3C379,555.2,346.3,527.1,326.2,504.8z M329.8,264.3c20-59.1,85.4-95.8,174.8-97.6c19.3-0.4,39-0.5,59.8-0.6
		c68.6-0.3,139.6-0.6,183.3-12.6c51.8-14.2,84.8-27.7,121-62.5c3.2-3.2,5.3-4.5,6.2-3.7c0.4,0.3,1.3,1.1-1.4,5.7
		c-23.7,39.2-63.8,67-119.3,82.4C709.4,188,636.3,188,571.7,188c-24.5,0-47.8,0-67,0.8c-77.4,3-132.9,32.4-156.4,82.8l-0.1,0.4
		l-18.5-7.5L329.8,264.3z M83.3,394c12.5-24.1,29.5-45.7,52-66.1c28-25.3,58.9-41.5,94.7-49.4c46.3-10.3,87-6.8,127.7,11.1
		c1,0.4,0.8,2.4-0.6,5.8c-0.1,0.3-2.9,7-4.6,6.3c-76.2-29-159.1-13.4-211.1,39.8l-2.8,2.9c-20.2,20.7-41.1,42.2-45.3,71l-0.1,0.9
		l-0.6-0.8c-1.7-2.4-1.7-5.1-1.8-7.7c0-3-0.1-5.9-2.7-7.9c-0.6-0.6-1.2-0.1-2.4,0.9c-0.9,0.8-2.3,1.8-3.4,0.6
		C80.4,399.4,82.1,396.1,83.3,394z M468.2,553.6c-24.7,49.1-55.4,83.8-94,106.1c-26,15.1-54.1,23.8-86,26.8
		c-13,1.2-26.4,0.7-42.4-1.8c-47.5-7-91.9-31.6-124.7-69.4C88,577.4,70.2,530.6,71,483.4V483l0.3-0.1c0.4,0,0.5,0.3,0.6,0.7
		c0.4,0.8,1.5,3,2.8,3.5c1.6,0.6,2.4-0.3,3.6-1.8l0.6-0.8c1.3-1.6,2.7-0.6,4,0.4c1.1,0.8,2.1,1.6,3.2,1.2c0.4-0.1,0.6-0.5,1-0.9
		c0.4-0.5,0.8-0.9,1.3-0.8c2.6,0.5,3.8-0.6,5-2.1c1.1-1.1,2.3-2.4,4.5-1.9c1.8,0.4,2.3,2.2,2.6,4c0.3,1.1,0.6,2.3,1,3.2
		c1.5,2.3,4.1,2.3,5.8,1.6c4.4-2,5.3-6,6.2-10.3c0.7-2.9,1.3-5.9,3.2-8.4l0.5-0.8l0.3,0.9c0.9,5.2,1.1,10.5,1.1,15.6
		c0.1,5.6,0.1,11.5,1.5,17.2c3.4,15.1,7.2,31.1,14.7,46.8c12.2,25.5,31.8,46.8,58,63.5c34.2,21.6,75.5,28.5,116,19.1
		c39.4-8.9,74.4-32.8,96-65.5l0.2-0.3l8.4,2.1c4.6,1.2,9.5,2.5,14.2,3.2c4.2,0.5,8.3,0.5,12.6,0c0.6-0.1,2.1-0.7,2.5-0.9
		c-1.8-2.4-3.9-4.9-6.1-7.5c-6.5-7.5-13.9-16-14.8-26.2v-0.6l0.6,0.3c12.2,4.6,26.7,9.4,41.9,14.6l4.1,1.4L468.2,553.6z
		 M503.5,548.3c-0.4,0.9-1.8,0.9-2.7,0.9h-0.3c-73.3,1.6-127.5-49.2-153.2-79.7c-0.4-0.6-0.6-1.8-0.1-2.6c0.3-0.6,0.8-0.9,1.3-0.8
		c4.9,0.3,9.1,2.8,13.3,5l5.2,2.7c2,0.9,3.7,2.2,5.8,3.7c5,3.4,10.1,7,14.7,3.2c0.5-0.4,0.8-1,0.9-1.5c0-0.5,0.1-1.1,0.6-1.3h0.9
		c7.8,2,13.6,7.9,19.1,13.6l2.7,2.7c2.1,2.1,3.7,4.6,5.5,6.8c2.9,4.2,5.7,7.9,10.2,10.2c1.3,0.5,2.3-0.4,3.7-2
		c1.3-1.3,2.9-2.7,4.3-1.4l6.1,5.8c2.8,2.7,5.5,5.4,9,8.1c0.3,0.1,0.5,0.2,0.7,0.2c0.9-0.2,1.8-1.7,2.4-2.7c0.5-1.1,0.8-1.5,1.3-1.7
		c2.2-1.2,6.3,2.5,9.8,5.4l1.9,1.6l3.5,2.9c2.8,2.4,5.6,4.9,8.9,6.9c1.1,0.6,2,0.1,3.1-0.6c1.1-0.5,2.3-1.1,3.4-0.5l3.7,1.7
		c2.3,1,4.5,2.2,6.8,2.8c1.8,0.4,3.2,2.9,4.6,5.2l1.9,2.7C503.5,546.9,503.8,547.6,503.5,548.3z M568.6,513.6
		c2.1,1.7,3.6,4.3,3.4,5.4c-0.1,0.3-0.3,0.6-0.6,0.7c-15.8,4.6-40.8,2.3-61,0.5l-2.6-0.3c-16-1.4-32.6-5.7-51.1-13.1l-1.1-0.4
		c-10.6-4.3-20.8-8.4-30.8-14.6l-2.3-1.2c-2.4-1.1-4.9-2.3-5.2-5.2c-0.1-0.6,0.8-2.1,1.2-2.3c3.3-1.7,6.9-1.1,10.3-0.6
		c2.9,0.4,5.7,0.8,8.5,0c0.9-0.4,1.8-1.3,2.6-2.2c1-1.1,1.8-2.2,3-2.2l3.4,0.2c3.3,0.4,6.9,0.7,9.7-1.5c3.2-2.4,7.8-0.6,11.1,0.8
		c1.5,0.8,3.3,2.5,5.4,4.1c3.4,3.2,7.3,6.6,10.5,6.2c7-1.5,11-1.8,12.1-1.2l5.3,3.2c8.1,5.2,18.1,11.6,25.5,12
		c0.6,0.1,1.2-1,1.7-1.9c1-1.3,2-3.1,3.8-2.2c2.2,1.1,4.1,2.5,6,3.8c2.7,1.9,5.1,3.6,7.8,4.1c0.5,0.1,1.5-0.4,2.5-0.9
		c1.2-0.6,2.4-1.1,3.4-1c2.5,0.4,4.3,1.8,6.4,3.6l2.9,2.2c0.6,0.4,1.7,0.8,2.9,1.3C565.2,511.8,567,512.4,568.6,513.6z M653.6,474.2
		c-0.2,0.8-0.9,1.3-2,1.7c-26,8.1-52.7,8.1-78.6,8.1h-1.2c-24.4,0-47.3-6.3-71.3-13l-8.5-2.4c-0.9-0.2-1.3-0.9-1.5-1.8
		c-0.1-0.6,0.1-1.5,0.5-1.8c2-1.2,4.6-1.3,6.9-1.5c1.8-0.1,3.9-0.3,5.8-1.1c1.1-0.4,1.5-1.5,2.1-2.4c0.7-1.1,1.2-1.9,2.1-2.4
		c1.5-0.8,3.6-1.2,5.5-1.6c2-0.3,3.9-0.5,5-1.2c1.7-1.1,2.7-2.1,3.9-3.2c1.1-1.2,2.3-2.4,3.9-3.4c1.8-1.1,3.9-0.6,6-0.1
		c1.8,0.4,3.7,0.8,5.7,0.4c6-1.3,11,1.5,15.8,4.4c2.7,1.8,5.7,3.4,8.9,4.2c1.8,0.6,3.4,0,4.9-0.6c1.5-0.6,2.9-1.1,4.4-0.8
		c2,0.2,3.7,1.3,5.3,2.3c1.4,0.9,2.8,1.9,4.4,2.3c2.7,0.8,4.6,0.9,7.5-0.4c2.2-1.1,4.6-0.1,6.6,0.9c2,0.9,3.9,1.9,5.8,1.5
		c0.6-0.1,0.9-0.8,1.2-1.6c0.5-0.9,1.1-2,2.3-2c3.7-0.4,7,1.5,10.1,3.4c3,1.7,5.7,3.4,9,3.4c0.1,0,0.6-0.4,0.8-0.7l1.1-1.1
		c2.1-0.8,3.9-0.3,5.8,0.1c2,0.6,4,1.1,6.1,0.4c4.6-1.5,9.4,0.9,14.7,7.2C653.4,472.6,653.8,473.4,653.6,474.2z M735.8,412.7
		c-23.8,13.4-50.6,22.6-84,28.9c-41.2,7.7-80.6,6.6-120-3.5c-0.6-0.1-0.8-0.6-0.8-0.8c0-1.5,4.9-4.6,7-5.6c4.7-1.6,9.8-2.7,14.6-3.7
		c5-1.1,10.1-2,14.8-3.7c1.2-0.4,2.4-2,3.4-3.3l1.4-1.9c3.4-3.4,8.7-4.9,13.3-6.1l2.6-0.6c12.1-3.7,25-1.3,37.5,1l11.2,2l3,0.4
		c5.6,0.8,10.8,1.5,16.4,3.3c0.2,0,1.2-0.1,2-0.7c0.5-0.4,1.3-0.9,1.4-1.7v-0.9c0.3-2.1,0.7-4.3,2.7-4.4c2,0,3.9,0.3,5.9,0.6
		c3.4,0.4,6.8,0.7,9.6-0.4c3.9-1.4,7.9-1.4,11.9-1.3c2.5,0,5.1,0,7.7-0.2c0.6-0.1,0.6-0.4,0.7-1.2c0.1-0.8,0.2-1.7,1.3-2
		c3-0.8,6-0.6,9-0.3c3.8,0.3,7.2,0.6,10.5-1c4.8-2.3,15.1,4,17.1,6.8l0.3,0.4L735.8,412.7z M809,337.7l1.1,0.2
		c6.1,1.5,9,2.3,9.1,3.2c0.1,0.3,0,0.6-0.3,0.8c-63.1,51.8-146.3,59.2-211.7,59.8h-0.1l-0.1-0.1c-5.3-7.2-13.6-11.2-21.5-15.3
		l-7.9-4.1c-0.6-0.4-0.6-1.8-0.6-2.3c0-0.6,0.1-1.8,0.6-2.1c5.8-2.7,11.8-3,18-3.2c3.1-0.1,6.4-0.2,9.5-0.8c1.7-0.3,2.7-1.7,3.8-3.2
		c1.1-1.3,2.2-2.8,3.7-3.3l5.2-1.8c9-2.8,18.1-5.7,27.8-5.3l7.2,0.4c7,0.3,14.3,0.7,21.5,0.4c1.2-0.1,1.5-1.2,2-2.9
		c0.4-1.6,0.7-3.2,2.5-3.7c5.3-0.9,10.6-0.4,15.6,0.1c5.2,0.6,10.5,1.2,16,0c1.1-0.2,1.8-1.8,2.3-3.2c0.4-1,0.6-1.8,1.1-2
		c6.2-2.4,12.9-2.5,19.6-2.7c5.8-0.1,12-0.3,17.7-2.1c-1-0.9-1.8-2-1.8-2.8c0,0,0,0,0-0.1c0-0.4,0.3-0.8,0.6-1.1
		c1.8-1.5,4.9-1.1,7.2-0.8l1.1,0.1h0.4c4.7,0.6,10.2,1.1,14.7-2.4c2-1.4,4.6-0.9,6.9-0.4c2,0.4,3.8,0.8,5.6,0.3l2.5-1.1
		c3-1.1,6.1-2.3,9.4-1.3c2.9,0.8,5,1.3,7.2,1.5L809,337.7z M844,268c6.1-1.5,17.2,0.5,18.1,1.1c0.6,0.4,1.2,0.8,1.2,1.5
		c0.3,1-0.2,1.6-1.1,2.3c-27.2,23.8-58.9,41.4-100.1,54.9c-35.2,11.7-71.5,16.9-107.1,15.4c-2.9-0.1-5-2.7-7.2-5.6
		c-1.7-2-3.3-4.1-5.3-5.2c-2.4-1.5-5.7-1.7-9-1.8l-5.3-0.4c-1.1-0.3-1.8-1.5-1.9-2.9c-0.1-1.1,0.3-2,1-2.3c4.7-1.5,9.6-1.7,14.5-2
		c3.1-0.3,6.5-0.4,9.7-0.9c2-0.4,3-1.8,3.9-3.5c0.8-1.3,1.5-2.6,2.8-3.2c7.7-3.3,16-3.6,24.2-3.7c3.5-0.1,7.2-0.1,10.8-0.5
		c1.1-0.1,1.3-1.3,1.6-3.2c0.3-1.3,0.5-2.7,1.5-3.2c3.3-1.4,6.5-0.1,9.7,1.2l4.2,1.5c2.1,0.4,3-1.2,3.8-2.8c0.7-1.2,1.3-2.3,2.6-2
		c8.2,2.3,11.6,0.4,17.6-4.4c1.1-0.9,3.2-0.4,5.2,0.1l0.6,0.2l0.7,0.1c2.2,0.7,4.1,0.9,4.8-0.8c4.1-10.3,12.7-7.8,20.9-5.5
		c4.6,1.3,9,2.6,12.6,1.5l0.4-0.4c0.2-0.4,0-1.3-0.3-2.2c-0.6-1.5-1.1-3,0.1-3.9c3.7-2.4,7.9-1.8,11.8-1.2c3.7,0.4,6.9,0.8,10.1-0.6
		c1.2-0.5,1.1-1.7,1-3.4c-0.1-1.3-0.3-2.5,0.5-3.4c1.3-1.5,3.2-1.2,5.2-0.6c1.4,0.2,2.8,0.6,4,0c2.1-1.1,5.8-2.3,7.5-2.3
		c4.5-0.1,8.2-1.5,12-2.7c3-1,5.8-1.9,9.4-2.6c0.4,0,0.9-0.5,1.3-1.1C842.6,268.9,843.2,268.2,844,268z M917,143.9
		c-1.1,4.2-2.4,8.3-4.4,14.1c-13.4,37.7-43,61.8-72.4,83.1c-28.8,21-58,34.4-92.4,42.3c-28.3,6.6-52,11.4-77.6,9.6
		c-4.4-0.3-7.9-2.5-11.8-4.6l-4.5-2.5c-1.2-0.4-2.6-0.7-4.2-1c-1.7-0.3-3.4-0.5-4.8-1.2c-1.3-0.8-2-2-1.7-3.2
		c0.2-1.6,1.7-2.9,3.7-3.2c1.6-0.3,3.4-0.1,5.1,0c2.4,0.1,4.4,0.3,6.1-0.7c4.6-2.7,9.5-3.1,14.1-3.5c3.4-0.4,6.5-0.6,9.6-1.5
		c2.1-0.7,2-2.7,1.8-4.6c-0.1-1.7-0.3-3.6,1.6-4.2c2.4-0.7,5-1.2,7.6-1.8l6-1.3c1-0.3,1.6-2.1,2.1-3.7c0.4-1.3,0.8-2.3,1.5-2.5
		c3.8-1.2,9.3-0.7,14.8,0c3.6,0.4,7.2,0.6,10.5,0.6c0.7,0,1-0.6,1.2-2c0.4-1.3,0.8-2.8,2.7-2.8h5.3c5,0.1,5.6,0.1,11-3.6
		c2.5-1.7,6.5-1.8,10.4-2c6-0.1,11.2-0.2,11-5.7v-0.4l0.4-0.1c4.3-0.7,8.7-0.8,13-0.8c9.3-0.1,17.9-0.2,25.7-5.9
		c1-0.8,2.5-0.8,3.9-1c1.5,0,3,0,4.3-0.7c0.5-0.4,0.9-1.1,1.2-1.8c0.5-0.9,0.9-2,2.2-2.3c2-0.6,4.1-1.1,6.3-1.4
		c2.9-0.6,5.7-0.9,8.4-2.2c1.4-0.6,1.8-2.4,2.3-3.8c0.3-1.3,0.6-2.4,1.3-2.6c31.7-14.4,53.4-32.7,68.6-57.4c3.3-5.5,6.9-12.7,7.7-15
		c0.6-1.2,1.2-2,1.8-1.7C917.2,141.2,917.3,142.2,917,143.9z"/>
</g>
</svg>
