<?xml version="1.0" encoding="utf-8"?>
<!-- Generator: Adobe Illustrator 25.0.0, SVG Export Plug-In . SVG Version: 6.00 Build 0)  -->
<svg version="1.1" id="Layer_1" xmlns="http://www.w3.org/2000/svg" xmlns:xlink="http://www.w3.org/1999/xlink" x="0px" y="0px"
	 viewBox="0 0 907 907" style="enable-background:new 0 0 907 907;" xml:space="preserve">
<style type="text/css">
	.st0{fill:#FFFFFF;}
	.st1{fill:#F5B911;}
	.st2{fill:#023087;}
	.st3{fill:#E31837;}
</style>
<g id="XMLID_1_">
	<path class="st0" d="M871.4,277c-22.9-54-55.6-102.4-97.2-144.2C732.7,91.2,684,58.5,630,35.6C574.1,11.9,514.9,0,453.5,0
		C392.4,0,332.9,11.9,277,35.6c-54,22.9-102.4,55.6-144.2,97.2C91.2,174.6,58.5,223,35.6,277C11.9,332.9,0,392.4,0,453.5
		S11.9,574.1,35.6,630c22.9,54,55.6,102.4,97.2,144.2c41.6,41.6,90,74.3,144.2,97.2c55.9,23.6,115.3,35.6,176.5,35.6
		s120.6-11.9,176.5-35.6c54-22.9,102.4-55.6,144.2-97.2c41.6-41.6,74.3-90,97.2-144.2c23.6-55.9,35.6-115.3,35.6-176.5
		S895.1,332.9,871.4,277z M453.5,878.3C219,878.3,28.7,688.3,28.7,453.5S219,28.7,453.5,28.7c234.8,0,424.8,190.1,424.8,424.8
		S688.3,878.3,453.5,878.3z M484.1,96.7c-1.4-1.4,44.9,4.8,89.3,17c44.7,12.2,94.8,32,94.8,38c0,3.1-40.1-12.4-100.8-29.1
		C506.8,105.6,488.8,101,484.1,96.7z M790.5,306.4c-3.8,14.3-19.3,34.9-31.5,49.9c-57.3,71.2-104.4,111-274.9,240.5
		c14.8,11,23.6,17.2,39.2,28.2c0,0,1.2,15.8,0,20.1c-1.4,5-10.5,16.2-10.5,16.2c-22.7-15-38-25.8-59.5-41.6
		c-21.5,15.8-41.1,29.4-63.5,44.4c0,0-7.6-12.9-8.6-17.9c-1-5,0.7-20.1,0.7-20.1c15.5-11,26-18.4,40.8-29.4
		C252.4,467.1,127.3,329.1,125.9,327.4c-7.6-8.6-16.7-24.8-15.3-37.7c0.7-5.3,4.1-18.4,4.1-18.4c1.4,1.7,136.1,149.3,338.9,302.6
		c202.7-153.3,337.4-302.6,337.4-302.6S792.8,297.8,790.5,306.4z M640.7,391.6c3.3,9.1-96.5,48.2-146.2,66.6
		c-49.9,18.4-77.1,25.6-78.3,22.4c-2.1-5.5,34.1-21.3,70.9-34.9C569.6,415.1,639.1,387.1,640.7,391.6z M186.3,306.9
		c13.4,11.5,22.7,18.9,39.6,39.9c3.1,3.6,11.9,7.4,15.8,11c7.9,7.9,11,19.3,21.5,19.3c9.3,0,23.2-22.7,36.1-26.3
		c-3.1,2.9-12.9,19.1-11.7,23.2c0.5,1.7,9.3,3.8,20.5-1.4c16.7,2.9,17.2,2.1,29.1-2.6c1-0.2,10.5-8.8,10.5-8.8s-7.2-3.3-8.1-3.6
		c-7.9-1.9-12.7-10.7-11.5-20.3c0.5-3.6,3.1-13.1,13.4-13.1c5.7,0,17,2.9,19.6,17.2c0.5,3.1,0,9.8-1.7,12.7
		c-3.6,6.4-15,15.3-15,25.3c0,18.4,13.6,18.9,21.5,18.1c12.7,0,34.1,11.7,43.2,11.7c11.7,0,20.1-9.8,20.1-9.8s-4.5-12.4-7.2-16
		c-2.6-3.3-13.1-11.2-13.1-11.2l-9.3,9.8c0,0-19.3-6.4-17.4-14.3c4.5-19.3,14.1-13.9,14.1-16.7c0-3.8-7.2-16.2-7.2-16.2
		s56.1,20.3,56.1,37.7c0,15.5-5.5,22.7-3.6,30.1c1.7,6.9,14.6,16.5,23.4,16.5c9.6,0,26.5-9.3,39.2-9.3c13.6,0,24.8-0.5,24.8-0.5
		s0.7-8.1-3.8-20.5c-4.5-11.7-11-19.6-11-19.6s-22.2,25.8-41.6,20.1c0.7-2.1,3.6-6.2,4.8-6.9c10-6.2,20.1-14.8,20.1-14.8
		s-9.6-7.4-13.4-10.7c7.2-0.7,14.6-7.6,14.6-7.6l-20.3-38.2c0,0,14.6,1.4,19.1,2.9c14.3,4.3,35.8,16.7,57.8,16.7
		c18.6,0,38.7-9.6,46.3-9.6c23.4,0,12.7,34.4,63.3,34.1c0,0,6.7-11.2,7.6-14.1c1-3.3,2.1-17.2,2.1-17.2l-19.6-1l1.4-7.6
		c0,0-4.5-1-4.3-6.7c0-3.3-23.9-1.9-24.6-2.6c5.7-4.3,41.1-20.5,53.3-13.9c8.4,4.5,13.1,35.6,13.1,35.6l28.7,6
		c0,0,7.6-16.5,8.6-20.5c0.7-3.8-0.2-20.5-0.2-20.5c-4.8,1-17.4,0.5-17.4,0.5c2.4-4.8,1.4-10.5-5.7-11.9
		c-8.8-1.4-11.7-7.9-12.4-15.3l-15.3-13.4c-6.2,0-15.5,10.7-21.3-0.2c-5.3-10.3,3.6-13.4,3.6-29.4c0-10.7-4.3-22.9-4.3-22.9
		c15.3,0,37.3,5.7,47.3,10c-6.4,1.2-15.5,3.3-15.5,11.7c0,8.8,29.9,22.7,70.2,21.7c0,0-25.6-9.1-31.5-12.9c-3.3-2.1-5.5-4.8-6.9-8.4
		c5.3-1.9,14.8-2.1,14.8-10c0-13.4-17.7-12.7-48-21c-136.8-37.5-198.7-89.1-291.6-89.1c-113,0-95.3,71.2-160,87.6
		c-57.1,14.6-61.9,45.1-61.9,77.9C175,284.7,181,302.6,186.3,306.9z M244.1,331.5c-1.2,0.2-2.6,0.5-3.8,0.5c-1,0-1.9-0.2-2.6-0.2
		c-2.9-1-6.2-1.9-6.2-1.9c15.3-10.3,6-38.7,20.5-37.5c0,0-5,5.5-5,11.9c0,7.4,10.7,5.3,10.7,13.6
		C257.7,322.6,251.2,329.6,244.1,331.5z M227.1,214.5c21.5,0,32.5,12.7,32.5,26.5c0,13.9-11.7,23.9-24.6,23.9
		c-8.4,0-10.7-6.9-10.7-10.3c0-4.8,7.2-9.1,7.2-14.6c0-6.9-8.6-11.9-17.2-11.9c-14.6,0-24.4,6.4-24.4,6.4S204.9,214.5,227.1,214.5z"
		/>
	<path class="st1" d="M453.5,28.7C219,28.7,28.7,218.7,28.7,453.5S219,878.3,453.5,878.3c234.8,0,424.8-190.3,424.8-424.8
		C878.3,218.7,688.3,28.7,453.5,28.7z M453.5,847.8c-217.8,0-394.3-176.5-394.3-394.3S235.7,59.2,453.5,59.2
		s394.3,176.5,394.3,394.3S671.3,847.8,453.5,847.8z M341,764c-61.4,38.7-91.2-14.1-96.2-10.7c-4.1,2.6-14.1,13.1-22.4-0.2
		c-7.4-11.7-2.4-22,3.3-25.6c23.9-15,40.1,66.9,104.8,26.3c71.2-44.9,1.4-113.7,34.9-134.7c5.7-3.6,11.2-2.1,12.4-0.2
		c1.2,1.9-2.4,4.3-5.3,8.1C359.9,642.4,412.7,718.8,341,764z M345.3,664.1c1.2-3.6,5.3-5.5,7.2-3.3c1.7,1.9,2.9,7.2,3.8,9.6
		c1.4,3.8,1.7,9.3,0.2,11.7c-1,1.7-5,3.6-8.1,1.4c-1,7.6-3.1,9.1-9.8,7.2c-0.5,7.4-4.1,9.3-11,6.4c-0.7,7.9-2.6,9.3-9.6,7.2
		c-1.4,7.6-3.3,8.8-10.3,6.7c0.5,5.3-2.1,7.4-8.1,6.7c-2.1,0-0.7,3.3-0.7,4.5c-0.2,3.1-3.1,4.8-6.2,4.3c-1-0.2-3.1-2.4-3.6-2.1
		c-0.7,1,0,3.8-0.7,5c-1,2.1-2.9,3.6-5.3,3.3c-1,0-4.3-0.5-4.3-0.5s-0.7,2.4-1.4,3.6c-4.3,5.5-8.4,6.9-13.6,2.6
		c-3.1-2.4-5.7-5.5-8.6-8.1c-1.9-1.7-2.9-3.8-1.2-6.2c1.9-2.4,4.3-2.9,7.2-1.4c1.2,0.7,1.9,2.9,3.8,1.4c0.7-1.9-0.5-3.3-0.2-5.3
		c0.7-5.5,5-4.8,10.3-0.7c0,0-1-7.4,1.7-9.3c2.9-1.9,4.5,0,7.2,1.7c0.7,0.5,1.7,0.2,1.7-0.2c0.7-1.2-0.2-3.8-0.2-5
		c0-3.6,4.5-3.8,7.6-2.1c0.2,0,0.7,0,1,0c0.5-1.2,0.2-4.1,1-5.3c1.2-2.1,4.5-3.6,9.8,0.5c1-2.6-1-5.7,1.7-8.1c2.9-2.6,5.3-0.7,7.6,1
		c0,0,0-6.2,1.4-7.4c2.6-2.4,6.4,0.5,9.6,0.7c1-2.1-0.5-4.3,0-6.4c0-1.2,0.7-2.4,1.7-2.9c1-1,2.6-0.2,3.6,0.5c0.7,0.5,1.4,1,2.1,1.2
		c1,0.7,1.9,0.7,2.9,0c1-1.7,0-3.1,0-4.8c0-0.2,0-0.5,0-0.7c0.5-1,1.4-2.6,2.9-2.9c3.1-1.2,6.9,1.7,6.9,1.7
		C346.3,667.7,345.1,666,345.3,664.1z M249.6,717.4c0,0,23.4-16.7,31-22.4c11.2-8.1,22.2-16.2,34.1-23.4
		c7.6-4.8,31.3-17.4,31.3-17.4c0.5,1-11.7,10-16.2,12.9c-19.1,11.7-38,23.6-58,37.7c-3.1,2.1-9.6,7.2-13.1,9.3
		C256.7,715.2,249.8,718.3,249.6,717.4z M565.5,654.3c0,0,23.6,12.7,31.3,17.4c11.7,7.2,22.9,15.3,34.1,23.4
		c7.9,5.5,31,22.4,31,22.4c-0.2,1-7.2-2.1-9.3-3.3c-3.3-2.1-9.8-6.9-13.1-9.3c-19.8-14.1-38.9-26-58-37.7
		C577.2,664.4,564.8,655.1,565.5,654.3z M555.2,682.3c-1.4-2.6-1.2-7.9,0.2-11.7c1-2.4,2.1-7.6,3.8-9.6c1.9-2.4,6-0.2,7.2,3.3
		c0.2,1.9-1,3.6-0.2,5.5c0,0,4.1-2.9,6.9-1.7c1.2,0.5,2.1,1.9,2.9,2.9c0,0.2,0,0.5,0,0.7c0.2,1.7-1,3.1,0,4.8c1,0.7,1.9,0.7,2.9,0
		c0.7-0.5,1.4-1,2.1-1.2c1.2-0.7,2.6-1.2,3.6-0.5c1,0.5,1.4,1.7,1.7,2.9c0.5,2.1-1,4.3,0,6.4c3.3-0.2,6.9-3.1,9.6-0.7
		c1.4,1.2,1.4,7.4,1.4,7.4c2.4-1.7,4.8-3.6,7.6-1c2.6,2.1,0.5,5.5,1.7,8.1c5-4.1,8.6-2.4,9.8-0.5c0.7,1.2,0.5,4.1,1,5.3
		c0.2,0,0.7,0.2,1,0c3.3-1.7,7.6-1.4,7.6,2.1c0,1.2-0.7,4.1-0.2,5c0.2,0.5,1.2,0.7,1.7,0.2c2.6-1.7,4.3-3.6,7.2-1.7
		c2.6,1.7,1.7,9.3,1.7,9.3c5.3-3.8,9.8-4.8,10.3,0.7c0.2,1.9-0.7,3.6-0.2,5.3c1.9,1.7,2.6-0.7,3.8-1.4c2.9-1.4,5.3-1,7.2,1.4
		c1.9,2.4,0.7,4.3-1.2,6.2c-2.9,2.6-5.5,5.7-8.6,8.1c-5.3,4.3-9.3,2.9-13.6-2.6c-1-1-1.4-3.6-1.4-3.6s-3.3,0.2-4.3,0.5
		c-2.4,0.2-4.3-1.4-5.3-3.3c-0.5-1,0-3.8-0.7-5c-0.5,0-2.6,1.9-3.6,2.1c-3.3,0.5-6-1.2-6.2-4.3c-0.2-1,1.4-4.5-0.7-4.5
		c-5.7,0.7-8.6-1.2-8.1-6.7c-7.2,2.1-8.8,1-10.3-6.7c-6.9,2.1-8.8,0.7-9.6-7.2c-6.9,2.9-10.3,0.7-11-6.4c-6.9,2.1-9.1,0.7-9.8-7.2
		C560,685.9,556.2,684,555.2,682.3z M684.7,753c-8.4,13.1-18.4,2.6-22.4,0.2c-5-3.1-34.9,49.4-96.2,10.7
		c-71.6-45.1-18.9-121.6-31.3-137.3c-2.9-3.6-6.7-6-5.5-8.1c1.2-1.9,6.7-3.3,12.4,0.2c33.4,21-36.3,89.8,34.9,134.7
		c64.5,40.6,80.7-41.3,104.8-26.3C687.3,731.2,692.3,741.3,684.7,753z"/>
	<path class="st2" d="M214.5,228.1c-14.6,0-24.4,6.4-24.4,6.4s14.8-19.8,37-19.8c21.5,0,32.5,12.7,32.5,26.5
		c0,13.9-11.7,23.9-24.6,23.9c-8.4,0-10.7-6.9-10.7-10.3c0-4.8,7.2-9.1,7.2-14.6C231.6,232.8,223,228.1,214.5,228.1z M847.5,453
		c0,217.8-176.5,394.3-394.3,394.3S59,670.8,59,453S235.5,58.7,453.3,58.7C671.1,58.7,847.5,235.2,847.5,453z M484.1,96.7
		c4.5,4.3,22.7,8.8,83.3,25.6s100.8,32.2,100.8,29.1c0-5.7-50.4-25.6-94.8-38C529,101.3,482.6,95.3,484.1,96.7z M175,267
		c0,17.7,6,35.6,11.2,39.9c13.4,11.5,22.7,18.9,39.6,39.9c3.1,3.6,11.9,7.4,15.8,11c7.9,7.9,11,19.3,21.5,19.3
		c9.3,0,23.2-22.7,36.1-26.3c-3.1,2.9-12.9,19.1-11.7,23.2c0.5,1.7,9.3,3.8,20.5-1.4c16.7,2.9,17.2,2.1,29.1-2.6
		c1-0.2,10.5-8.8,10.5-8.8s-7.2-3.3-8.1-3.6c-7.9-1.9-12.7-10.7-11.5-20.3c0.5-3.6,3.1-13.1,13.4-13.1c5.7,0,17,2.9,19.6,17.2
		c0.5,3.1,0,9.8-1.7,12.7c-3.6,6.4-15,15.3-15,25.3c0,18.4,13.6,18.9,21.5,18.1c12.7,0,34.1,11.7,43.2,11.7
		c11.7,0,20.1-9.8,20.1-9.8s-4.5-12.4-7.2-16c-2.6-3.3-13.1-11.2-13.1-11.2l-9.3,9.8c0,0-19.3-6.4-17.4-14.3
		c4.5-19.3,14.1-13.9,14.1-16.7c0-3.8-7.2-16.2-7.2-16.2s56.1,20.3,56.1,37.7c0,15.5-5.5,22.7-3.6,30.1c1.7,6.9,14.6,16.5,23.4,16.5
		c9.6,0,26.5-9.3,39.2-9.3c13.6,0,24.8-0.5,24.8-0.5s0.7-8.1-3.8-20.5c-4.5-11.7-11-19.6-11-19.6s-22.2,25.8-41.6,20.1
		c0.7-2.1,3.6-6.2,4.8-6.9c10-6.2,20.1-14.8,20.1-14.8s-9.6-7.4-13.4-10.7c7.2-0.7,14.6-7.6,14.6-7.6l-20.3-38.2
		c0,0,14.6,1.4,19.1,2.9c14.3,4.3,35.8,16.7,57.8,16.7c18.6,0,38.7-9.6,46.3-9.6c23.4,0,12.7,34.4,63.3,34.1c0,0,6.7-11.2,7.6-14.1
		c1-3.3,2.1-17.2,2.1-17.2l-19.6-1l1.4-7.6c0,0-4.5-1-4.3-6.7c0-3.3-23.9-1.9-24.6-2.6c5.7-4.3,41.1-20.5,53.3-13.9
		c8.4,4.5,13.1,35.6,13.1,35.6l28.7,6c0,0,7.6-16.5,8.6-20.5c0.7-3.8-0.2-20.5-0.2-20.5c-4.8,1-17.4,0.5-17.4,0.5
		c2.4-4.8,1.4-10.5-5.7-11.9c-8.8-1.4-11.7-7.9-12.4-15.3l-15.3-13.4c-6.2,0-15.5,10.7-21.3-0.2c-5.3-10.3,3.6-13.4,3.6-29.4
		c0-10.7-4.3-22.9-4.3-22.9c15.3,0,37.3,5.7,47.3,10c-6.4,1.2-15.5,3.3-15.5,11.7c0,8.8,29.9,22.7,70.2,21.7c0,0-25.6-9.1-31.5-12.9
		c-3.3-2.1-5.5-4.8-6.9-8.4c5.3-1.9,14.8-2.1,14.8-10c0-13.4-17.7-12.7-48-21c-136.8-37.5-198.7-89.1-291.6-89.1
		c-113,0-95.3,71.2-160,87.6C179.8,203.7,175,234.3,175,267z M640.7,391.6c-1.7-4.5-70.9,23.4-153.6,54
		c-36.8,13.6-73.1,29.4-70.9,34.9c1.2,3.1,28.4-3.8,78.3-22.4C544.2,439.9,644.1,400.7,640.7,391.6z M372.3,626.6
		c2.9-3.6,6.7-6,5.3-8.1c-1.2-1.9-6.7-3.3-12.4,0.2c-33.4,21,36.3,89.8-34.9,134.7c-64.5,40.6-80.7-41.3-104.8-26.3
		c-5.7,3.6-10.7,13.9-3.3,25.6c8.4,13.1,18.4,2.6,22.4,0.2c5-3.1,34.9,49.4,96.2,10.7C412.7,718.8,359.9,642.4,372.3,626.6z
		 M307.6,710.9c7.2,2.1,8.8,1,10.3-6.7c6.9,2.1,8.8,0.7,9.6-7.2c6.9,2.9,10.3,0.7,11-6.4c6.9,2.1,9.1,0.7,9.8-7.2
		c3.1,2.4,7.2,0.5,8.1-1.4c1.4-2.6,1.2-7.9-0.2-11.7c-1-2.4-2.1-7.6-3.8-9.6c-1.9-2.4-6-0.2-7.2,3.3c-0.2,1.9,1,3.6,0.2,5.5
		c0,0-4.1-2.9-6.9-1.7c-1.2,0.5-2.1,1.9-2.9,2.9c0,0.2,0,0.5,0,0.7c-0.2,1.7,1,3.1,0,4.8c-1,0.7-1.9,0.7-2.9,0
		c-0.7-0.5-1.4-1-2.1-1.2c-1.2-0.7-2.6-1.2-3.6-0.5c-1,0.5-1.4,1.7-1.7,2.9c-0.5,2.1,1,4.3,0,6.4c-3.3-0.2-6.9-3.1-9.6-0.7
		c-1.4,1.2-1.4,7.4-1.4,7.4c-2.4-1.7-4.8-3.6-7.6-1c-2.6,2.1-0.5,5.5-1.7,8.1c-5-4.1-8.6-2.4-9.8-0.5c-0.7,1.2-0.5,4.1-1,5.3
		c-0.2,0-0.7,0.2-1,0c-3.3-1.7-7.6-1.4-7.6,2.1c0,1.2,0.7,4.1,0.2,5c-0.2,0.5-1.2,0.7-1.7,0.2c-2.6-1.7-4.3-3.6-7.2-1.7
		c-2.6,1.7-1.7,9.3-1.7,9.3c-5.3-3.8-9.8-4.8-10.3,0.7c-0.2,1.9,0.7,3.6,0.2,5.3c-1.9,1.7-2.6-0.7-3.8-1.4c-2.9-1.4-5.3-1-7.2,1.4
		c-1.9,2.4-0.7,4.3,1.2,6.2c2.9,2.6,5.5,5.7,8.6,8.1c5.3,4.3,9.3,2.9,13.6-2.6c1-1,1.4-3.6,1.4-3.6s3.3,0.2,4.3,0.5
		c2.4,0.2,4.3-1.4,5.3-3.3c0.5-1,0-3.8,0.7-5c0.5,0,2.6,1.9,3.6,2.1c3.3,0.5,6-1.2,6.2-4.3c0.2-1-1.4-4.5,0.7-4.5
		C305.4,718.3,308.1,716.2,307.6,710.9z M346.3,654.3c0,0-23.6,12.7-31.3,17.4c-11.7,7.2-22.9,15.3-34.1,23.4
		c-7.9,5.5-31,22.4-31,22.4c0.2,1,7.2-2.1,9.3-3.3c3.3-2.1,9.8-6.9,13.1-9.3c19.8-14.1,38.9-26,58-37.7
		C334.3,664.4,346.8,655.1,346.3,654.3z M681.6,727.4c-23.9-15-40.1,66.9-104.8,26.3c-71.2-44.9-1.4-113.7-34.9-134.7
		c-5.7-3.6-11.2-2.1-12.4-0.2c-1.2,1.9,2.4,4.3,5.5,8.1c12.4,15.8-40.4,91.9,31.3,137.3c61.4,38.7,91.2-13.9,96.2-10.7
		c4.1,2.6,14.1,13.1,22.4-0.2C692.3,741.3,687.3,731.2,681.6,727.4z M559.3,660.8c-1.7,1.9-2.9,7.2-3.8,9.6
		c-1.4,3.8-1.7,9.3-0.2,11.7c1,1.7,5,3.6,8.1,1.4c1,7.6,3.1,9.1,9.8,7.2c0.5,7.4,4.1,9.3,11,6.4c0.7,7.9,2.6,9.3,9.6,7.2
		c1.4,7.6,3.3,8.8,10.3,6.7c-0.5,5.3,2.1,7.4,8.1,6.7c2.1,0,0.7,3.3,0.7,4.5c0.2,3.1,3.1,4.8,6.2,4.3c1-0.2,3.1-2.4,3.6-2.1
		c0.7,1,0,3.8,0.7,5c1,2.1,2.9,3.6,5.3,3.3c1,0,4.3-0.5,4.3-0.5s0.7,2.4,1.4,3.6c4.3,5.5,8.4,6.9,13.6,2.6c3.1-2.4,5.7-5.5,8.6-8.1
		c1.9-1.7,2.9-3.8,1.2-6.2c-1.9-2.4-4.3-2.9-7.2-1.4c-1.2,0.7-1.9,2.9-3.8,1.4c-0.7-1.9,0.5-3.3,0.2-5.3c-0.7-5.5-5-4.8-10.3-0.7
		c0,0,1-7.4-1.7-9.3c-2.9-1.9-4.5,0-7.2,1.7c-0.7,0.5-1.7,0.2-1.7-0.2c-0.7-1.2,0.2-3.8,0.2-5c0-3.6-4.5-3.8-7.6-2.1
		c-0.2,0-0.7,0-1,0c-0.5-1.2-0.2-4.1-1-5.3c-1.2-2.1-4.5-3.6-9.8,0.5c-1-2.6,1-5.7-1.7-8.1c-2.9-2.6-5.3-0.7-7.6,1
		c0,0,0-6.2-1.4-7.4c-2.6-2.4-6.4,0.5-9.6,0.7c-1-2.1,0.5-4.3,0-6.4c0-1.2-0.7-2.4-1.7-2.9c-1-1-2.6-0.2-3.6,0.5
		c-0.7,0.5-1.4,1-2.1,1.2c-1,0.7-1.9,0.7-2.9,0c-1-1.7,0-3.1,0-4.8c0-0.2,0-0.5,0-0.7c-0.5-1-1.4-2.6-2.9-2.9
		c-3.1-1.2-6.9,1.7-6.9,1.7c-0.7-1.9,0.5-3.6,0.2-5.5C565,660.5,561,658.6,559.3,660.8z M581.5,667c19.1,11.7,38,23.6,58,37.7
		c3.1,2.1,9.6,7.2,13.1,9.3c2.1,1.2,9.1,4.3,9.3,3.3c0,0-23.4-16.7-31-22.4c-11.2-8.1-22.2-16.2-34.1-23.4
		c-7.6-4.8-31.3-17.4-31.3-17.4C564.8,655.1,577.2,664.4,581.5,667z M790.5,306.4c2.4-8.6,0.5-35.3,0.5-35.3
		S656.2,420.3,453.5,573.9C250.8,420.3,116.1,272.7,114.6,271c0,0-3.6,13.1-4.1,18.4c-1.4,12.9,7.6,29.1,15.3,37.7
		c1.4,1.7,126.8,139.9,297.1,269.4c-14.8,11-25.3,18.4-40.8,29.4c0,0-1.7,15-0.7,20.1c1,4.8,8.6,17.9,8.6,17.9
		c22.7-15,42-28.7,63.5-44.4C475,635.2,490.3,646,513,661c0,0,9.1-11.2,10.5-16.2c1.2-4.1,0-20.1,0-20.1
		c-15.5-11-24.4-17.4-39.2-28.2c170.3-129.4,217.6-169.3,274.9-240.5C771.1,341.3,786.6,320.7,790.5,306.4z M246.9,304.2
		c0-6.4,5-11.9,5-11.9c-14.6-1.2-5.5,27-20.5,37.5c0,0,3.3,1,6.2,1.9c6.2-1.9,9.3-12.9,9.6-14.8c0,0,1.2,11.9-0.7,13.6
		c6-2.6,11-8.4,11-12.7C257.7,309.5,246.9,311.6,246.9,304.2z"/>
	<path class="st3" d="M247.2,316.9c-0.2,1.9-3.3,12.9-9.6,14.8c0.7,0.2,1.4,0.2,2.6,0.2s2.6-0.2,3.8-0.5l2.6-1
		C248.4,329.1,247.2,316.9,247.2,316.9z"/>
</g>
</svg>
