<?xml version="1.0" encoding="utf-8"?>
<!-- Generator: Adobe Illustrator 25.0.0, SVG Export Plug-In . SVG Version: 6.00 Build 0)  -->
<svg version="1.1" id="Layer_1" xmlns="http://www.w3.org/2000/svg" xmlns:xlink="http://www.w3.org/1999/xlink" x="0px" y="0px"
	 viewBox="0 0 890.7 708.4" style="enable-background:new 0 0 890.7 708.4;" xml:space="preserve">
<style type="text/css">
	.st0{fill:#FFFFFF;}
	.st1{fill:#B79257;}
	.st2{fill:#DA1A32;}
</style>
<g>
	<path class="st0" d="M807.7,186.7c-53-53-123.3-82.4-198.1-83c5.4-24.7,13.8-51,25-78.5l0.2-0.5c2.2-5.4,1.6-11.6-1.6-16.5
		c-3.2-4.9-8.6-7.9-14.5-8.1l-0.5,0C614.9,0.1,611.5,0,608,0C580,0,524,3.3,464.4,25.8c-63,23.7-113.3,61.9-149.7,113.6
		c-15,21.3-35.2,56-46.3,100.1c-1.5,6.1-3,12.3-4.2,18.5c-2.1,0-4.1,0.1-6.2,0.1c-24.9,0-54.8-2.7-89-8.2
		c-30.4-4.8-81-21.7-91.8-25.9c-7.6-2.9-15.5-6.1-23.6-9.6l-9.2-4.1L0,190.7l26.7,52c10.4,22.1,19.8,40,26.8,50.9
		c18.2,28.3,39.1,51.6,63.5,70.2l24.3,44.9c14.3,26.5,28.7,47.7,44.2,64.7c8.6,9.5,18.1,17.8,24.6,23.2c8.9,7.3,18.9,14,29.6,19.9
		l12.6,27.4c1.3,2.9,14.7,26.4,34.4,46c12.7,12.6,35.3,27,47.5,32l1.5,0.6c9.3,3.9,33.9,14.4,73.2,14.4c7.3,0,14.9-0.4,22.7-1.2
		l1-0.1c5.9,7.5,8.9,13.1,9.4,17c0.3,2.9-0.8,5.5-2.9,10.3c-1.1,2.2-3.9,5-7.2,8.3l-0.1,0.1c-2,1.9-4.2,4.1-6.3,6.5l-0.6,0.7
		c-4.8,5.4-5.9,13.1-2.8,19.7c3,6.1,9.3,10,16,10c0.4,0,0.7,0,1.1,0l0.9-0.1c14.2-0.9,43.5-8.9,63.3-33.3c5-6.1,9.1-12.5,12.6-19.3
		c29.1,9.9,59.7,14.9,91.2,14.9c75.7,0,146.9-29.5,200.4-83c53.5-53.6,83-124.7,83-200.4C890.7,311.5,861.2,240.3,807.7,186.7z
		 M800.6,580.6c-51.7,51.7-120.3,80.1-193.4,80.1c-33.5,0-65.9-5.9-96.4-17.4c-3.3,8-8,16.6-15.2,25.4
		c-17.6,21.7-43.6,28.9-56.2,29.6l-0.9,0.1c-0.2,0-0.3,0-0.5,0c-3,0-5.8-1.7-7.1-4.4c-1.4-2.9-0.9-6.3,1.2-8.7l0.6-0.7
		c2-2.2,4-4.2,5.9-6.1l0.1-0.1c4-3.9,7.4-7.3,9.3-11.2c4.8-10.8,7.9-18-7.9-38c-1-1.3-2.2-2.6-3.6-3.9l-6,0.6
		c-7.5,0.7-14.8,1.1-21.7,1.1h0c-37.2,0-60.5-9.9-69.3-13.6l-1.5-0.6c-11.4-4.6-32.7-18.4-44.3-29.9c-18.4-18.2-31.2-40.5-32.4-43.1
		l-9.6-20.9l20.7,9.9c7.2,3.4,33.4,9.2,49.3,10.1c5.9,0.3,10.6,0.5,14.7,0.5c3,0,5.7-0.1,8.6-0.3c-2.4-3-4.8-6-7.2-9l-5.3,0.1
		c-0.4,0-0.8,0-1.2,0c-31.4,0-57.9-6.8-86.2-22.1c-10.5-5.7-20.1-12.1-28.7-19.2c-6.2-5.1-15.4-13.1-23.6-22.2
		c-14.9-16.5-28.9-37-42.8-62.8l-11.4-21.2l22.1,9.7c5.4,2.4,11.9,4.5,18.2,6.4c14.5,4.5,29.3,7.8,45,10.2
		c19.1,2.9,34.5,4.1,51.7,4.1c0.5,0,1.1,0,1.6,0c-0.9-3.1-1.8-6.2-2.6-9.2l-1.7,0h0c-9,0-28.1-1.5-39.3-3
		c-15-2.1-43.8-7.4-68.7-19.4c-42.1-20.4-75.8-50.9-102.9-93.3c-7.2-11.3-18.1-30.8-28.1-52.7l-11.7-24.1l20.1,8.9l4.2,1.9
		c9.3,4.1,18.4,7.8,27.1,11.1c11.1,4.2,62.7,21.4,93.8,26.4c34.7,5.5,65.2,8.3,90.6,8.3c4.6,0,9.1-0.1,13.5-0.3l1,0
		c1.5-8.3,3.4-16.9,5.6-25.8c10.7-42.7,30.3-76.2,44.8-96.8c35.2-50,84-87,145.1-110C526,13.2,580.7,9.9,608,9.9
		c3.3,0,6.6,0.1,9.9,0.1l0.5,0c2.6,0.1,5,1.4,6.4,3.6c1.4,2.2,1.7,4.9,0.7,7.3l-0.2,0.5c-10.4,25.4-21.8,58.3-28,92.4
		c3.3-0.1,6.6-0.2,9.8-0.2c73.1,0,141.7,28.4,193.4,80.1s80.1,120.3,80.1,193.4C880.8,460.2,852.3,528.9,800.6,580.6z M729.3,319.4
		c-10,2.3-36,33.5-55.1,51c0.1,3.6,0.5,6.8,1,11.1c0.8,6,3.4,15.3,6.1,19.4c10.4,15.3,21.6,13.5,21.6,13.5s-4.2,19.5,0.2,38.5
		c1.8,7.6,4.6,15.4,8.2,22.7c7.5,14.9,19.3,26.7,19.3,26.7l-2,3.2c0,0-9.6-3.3-17.9-7.6c-15.1-7.9-27.2-16.8-39.4-30.6
		c-15.9-18-40.1-50.1-46.8-58.6c-12.6-15.8-20.4-23.7-32.8-16c-6.8,4.6-9.9,12.9-8.2,19.4c2.3,9.1,6.4,10.6,30.2,38.7
		c11.6,2.6,19.5-10.7,21.3-13.9c0.6,6.3-1.1,16.7-15.8,19.3c3.3,4.3,7,8.4,9.5,14.4c1.5,3.7,2.1,9.5,0,14.4
		c12,1.8,23.8,3.9,35.2,7.6c8.4,2.7,17.3,6.1,25,11.1c13.8,8.9,25.8,20.7,28.2,43.9l3.2,1.6c0,0,16.1-42.4,19.4-53.2
		c10.5-1.6,34-5.3,34-5.3l-8-33.9l2.9-12.4l-27.9,7.8l25.5-18.7l0-10.6l9.8-4.7C775.8,418,732.3,325.7,729.3,319.4z M718.4,371.2
		l-12,3.8l13.9-11.4l16.7-5.9l0.9-1.6l3.7,2c0,0-7.2,3.1-5.9,5c1.3,2,1.6,7,1.6,7l5.5,4.2L718.4,371.2z M740,427.3l-0.5-1.2
		l19.5-11.8l13.5,5.2L740,427.3z"/>
	<path d="M743,374.3l-24.6-3.1l-12,3.8l13.9-11.4l16.7-5.9l0.9-1.6l3.7,2c0,0-7.2,3.1-5.9,5c1.3,2,1.6,7,1.6,7L743,374.3z
		 M759,414.3l-19.5,11.8l0.5,1.2l32.5-7.8L759,414.3z M880.8,387.2c0,73.1-28.4,141.7-80.1,193.4s-120.3,80.1-193.4,80.1
		c-33.5,0-65.9-5.9-96.4-17.4c-3.3,8-8,16.6-15.2,25.4c-17.6,21.7-43.6,28.9-56.2,29.6l-0.9,0.1c-0.2,0-0.3,0-0.5,0
		c-3,0-5.8-1.7-7.1-4.4c-1.4-2.9-0.9-6.3,1.2-8.7l0.6-0.7c2-2.2,4-4.2,5.9-6.1l0.1-0.1c4-3.9,7.4-7.3,9.3-11.2
		c4.8-10.8,7.9-18-7.9-38c-1-1.3-2.2-2.6-3.6-3.9l-6,0.6c-7.5,0.7-14.8,1.1-21.7,1.1h0c-37.2,0-60.5-9.9-69.3-13.6l-1.5-0.6
		c-11.4-4.6-32.7-18.4-44.3-29.9c-18.4-18.2-31.2-40.5-32.4-43.1l-9.6-20.9l20.7,9.9c7.2,3.4,33.4,9.2,49.3,10.1
		c5.9,0.3,10.6,0.5,14.7,0.5c3,0,5.7-0.1,8.6-0.3c-2.4-3-4.8-6-7.2-9l-5.3,0.1c-0.4,0-0.8,0-1.2,0c-31.4,0-57.9-6.8-86.2-22.1
		c-10.5-5.7-20.1-12.1-28.7-19.2c-6.2-5.1-15.4-13.1-23.6-22.2c-14.9-16.5-28.9-37-42.8-62.8l-11.4-21.2l22.1,9.7
		c5.4,2.4,11.9,4.5,18.2,6.4c14.5,4.5,29.3,7.8,45,10.2c19.1,2.9,34.5,4.1,51.7,4.1c0.5,0,1.1,0,1.6,0c-0.9-3.1-1.8-6.2-2.6-9.2
		l-1.7,0h0c-9,0-28.1-1.5-39.3-3c-15-2.1-43.8-7.4-68.7-19.4c-42.1-20.4-75.8-50.9-102.9-93.3c-7.2-11.3-18.1-30.8-28.1-52.7
		l-11.7-24.1l20.1,8.9l4.2,1.9c9.3,4.1,18.4,7.8,27.1,11.1c11.1,4.2,62.7,21.4,93.8,26.4c34.7,5.5,65.2,8.3,90.6,8.3
		c4.6,0,9.1-0.1,13.5-0.3l1,0c1.5-8.3,3.4-16.9,5.6-25.8c10.7-42.7,30.3-76.2,44.8-96.8c35.2-50,84-87,145.1-110
		C526,13.2,580.7,9.9,608,9.9c3.3,0,6.6,0.1,9.9,0.1l0.5,0c2.6,0.1,5,1.4,6.4,3.6c1.4,2.2,1.7,4.9,0.7,7.3l-0.2,0.5
		c-10.4,25.4-21.8,58.3-28,92.4c3.3-0.1,6.6-0.2,9.8-0.2c73.1,0,141.7,28.4,193.4,80.1S880.8,314.1,880.8,387.2z M667.1,271.7
		l-0.7,1.7c-10.5,26.2-20.1,61.4-22.4,75.5c-1.6-6-3.8-12.9-6.2-15.8c-2.4-2.8-6.2-6.6-12.8-6.6c-1,0-2.1,0.1-3.2,0.3
		c-6.3,1-12,6.1-14.5,13l-0.1,0.2c-1.7,4.6-3.3,8.9-3.1,16.5c0.1,4.2,1.3,8.7,3.1,11.7c6.3,10.6,16,16,28.9,16
		c1.7,0,3.4-0.1,5.2-0.3c5-0.5,10.3-2.6,15.4-5.9c11.7-7.8,21.2-17.9,31.2-28.5c5.7-6,11.6-12.2,17.9-18c3.9-3.6,13-11.9,22.3-17.3
		c6.9-4,13.9-6.9,20.7-8.5l1.1-0.6l-0.2-1.4l-0.2-0.6c-2.3-6-4.2-13.7-5.8-23.6c-1.3-8.2-2.1-16.2-1.6-29.1
		c0.3-7.1,2.4-21.3,5.4-32.7c1.4-5.3,3.4-9.5,4.8-12.3c1-2.1,1.6-3.4,1.6-4.2l0-0.2l-0.2-0.1l-1-0.2c-6.2,0-32.6,7.4-58.2,29.9
		C677.5,245.4,671.3,261.2,667.1,271.7z M578.3,228.6c-0.9,0.3-1.8,0.6-2.6,0.9c-3.9,1.4-7.7,3.1-11.5,4.9c-1.2,0.6-2.4,1.2-3.6,1.8
		c-0.6,0.3-1.2,0.6-1.7,0.9c-10.6,5.7-20.4,13.1-29,21.7c0,0,0,0.1-0.1,0.1c-11.7,11.8-21.4,25.9-28.1,41.4
		c-2.7,6.2-4.9,12.6-6.6,19.1c-1.8,7-3.5,14.5-4.3,22.7c-0.3,3.3-0.5,6.7-0.5,10.2c0,4.4,0.3,9,1,13.8c0.3,1.9,0.6,3.9,1,5.9
		c0.6,2.8,1.3,5.6,2.1,8.6c0.2,0.6,0.3,1.1,0.5,1.7c2.5,8.2,6.2,17,11.3,26.5c2.4,4.4,5.1,8.6,8,12.9c10.1,14.6,23,28.4,34.7,40.9
		c12.5,13.3,23.5,25,27.7,34.4c0.2,0.5,0.4,1,0.6,1.5c0.2,0.6,0.4,1.1,0.6,1.6c0.1,0.4,0.2,0.8,0.3,1.2c0.4,1.6,0.6,3.1,0.8,4.5
		c0.2,1.5,0.4,2.9,0.5,4.2c0.1,1.3,0.1,2.6,0.1,3.9c0,1.3-0.1,2.5-0.1,3.7c-0.1,1-0.2,1.9-0.3,2.7c0,0.3-0.1,0.5-0.1,0.8
		c-0.4,2.9-1,5.5-1.5,7.8c4.2-3.4,10-8.6,14.5-12.8c0.4-0.4,0.8-0.7,1.2-1.1c1.6-1.4,2.9-2.7,3.9-3.6c0.6-0.5,1.1-1,1.7-1.5
		c0.6-0.5,1.2-1,1.8-1.6c1.2-1.1,2.4-2.1,3.7-3.2c4.7-4.1,9.6-8.3,13.3-12.4c2.2-2.4,4.1-4.8,5.3-7l0.4-0.7c1.3-2.5,2.3-4.2,2.2-7.2
		c0-0.7-0.1-1.4-0.2-2.3c-0.2-1.6-0.6-3-1.2-4.3c-0.9-2.2-2.4-4.4-4.3-6.9c-2-2.7-4-5.2-6-7.6c-1.5-1.8-2.9-3.5-4.4-5.2
		c-0.9-1-1.8-2-2.7-3c-1-1.1-2-2.3-3-3.3c-0.6-0.7-1.2-1.3-1.9-2c-0.5-0.5-1-1.1-1.5-1.6c-0.6-0.6-1.2-1.2-1.7-1.9
		c-0.1-0.1-0.2-0.2-0.3-0.3c-0.4-0.4-0.8-0.8-1.1-1.2c-0.4-0.4-0.8-0.9-1.2-1.3c-8.1-8.6-13.7-14.9-16.1-21.9
		c-0.4-1.2-0.7-2.4-0.9-3.6c-0.1-0.2-0.1-0.5-0.1-0.8c0-0.1,0-0.2,0-0.2c-0.2-1.8-0.3-3.7-0.1-5.7c2.6-17.8,24.8-29.7,40.5-9.9
		l6.1,7.6c0,0,28.9,36.5,44.4,55.3l8,9.4c0.3,0.3,0.5,0.6,0.7,0.8c13,15.3,36.8,27.5,42.6,30.1c-0.4-0.5-0.9-1.1-1.4-1.7
		c-2.8-3.5-7-9-10.5-15.1c-0.9-1.7-1.8-3.4-2.6-5.1c-0.2-0.3-0.3-0.7-0.5-1c-0.5-1.2-1.1-2.4-1.6-3.6c-0.3-0.8-0.7-1.6-1-2.4
		c-1.7-4.1-3.2-8.7-4.5-13.9c-0.4-1.8-0.8-3.6-1.1-5.4c-0.2-0.9-0.3-1.8-0.4-2.8c0-0.2-0.1-0.3-0.1-0.5c-0.1-0.9-0.2-1.9-0.4-2.8
		c-0.1-0.6-0.1-1.3-0.2-1.9c-0.1-0.9-0.2-1.9-0.2-2.8c0-0.1,0-0.1,0-0.2c-0.1-0.9-0.1-1.8-0.1-2.7c-0.1-1.4-0.1-2.8-0.1-4
		c0-1.3,0-2.5,0.1-3.6c0.1-2.9,0.4-5.4,0.6-7.2c0-0.1,0-0.1,0-0.2c0.2-1.3,0.3-2.3,0.5-2.9c-0.7-0.2-1.9-0.5-3.4-1
		c-3-1.1-7.1-3.1-10.9-6.7c-1.9-1.8-3.7-4-5.2-6.7c-3.8-6.8-7.4-14.9-8.1-28.6c-0.9,0.6-1.7,1.3-2.6,2c-4,3-8.1,6.1-13.2,8.5
		c-2.8,1.3-7.9,3.4-14,4.1c-1.3,0.2-2.7,0.2-4.2,0.2c-1.2,0-2.4-0.1-3.5-0.2c-1.1-0.1-2.3-0.3-3.3-0.6
		c-14.5-3.4-23.4-10.1-28.1-21.1c-1.1-2.5-1.8-5.2-2.2-7.8c-0.1-0.7-0.2-1.3-0.2-2c-0.1-0.7-0.1-1.4-0.1-2c0-1.4,0-2.7,0.1-4.1
		c0.3-3,0.8-6.3,1.7-9.5c0.2-0.7,0.4-1.5,0.7-2.2c0.2-0.7,0.5-1.4,0.8-2.2c0.9-2.1,1.9-4.2,3.2-6.2c0.4-0.6,0.9-1.3,1.4-1.9
		c1.2-1.5,2.6-3,4.2-4.2c0.9-0.8,2-1.5,3.1-2.1c0.4-0.2,0.7-0.4,1.1-0.6c0.8-0.4,1.6-0.8,2.4-1.1c0.6-0.2,1.2-0.4,1.8-0.6
		c1.8-0.5,3.8-0.8,5.8-0.8c7.3,0,14.3,3.5,17.5,8.7c0.1-0.3,0.2-0.6,0.3-1c0.8-2.5,1.9-6.2,3.1-10.7c2.8-10.1,6.7-23.9,12-37.1
		c0.8-1.9,1.6-3.9,2.3-5.9c0.6-1.5,1.2-3.1,1.8-4.6c4.3-10.7,8.9-21.5,15.9-30c-9.7-7-18.9-11.3-26.8-14c-0.7-0.2-1.3-0.4-2-0.6
		c-12.3-3.9-21.7-3.9-25.9-3.9l-1.5,0C605.4,221.9,591.6,224.1,578.3,228.6z M473.7,658.4c0,0.2-0.1,0.8-0.2,1.6
		c4.2-3.8,8.4-8.9,11.7-14.3c3.6-5.8,6.4-12.2,8.9-20c3.7-11.7,4.6-23.5,5.4-33.9c0.3-3.8,0.6-7.5,1-10.9c1-8.8,3.6-18.2,7.7-27.9
		c8.2-19.4,17.5-29.4,21.7-33.6c-11.7-14.3-22-27.1-31.2-38.5l-0.2-0.2c-13.8-17.1-24.7-30.7-32.6-39.8
		c-28.7-33.3-35.4-85.5-32.6-106.1c0.2-1.6,0.4-3.2,0.6-5c1.8-14.3,4.2-33.9,16.7-58.1c9.9-19,24.2-37.1,40.4-51
		c23.3-20,50.3-34.7,80.5-43.7c-2.4-34.1,7-75.9,8.1-80.7c5.8-25.4,12.4-47.2,19.5-64.9c-98.3,3.4-185.5,40.4-239.9,102
		c-16.8,19-40,51.6-55.5,98.9l-0.1,0.4c-4.3,13.2-7.6,25.5-10.2,38.6c-7.9,39.6-11.4,101.2,17.1,170.4
		c37.1,90.2,123.1,152.4,123.9,153c5,3.6,14.6,10.9,21.8,19.2c4.1,4.7,8.3,9.8,11.5,16.4C471.4,637.5,474.9,646,473.7,658.4z
		 M273.5,396.1c-0.4-1.9-0.8-3.8-1.2-5.6c-0.2-1-0.4-2-0.6-3.1c-1.5,0.1-3,0.1-4.6,0.1c-18.8,0-41.9-4.4-46.4-5.2l-1.3-0.3l-0.2,0
		h-0.4l0,0.1c-10.2-2-46.7-11.5-79-34.2c-24.8-17.4-46.7-41.1-65.2-70.3c-6.9-10.8-13-22.1-18.2-33.4l0.6,0.3
		c15.1,6,31.5,11.7,48.8,16.9c23.9,7.2,64.5,16.9,100.5,20.6l0.6,0.1c12.8,1.3,27.3,2.9,42.3,2.9c7.6,0,14.6-0.4,21.4-1.2
		c0.4-2.7,0.8-5.4,1.2-8.2c-4.4,0.2-9.1,0.3-13.9,0.3c-25.8,0-56.7-2.8-91.8-8.4c-31.7-5-84.1-22.5-95.3-26.8
		c-9.6-3.6-19.7-7.8-30-12.4l-0.1-0.1h-0.2l-0.9-0.4l0.5,0.9l0,0.2l0.1,0l0.4,1c9.9,24.1,20.6,42.7,27.8,54
		c26.4,41.2,59,70.7,99.7,90.5c23.9,11.6,51.8,16.7,66.3,18.7c10.9,1.5,29.5,3,38.2,3C273,396.1,273.3,396.1,273.5,396.1z
		 M333.1,522.3c-2.1-2.8-4.1-5.6-6-8.4c-17.1-1.3-28.4-3.2-41.8-7.1c-28.2-8.1-49.8-23.8-67.1-38.1c-19.8-16.3-35-41.1-41.5-51.7
		c-0.6-1-1.2-1.9-1.7-2.7c7.2,3.3,21,6.6,40.1,9.8c21.3,3.5,44.5,5.7,62.1,5.7c2.2,0,4.3,0,6.2-0.1c-1-2.9-2-5.9-3-8.8
		c-1.7,0-3.4,0-5,0c-17.6,0-33.4-1.3-52.8-4.2c-16.2-2.4-31.3-5.9-46.2-10.5c-6.5-2-13.3-4.2-19-6.7l-1-0.5l0.5,1
		c13.6,25.2,27.3,45.2,41.7,61.2c7.9,8.7,16.7,16.4,22.7,21.4c8.2,6.8,17.5,13,27.5,18.4c27,14.6,52.4,21.1,82.4,21.1
		C331.9,522.3,332.5,522.3,333.1,522.3z M429.8,617.9c-3.1-2.5-6.4-5.1-10-7.9c-2.2,0-4.3,0.1-6.3,0.1c-14.1,0-26-0.9-36.1-2.6
		c-10.3-1.8-20.4-4.7-30-8.7c-26.3-10.9-41.4-25.7-58.1-47.4c8.7,2.2,38.4,4.4,48.8,4.4l1.4,0c8.4-0.2,14.8-0.5,20.3-1.1
		c-2-2.2-4.1-4.5-6.3-7.1c-0.4-0.4-0.7-0.8-1.1-1.2c-5.3,0.5-10.2,0.9-16.1,0.9c-4.2,0-9-0.2-15.1-0.5c-16-0.9-43.3-6.6-52.2-10.9
		l-1-0.5l0.4,1c1,2.3,13.4,23.6,30.8,40.8c10.8,10.7,31.3,23.9,41.8,28.2l1.6,0.7c8.4,3.5,30.6,13,66.2,13
		C415.7,619,422.8,618.7,429.8,617.9z M514.1,582.2c1.2-8.7,3.9-18,7.3-25.3c5.6-11.9,11.5-20.9,18.2-27.5c-2-2.1-4-4.3-6-6.4
		c-7.1,7.5-15.6,20.2-19.7,29.9c-7.4,17.4-8.3,27.6-9,35c-0.2,2-0.3,3.7-0.6,5.3c-0.3,1.8-0.4,4.1-0.6,6.7c-0.7,10.2-2,27.3-12,45.4
		c-7,12.7-16.5,22.3-28.8,29.2c3-4.3,6.3-13,5.3-23.7c-1.9-20.7-17.9-36.7-31.1-46.5c-39.9-29.8-73.3-63.9-99-101.4
		c-25.3-36.8-42.1-75-49.9-113.5c-9.5-46.9-7.9-96.1,4.7-142.1c12.1-44.5,34.2-85.4,63.9-118.4C415.2,63.9,501.6,28.5,606.5,26.5
		l-1.2,3.4c-5.6,16-11.5,32.5-16.3,50.7c-3.7,14.1-6.8,28.4-9.3,43.6c-3,18-4,36.6-2.8,51.7l8.2-1.9c-3.1-54.9,16.3-114.7,33-155.6
		l0.2-0.5l-0.6,0c-3.2-0.1-6.4-0.1-9.7-0.1c-26.8,0-80.4,3.2-137.3,24.6c-59.5,22.4-107.1,58.5-141.4,107.1
		c-14.1,20.1-33.1,52.7-43.6,94.2c-17.2,68.6-11.5,120.7-6.5,145.6c4.8,24.2,15.5,54.2,27.9,78.4c2.5,4.9,15.2,27.2,23.6,39.4
		c8.6,12.4,18,24.5,28,36c13.4,15.3,21.9,23.4,28.7,29.8c2.3,2.2,4.4,4.1,6.3,6.1c9.7,9.8,20.4,18,29.8,25.2
		c9.6,7.4,17.9,13.8,22.8,19.9c18.8,23.8,14.3,34.2,8.9,46.2c-2.4,5.1-6.5,9.2-10.9,13.5c-1.9,1.9-3.9,3.8-5.7,5.9l-0.6,0.7l0.9-0.1
		c11.3-0.7,34.6-7.1,50.5-26.7c11.8-14.5,16.4-28.5,19.4-40.2c1.9-7.3,2.6-15.9,3.5-25C512.9,593.1,513.4,587.6,514.1,582.2z
		 M709.8,553c0-7.4-1.6-18.5-6.2-25.6c-3.7-5.7-7.5-9.9-11.9-13.2c-8.1-6.1-18.1-11-29.9-14.7c-11.1-3.5-24.7-6.3-37.3-7.8l-0.2,0
		l-0.1,0.2l-1.3,1.6c-1.6,2.1-3,3.7-5.3,5.4l-0.8,0.6l1,0.1c7.1,0.7,28.9,4.3,38.3,7c9.9,2.9,36.1,10.6,43.6,32.8
		c-5.4-1.3-13.2-2.3-19.4-2.3h-0.4c-21.6,0.1-38.2,4.1-54.7,8.5c-16.5,4.4-29.9,9.1-47.8,16.7c-8.2,3.5-16.1,7.1-23.6,10.5
		c-10.2,4.6-20.7,9.4-32.2,14c-0.4,3.2-0.7,6.4-1,9.6c8.8-3,16.7-6.7,25.1-10.5c2.6-1.2,5.1-2.4,7.8-3.6
		c17.2-7.7,29.6-13.2,45.4-18.9c14.1-5.2,27.6-9.3,41.4-12.5c14.8-3.5,27.5-5.2,38.9-5.2c4.6,0,9,0.3,13,0.9
		c5.7,0.8,11.4,3.1,17,6.7l0.6,0.4V553z M766.1,422.6l9.8-4.7c0,0-43.5-92.3-46.5-98.5c-10,2.3-36,33.5-55.1,51
		c0.1,3.6,0.5,6.8,1,11.1c0.8,6,3.4,15.3,6.1,19.4c10.4,15.3,21.6,13.5,21.6,13.5s-4.2,19.5,0.2,38.5c1.8,7.6,4.6,15.4,8.2,22.7
		c7.5,14.9,19.3,26.7,19.3,26.7l-2,3.2c0,0-9.6-3.3-17.9-7.6c-15.1-7.9-27.2-16.8-39.4-30.6c-15.9-18-40.1-50.1-46.8-58.6
		c-12.6-15.8-20.4-23.7-32.8-16c-6.8,4.6-9.9,12.9-8.2,19.4c2.3,9.1,6.4,10.6,30.2,38.7c11.6,2.6,19.5-10.7,21.3-13.9
		c0.6,6.3-1.1,16.7-15.8,19.3c3.3,4.3,7,8.4,9.5,14.4c1.5,3.7,2.1,9.5,0,14.4c12,1.8,23.8,3.9,35.2,7.6c8.4,2.7,17.3,6.1,25,11.1
		c13.8,8.9,25.8,20.7,28.2,43.9l3.2,1.6c0,0,16.1-42.4,19.4-53.2c10.5-1.6,34-5.3,34-5.3l-8-33.9l2.9-12.4l-27.9,7.8l25.5-18.7
		L766.1,422.6z"/>
	<path class="st1" d="M419.8,610.1c3.6,2.8,7,5.4,10,7.9c-7.1,0.7-14.1,1.1-20.9,1.1c-35.6,0-57.9-9.4-66.2-13l-1.6-0.7
		c-10.5-4.3-31-17.5-41.8-28.2c-17.3-17.2-29.7-38.5-30.8-40.8l-0.4-1l1,0.5c8.9,4.2,36.2,9.9,52.2,10.9c6.1,0.4,10.9,0.5,15.1,0.5
		c5.9,0,10.8-0.3,16.1-0.9c0.4,0.4,0.7,0.8,1.1,1.2c2.2,2.5,4.3,4.9,6.3,7.1c-5.5,0.5-11.9,0.9-20.3,1.1l-1.4,0
		c-10.4,0-40.1-2.2-48.8-4.4c16.7,21.7,31.8,36.4,58.1,47.4c9.6,4,19.7,6.9,30,8.7c10.2,1.8,22,2.6,36.1,2.6
		C415.5,610.1,417.6,610.1,419.8,610.1z M333.1,522.3c-2.1-2.8-4.1-5.6-6-8.4c-17.1-1.3-28.4-3.2-41.8-7.1
		c-28.2-8.1-49.8-23.8-67.1-38.1c-19.8-16.3-35-41.1-41.5-51.7c-0.6-1-1.2-1.9-1.7-2.7c7.2,3.3,21,6.6,40.1,9.8
		c21.3,3.5,44.5,5.7,62.1,5.7c2.2,0,4.3,0,6.2-0.1c-1-2.9-2-5.9-3-8.8c-1.7,0-3.4,0-5,0c-17.6,0-33.4-1.3-52.8-4.2
		c-16.2-2.4-31.3-5.9-46.2-10.5c-6.5-2-13.3-4.2-19-6.7l-1-0.5l0.5,1c13.6,25.2,27.3,45.2,41.7,61.2c7.9,8.7,16.7,16.4,22.7,21.4
		c8.2,6.8,17.5,13,27.5,18.4c27,14.6,52.4,21.1,82.4,21.1C331.9,522.3,332.5,522.3,333.1,522.3z M234.6,393.1
		c10.9,1.5,29.5,3,38.2,3c0.3,0,0.5,0,0.8,0c-0.4-1.9-0.8-3.8-1.2-5.6c-0.2-1-0.4-2-0.6-3.1c-1.5,0.1-3,0.1-4.6,0.1
		c-18.8,0-41.9-4.4-46.4-5.2l-1.3-0.3l-0.2,0h-0.4l0,0.1c-10.2-2-46.7-11.5-79-34.2c-24.8-17.4-46.7-41.1-65.2-70.3
		c-6.9-10.8-13-22.1-18.2-33.4l0.6,0.3c15.1,6,31.5,11.7,48.8,16.9c23.9,7.2,64.5,16.9,100.5,20.6l0.6,0.1
		c12.8,1.3,27.3,2.9,42.3,2.9c7.6,0,14.6-0.4,21.4-1.2c0.4-2.7,0.8-5.4,1.2-8.2c-4.4,0.2-9.1,0.3-13.9,0.3
		c-25.8,0-56.7-2.8-91.8-8.4c-31.7-5-84.1-22.5-95.3-26.8c-9.6-3.6-19.7-7.8-30-12.4l-0.1-0.1h-0.2l-0.9-0.4l0.5,0.9l0,0.2l0.1,0
		l0.4,1c9.9,24.1,20.6,42.7,27.8,54c26.4,41.2,59,70.7,99.7,90.5C192.1,386,220,391.1,234.6,393.1z M521.4,556.9
		c5.6-11.9,11.5-20.9,18.2-27.5c-2-2.1-4-4.3-6-6.4c-7.1,7.5-15.6,20.2-19.7,29.9c-7.4,17.4-8.3,27.6-9,35c-0.2,2-0.3,3.7-0.6,5.3
		c-0.3,1.8-0.4,4.1-0.6,6.7c-0.7,10.2-2,27.3-12,45.4c-7,12.7-16.5,22.3-28.8,29.2c3-4.3,6.3-13,5.3-23.7
		c-1.9-20.7-17.9-36.7-31.1-46.5c-39.9-29.8-73.3-63.9-99-101.4c-25.3-36.8-42.1-75-49.9-113.5c-9.5-46.9-7.9-96.1,4.7-142.1
		c12.1-44.5,34.2-85.4,63.9-118.4C415.2,63.9,501.6,28.5,606.5,26.5l-1.2,3.4c-5.6,16-11.5,32.5-16.3,50.7
		c-3.7,14.1-6.8,28.4-9.3,43.6c-3,18-4,36.6-2.8,51.7l8.2-1.9c-3.1-54.9,16.3-114.7,33-155.6l0.2-0.5l-0.6,0
		c-3.2-0.1-6.4-0.1-9.7-0.1c-26.8,0-80.4,3.2-137.3,24.6c-59.5,22.4-107.1,58.5-141.4,107.1c-14.1,20.1-33.1,52.7-43.6,94.2
		c-17.2,68.6-11.5,120.7-6.5,145.6c4.8,24.2,15.5,54.2,27.9,78.4c2.5,4.9,15.2,27.2,23.6,39.4c8.6,12.4,18,24.5,28,36
		c13.4,15.3,21.9,23.4,28.7,29.8c2.3,2.2,4.4,4.1,6.3,6.1c9.7,9.8,20.4,18,29.8,25.2c9.6,7.4,17.9,13.8,22.8,19.9
		c18.8,23.8,14.3,34.2,8.9,46.2c-2.4,5.1-6.5,9.2-10.9,13.5c-1.9,1.9-3.9,3.8-5.7,5.9l-0.6,0.7l0.9-0.1c11.3-0.7,34.6-7.1,50.5-26.7
		c11.8-14.5,16.4-28.5,19.4-40.2c1.9-7.3,2.6-15.9,3.5-25c0.5-5.3,1-10.9,1.7-16.3C515.3,573.5,518,564.2,521.4,556.9z M679.7,537.1
		c-21.6,0.1-38.2,4.1-54.7,8.5c-16.5,4.4-29.9,9.1-47.8,16.7c-8.2,3.5-16.1,7.1-23.6,10.5c-10.2,4.6-20.7,9.4-32.2,14
		c-0.4,3.2-0.7,6.4-1,9.6c8.8-3,16.7-6.7,25.1-10.5c2.6-1.2,5.1-2.4,7.8-3.6c17.2-7.7,29.6-13.2,45.4-18.9
		c14.1-5.2,27.6-9.3,41.4-12.5c14.8-3.5,27.5-5.2,38.9-5.2c4.6,0,9,0.3,13,0.9c5.7,0.8,11.4,3.1,17,6.7l0.6,0.4V553
		c0-7.4-1.6-18.5-6.2-25.6c-3.7-5.7-7.5-9.9-11.9-13.2c-8.1-6.1-18.1-11-29.9-14.7c-11.1-3.5-24.7-6.3-37.3-7.8l-0.2,0l-0.1,0.2
		l-1.3,1.6c-1.6,2.1-3,3.7-5.3,5.4l-0.8,0.6l1,0.1c7.1,0.7,28.9,4.3,38.3,7c9.9,2.9,36.1,10.6,43.6,32.8c-5.4-1.3-13.2-2.3-19.4-2.3
		H679.7z M648.8,225.6c-12.3-3.9-21.7-3.9-25.9-3.9l-1.5,0c-16,0.2-29.8,2.4-43.1,6.9c-0.9,0.3-1.8,0.6-2.6,0.9
		c-3.9,1.4-7.7,3.1-11.5,4.9c-1.2,0.6-2.4,1.2-3.6,1.8c-0.6,0.3-1.2,0.6-1.7,0.9c-10.6,5.7-20.4,13.1-29,21.7c0,0,0,0.1-0.1,0.1
		c-11.7,11.8-21.4,25.9-28.1,41.4c-2.7,6.2-4.9,12.6-6.6,19.1c-1.8,7-3.5,14.5-4.3,22.7c-0.3,3.3-0.5,6.7-0.5,10.2
		c0,4.4,0.3,9,1,13.8c0.3,1.9,0.6,3.9,1,5.9c0.6,2.8,1.3,5.6,2.1,8.6c0.2,0.6,0.3,1.1,0.5,1.7c2.5,8.2,6.2,17,11.3,26.5
		c2.4,4.4,5.1,8.6,8,12.9c10.1,14.6,23,28.4,34.7,40.9c12.5,13.3,23.5,25,27.7,34.4c0.2,0.5,0.4,1,0.6,1.5c0.2,0.6,0.4,1.1,0.6,1.6
		c0.1,0.4,0.2,0.8,0.3,1.2c0.4,1.6,0.6,3.1,0.8,4.5c0.2,1.5,0.4,2.9,0.5,4.2c0.1,1.3,0.1,2.6,0.1,3.9c0,1.3-0.1,2.5-0.1,3.7
		c-0.1,1-0.2,1.9-0.3,2.7c0,0.3-0.1,0.5-0.1,0.8c-0.4,2.9-1,5.5-1.5,7.8c4.2-3.4,10-8.6,14.5-12.8c0.4-0.4,0.8-0.7,1.2-1.1
		c1.6-1.4,2.9-2.7,3.9-3.6c0.6-0.5,1.1-1,1.7-1.5c0.6-0.5,1.2-1,1.8-1.6c1.2-1.1,2.4-2.1,3.7-3.2c4.7-4.1,9.6-8.3,13.3-12.4
		c2.2-2.4,4.1-4.8,5.3-7l0.4-0.7c1.3-2.5,2.3-4.2,2.2-7.2c0-0.7-0.1-1.4-0.2-2.3c-0.2-1.6-0.6-3-1.2-4.3c-0.9-2.2-2.4-4.4-4.3-6.9
		c-2-2.7-4-5.2-6-7.6c-1.5-1.8-2.9-3.5-4.4-5.2c-0.9-1-1.8-2-2.7-3c-1-1.1-2-2.3-3-3.3c-0.6-0.7-1.2-1.3-1.9-2
		c-0.5-0.5-1-1.1-1.5-1.6c-0.6-0.6-1.2-1.2-1.7-1.9c-0.1-0.1-0.2-0.2-0.3-0.3c-0.4-0.4-0.8-0.8-1.1-1.2c-0.4-0.4-0.8-0.9-1.2-1.3
		c-8.1-8.6-13.7-14.9-16.1-21.9c-0.4-1.2-0.7-2.4-0.9-3.6c-0.1-0.2-0.1-0.5-0.1-0.8c0-0.1,0-0.2,0-0.2c-0.2-1.8-0.3-3.7-0.1-5.7
		c2.6-17.8,24.8-29.7,40.5-9.9l6.1,7.6c0,0,28.9,36.5,44.4,55.3l8,9.4c0.3,0.3,0.5,0.6,0.7,0.8c13,15.3,36.8,27.5,42.6,30.1
		c-0.4-0.5-0.9-1.1-1.4-1.7c-2.8-3.5-7-9-10.5-15.1c-0.9-1.7-1.8-3.4-2.6-5.1c-0.2-0.3-0.3-0.7-0.5-1c-0.5-1.2-1.1-2.4-1.6-3.6
		c-0.3-0.8-0.7-1.6-1-2.4c-1.7-4.1-3.2-8.7-4.5-13.9c-0.4-1.8-0.8-3.6-1.1-5.4c-0.2-0.9-0.3-1.8-0.4-2.8c0-0.2-0.1-0.3-0.1-0.5
		c-0.1-0.9-0.2-1.9-0.4-2.8c-0.1-0.6-0.1-1.3-0.2-1.9c-0.1-0.9-0.2-1.9-0.2-2.8c0-0.1,0-0.1,0-0.2c-0.1-0.9-0.1-1.8-0.1-2.7
		c-0.1-1.4-0.1-2.8-0.1-4c0-1.3,0-2.5,0.1-3.6c0.1-2.9,0.4-5.4,0.6-7.2c0-0.1,0-0.1,0-0.2c0.2-1.3,0.3-2.3,0.5-2.9
		c-0.7-0.2-1.9-0.5-3.4-1c-3-1.1-7.1-3.1-10.9-6.7c-1.9-1.8-3.7-4-5.2-6.7c-3.8-6.8-7.4-14.9-8.1-28.6c-0.9,0.6-1.7,1.3-2.6,2
		c-4,3-8.1,6.1-13.2,8.5c-2.8,1.3-7.9,3.4-14,4.1c-1.3,0.2-2.7,0.2-4.2,0.2c-1.2,0-2.4-0.1-3.5-0.2c-1.1-0.1-2.3-0.3-3.3-0.6
		c-14.5-3.4-23.4-10.1-28.1-21.1c-1.1-2.5-1.8-5.2-2.2-7.8c-0.1-0.7-0.2-1.3-0.2-2c-0.1-0.7-0.1-1.4-0.1-2c0-1.4,0-2.7,0.1-4.1
		c0.3-3,0.8-6.3,1.7-9.5c0.2-0.7,0.4-1.5,0.7-2.2c0.2-0.7,0.5-1.4,0.8-2.2c0.9-2.1,1.9-4.2,3.2-6.2c0.4-0.6,0.9-1.3,1.4-1.9
		c1.2-1.5,2.6-3,4.2-4.2c0.9-0.8,2-1.5,3.1-2.1c0.4-0.2,0.7-0.4,1.1-0.6c0.8-0.4,1.6-0.8,2.4-1.1c0.6-0.2,1.2-0.4,1.8-0.6
		c1.8-0.5,3.8-0.8,5.8-0.8c7.3,0,14.3,3.5,17.5,8.7c0.1-0.3,0.2-0.6,0.3-1c0.8-2.5,1.9-6.2,3.1-10.7c2.8-10.1,6.7-23.9,12-37.1
		c0.8-1.9,1.6-3.9,2.3-5.9c0.6-1.5,1.2-3.1,1.8-4.6c4.3-10.7,8.9-21.5,15.9-30c-9.7-7-18.9-11.3-26.8-14
		C650.2,226,649.5,225.8,648.8,225.6z M747.3,217.7c1.4-5.3,3.4-9.5,4.8-12.3c1-2.1,1.6-3.4,1.6-4.2l0-0.2l-0.2-0.1l-1-0.2
		c-6.2,0-32.6,7.4-58.2,29.9c-16.8,14.8-23,30.6-27.2,41.1l-0.7,1.7c-10.5,26.2-20.1,61.4-22.4,75.5c-1.6-6-3.8-12.9-6.2-15.8
		c-2.4-2.8-6.2-6.6-12.8-6.6c-1,0-2.1,0.1-3.2,0.3c-6.3,1-12,6.1-14.5,13l-0.1,0.2c-1.7,4.6-3.3,8.9-3.1,16.5
		c0.1,4.2,1.3,8.7,3.1,11.7c6.3,10.6,16,16,28.9,16c1.7,0,3.4-0.1,5.2-0.3c5-0.5,10.3-2.6,15.4-5.9c11.7-7.8,21.2-17.9,31.2-28.5
		c5.7-6,11.6-12.2,17.9-18c3.9-3.6,13-11.9,22.3-17.3c6.9-4,13.9-6.9,20.7-8.5l1.1-0.6l-0.2-1.4l-0.2-0.6c-2.3-6-4.2-13.7-5.8-23.6
		c-1.3-8.2-2.1-16.2-1.6-29.1C742.2,243.3,744.3,229.2,747.3,217.7z M872.9,387.2c0,70.9-27.6,137.6-77.8,187.8
		c-50.2,50.2-116.9,77.8-187.8,77.8c-32.7,0-64.2-5.7-93.8-17c1.3-3.8,2.3-7.5,3.2-10.9c1.5-5.7,2.3-11.9,2.9-18.4
		c2.7-0.8,6.5-2.2,13.8-5.5c8.8-3.9,14.5-6.7,15.4-7.1c18.9,5.3,38.6,8,58.4,8c57.3,0,111.2-22.3,151.8-62.9
		c40.5-40.5,62.9-94.5,62.9-151.8c0-60.7-25.9-118.9-71-159.5c0-0.7-0.1-4,1.3-8.5c0.3-1.1,0.7-2.3,1-3.4c0.3-1.2,0.6-2.3,1-3.3
		c16.2,16.2,25.7,13.2,26,13.1c0.6-0.4,1.3-0.5,2-0.5c3.3,0,6.8,3.7,7.1,4.2l0.1,0.1l0.1-0.1l-0.1,0.1l0.3-0.3l0.3-0.3v0
		c-0.5-0.5-4.3-5.1-2.5-8.7c0.2-0.4,4-10.1-13.1-28.2l-0.4-0.5l-0.2,0.6c-0.1,0.2-1.5,4-0.1,10.8l0.1,0.4c0,0,0.5,3.9-1.7,6.3
		c-1.2,1.3-2.9,2-5.1,2l-1.8-0.1c-2.9-0.9-5.6-1.4-8.2-1.4l-1.7,0.1c0.3-0.8,0.7-1.6,1.1-2.4c0.7-1.6,1.4-3.2,1.8-4.7l1.1-0.2
		c3.1,0,6.6,2.8,7,3.2l0.1,0.1l0.1-0.1l-0.1,0.1l0.2-0.3l0.2-0.3c-0.5-0.4-5-4.5-3.7-8.3c0.1-0.4,2.6-10.5-16.9-26.2l-0.5-0.4
		l-0.1,0.6c0,0.2-1,4.2,1.4,10.7l0.1,0.4c0,0,1.1,4.1-1,6.8c-1.3,1.7-3.4,2.5-6.4,2.5c-1.8-0.3-3.5-0.5-5.1-0.5
		c-4.6,0-7,1.2-7.1,1.2l-0.6,0.3l0.5,0.4c4,3.2,7.6,5.5,10.7,7.2l-1,0.4c-0.9,0.3-1.9,0.7-2.9,1.1c-2.5,0.9-4.9,1.9-6.5,2.6
		c-2.1,0.9-4,2-4.6,2.3c-34.5-22.1-74.4-33.7-115.5-33.7c-4.7,0-9.5,0.2-14.3,0.5c-0.9-16.8,0.4-34.1,3-51.2
		c3.7-0.2,7.5-0.2,11.2-0.2c70.9,0,137.6,27.6,187.8,77.8C845.2,249.5,872.9,316.2,872.9,387.2z M641.6,149
		c0.9-13.1-39.2-2.6-39.2-2.6S640.7,161.6,641.6,149z M655.5,163.6c11,0,14.5-4.2,14.7-4.5c0.8-1.6,2.6-2.4,5.2-2.4
		c2.1,0,4.1,0.6,4.5,0.7l0.1,0l0.1-0.4l0.1-0.4c-0.7-0.2-6.4-2.1-6.7-6.1c-0.1-0.4-1.9-10.6-26-17.1l-0.6-0.2l0.1,0.6
		c0,0.2,0.8,4.2,5.6,9.3l0.3,0.3c0,0,2.6,3.3,1.8,6.6c-0.5,2-2.2,3.7-4.9,4.9c-7.7,1.9-10.7,5.5-10.8,5.6l-0.4,0.5l0.6,0.2
		C645.2,162.8,650.7,163.6,655.5,163.6z M690.6,172.6c7.2,0,10-2.6,10.2-2.8c0.9-1.2,2.2-1.8,4.1-1.8c2.6,0,5.3,1.1,5.8,1.4l0.1,0
		l0.2-0.4l0.1-0.4c-0.6-0.3-6-3-5.8-7c0-0.4-0.4-10.8-23.4-20.5l-0.6-0.2l0,0.6c0,0.2,0.2,4.3,4.3,9.9l0.2,0.4c0,0,2.2,3.6,0.9,6.8
		c-0.8,1.9-2.6,3.3-5.5,4.2c-7.9,0.8-11.3,3.9-11.5,4.1l-0.5,0.4l0.6,0.2C677.8,170.9,684.8,172.6,690.6,172.6z M740,184.9
		c-0.6-0.4-5.6-3.8-4.8-7.7c0.1-0.4,1.1-10.8-20.4-23.6l-0.5-0.3l-0.1,0.6c0,0.2-0.4,4.3,2.9,10.4l0.2,0.4c0,0,1.6,3.9-0.1,6.9
		c-1,1.8-3.1,2.9-6,3.4l-1.1,0c-7.2,0-10.7,2.4-10.9,2.5l-0.5,0.3l0.5,0.3c11.4,6.7,19.1,8.1,23.6,8.1c4.7,0,6.8-1.5,6.9-1.6
		c0.8-0.8,1.9-1.3,3.2-1.3c2.9,0,6.2,2,6.6,2.2l0.1,0l0.2-0.3L740,184.9z M838.7,321.8c-1.7,0-3.5-0.8-5.3-2.3
		c-5.2-6-9.7-7.1-9.9-7.2l-0.6-0.1l0.1,0.6c5.1,24.5,15.2,26.8,15.7,26.9c4.4,0.1,5.7,7.1,5.9,7.9l0,0.1l0.4-0.1l0.4-0.1
		c-0.1-0.7-1-6.6,2.5-8.8c0.4-0.2,8.7-6.4,3.7-30.9l-0.1-0.6l-0.5,0.4c-0.1,0.1-3.4,2.6-5.8,9.1L845,317
		C845,317.1,842.8,321.8,838.7,321.8z M799.5,250.8l1.1-0.1l1.5-0.3c3.5,0,6.7,4.6,7.1,5.2l0,0.1l0.3-0.2l0.3-0.3
		c-0.4-0.6-3.6-5.7-1.3-9c0.2-0.4,5.3-9.4-9.1-29.8l-0.4-0.5l-0.3,0.5c-0.1,0.1-2.1,3.7-1.6,10.7l0,0.4c0,0.3-0.2,7.4-6.5,7.4
		c-1,0-2.1-0.2-3.2-0.5c-4.9-2.3-8.6-2.7-10.4-2.7c-1,0-1.5,0.1-1.6,0.1l-0.6,0.1l0.4,0.5C787.2,249,796.2,250.8,799.5,250.8z
		 M817.2,278.5l0.2,0l1-0.1c3.8,0,6.5,5.5,6.8,6.1l0,0.1l0.4-0.2l0.3-0.2c-0.3-0.6-2.8-6.1,0-9.1c0.3-0.3,6.6-8.6-4.9-30.8l-0.3-0.6
		l-0.4,0.5c-0.1,0.1-2.6,3.4-3,10.3l-0.1,0.4c-0.1,0.3-1.1,6.5-6.4,6.5c-1.3,0-2.7-0.3-4.1-1c-6-4-10.5-4.2-11.3-4.2l-0.8,0l0.3,0.5
		C806,277.9,816.1,278.5,817.2,278.5z M830.2,308.4l0.5,0c4,0,6.2,6.3,6.4,7l0,0.1l0.4-0.1l0.4-0.2c-0.2-0.7-1.9-6.4,1.2-9
		c0.3-0.3,7.7-7.6-0.6-31.1l-0.2-0.6l-0.4,0.4c-0.1,0.1-3,3-4.4,9.9l-0.1,0.4c0,0.1-1.7,5.6-6.4,5.6c-1.5,0-3.1-0.6-4.8-1.6
		c-6-5.3-10.6-5.7-10.8-5.7l-0.6-0.1l0.2,0.6C819.4,307.4,829.7,308.3,830.2,308.4z M540.4,615.5c0,0,36,20.5,38.6,7.7
		C581.4,610.7,540.4,615.5,540.4,615.5z M618.1,625.8l0-0.4L618.1,625.8L618.1,625.8L618.1,625.8l0.1-0.8l-0.3,0
		c-1.3,0-7.7-0.2-8.7-4.3c-0.2-0.4-4.5-9.8-29.5-10H579l0.3,0.6c0.1,0.2,2,4.4,8.9,8.2c2.4,1.9,3.6,3.9,3.5,6
		c-0.1,3.4-3.5,5.9-3.5,5.9l-0.2,0.2c-6.1,3.6-7.9,7.4-8,7.5l-0.3,0.6l0.9,0c24.8,0,29.2-9.3,29.4-9.7
		C611.4,626.1,617.4,625.8,618.1,625.8z M651.1,622.2L651.1,622.2l-0.1-0.4L651.1,622.2L651.1,622.2L651.1,622.2l-0.1-0.8l-0.1,0
		l0,0c-0.3,0.1-1.4,0.2-2.7,0.2c-2.5,0-5.7-0.5-6.7-3.2c-0.2-0.3-4.2-6.6-20.4-6.6c-3.1,0-6.6,0.2-10.2,0.7l-0.6,0.1l0.3,0.5
		c0.1,0.2,2.6,4.1,10,6.9c2.6,1.6,4.1,3.4,4.3,5.5c0.4,3.4-2.6,6.3-2.6,6.3l-0.3,0.3c-5.4,4.4-6.7,8.3-6.7,8.4l-0.2,0.6l0.6-0.1
		c24.8-3.4,27.9-13.3,28-13.7C644.5,623.5,650.4,622.3,651.1,622.2z M683.4,614.1L683.4,614.1l-0.2-0.7l-0.1,0
		c-0.4,0.1-2.4,0.7-4.6,0.7c-2.5,0-4.3-0.8-5.1-2.4c-0.1-0.2-3.5-4.2-14.1-4.2c-4.9,0-10.6,0.9-17,2.6l-0.6,0.2l0.4,0.5
		c0.1,0.1,3.2,3.7,10.8,5.5c2.8,1.2,4.5,2.8,5,4.8c0.9,3.3-1.7,6.6-1.7,6.6l-0.2,0.3c-4.8,5.1-5.5,9.2-5.5,9.3l-0.1,0.6l0.6-0.2
		c24.1-6.8,25.7-17,25.8-17.5C677,616.3,682.7,614.3,683.4,614.1l-0.2-0.3L683.4,614.1L683.4,614.1z M714.2,601.6L714.2,601.6
		l-0.3-0.7l-0.1,0v0c-0.5,0.2-3.2,1.5-5.9,1.5c-1.8,0-3.1-0.6-4-1.8c-0.1-0.1-2.8-2.6-9.8-2.6c-5.9,0-13.1,1.8-21.2,5.3l-0.6,0.2
		l0.5,0.4c0.1,0.1,3.6,3.2,11.5,3.9c2.9,0.8,4.8,2.2,5.6,4.1c1.3,3.1-0.8,6.8-0.8,6.8l-0.1,0.3c-4.1,5.8-4.2,9.9-4.2,10.1l0,0.6
		l0.6-0.3c22.9-10,23.2-20.4,23.2-20.9C708.1,604.7,713.5,601.9,714.2,601.6l-0.2-0.3L714.2,601.6L714.2,601.6z M742.9,584.9
		L742.9,584.9l-0.4-0.6l0,0l0,0c-0.4,0.2-3.7,2.3-6.6,2.3c-1.3,0-2.4-0.4-3.2-1.3c-0.1-0.1-2.1-1.5-6.6-1.5
		c-4.5,0-12.3,1.5-23.8,8.4l-0.5,0.3l0.5,0.3c0.1,0.1,3.6,2.3,10.5,2.3l1.4,0c3,0.4,5.1,1.5,6.1,3.3c1.7,2.9,0.2,6.8,0.1,6.9
		l-0.1,0.3c-3.3,6.3-2.8,10.4-2.8,10.6l0.1,0.6l0.5-0.3c21.3-13.1,20.1-23.4,20.1-23.9C737.4,588.8,742.3,585.4,742.9,584.9
		l-0.2-0.2L742.9,584.9L742.9,584.9z M769.1,564.5L769.1,564.5l-0.5-0.6l-0.1,0.1v0c-0.4,0.3-3.9,3.3-7,3.3c-1,0-1.8-0.3-2.6-0.9
		c-0.1,0-1.4-0.7-4.1-0.7c-4.8,0-13,2.1-25,11.8l-0.5,0.4l0.6,0.3c0.1,0.1,2.4,1.1,6.8,1.1c1.7,0,3.6-0.2,5.4-0.5h0.2
		c3,0,5.1,0.8,6.3,2.4c2.1,2.7,1.1,6.7,1.1,6.7l-0.1,0.3c-2.4,6.7-1.4,10.7-1.3,10.9l0.2,0.6l0.5-0.4c19.3-15.9,16.7-26,16.6-26.4
		C764.1,569.2,768.6,565.1,769.1,564.5l-0.3-0.2L769.1,564.5L769.1,564.5z M792.2,540.7L792.2,540.7l-0.6-0.5l-0.1,0.1
		c-0.4,0.4-3.8,4.3-7.1,4.3c-0.7,0-1.4-0.2-2-0.6c0,0-0.8-0.3-2.3-0.3c-4,0-12.7,2-25,15.3l-0.4,0.5l0.6,0.2c0.1,0,1.3,0.4,3.7,0.4
		c2.6,0,5.5-0.5,8.4-1.5c3.2-0.5,5.6,0.1,7.1,1.8c2.1,2.4,1.7,6.2,1.7,6.3l-0.1,0.5c-1.4,6.8,0.2,10.6,0.2,10.8l0.2,0.6l0.4-0.5
		c16.9-18.4,13-28,12.8-28.4C787.9,546,791.8,541.3,792.2,540.7l-0.3-0.2L792.2,540.7L792.2,540.7z M811.8,513.9L811.8,513.9
		l-0.6-0.4l0,0.1c-0.4,0.6-3.5,5.2-7.1,5.2l-1.5-0.3l-0.9-0.1c-2.6,0-12,1.3-24.1,18.7l-0.4,0.5l0.6,0.1c0,0,0.5,0.1,1.4,0.1
		c1.8,0,5.6-0.4,10.5-2.8c1.2-0.4,2.3-0.5,3.3-0.5c6.2,0,6.5,7,6.5,7.3l0,0.4c-0.4,7,1.6,10.6,1.7,10.7l0.3,0.5l0.3-0.5
		c14.2-20.6,9-29.5,8.7-29.9C808.3,519.7,811.4,514.6,811.8,513.9L811.8,513.9l-0.3-0.1L811.8,513.9L811.8,513.9z M827.6,493.8
		c-2.7-2.9-0.3-8.5-0.1-9.1l-0.3-0.2l0.4,0.1l0,0l0,0l-0.7-0.3l0,0.1c-0.3,0.6-3,6.2-6.8,6.2l-1-0.1h-0.1c-1.1,0-11.2,0.6-22,21.9
		l-0.2,0.6h0.6c0.8,0,5.2-0.2,11.3-4.3c1.6-0.7,3-1.1,4.3-1.1c5.3,0,6.4,6.1,6.4,6.4l0.1,0.5c0.6,6.9,3.1,10.2,3.2,10.3l0.4,0.5
		l0.3-0.6C834.3,502.3,827.9,494.2,827.6,493.8z M840,463.9c-3.1-2.5-1.5-8.3-1.3-9v0l-0.4-0.1l0.4,0.1l0,0h0l-0.8-0.2l0,0.1
		c-0.2,0.7-2.4,7.1-6.4,7.1l-0.5,0c-0.4,0-10.8,1.1-19.1,24.6l-0.2,0.6l0.6-0.1c0.2,0,4.8-0.5,10.7-5.8c1.8-1.1,3.4-1.7,4.9-1.7
		c4.6,0,6.3,5.5,6.4,5.6l0.1,0.3c1.5,6.9,4.4,9.9,4.5,10l0.4,0.4l0.2-0.6C847.8,471.5,840.4,464.2,840,463.9z M848.4,432.7
		c-3.4-2.1-2.5-8.1-2.4-8.8l-0.4-0.1l0.3,0l0.1,0l0,0h0l-0.8-0.1l0,0.1h0c-0.1,0.8-1.5,7.8-6,7.9c-0.4,0.1-10.5,2.5-15.6,26.9
		l-0.1,0.6l0.6-0.1c0.2-0.1,4.7-1.1,9.8-7.1c1.9-1.6,3.7-2.4,5.4-2.4c4.1,0,6.3,4.7,6.3,4.7l0.1,0.2c2.4,6.7,5.7,9.2,5.8,9.3
		l0.5,0.4l0.1-0.6C857.2,439.1,848.8,432.9,848.4,432.7z M860.5,385.4c0-6.7-5.5-12.2-12.2-12.2c-6.7,0-12.2,5.4-12.2,12.2
		s5.4,12.2,12.2,12.2S860.5,392.2,860.5,385.4z"/>
	<path class="st2" d="M599.2,31.5c-98.3,3.4-185.5,40.4-239.9,102c-16.8,19-40,51.6-55.5,98.9l-0.1,0.4
		c-4.3,13.2-7.6,25.5-10.2,38.6c-7.9,39.6-11.4,101.2,17.1,170.4c37.1,90.2,123.1,152.4,123.9,153c5,3.6,14.6,10.9,21.8,19.2
		c4.1,4.7,8.3,9.8,11.5,16.4c3.4,7.1,7,15.6,5.7,28c0,0.2-0.1,0.8-0.2,1.6c4.2-3.8,8.4-8.9,11.7-14.3c3.6-5.8,6.4-12.2,8.9-20
		c3.7-11.7,4.6-23.5,5.4-33.9c0.3-3.8,0.6-7.5,1-10.9c1-8.8,3.6-18.2,7.7-27.9c8.2-19.4,17.5-29.4,21.7-33.6
		c-11.7-14.3-22-27.1-31.2-38.5l-0.2-0.2c-13.8-17.1-24.7-30.7-32.6-39.8c-28.7-33.3-35.4-85.5-32.6-106.1c0.2-1.6,0.4-3.2,0.6-5
		c1.8-14.3,4.2-33.9,16.7-58.1c9.9-19,24.2-37.1,40.4-51c23.3-20,50.3-34.7,80.5-43.7c-2.4-34.1,7-75.9,8.1-80.7
		C585.5,71,592.1,49.2,599.2,31.5z"/>
</g>
</svg>
