<?xml version="1.0" encoding="utf-8"?>
<!-- Generator: Adobe Illustrator 25.0.0, SVG Export Plug-In . SVG Version: 6.00 Build 0)  -->
<svg version="1.1" id="Layer_1" xmlns:svg="http://www.w3.org/2000/svg"
	 xmlns="http://www.w3.org/2000/svg" xmlns:xlink="http://www.w3.org/1999/xlink" x="0px" y="0px" viewBox="0 0 999.4 840.9"
	 style="enable-background:new 0 0 999.4 840.9;" xml:space="preserve">
<style type="text/css">
	.st0{fill:#010101;}
	.st1{fill:#F28F20;}
	.st2{fill:#05535D;}
	.st3{fill:#FFFFFF;}
</style>
<g>
	<path class="st0" d="M975.5,325.7c-8.9-0.2-23.9,2.1-23.9,2.1s-8.4,12.2-10.3,17.4c-0.5,1.4,2.3,14.3,2.3,14.3
		s-12.7,23.3-21.6,40.6c-8.9,17.2-23.3,44.2-43.9,76.9c-18.5,29.4-32.4,51.7-32.4,51.7l6.4,15.1l5.9-4.5l1.6-0.5l5.2,0.3
		c0,0,9.4-11,21.6-23.3c12.2-12.5,39.2-55.9,56.6-80.6c17.4-24.7,33.9-61.3,33.9-61.3s8.5-0.9,13.6-3.1c4.9-2.3,6.1-9.7,6.1-9.7
		s0.3-6.1,1.4-14.1c1.2-8.9,1.2-17.4,1.2-17.4S984.2,325.9,975.5,325.7z M855.4,533.1c0.3,1.2,0.7,2.1,0.9,2.8
		c-0.3,0.3-1.7,1.2-2.4,1.7c-0.5-0.9-3.5-7.1-3.8-8c1.2-0.5,4.7-1.2,7.5-3.5c0.2,0,0.9-0.2,1.7-0.5
		C858.2,527.3,856.8,530.6,855.4,533.1z M922.4,444.5c-24.9,41.6-52.2,79.9-57.3,83.4c-0.3,0.2-5,4-5.4,4.2
		c1.4-2.1,6.6-11.5,6.6-11.5s-3.3,1.7-4.4,2.1c0.5-1,0.7-2.4,0.7-2.6l1.2-3.3l-2.3,2.3c-1,1-8.7,4.9-10.4,6.4
		c8.7-9.7,21.2-27.5,32.4-46c16.9-28,34.1-59.2,42.7-75.9c8.7-17.1,21.1-40,21.1-40.2c0,0,3-5.6,4.2-6.8l3.3-1.2
		c2.6-1,5.7-2.3,11.3-2.1c3.5,0.2,7.3,0.3,9.9,0.7C961.1,377.3,933.9,425.1,922.4,444.5z M984.2,344.2c-1.2,0-19.3-0.3-19.3-0.3
		c-6.8-0.2-12.4,0.7-16.7,1.6c1.9-3.5,4.7-7.7,6.4-9.9c2.8-0.7,12.2-3.1,19.3-3c6.3,0.2,13.9,1,17.6,1.4
		C989.3,338.4,985.5,342.8,984.2,344.2z M890.9,558.1c0.5,0.9-7.1,5.4-7,5.4c-2.4,1-23-11.1-23-11.1s-1.2-3.5-1.2-4.7
		c-0.2-1.2,4.9-2.3,13.6-4.5c8.9-2.3,15,1.7,15,1.7s-0.5,2.4-0.2,5.6C888.3,553.8,890.2,557.1,890.9,558.1z M847.6,561.1
		c0,0-9.4-42-17.1-51c-7.7-9.2-20.7-15-20.7-15s-1.4-1.9-4-5c11.7-20,30.8-55.5,47.5-98c25.9-66,36.7-94.2,28-90.9
		c-8.9,3.1-68.9,33.9-105.8,49.4c-0.4,0.1-0.7,0.3-1,0.4c0,0,0.1,0,0.1,0l92.9-146.6l-13.6,3l-48.7,9.6
		c-1.5,0.3-115.2,22.2-223.7,32.6c-13.1-19.9-29.2-42.4-49.3-67C475.9,113.5,395.5,43.5,335.9,17.1c-6.4-3,50.3,96.3,73.6,161.6
		c11.7,33,16.5,57.7,18.5,74.1c-116.6-7.8-257.3-34.5-264.1-35.8l-62-11.5l156.7,247.3c-19.6,1.3-45.1,2.9-76.3,4
		c-79.9,3.1-164.9,4-165.4,5.6c-1.6,6.4,102.9,55.4,229.1,89.7c38.4,10.4,67.4,18.4,90.9,24.5l37.1,58.5
		c-16.7,12.8-51.4,40.5-73.9,63.8c-29.6,30.6-53.6,62.1-68.1,80.3c-14.6,18.1-20.7,28.7-20.2,30.1c0.2,0.7,3.7,6.3,4.2,7.3
		c0.7,1.7,27.5-1.4,49.1-1.9c21.6-0.5,50.1-0.9,51-2.3c1-1.4,16-40.2,46-73.3c16.5-18.2,33.9-36.2,46.9-48.7l75.3,118.9l91.4-144.3
		c0.7-0.1,1.4-0.2,2.1-0.2c5.9-0.6,11.7-1.3,17.4-1.9c6.1,3.8,12.1,7.4,17.8,10.8c-6.3,3.3-8.4,8-8.4,8s1.7,1.2,3.3,3.7
		c1.6,2.3,2.1,5.6,2.1,6.6c0.2,1,9.1-0.2,9.1-0.2c1.4-0.3,4-5.9,6.3-11c6.6,3.7,12.4,6.6,17.1,8.7c0,2.4,0.3,5,0.9,7.8
		c5.4,1.2,10.8-2.6,12.9-4.4c15.3,2.4,33.9,5.4,44.7,4.9c12.4-0.5,19.8-3.5,19.8-3.5s16.9,5,33.4,5s28.6-6.4,28.6-6.4
		s12.4,7.5,39.3,9.6c0,0,17.6,1.4,34.3,1.2c17.1,0.3,29.6-2.6,31.5-4.9c3.1-4.4-16.7-84.6-27.7-108.8
		C849.1,566,847.6,561.1,847.6,561.1z M809.6,233.8l27.2-5.2l-84.9,132.2c-2.7,1.2-5.3,2.3-7.8,3.4c-6.2,2.8-11.7,5.3-16.3,7.6
		c-0.1,0-0.1,0.1-0.2,0.1c-1.8,0.9-3.5,1.7-5,2.5c-0.1,0-0.1,0.1-0.2,0.1c-0.8,0.4-1.5,0.8-2.2,1.1l81.5-126.1l-4,0.7
		c-22.4,4.1-109.3,19.5-198.1,28.6c-0.8-1.4-1.6-2.7-2.4-4.1c0,0,0,0,0,0c-0.8-1.4-1.7-2.8-2.5-4.2
		c104.6-10.6,209.8-30.8,215.8-31.9l16.3-3l-82.7,128.7L827,235l-16.5,3.3c-5.9,1.2-111.3,21.3-215.9,31.9c0,0,0,0,0,0
		c-0.9-1.4-1.7-2.8-2.6-4.3c0,0,0,0,0,0C697,255.4,803.7,235,809.6,233.8z M394.3,265.1c9.1-1.7,21.2-3.5,34.5-4.7
		c0.9,11.1,0.2,16.7,0.2,16.7s-47.7-2.8-86,4.5c-1.2-0.5-1.9-0.9-1.9-0.9S371.4,269.3,394.3,265.1z M282.8,335.5
		c3.3-0.2,32.2,4.7,73.5,21.1c40.4,16,74.3,39.3,99.2,56.8c0,0-71.6-46.1-118.6-59.2s-51.2-15-54-12.7c-2.8,2.1-10.6,8.2-10.6,8.2
		S279.4,335.5,282.8,335.5z M258.7,452.8c2.4-0.2,4.8-0.3,7-0.5C263.5,452.5,261.1,452.6,258.7,452.8z M310.2,455.1
		c-10.4,0.3-22.3,3.1-38.5,3.1c-1.9-4.7-4.5-8.9-5.6-11.7c-3.7-12.2,10.1-5.6,36.2-9.4c25.9-3.7,55,30.5,54.1,47.2
		C355.6,501.2,310.2,455.1,310.2,455.1z M363.3,583C363.3,583,363.3,583,363.3,583c2.4,0.6,4.7,1.1,7,1.6c0.9,0.2,1.8,0.4,2.8,0.6
		c0.5,0.1,0.9,0.2,1.4,0.3c1.2,0.2,2.3,0.5,3.5,0.7c0.5,0.1,1.1,0.2,1.6,0.3c0.9,0.2,1.8,0.4,2.7,0.5c0.6,0.1,1.3,0.2,1.9,0.4
		c0.6,0.1,1.3,0.2,1.9,0.4c29.9,5.6,53.2,6.8,90.4,6c-2.4-3.5-5-7-7.8-10.1c17.8,11.3,40.7,26.3,62.8,39.3
		c4.9,2.9,10.5,6.4,16.7,10.2c-3,0-6.1,0.1-9.4,0.1c0,0-68.6,0.3-102.9-2.1c-8.6-0.6-16.1-1.2-22.4-1.8l0,0c-0.1,0-0.3,0-0.4,0
		c-9.4-0.8-16.4-1.5-21.1-1.9c0,0,0,0,0,0L363.3,583z M504.3,554.5c0,0-10.1-32.7-3.7-73.6l8.2,11.7
		C508.8,492.5,502.4,535.8,504.3,554.5z M523.1,567c0,0-8.9-30.6-2.6-68.9l8.2,13.4C528.6,511.5,521.2,552.9,523.1,567z
		 M540.8,577.5c0,0-6.6-26.8-0.3-60.2l8.2,11.7C548.7,528.9,539.8,566.3,540.8,577.5z M311,802.7c-5.6,0.5-31.5,1.4-45.3,1.7
		l-24.5,1.2c-7.5,0.5-16.2,1-21.8,1.2c1.7-3.5,6.1-10.1,15.7-22.1c11-1.9,27.3-4,45.4-4.9l5.7-0.2c18.3-0.9,26.1-1.2,35.7,0.9
		C317.8,788.1,314,795.6,311,802.7z M286.1,776.6l-5.7,0.2c-16,0.7-31.2,2.4-42.5,4.4l5.7-7.3c3.8-4.7,7.8-9.9,12.4-15.5
		c12.9-0.7,28.9-0.9,46.3-0.7c13.6,0.2,23.2,2.4,29.8,5.2c-3,4.7-5.9,9.7-8.9,15C313.1,775.4,304.9,775.7,286.1,776.6z M326.7,784.3
		c-0.2-1.6-0.5-3-0.7-4.5c2.4-4.2,4.9-8.4,7.3-12.4c0.2,1.4,0.5,2.8,0.7,4.4C331.4,775.7,329,779.9,326.7,784.3z M302.7,754.5
		c-16.4-0.2-31.2,0-43.7,0.7c1.9-2.3,3.7-4.5,5.6-7c6.3-1.2,15.7-2.6,29.6-4.2l3.7-0.3c18.3-2.1,38.5-4.4,49.4-2.8
		c-3.8,5.4-8.4,11.8-13.1,19.1C327.2,757.1,317.1,754.7,302.7,754.5z M336.5,767.7c-0.2-1.4-0.5-2.8-0.7-4.4
		c4.2-6.8,8.4-12.9,12.2-18.1c0.3,1.7,0.5,3.5,0.9,4.9C344.5,755.7,340.3,761.6,336.5,767.7z M297.5,740.4l-3.7,0.3
		c-11.5,1.2-19.8,2.4-26.1,3.5c2.1-2.4,4.2-5,6.4-7.7c8.4-1,21.4-1.9,42.5-2.6c16.7-0.5,27.3,0.5,33.9,2.3c-0.3,0.5-0.7,1-1.2,1.6
		C338.2,735.9,318.3,738.1,297.5,740.4z M351.3,747c-0.3-1.7-0.5-3.5-0.9-5.2c0.3-0.5,0.7-0.9,1-1.4c0.3,1.4,0.7,3.3,1,5
		C351.9,746,351.6,746.5,351.3,747z M316.4,731c-18.5,0.5-30.8,1.4-39.3,2.3c6.1-7,12.5-14.3,19.1-21.4c22.5-2.8,56.6-5.6,78.5-3
		c-6.8,7.5-13.4,15-19,21.2l-0.3,0.3c-0.9,0.9-1.7,2.1-2.8,3.3C344.5,731.5,332.3,730.7,316.4,731z M360,736.7
		c-1.7,1.9-3.3,3.8-4.9,5.7c-0.3-2.1-0.7-4-1-5.2c1.4-1.7,2.8-3.3,3.8-4.5l0.3-0.5c5.9-6.6,11.5-12.9,16.9-19
		c0.3,2.4,0.7,4.5,0.9,6.3C366.7,729.3,360.1,736.6,360,736.7z M299.7,708.2c1.4-1.6,2.8-3,4.2-4.5c6.3-6.4,13.6-13.4,21.1-20.2
		c8.2,0.2,18.8,0.5,32.4,1.4c16,1,25.9,4.4,32,8c-4,4.2-8.2,8.7-12.2,13.1C354.9,702.8,320.3,705.9,299.7,708.2z M378.6,716.6
		c-0.3-1.9-0.5-4.2-0.9-6.3c4.2-4.5,8.2-8.9,12-12.9c0.5,1.7,1,3.8,1.6,6.1C386.8,708,382.6,712.4,378.6,716.6z M357.5,681.7
		c-11.8-0.7-21.4-1.2-29.1-1.2c0.5-0.3,0.9-0.7,1.4-1.2c15.5,0.7,48.4,2.6,57.3,5.6c2.4,0.9,4.9,1.9,7.1,3c-0.9,0.9-1.7,1.7-2.6,2.8
		C384,685.7,372.7,682.8,357.5,681.7z M393.7,700.9c-0.5-2.1-1-4.2-1.6-6.1c1-1.2,2.1-2.3,3.1-3.3c0.3,2.4,0.7,4.9,0.9,7
		C395.3,699.1,394.6,700,393.7,700.9z M399,695.7c-0.3-2.4-0.7-4.9-0.9-7.1c6.8-7.1,12.7-12.9,17.2-17.1c0,2.6,0.2,5.6,0.2,8.2
		C410.6,684.2,404.9,689.7,399,695.7z M396.7,685.2c-2.8-1.2-5.7-2.3-8.5-3.3c-8.7-3-38.3-4.7-54.8-5.6c7.5-6.4,15-12.7,21.8-18.3
		c8.4-0.2,18.8,0.3,31.9,1.9c14.4,1.7,23.2,4.5,28.6,7.3C410.3,671.6,403.8,678.1,396.7,685.2z M486.2,774.3l-62.5-97.4
		c1.6-1.3,2.8-2.2,3.7-2.8c0,0,0,0,0,0c0.3-0.2,0.5-0.3,0.7-0.4c0.1,0,0.1-0.1,0.2-0.1c0.1,0,0.1,0,0.2-0.1c0.1,0,0.2-0.1,0.3-0.1
		c0.1,0,0.1,0,0.2,0c0,0,0.1,0,0.1,0c0.1,0,0.1,0,0.2,0c0.1,0,0.1,0,0.2,0c0.1,0,0.2,0,0.2,0c0.1,0,0.2,0,0.2,0c0.1,0,0.2,0,0.3,0
		c0.1,0,0.2,0,0.3,0c0.1,0,0.2,0,0.3,0c0.1,0,0.2,0,0.4,0c0.1,0,0.2,0,0.3,0c0.1,0,0.3,0,0.5,0c0.1,0,0.2,0,0.2,0c0.2,0,0.4,0,0.6,0
		c0,0,0.1,0,0.1,0c2.2,0,5.2-0.1,8.9-0.2c19.9-0.6,58.5-2.1,88.7-4.2c0.8-0.1,1.6-0.1,2.4-0.2c0,0,0.1,0,0.1,0
		c0.8-0.1,1.5-0.1,2.3-0.2c0.1,0,0.1,0,0.2,0c0.7-0.1,1.4-0.1,2.2-0.2c0.1,0,0.2,0,0.3,0c0.7-0.1,1.4-0.1,2.1-0.2c0.1,0,0.2,0,0.2,0
		c0.7-0.1,1.4-0.1,2.1-0.2c0.1,0,0.1,0,0.2,0c2.3-0.2,4.5-0.4,6.6-0.6c1.2-0.1,2.5-0.2,3.6-0.4c0.7-0.1,1.5-0.2,2.3-0.2L486.2,774.3
		z M550.8,656.3c-37.8,4-120.1,5.2-125.2,4.9c-1.4-0.2-4.2,1.4-7.7,4.2c-6.4-3.8-16.7-6.6-30.6-8.4c-11.1-1.4-20.5-2.1-28.2-2.1
		c14.6-11.8,25.9-20.4,27.5-21.4c1.7-0.5,9.4,0.2,19.3,1l31.2,2.6c33.9,2.4,102.4,2.1,103.1,2.1c46.5,0.2,66.8-3.3,76.8-5l2.4-0.3
		c5.2-0.9,7.7-0.5,10.4,0c1.9,0.2,3.8,0.5,6.6,0.5c2.1-0.2,2.4,0,2.4,3.7l0.2,2.3c0.3,3.7,3.1,4.9,4.9,5.7c0.5,0.3,1,0.7,1.7,1
		c-3.5,0.3-7.7,0.5-10.3,0.5H635l-0.3,0.2c-0.9,0.3-4.4,0.7-16.7,1.9L550.8,656.3z M579.1,618.7c4.4,1.9,12.2,0.3,17.1-0.9
		c-0.5,1.6-1.6,4-4,7.5l-1.2,1.7l2.1,0.7c4.4,1.4,12.5-0.3,19.1-1.7c0,0,1.2-0.2,2.4-0.5c-0.6,1-1.3,2.1-2.1,3.3
		c-5.5,0.9-13.5,2-25.9,2.9c-10.5-9.5-22.6-17.2-34.6-17.7c0,0,10.6-3.1,29.4-3c-0.7,1.7-1.7,3.8-3,5l-1.6,1.7L579.1,618.7z
		 M613.3,688c-0.3-0.9-1.9-3.8-2.6-4.7c-0.9-1-1.6-1.9-2.3-2.6c1.2-1.7,3.8-4.5,8.5-6.3l4.9-2.1c1-0.3,2.1-0.7,3-1
		C623.9,674.6,616.9,683,613.3,688z M652.9,689.9c-1.7,1.4-3.3,2.3-4.9,3l-2.6,0.7v-0.9c-0.5-5.6,0.5-10.3,1.4-13.2l0.3-1.2l0.5,1.4
		c1.6,4,3.7,7.3,5.2,9.4l0.3,0.5L652.9,689.9z M718.4,687.8c-4.4,1-19.7,3.8-41.4,1.4c-6.8-0.7-13.4-1.9-19.5-3.5
		c0-0.2-0.2-0.5-0.3-0.7c-1.7-2.6-5.9-3.8-7.5-8.2c-0.7-2.1-1.2-4.5-3-5.4c0,0-2.4,3.7-3.7,9.9c-5.9-2.1-11.1-4.5-15.3-7
		c0.5-1.4,0.9-2.3,0.9-2.3s1.4-4,0.9-4.9c-0.5-0.7-3.5,0.5-8.5,2.4c-1-0.9-2.1-1.7-2.8-2.6c-1.2-1.3-3-3.6-5.3-6.4
		c17.2-2.1,30-3.9,31.4-4.9c2.5-1.8,7.5-4.7,7.6-7.3c4.6-0.4,9.1-0.8,12.9-1.2c-2.6,2.4-6.3,5.4-9.7,8.2c-3.1,2.6-6.3,4.9-8.2,7
		l-2.1,1.9l2.8,0.7c7.5,1.9,32.6,2.8,47.9,2.1c-4,3.1-10.3,7.1-15.7,10.4l-3.7,2.3l4.2,0.7c9.6,1.7,33.3,1.7,46.3,1.7
		C723.3,684.5,720.8,686.4,718.4,687.8z M744,691.5c-5.9-0.2-15.5-2.1-20.5-3.1c3.5-2.6,6.1-5.4,7.3-6.6l2.6-2.8h-7.1
		c-11.3,0-31,0-42-1c6.6-4.2,13.1-8.4,15.7-11.5l2.4-3l-3.8,0.2c-13.6,1-38,0.3-48.2-1.2c1.7-1.4,3.5-3,5.6-4.5
		c5.4-4.2,11-8.7,13.1-11.8l1.9-3l-3.3,0.3c-5.5,0.7-12,1.3-18.2,1.8c-1.3-1.3-3.1-3.2-4.4-5.1c-0.2-2.3-0.5-7.1-2.4-8.7
		c-0.3-2.3-3.7-3-7.5-3c-6.4,0-8.2-2.1-17.4-0.5c-0.5,0.1-1,0.2-1.5,0.3c1.1-1.8,1.9-3.2,2.4-4.3l1.2-2.8l-8.5,1.6
		c-4.9,1-11.3,2.3-15.5,2.1c3-4.9,3.7-8,3.7-9.4v-2.1l-1.9,0.5c-5,1.6-11.3,2.6-15.3,2.3c1-1.6,1.9-3.5,2.4-5.2
		c8.4,0.2,18.1,1.2,28.9,3.3c38,7.5,57.1,22.6,88.4,39.3c31.5,16.7,58.3,28.4,75.4,36.2C765.1,692.9,753.7,691.8,744,691.5z
		 M626.1,549.6c0,0,12,11.3,19.3,21.9c7.3,10.8,19.5,30.3,19.5,30.3s-0.1,0-0.2-0.1c0,0.1,0.1,0.1,0.1,0.1s-16.2-7.5-20.7-9.9
		s-8.4-5.4-8.4-5.4s-5.2-12-6.6-19.5c-1.2-7.5-3-17.2-3-17.2s0,0,0,0C626.2,549.7,626.1,549.6,626.1,549.6z M880.7,692.4
		c-3.5,3.5-38.3-10.1-77.1-26.8c-44.6-19.1-95.9-52.9-101.3-57.3c5.6-7.7,2.8-23.3,2.8-23.3s-3.3,7.1-5.4,9.2
		c-2.1,2.1-10.4,2.1-13.2,2.1c-2.8,0-24.2-31.9-27.7-38.3c-3.5-6.3-5.6-11.3-10.4-22.6c-4.9-11.3-49.8-10.6-49.8-10.6
		s-14.1-14.1-41.8-39c-27.7-24.7-57.8-43.9-57.8-43.9s13.8,6.3,17.2,4.2c3.5-2.3-9.1-21.2-27.7-46.1c-16.9-22.5-33.3-35.7-36.2-38
		c16.2-1.4,42.7-2.1,71.4,3.5c46.7,9.1,126.9,38.5,131.6,35.3c3.7-2.4-7.5-29.8-26.5-66.3c38.8,28.2,74.9,58.3,102.2,84.4
		c38.6,36.9,72.6,80.3,72.6,80.3s13.1,5.7,20.7,15c7.7,9.1,17.1,51,17.1,51s1.6,4.9,12.7,28.9C865,618,883.8,688.7,880.7,692.4z"/>
	<path class="st1" d="M645.6,647.1c-3.5,0.3-7.7,0.5-10.3,0.5H635l-0.3,0.2c-0.9,0.3-4.4,0.7-16.7,1.9l-55.2,5.4l-12,1.2
		c-37.8,4-120.1,5.2-125.2,4.9c-0.2,0-0.3,0-0.5,0c-0.1,0-0.1,0-0.2,0c-0.1,0-0.3,0.1-0.4,0.1c-0.1,0-0.2,0-0.2,0.1
		c-0.2,0.1-0.4,0.1-0.6,0.2c-0.1,0.1-0.3,0.1-0.4,0.2c-0.2,0.1-0.3,0.1-0.5,0.2c-0.2,0.1-0.3,0.2-0.5,0.3c-0.1,0.1-0.2,0.1-0.4,0.2
		c-0.2,0.1-0.4,0.2-0.6,0.3c-0.1,0-0.1,0.1-0.2,0.1c-1,0.6-2,1.4-3.2,2.3c-6.4-3.8-16.7-6.6-30.6-8.4c-11.1-1.4-20.5-2.1-28.2-2.1
		c14.6-11.8,25.9-20.4,27.5-21.4c0.1,0,0.3-0.1,0.5-0.1c0.1,0,0.1,0,0.2,0c0.1,0,0.3,0,0.5,0c0.1,0,0.2,0,0.3,0c0.2,0,0.4,0,0.6,0
		c0.1,0,0.2,0,0.3,0c0.3,0,0.6,0,1,0c0,0,0,0,0,0c0.4,0,0.8,0,1.2,0c0.1,0,0.2,0,0.4,0c0.3,0,0.6,0,1,0.1c0.1,0,0.3,0,0.5,0
		c0.3,0,0.7,0,1.1,0.1c0.1,0,0.3,0,0.4,0c0.5,0,1,0.1,1.6,0.1c1.7,0.1,3.7,0.3,5.8,0.5c1.4,0.1,2.8,0.2,4.3,0.4l31.2,2.6
		c33.9,2.4,102.4,2.1,103.1,2.1c46.5,0.2,66.8-3.3,76.8-5l2.4-0.3c5.2-0.9,7.7-0.5,10.4,0c1.9,0.2,3.8,0.5,6.6,0.5
		c2.1-0.2,2.4,0,2.4,3.7l0.2,2.3c0.3,3.7,3.1,4.9,4.9,5.7C644.4,646.4,644.9,646.7,645.6,647.1z M616.9,674.4
		c-4.7,1.7-7.3,4.5-8.5,6.3c0.7,0.7,1.4,1.6,2.3,2.6c0.7,0.9,2.3,3.8,2.6,4.7c3.7-5,10.6-13.4,11.5-16.7c-0.9,0.3-1.9,0.7-3,1
		L616.9,674.4z M286.3,779.7l-5.7,0.2c-18.1,0.9-34.5,3-45.4,4.9c-9.6,12-13.9,18.6-15.7,22.1c5.6-0.2,14.3-0.7,21.8-1.2l24.5-1.2
		c13.8-0.3,39.7-1.2,45.3-1.7c3-7.1,6.8-14.6,11-22.1C312.4,778.5,304.6,778.9,286.3,779.7z M549.2,667.6l-63,98.2l-58.8-91.7
		c-0.9,0.6-2.1,1.5-3.7,2.8l62.5,97.4L555.1,667c-0.8,0.1-1.5,0.2-2.3,0.2C551.7,667.4,550.5,667.5,549.2,667.6z M397.7,628
		l-28-43.6c-2.1-0.5-4.2-1-6.4-1.5c0,0,0,0,0,0l28.6,44.6C393.6,627.7,395.5,627.8,397.7,628z M647.7,679.6l-0.5-1.4l-0.3,1.2
		c-0.9,3-1.9,7.7-1.4,13.2v0.9l2.6-0.7c1.6-0.7,3.1-1.6,4.9-3l0.3-0.3l-0.3-0.5C651.4,687,649.3,683.6,647.7,679.6z M626.1,549.6
		C626.1,549.6,626.1,549.6,626.1,549.6c0,0.1,0,0.2,0,0.2c0.3,1.4,1.8,10.3,3.1,17.2c1.4,7.5,6.6,19.5,6.6,19.5s3.8,3,8.4,5.4
		s20.7,9.9,20.7,9.9s-12.2-19.5-19.5-30.3C638.2,560.9,626.1,549.6,626.1,549.6z M954.8,355.3l-3.3,1.2c-1.2,1.2-4.2,6.8-4.2,6.8
		c0,0.2-12.4,23.2-21.1,40.2c-8.5,16.7-25.8,47.9-42.7,75.9c-11.1,18.5-23.7,36.2-32.4,46c1.7-1.6,9.4-5.4,10.4-6.4l2.3-2.3
		l-1.2,3.3c0,0.2-0.2,1.6-0.7,2.6c1-0.3,4.4-2.1,4.4-2.1s-5.2,9.4-6.6,11.5c0.3-0.2,5-4,5.4-4.2c5-3.5,32.4-41.8,57.3-83.4
		c11.5-19.3,38.6-67.2,53.6-90.5c-2.6-0.3-6.4-0.5-9.9-0.7C960.6,353.1,957.4,354.3,954.8,355.3z M974,332.5
		c-7.1-0.2-16.5,2.3-19.3,3c-1.7,2.3-4.5,6.4-6.4,9.9c4.4-0.9,9.9-1.7,16.7-1.6c0,0,18.1,0.3,19.3,0.3c1.2-1.4,5-5.7,7.3-10.3
		C987.9,333.6,980.2,332.7,974,332.5z M857.5,526.1c-2.8,2.3-6.3,3-7.5,3.5c0.3,0.9,3.3,7.1,3.8,8c0.7-0.5,2.1-1.4,2.4-1.7
		c-0.2-0.7-0.5-1.6-0.9-2.8c1.4-2.4,2.8-5.7,3.8-7.5C858.4,525.9,857.7,526.1,857.5,526.1z M884.8,546.8c-2.1-0.9-5.9-1.7-10.8-0.5
		l-5.2,1.4c-1,0.2-2.1,0.3-3,0.7c5.7,0.9,13.8,3.5,20,5.9c-0.3-1-0.7-2.4-0.9-3.7C884.8,549.3,884.8,547.9,884.8,546.8z M591.9,266
		C591.9,266,591.9,266,591.9,266c0.9,1.5,1.8,2.9,2.6,4.3c0,0,0,0,0,0c104.7-10.6,210-30.8,215.9-31.9L827,235l-82.9,129.2
		c2.5-1.1,5.1-2.3,7.8-3.4l84.9-132.2l-27.2,5.2C803.7,235,697,255.4,591.9,266z"/>
	<path class="st2" d="M508.8,492.5c0,0-6.4,43.3-4.5,62c0,0-10.1-32.7-3.7-73.6L508.8,492.5z M302.3,437.1
		c-26.1,3.8-39.9-2.8-36.2,9.4c1,2.8,3.7,7,5.6,11.7c16.2,0,28-2.8,38.5-3.1c0,0,45.4,46.1,46.3,29.2
		C357.3,467.6,328.3,433.5,302.3,437.1z M337,354.1c47,13.1,118.6,59.2,118.6,59.2c-24.9-17.4-58.8-40.7-99.2-56.8
		c-41.3-16.4-70.2-21.2-73.5-21.1c-3.5,0-10.4,14.1-10.4,14.1s7.8-6.1,10.6-8.2C285.8,339.1,290,341,337,354.1z M428.9,277.2
		c0,0,0.7-5.6-0.2-16.7c-13.2,1.2-25.4,3-34.5,4.7c-22.8,4.2-53.3,15.7-53.3,15.7s0.7,0.3,1.9,0.9
		C381.2,274.4,428.9,277.2,428.9,277.2z M854,594c-11.1-24-12.7-28.9-12.7-28.9s-9.4-42-17.1-51c-7.7-9.2-20.7-15-20.7-15
		s-33.9-43.3-72.6-80.3c-27.3-26.1-63.4-56.2-102.2-84.4c19,36.6,30.1,63.9,26.5,66.3c-4.7,3.1-85-26.3-131.6-35.3
		c-28.7-5.6-55.2-4.9-71.4-3.5c3,2.3,19.3,15.5,36.2,38c18.6,24.9,31.2,43.9,27.7,46.1c-3.5,2.1-17.2-4.2-17.2-4.2
		s30.1,19.1,57.8,43.9c27.7,24.9,41.8,39,41.8,39s44.9-0.7,49.8,10.6c4.9,11.3,7,16.4,10.4,22.6c3.5,6.4,24.9,38.3,27.7,38.3
		c2.8,0,11.1,0,13.2-2.1c2.1-2.1,5.4-9.2,5.4-9.2s2.8,15.7-2.8,23.3c5.4,4.4,56.8,38.1,101.3,57.3c38.8,16.7,73.6,30.3,77.1,26.8
		C883.8,688.7,865,618,854,594z M540.5,517.2c-6.3,33.4,0.3,60.2,0.3,60.2c-1-11.1,7.8-48.6,7.8-48.6L540.5,517.2z M520.5,498.1
		c-6.3,38.3,2.6,68.9,2.6,68.9c-1.9-14.1,5.6-55.5,5.6-55.5L520.5,498.1z M597.2,274.7c0.8,1.4,1.6,2.8,2.4,4.1
		c88.9-9.1,175.8-24.5,198.1-28.6l4-0.7l-81.5,126.1c0.7-0.4,1.4-0.8,2.2-1.1c0.1,0,0.1-0.1,0.2-0.1c1.5-0.8,3.2-1.6,5-2.5
		c0.1,0,0.1-0.1,0.2-0.1c4.6-2.3,10.1-4.8,16.3-7.6l82.7-128.7l-16.3,3c-6,1.2-111.3,21.3-215.8,31.9
		C595.5,271.8,596.4,273.2,597.2,274.7C597.2,274.6,597.2,274.7,597.2,274.7z M386.8,587.9c-1.3-0.2-2.6-0.5-3.9-0.7
		c-0.2,0-0.4-0.1-0.6-0.1c-1.3-0.2-2.5-0.5-3.8-0.8c0,0-0.1,0-0.1,0c-2.8-0.6-5.7-1.2-8.7-1.9c0,0,0,0,0,0l28,43.6
		c4.2,0.4,9.4,0.9,15.8,1.4L386.8,587.9C386.8,587.9,386.8,587.9,386.8,587.9z M484.6,740.1l-42.9-66.7c-7.4,0.2-12.2,0.3-13,0.2
		c-0.3,0-0.7,0.2-1.4,0.6l58.9,91.6l63-98.1c-5.6,0.5-12,1-18.8,1.5L484.6,740.1z"/>
	<path class="st3" d="M622.7,321.7l-23-42.9c88.9-9.1,175.8-24.5,198.1-28.6l4-0.7l-81.5,126.1c0,0,0.1,0,0.1-0.1
		c-5.2,2.8-8.5,4.9-9.7,6.4c-1.6,2.1-2.8,4-3.8,5.6C682,365.9,652.9,343,622.7,321.7z M350.4,741.8c0.3,1.7,0.5,3.5,0.9,5.2
		c0.3-0.5,0.7-1,1.2-1.6c-0.3-1.7-0.7-3.7-1-5C351.1,740.9,350.7,741.3,350.4,741.8z M316.6,734c-21.1,0.7-34.1,1.6-42.5,2.6
		c-2.3,2.6-4.4,5.2-6.4,7.7c6.3-1,14.6-2.3,26.1-3.5l3.7-0.3c20.9-2.3,40.7-4.5,51.9-2.6c0.5-0.5,0.9-1,1.2-1.6
		C343.9,734.5,333.3,733.4,316.6,734z M335.8,763.4c0.2,1.6,0.5,3,0.7,4.4c3.8-6.1,8-12,12.4-17.6c-0.3-1.4-0.5-3.1-0.9-4.9
		C344.1,750.5,339.9,756.6,335.8,763.4z M355.8,730.1c5.6-6.3,12.2-13.8,19-21.2c-21.9-2.6-56.1,0.2-78.5,3
		c-6.6,7.1-13.1,14.4-19.1,21.4c8.5-0.9,20.9-1.7,39.3-2.3c15.8-0.3,28,0.5,36.2,2.8c1-1.2,1.9-2.4,2.8-3.3L355.8,730.1z M326,779.7
		c0.2,1.6,0.5,3,0.7,4.5c2.3-4.4,4.7-8.5,7.3-12.5c-0.2-1.6-0.5-3-0.7-4.4C330.9,771.4,328.4,775.6,326,779.7z M297.8,743.7
		l-3.7,0.3c-13.9,1.6-23.3,3-29.6,4.2c-1.9,2.4-3.7,4.7-5.6,7c12.5-0.7,27.3-0.9,43.7-0.7c14.4,0.2,24.5,2.6,31.5,5.6
		c4.7-7.3,9.2-13.8,13.1-19.1C336.3,739.4,316.1,741.6,297.8,743.7z M302.3,757.6c-17.4-0.2-33.4,0-46.3,0.7
		c-4.5,5.6-8.5,10.8-12.4,15.5l-5.7,7.3c11.3-1.9,26.5-3.7,42.5-4.4l5.7-0.2c18.8-0.9,27-1.2,37.1,1.2c3-5.2,5.9-10.3,8.9-15
		C325.5,760.1,315.9,757.8,302.3,757.6z M357.3,684.9c-13.6-0.9-24.2-1.2-32.4-1.4c-7.5,6.8-14.8,13.8-21.1,20.2
		c-1.4,1.6-2.8,3-4.2,4.5c20.5-2.3,55.2-5.4,77.5-2.3c4-4.4,8.2-8.9,12.2-13.1C383.3,689.2,373.4,685.9,357.3,684.9z M409.1,690.3
		L409.1,690.3c0.7-0.7,1.4-1.4,2.1-2C410.5,688.9,409.8,689.6,409.1,690.3z M358.2,732.2l-0.3,0.5c-1,1.2-2.4,2.8-3.8,4.5
		c0.3,1.2,0.7,3.1,1,5.2c1.6-1.9,3.1-3.8,4.9-5.7c0.2-0.2,6.8-7.5,16-17.2c-0.2-1.7-0.5-3.8-0.9-6.3
		C369.7,719.3,364.1,725.6,358.2,732.2z M468.6,583.7c2.8,3.1,5.4,6.6,7.8,10.1c-37.2,0.8-60.5-0.4-90.4-6c0.3,0,0.5,0.1,0.8,0.2
		c0,0,0,0,0,0l26.7,41.5c6.3,0.6,13.7,1.2,22.4,1.8c34.3,2.4,102.9,2.1,102.9,2.1c3.2,0,6.4-0.1,9.4-0.1
		c-6.1-3.8-11.8-7.3-16.7-10.2C509.3,610,486.3,595,468.6,583.7z M680.3,680.5l-4.2-0.7l3.7-2.3c5.4-3.3,11.7-7.3,15.7-10.4
		c-15.3,0.7-40.4-0.2-47.9-2.1l-2.8-0.7l2.1-1.9c1.9-2.1,5-4.4,8.2-7c3.5-2.8,7.1-5.7,9.7-8.2c-3.8,0.4-8.3,0.9-12.9,1.2
		c-0.1,2.6-5.2,5.5-7.6,7.3c-1.5,1-14.2,2.8-31.4,4.9c2.3,2.8,4.1,5.1,5.3,6.4c0.7,0.9,1.7,1.7,2.8,2.6c5-1.9,8-3.1,8.5-2.4
		c0.5,0.9-0.9,4.9-0.9,4.9s-0.3,0.9-0.9,2.3c4.2,2.4,9.4,4.9,15.3,7c1.2-6.3,3.7-9.9,3.7-9.9c1.7,0.9,2.3,3.3,3,5.4
		c1.6,4.4,5.7,5.6,7.5,8.2c0.2,0.2,0.3,0.5,0.3,0.7c6.1,1.6,12.7,2.8,19.5,3.5c21.8,2.4,37.1-0.3,41.4-1.4c2.4-1.4,4.9-3.3,8.2-5.6
		C713.5,682.3,689.9,682.3,680.3,680.5z M612.2,626c-6.6,1.4-14.8,3.1-19.1,1.7l-2.1-0.7l1.2-1.7c2.4-3.5,3.5-5.9,4-7.5
		c-4.9,1.2-12.7,2.8-17.1,0.9l-2.1-0.9l1.6-1.7c1.2-1.2,2.3-3.3,3-5c-18.8-0.2-29.4,3-29.4,3c12,0.4,24,8.2,34.6,17.7
		c12.3-0.9,20.4-2,25.9-2.9c0.8-1.2,1.5-2.3,2.1-3.3C613.4,625.9,612.2,626,612.2,626z M377.7,710.3c0.3,2.1,0.5,4.4,0.9,6.3
		c4-4.2,8.2-8.5,12.7-13.1c-0.5-2.3-1-4.4-1.6-6.1C385.9,701.4,381.9,705.8,377.7,710.3z M613.4,614.2c-10.8-2.1-20.5-3.1-28.9-3.3
		c-0.5,1.7-1.4,3.7-2.4,5.2c4,0.3,10.3-0.7,15.3-2.3l1.9-0.5v2.1c0,1.4-0.7,4.5-3.7,9.4c4.2,0.2,10.6-1,15.5-2.1l8.5-1.6l-1.2,2.8
		c-0.4,1-1.3,2.5-2.4,4.3c0.5-0.1,1-0.2,1.5-0.3c9.2-1.6,11,0.5,17.4,0.5c3.8,0,7.1,0.7,7.5,3c1.9,1.6,2.3,6.4,2.4,8.7
		c1.3,1.9,3.1,3.8,4.4,5.1c6.2-0.5,12.7-1.1,18.2-1.8l3.3-0.3l-1.9,3c-2.1,3.1-7.7,7.7-13.1,11.8c-2.1,1.6-3.8,3.1-5.6,4.5
		c10.3,1.6,34.6,2.3,48.2,1.2l3.8-0.2l-2.4,3c-2.6,3.1-9.1,7.3-15.7,11.5c11,1,30.6,1,42,1h7.1l-2.6,2.8c-1.2,1.2-3.8,4-7.3,6.6
		c5,1,14.6,3,20.5,3.1c9.7,0.3,21.1,1.4,33.3-1.7c-17.1-7.8-43.9-19.5-75.4-36.2C670.5,636.8,651.4,621.7,613.4,614.2z M901.8,708.7
		l-0.4,0.5l-0.4,0.5c-3.8,4.5-9.5,7.1-19,9c-6.7,1.3-14.5,2-22.8,2c-0.9,0-1.9,0-2.8,0c-1,0-1.9,0-2.9,0c-16.2,0-32-1.2-32.7-1.3
		c-18.1-1.4-30.7-5.1-38.3-8c-6.5,2.3-16.5,4.9-28.3,4.9c-13.1,0-26.1-2.7-33.1-4.4c-4.4,1.1-11.1,2.4-19.4,2.8
		c-1.1,0.1-2.3,0.1-3.5,0.1c-10.7,0-24.9-2-38.3-4.1c-3.9,2.1-8.9,3.8-14.5,3.8c-2,0-4-0.2-5.9-0.7l-10.9-2.5l-0.9-5
		c-1.3,0.8-2.8,1.4-4.5,1.8l-0.9,0.2l-0.9,0.1c-1.3,0.2-5.8,0.8-9.3,0.8c-12.1,0-17.7-7.9-18.8-14.6l-0.1-0.3l-9.8-6.9l3-6.6
		c-0.2,0-0.4,0-0.7,0.1l-87,137.4l-14.4,22.7l-14.4-22.7l-64-101c-10.2,10.4-21.2,22-31.3,33.2c-15.8,17.5-29.9,39.7-41.8,66.1
		c-1.2,2.6-1.8,4-2.8,5.5c-4.8,6.9-12.2,7.6-16.3,8c-2.4,0.2-5.7,0.4-10.1,0.6c-7.7,0.3-17.6,0.5-27.2,0.7
		c-3.8,0.1-7.5,0.2-11.1,0.2c-8.7,0.2-18.4,0.9-27,1.5c-8,0.5-14.4,1-18.8,1c-1.9,0-3.5-0.1-4.9-0.3c-8.5-1.1-12.4-6.4-14-9.7l0,0
		c0,0.1,0.1,0.2,0.2,0.4c-0.2-0.3-0.8-1.3-1.2-2c-2.3-3.8-3.4-5.8-4.2-8.1c-2.6-8.2,1.3-15.3,6.3-23.1c4.1-6.3,9.9-14.2,16.8-22.7
		c2-2.5,4.2-5.3,6.5-8.2C240,741.8,262,713.9,288,687c19.3-20,46.6-42.5,63.5-55.9l-25.2-39.9c-16.7-4.4-35.8-9.6-59.3-16
		c-8-2.2-16.4-4.4-25.3-6.9c-74.9-20.4-135.2-43.8-164.5-56C56.8,504,39.3,496,26.5,489.4c-6.3-3.3-11.4-6.2-14.9-8.6
		c-2.4-1.7-4.3-3.2-5.8-4.7c-7-7.1-6.1-14.7-5.3-17.6l0.2-0.7l0.2-0.7c1-3.1,4.6-10.4,15.2-11.8c1.1-0.1,2.6-0.3,4.5-0.4
		c3-0.2,7.3-0.4,13.2-0.6c10.9-0.4,26.4-0.8,44.2-1.2c30-0.8,67.4-1.7,103.7-3.1c17.7-0.7,33.4-1.5,47.2-2.2L87.6,214.5l-20.9-32.9
		l38.3,7.1l62,11.5l0.1,0l0.1,0c1.3,0.3,127.2,24.5,240.6,34c-2.7-13.2-7.1-29.9-14.2-49.9c-13.2-36.9-38.2-86.6-54.7-119.5
		c-5.7-11.4-10.7-21.2-14.1-28.4c-1.9-4.1-3.3-7.1-4.2-9.5c-1.3-3.3-4.3-11.1,0.4-18.8c3.2-5.1,8.6-8.2,14.7-8.2c0,0,0,0,0,0h0h0
		c2.5,0,4.9,0.5,7.2,1.6c30,13.4,65.8,37.3,103.4,69.3c35.4,30.1,70.5,65.9,99,100.8c16.1,19.8,31.1,39.9,44.6,59.9
		c95.9-9.8,192.6-27.7,211.5-31.3l0.4-0.1l48.5-9.5l13.4-2.9l39.7-8.7l-21.8,34.4l-62.2,98.2c8-3.8,15.7-7.6,22.6-10.9
		c19.3-9.4,28.9-14,33.3-15.6c2.3-0.9,4.7-1.3,7-1.3c6.1,0,11.9,3,15.3,8.1c6,8.8,3.8,19.2-3.7,40.7c-5.3,15.3-13.7,36.8-25.1,65.6
		c-14.2,36.2-30.1,67.2-41.3,87.4c5.1,3.3,11,7.8,15.7,13.5c2.5,3,5.5,7.6,9.3,18.2c-4.5,7.1-7.1,11.3-7.1,11.3l6.4,15.1l5.9-4.5
		l1.3-0.4c0.7,2.7,1.4,5.2,2,7.5c-1.2,0.5-1.8,0.9-1.7,1.3c0,1.2,1.2,4.7,1.2,4.7s0.9,0.5,2.3,1.4c0.2,1,0.4,1.9,0.6,2.5
		c0.8,1.9,3.5,8.7,11.8,26.6l0,0.1l0,0.1c6.4,14.1,14.6,42.7,20.1,64.7c3.1,12.3,5.7,23.9,7.3,32.5
		C906,695.1,906.4,702.3,901.8,708.7z M860.3,590c-11.1-24-12.7-28.9-12.7-28.9s-9.4-42-17.1-51c-7.7-9.2-20.7-15-20.7-15
		s-1.4-1.9-4-5c11.7-20,30.8-55.5,47.5-98c25.9-66,36.7-94.2,28-90.9c-8.9,3.1-68.9,33.9-105.8,49.4c-0.4,0.1-0.7,0.3-1,0.4
		c0,0,0.1,0,0.1,0l92.9-146.6l-13.6,3l-48.7,9.6c-1.5,0.3-115.2,22.2-223.7,32.6c-13.1-19.9-29.2-42.4-49.3-67
		C475.9,113.5,395.5,43.5,335.9,17.1c-6.4-3,50.3,96.3,73.6,161.6c11.7,33,16.5,57.7,18.5,74.1c-116.6-7.8-257.3-34.5-264.1-35.8
		l-62-11.5l156.7,247.3c-19.6,1.3-45.1,2.9-76.3,4c-79.9,3.1-164.9,4-165.4,5.6c-1.6,6.4,102.9,55.4,229.1,89.7
		c38.4,10.4,67.4,18.4,90.9,24.5l37.1,58.5c-16.7,12.8-51.4,40.5-73.9,63.8c-29.6,30.6-53.6,62.1-68.1,80.3
		c-14.6,18.1-20.7,28.7-20.2,30.1c0.2,0.7,3.7,6.3,4.2,7.3c0.7,1.7,27.5-1.4,49.1-1.9c21.6-0.5,50.1-0.9,51-2.3
		c1-1.4,16-40.2,46-73.3c16.5-18.2,33.9-36.2,46.9-48.7l75.3,118.9l91.4-144.3c0.7-0.1,1.4-0.2,2.1-0.2c5.9-0.6,11.7-1.3,17.4-1.9
		c6.1,3.8,12.1,7.4,17.8,10.8c-6.3,3.3-8.4,8-8.4,8s1.7,1.2,3.3,3.7c1.6,2.3,2.1,5.6,2.1,6.6c0.2,1,9.1-0.2,9.1-0.2
		c1.4-0.3,4-5.9,6.3-11c6.6,3.7,12.4,6.6,17.1,8.7c0,2.4,0.3,5,0.9,7.8c5.4,1.2,10.8-2.6,12.9-4.4c15.3,2.4,33.9,5.4,44.7,4.9
		c12.4-0.5,19.8-3.5,19.8-3.5s16.9,5,33.4,5s28.6-6.4,28.6-6.4s12.4,7.5,39.3,9.6c0,0,17.6,1.4,34.3,1.2c17.1,0.3,29.6-2.6,31.5-4.9
		C891.1,694.4,871.3,614.2,860.3,590z M387.1,684.9c-8.9-3-41.8-4.9-57.3-5.6c-0.5,0.5-0.9,0.9-1.4,1.2c7.7,0,17.2,0.5,29.1,1.2
		c15.1,1,26.5,4,34.1,8.9c0.9-1,1.7-1.9,2.6-2.8C392,686.8,389.6,685.7,387.1,684.9z M484.6,740.1l45.8-70.9c0,0,0,0,0,0
		c-30.3,2.1-68.9,3.6-88.7,4.2L484.6,740.1z M392.2,694.8c0.5,1.9,1,4,1.6,6.1c0.9-0.9,1.6-1.7,2.4-2.4c-0.2-2.1-0.5-4.5-0.9-7
		C394.3,692.5,393.2,693.6,392.2,694.8z M398.1,688.5c0.2,2.3,0.5,4.7,0.9,7.1c5.9-5.9,11.7-11.5,16.5-16c0-2.6-0.2-5.6-0.2-8.2
		C410.8,675.6,404.9,681.4,398.1,688.5z M355.1,658.1c-6.8,5.6-14.3,11.8-21.8,18.3c16.5,0.9,46.1,2.6,54.8,5.6
		c2.8,1,5.7,2.1,8.5,3.3c7.1-7.1,13.6-13.6,18.8-17.9c-5.4-2.8-14.1-5.6-28.6-7.3C373.9,658.4,363.4,657.9,355.1,658.1z"/>
</g>
</svg>
