<?xml version="1.0" encoding="utf-8"?>
<!-- Generator: Adobe Illustrator 25.0.0, SVG Export Plug-In . SVG Version: 6.00 Build 0)  -->
<svg version="1.1" id="Layer_1" xmlns="http://www.w3.org/2000/svg" xmlns:xlink="http://www.w3.org/1999/xlink" x="0px" y="0px"
	 viewBox="0 0 1200.6 995.2" style="enable-background:new 0 0 1200.6 995.2;" xml:space="preserve">
<style type="text/css">
	.st0{fill:#FFFFFF;}
	.st1{fill:#006948;}
	.st2{fill:#121212;}
	.st3{fill:#8F8F8C;}
</style>
<g>
	<path class="st0" d="M1118.3,370.2H770.9c-13.5-12.2-29.2-22.5-46.8-30.6c-15.4-7.1-32.2-12.5-49.9-16.2L646.8,63.9L640.1,0
		l-33.2,55L448.3,318H373h-12.3l-6.3,10.5l-24.7,41.6H60.6H0l46.9,38.3l175.2,142.8l-107,180.2L95.7,764h37.9h47.2L84.2,927.9
		l-39.8,67.4l68.7-37.5l355.1-193.7h18.2L698,936.5l39.7,32.4l-4.6-51.1l-20.4-223.9c31.3-25.4,58.5-57.9,81-97l0,0
		c1.1-1.9,2.1-3.8,3.2-5.6L932,516.8l120.8-63.3l0.3-0.2l0.3-0.2l75.5-42.5l71.7-40.4L1118.3,370.2L1118.3,370.2z M1042.7,434.3
		l-121,63.5l-141,77.6c-1.8,3.6-3.8,7.1-5.8,10.6c-23.2,40.5-51.7,73.4-84.8,98l21.4,235.7L494,742.5c-1.5,0-3,0-4.5,0h-26.8
		L102.8,938.9l115.9-196.4h-85l116.5-196.2L60.6,391.8H342l30.9-52.2h87.5L625.4,66.2L654.5,342c44.1,6,81.6,23.3,107.8,49.8h356.1
		L1042.7,434.3z M304.3,708.4l73.8-22.3l-13.3,4L255.4,791.3L304.3,708.4z M585.9,681.3l57.4,110.1L514,686.1l-0.8-0.6
		c16.6-0.9,32.4-2.8,47.2-5.7C560.6,679.9,571.5,680.9,585.9,681.3z M625.3,502.4l57.1-26.4c16.1,132.7-126.5,169.3-182.8,169.3
		s-182.8,0-182.8,0l82.3-38.1l2.8-3.8h98.7c0,0,82.5,2.1,111.8-50.4C623.9,530.2,628,513.9,625.3,502.4z M735,448.2L682.5,476
		c-26.6-36.5-47.5-38.3-79-38.3c-31.4,0-162.9,0-162.9,0L316.9,645.3l-84.1,40.9l90.7-152.8l0,0l25.9-43.6L219,448.2h155.1
		l30.9-52.2h87.3l94.6-156.8l-36,156.8h52.6h15.1C675.3,396,716.3,416.1,735,448.2z M735,448.1h159.9L755.2,484
		c-6.2-12.4-12.5-18.3-12.6-18.4C740.8,459.5,738.2,453.7,735,448.1L735,448.1z"/>
	<path class="st1" d="M762.2,391.8C736,365.2,698.5,348,654.4,342L625.3,66.2L460.5,339.6H373L342,391.8H60.6l189.6,154.6
		L133.7,742.5h85L102.8,938.9l359.9-196.4h26.8c1.5,0,3,0,4.5,0l217.6,177.3l-21.4-235.7c33.1-24.6,61.6-57.5,84.8-98
		c2-3.5,4-7.1,5.8-10.6l141-77.6l121-63.5l75.5-42.5L762.2,391.8L762.2,391.8z M911.3,477.8l-147.6,81.3c-2.5,5.2-5.2,10.5-8.2,15.7
		c-24.2,42.1-53.6,74.7-88.9,98.3l17.8,195.3L501.9,719.8c-4.2,0.1-8.3,0.2-12.3,0.2H457L163.9,879.9L258.3,720h-84.9l106.2-178.8
		L124,414.3h230.9l30.9-52.2h87.4L610,135.4l24,227.3c51,3.1,92.6,21.3,118.4,51.7h279.9L911.3,477.8z"/>
	<path class="st2" d="M752.3,414.3c-25.7-30.4-67.4-48.7-118.4-51.7l-24-227.3L473.2,362.2h-87.4l-30.9,52.2H124l155.6,126.8
		L173.4,720h84.9l-94.4,159.9l293-159.9h32.6c4,0,8.1-0.1,12.3-0.2l182.5,148.6L666.5,673c35.3-23.5,64.7-56.1,88.9-98.3
		c3-5.3,5.8-10.5,8.2-15.7l147.6-81.3l121-63.5H752.3V414.3z M765.8,519.3c-5.1-36.8-23.3-53.6-23.3-53.6l0,0
		c7.8,26.1,3.3,57.9-16.5,92.3c-39.6,69-92.6,107.5-165.4,121.7l-0.3,0.2c0,0,45.3,4.3,72.5-1.5l10.3,113L514,686.1l-0.9-0.7
		c-7.7,0.4-15.6,0.7-23.7,0.7c-13.3,0-27.2,0-41.2,0L255.4,791.4l49-83l73.8-22.3c-21.4,0-42,0-60.6,0c-49.3,0-84.7,0-84.7,0
		l90.7-152.7l0,0L219,448.1h155.1l30.9-52.2h87.3l94.6-156.8L603.5,396h15.1c56.6,0,97.7,20.1,116.4,52.2l0,0H895L765.8,519.3z
		 M612.6,553c-29.3,52.4-111.8,50.4-111.8,50.4H402l60.9-102.5L432.2,476h45.4h69.2C616.8,476,645.4,487.3,612.6,553z"/>
	<path class="st3" d="M399.2,607.1l-82.3,38.1l123.7-207.6c0,0,131.4,0,162.9,0c31.4,0,52.4,1.9,79,38.3l-57.1,26.4
		c-4.9-21.6-32.9-26.4-78.5-26.4h-69.2h-45.4l30.7,24.9l-60.9,102.5L399.2,607.1z M682.5,476C698.6,608.6,556,645.3,499.7,645.3
		s-182.8,0-182.8,0l-84.1,40.9c0,0,67.4,0,145.4,0l-13.3,4L255.4,791.4l192.9-105.2c14,0,27.9,0,41.2,0
		c110.9,0,185-38.3,236.6-128.1c24.4-42.5,25.7-81,8.9-109.8L682.5,476z M586.9,239.2l-36,156.8h52.6L586.9,239.2z M349.4,489.7
		L219,448.2l104.5,85.2L349.4,489.7z M585.9,681.3l57.4,110.1l-10.3-113C619.2,681.3,600.7,681.7,585.9,681.3z M755.2,484.1
		c4.3,8.6,8.6,20.2,10.6,35.3l129.1-71.1L755.2,484.1z"/>
</g>
</svg>
