<?xml version="1.0" encoding="utf-8"?>
<!-- Generator: Adobe Illustrator 25.0.0, SVG Export Plug-In . SVG Version: 6.00 Build 0)  -->
<svg version="1.1" id="Layer_1" xmlns="http://www.w3.org/2000/svg" xmlns:xlink="http://www.w3.org/1999/xlink" x="0px" y="0px"
	 viewBox="0 0 1172 771.9" style="enable-background:new 0 0 1172 771.9;" xml:space="preserve">
<style type="text/css">
	.st0{fill:#FFFFFF;}
	.st1{fill:#DDCBA4;}
	.st2{fill:#154734;}
	.st3{fill:#A6192E;}
	.st4{fill:#EAAA00;}
</style>
<g id="XMLID_1_">
	<path class="st0" d="M1172,174.5l-28.8-8.6c-3.2-1-20.4-6.1-38.4-10.9l8.9-7.1l29.1-23l-36-9.3c-58.2-15-159.8-31.1-270.5-31.1
		c-19.9,0-39.7,0.5-58.9,1.5c-5.2-9.8-14-23.6-27.9-37.4C727.2,26.4,686.6,0,620.7,0C546,0,500.9,30.8,476,56.5
		c-17.5,18.2-27.6,36.7-32.5,47.8c-15.5,3.7-47.8,12.1-89.8,26.6c-53.7,18.5-133.6,51.1-210,100.6l-22.2,14.3l21,16l8.7,6.7
		c-28.1,16.7-78.1,48.8-142.2,99.6L0,375.5L2.9,387c12.5,51.7,61.7,113.9,62.1,114.6l1.7,1.9l2,1.3c17.5,11.9,77.9,44.2,125.8,60.7
		l5,1.7l5.2-1.3c6.1-1.5,15-4.7,21-7.2c4.9,1.5,11.1,3.2,17,4.7c0.8,9.6,3.9,18,7.6,25.1l-10.8,5.9l6.9,15.5
		c1.2,2.5,7.9,16.3,27.8,32.6c25.4,20.9,60.6,36.7,104.5,47.1l4.2,1l4.2-0.8c35.7-7.9,68.8-11.9,98.8-11.9
		c51.1,0,94,11.9,124.3,34.5c21.7,16.2,29.8,32.6,30.5,34l10.3,25.7l19.7-19.9l305-299.6l32.1-31.6l-45.1-0.2h-22l211-224.8
		L1172,174.5z M897.9,439.5l64.6,0.2l-305,299.8c0,0-33.8-79.7-171.6-79.7c-29.3,0-63.4,3.5-102.8,12.5
		c-99.3-23.6-119.6-69.3-119.6-69.3l15-8.2c0,0-21.5-16.5-16.7-45.6c-6.7-0.8-31.5-7.6-36.7-9.6c0,0-16.3,6.9-24.7,8.9
		C155,532.7,96.1,501.4,79.1,489.8c-4.4-5.2-47.6-62.6-58.2-106.8C119.8,304.5,185.1,271,185.1,271l-31.3-23.7
		c144.9-94.2,303.3-127.2,303.3-127.2S488.6,18.5,620.7,18.5c115.6,0,145.5,86.6,145.5,86.6c23.7-1.5,47.3-2.4,70.3-2.4
		c112.7,0,212.8,16.8,265.8,30.5l-38.4,30.5c18.2,3,74,19.7,74,19.7L897.9,439.5z M363.6,254.9c130.1-32.3,210.3-36.2,254.1-37.7
		C525.3,228,435.3,249,365.3,267.8c1,6.9,1.7,13.8,2.2,19.3c-0.8,0.3-16.5-8.7-16.5-8.7l-22.7,20.4c3.5-8.6,7.9-17.8,12.5-26.6
		c-43.4,12.3-76.4,23.2-93,28.9c27.1-14.5,68-31.8,100.8-43.6c6.7-12.1,11.9-20.7,11.9-20.7S361.9,244.8,363.6,254.9L363.6,254.9z"
		/>
	<path class="st1" d="M1138,183.6c0,0-55.9-16.7-74-19.7l38.4-30.5c-63.8-16.5-196-37.5-336.2-28.3c0,0-29.9-86.6-145.5-86.6
		c-131.9,0-163.5,101.6-163.5,101.6s-158.5,33-303.3,127l31.3,23.7c0,0-65.3,33.5-164.2,111.9c10.8,44.4,53.8,101.8,58.2,106.8
		c17,11.6,75.9,42.9,121.3,58.5c8.4-2,24.7-8.9,24.7-8.9c5.2,2.2,29.8,8.7,36.7,9.6c-4.9,29.1,16.7,45.6,16.7,45.6l-15,8.2
		c0,0,20.4,45.8,119.6,69.3c224.6-50,274.4,67.5,274.4,67.5l305-299.6l-64.6-0.2L1138,183.6z M902.8,459L661.4,709.7
		c-88.2-107.7-278.3-58-278.3-58c-11.4-3.2-66.8-19.3-89.7-42.6l20.2-11.4c-15-5.4-23.4-13.8-28.3-20.4c-3.5-4.7-5.4-8.6-5.4-9.8
		c0-0.8,0.5-1.5,2.9-1.5c2.4,0,29.4,10.9,63.3,10.9c62.4,0,79.1-18,79.1-34.3c0-20.2-45.3-20.4-45.3-30.5c0-5.6,17.3-10.6,28.4-13.5
		c17.5-4.4,43.7-8.1,69-8.1v-5.6c0,0-32.5-2.7-81.9-2.7c-78.4,0-95.7,12.6-95.7,22s11.6,12.8,20.4,16.7c2.9,1.3,9.3,4.5,9.3,7.2
		c0,3.2-11.8,4.7-26.9,4.7c-43.1,0-76.4-14.8-78.9-14.8c-2.7,1.7-17.7,8.4-22.4,9.1C155.6,510.1,97.9,480,92.2,475
		c-18.5-25.2-37.9-56.9-48.5-84.8c106.3-81.9,178.7-115.8,178.7-115.8l-33.5-25.7c157.3-90.9,281.8-111.2,281.8-111.2
		s33.8-96.4,138.5-96.4c108.2,0,131.4,87.2,131.4,87.2c123.8-10.1,276.1,21.7,276.1,21.7l-30.1,23.6c44.2,8.6,88.2,24.6,88.2,24.6
		L845.6,458.8L902.8,459z"/>
	<path class="st2" d="M1074.8,198.2c0,0-43.9-15.8-88.2-24.6l30.1-23.6c0,0-152.3-31.8-276.1-21.7c0,0-23.2-87.2-131.4-87.2
		c-104.8,0-138.5,96.4-138.5,96.4S346.2,158,188.9,248.8l33.5,25.7c0,0-72.3,33.6-178.7,115.8c10.4,27.9,29.8,59.6,48.5,84.8
		c5.7,5,63.4,35.2,108.9,52.3c4.9-0.7,19.9-7.4,22.4-9.1c2.7,0,36,14.8,78.9,14.8c15.3,0,26.9-1.5,26.9-4.7c0-2.7-6.4-5.9-9.3-7.2
		c-8.7-3.9-20.4-7.2-20.4-16.7s17.3-22,95.7-22c49.5,0,81.9,2.7,81.9,2.7v5.6c-25.2,0-51.5,3.7-69,8.1c-11.1,2.7-28.4,7.9-28.4,13.5
		c0,10.1,45.3,10.3,45.3,30.5c0,16.5-16.8,34.3-79.1,34.3c-33.6,0-60.9-10.9-63.3-10.9s-2.9,0.8-2.9,1.5c0,1.2,1.9,5,5.4,9.8
		c4.9,6.6,13.3,15,28.3,20.4l-20.2,11.4c22.9,23.4,78.2,39.4,89.7,42.6c0,0,190.1-49.8,278.3,58l241.3-250.5l-57.2-0.3L1074.8,198.2
		z M607.9,76c38.9,0,72.7,21.5,90.3,53.3c-70.3,5.6-146.7,20-192.6,37C511.8,115.4,555.2,76,607.9,76z M821.5,403.5l-37.7,57.9
		L760,411.9h20.9l-30.3-50.6h16.7l-47.1-96.4l-45.8,91.4h21l-33.5,55.4h22.9l-41.6,67.1L619,425.2h17.3l-24.7-44.2h15.3L590,307.2
		l-42.4,73.7h18.5l-29.4,44.4h19.2L528,465.5L499,413.4h14.6l-19-32h12.1L480,327.7l-30.6,52.5h15.1L445,410h13l-14.5,18.5
		l-34.8,6.4l-8.4-18.2h12.5l-27.4-52.8l-32.6,52.7h16l-14.8,20.9l-49-15.8l-63.8,39.2c-55.7,3.5-76.6-2.9-76.6-2.9l19.2-23.4
		l-21.2-31.5c165.7-71,284-92,284-92s-28.4-13.6-75.7-13.6c291.6-78.9,473.1-78.1,473.1-78.1s-84.1-32.3-226-32.3
		c-194.2,0-371,61.7-371,61.7s152.8-94.7,422.3-94.7c202.9,0,340.5,57.7,340.5,57.7l-78.9,97.4l-38-67.5l-71,97.6h23.9l-44.2,64.1
		L821.5,403.5L821.5,403.5z M367.4,287.2c-0.8,0.3-16.5-8.7-16.5-8.7l-22.7,20.4c3.5-8.6,7.9-17.8,12.5-26.6
		c-43.4,12.3-76.4,23.2-93,28.9c27.1-14.5,68-31.8,100.8-43.6c6.7-12.1,11.9-20.7,11.9-20.7s1.3,7.9,2.9,18h0.2
		c130.1-32.3,210.3-36.2,254.1-37.7C525.1,228,435.1,249,365.1,267.8C366.3,274.9,366.9,281.8,367.4,287.2z"/>
	<path class="st3" d="M506.9,193.3C361.2,209,247,248.8,247,248.8s91.7-56.9,258.4-82.4c-0.5,4.2-0.8,8.4-0.8,12.8
		c0,4.9,0.3,9.6,1,14.3C506.1,193.5,506.4,193.5,506.9,193.3z M708.1,155c1.9,7.7,2.9,16,2.9,24.4c0,4.4-0.3,8.6-0.8,12.6
		c85.3,8.9,133.8,27.6,133.8,27.6s-52.8-0.2-147,11.9c-17.8,30.5-51.1,51-89,51c-25.7,0-49.3-9.4-67.3-25.1
		c-51.1,10.3-107.8,23.4-169.6,40c47.3,0,75.7,13.6,75.7,13.6s-118.4,21-284,92l21.2,31.5L164.7,458c0,0,20.9,6.6,76.6,2.9
		l63.8-39.2l49,15.8l14.8-20.9h-16l32.6-52.7l27.6,52.7h-12.6l8.4,18.2l34.8-6.4l14.5-18.5h-13l19.5-29.8h-15.1l30.8-52.5l26.8,53.7
		h-12.5l18.8,31.8h-14.6l28.9,52.2l27.9-40.2h-19l29.3-44.2h-18.5l42.4-73.7l36.8,73.7h-15.3l24.7,44.2h-17.3l24.2,53.5l41.6-67.1
		h-22.9l33.5-55.4h-21l45.8-91.4l47.1,96.4h-16.7l30.3,50.6h-20.9l23.9,49.5l37.7-57.9h-20.2l44.2-64.1h-23.9l71-97.6l38,67.5
		l78.9-97.4C1009.6,212,889.5,161.5,708.1,155z"/>
	<path class="st4" d="M540.4,257.4c60.2-12.1,112.7-20.4,156.3-26.1c-17.8,30.5-51.1,51-89,51C582.1,282.3,558.6,272.9,540.4,257.4z
		 M708.1,155c-12.6-0.5-25.6-0.7-38.9-0.7c-60.6,0-115.4,4.7-163.7,12.3c45.9-17,122.3-31.5,192.6-37
		c-17.5-31.8-51.5-53.3-90.3-53.3c-52.7,0-96.1,39.4-102.3,90.3l0,0c-0.5,4.2-0.8,8.4-0.8,12.8c0,4.9,0.3,9.6,1,14.3
		c36-3.9,73.9-6.4,112.4-6.4c34.2,0,64.9,1.9,92.2,4.7c0.5-4.2,0.8-8.4,0.8-12.6C711,170.8,710,162.7,708.1,155z"/>
</g>
</svg>
